<svg height="511pt" viewBox="0 1 511 511.99876" width="511pt" xmlns="http://www.w3.org/2000/svg"><path d="m417.863281 214.46875c27.28125-12.773438 27.28125-51.507812 0-64.285156l-.164062-.082032c6.429687-7.003906 9.394531-15.496093 9.394531-23.734374 0-17.722657-13.433594-34.699219-34.039062-35.605469l.082031-.164063c10.304687-28.269531-17.140625-55.714844-45.410157-45.414062l-.164062.082031v-.082031c-.824219-20.519532-17.804688-33.953125-35.605469-33.953125-8.242187 0-16.648437 2.882812-23.738281 9.394531l-.078125-.164062c-12.777344-27.28125-51.511719-27.28125-64.289063 0l-.082031.164062c-7.003906-6.429688-15.492187-9.394531-23.734375-9.394531-17.71875 0-34.699218 13.433593-35.605468 34.035156l-.164063-.082031c-28.269531-10.300782-55.714844 17.144531-45.414063 45.414062l.085938.164063h-.085938c-20.519531.824219-33.953124 17.800781-33.953124 35.605469 0 8.238281 2.882812 16.648437 9.394531 23.734374l-.164063.082032c-27.28125 12.777344-27.28125 51.511718 0 64.285156l.164063.085938c-6.429688 7.003906-9.394531 15.492187-9.394531 23.734374 0 17.71875 13.433593 34.699219 34.039062 35.605469l-.085938.164063c-10.300781 28.269531 17.144532 55.714844 45.414063 45.414062l.164063-.085937v.085937c.742187 17.800782 13.597656 30.246094 28.597656 33.210938l-27.359375-88.925782c-3.546875-.90625-6.925781-2.308593-9.890625-4.289062-9.148438-5.765625-15.167969-15.988281-15.167969-27.691406v-16.484375h-16.480469v-32.964844h16.480469c0-4.535156 1.8125-8.65625 4.863281-11.621094 2.96875-3.050781 7.089844-4.863281 11.621094-4.863281h65.933594c9.066406 0 16.484375 7.417969 16.484375 16.484375h32.96875c0-4.535156 1.8125-8.65625 4.863281-11.621094 2.964844-3.050781 7.085938-4.863281 11.617188-4.863281h65.9375c9.0625 0 16.480468 7.417969 16.480468 16.484375h16.484375v32.964844h-16.484375v16.484375c0 11.703125-6.015625 21.925781-15.164062 27.691406-2.964844 1.980469-6.34375 3.378906-9.890625 4.289062l-27.363281 88.925782c14.917968-2.964844 27.777343-15.410156 28.601562-33.296875l.164062.085937c28.269532 10.300782 55.714844-17.144531 45.410157-45.414062l-.082031-.164063h.082031c20.523437-.824219 33.957031-17.800781 33.957031-35.605469 0-8.242187-2.882812-16.648437-9.394531-23.734374zm0 0" fill="#423530"/><path d="m387.863281 182.328125v32.96875h-16.484375v16.480469c0 11.703125-6.015625 21.925781-15.164062 27.695312-2.96875 1.976563-6.347656 3.378906-9.890625 4.285156-2.554688.660157-5.191407.988282-7.914063.988282h-16.480468c-27.28125 0-49.453126-22.167969-49.453126-49.449219h-32.964843c0 13.679687-5.523438 26.042969-14.507813 34.945313-8.898437 8.980468-21.261718 14.503906-34.945312 14.503906h-16.480469c-2.722656 0-5.359375-.328125-7.914063-.988282-3.542968-.90625-6.921874-2.308593-9.890624-4.285156-9.148438-5.769531-15.164063-15.992187-15.164063-27.695312v-16.480469h-16.484375v-32.96875h16.484375c0-4.53125 1.8125-8.652344 4.863281-11.621094 2.96875-3.050781 7.089844-4.863281 11.621094-4.863281h65.933594c9.066406 0 16.484375 7.417969 16.484375 16.484375h32.96875c0-4.53125 1.8125-8.652344 4.863281-11.621094 2.964844-3.050781 7.085938-4.863281 11.617188-4.863281h65.9375c9.0625 0 16.480468 7.417969 16.480468 16.484375zm0 0" fill="#ff0"/><path d="m346.324219 263.757812-27.363281 88.925782-13.515626 68.65625h-98.898437l-13.519531-68.65625-27.359375-88.925782c2.554687.65625 5.191406.988282 7.910156.988282h16.484375c13.679688 0 26.042969-5.523438 34.945312-14.503906 8.984376-8.902344 14.503907-21.265626 14.503907-34.945313h32.96875c0 27.277344 22.167969 49.449219 49.449219 49.449219h16.484374c2.71875 0 5.355469-.332032 7.910157-.988282zm0 0" fill="#754c24"/><path d="m321.929688 83.425781c27.3125 0 49.449218 22.140625 49.449218 49.449219v49.453125c0-9.066406-7.417968-16.484375-16.484375-16.484375h-65.933593c-4.53125 0-8.652344 1.8125-11.621094 4.863281-3.046875 2.964844-4.863282 7.085938-4.863282 11.621094h-32.964843c0-9.066406-7.417969-16.484375-16.484375-16.484375h-65.933594c-4.535156 0-8.65625 1.8125-11.621094 4.863281-3.050781 2.964844-4.863281 7.085938-4.863281 11.621094v-49.453125c0-27.308594 22.140625-49.449219 49.449219-49.449219zm0 0" fill="#754c24"/><path d="m.5 512h65.933594v-115.386719c-36.414063 0-65.933594 29.519531-65.933594 65.933594zm0 0" fill="#6dc82a"/><path d="m511.492188 512h-65.9375v-115.386719c36.417968 0 65.9375 29.519531 65.9375 65.933594zm0 0" fill="#6dc82a"/><path d="m371.378906 132.875v49.453125c0-9.066406-7.417968-16.484375-16.484375-16.484375h-65.933593c-4.53125 0-8.652344 1.8125-11.621094 4.863281-3.046875 2.964844-4.863282 7.085938-4.863282 11.621094h-32.964843c0-9.066406-7.417969-16.484375-16.484375-16.484375h-65.933594c-4.535156 0-8.65625 1.8125-11.621094 4.863281-3.050781 2.964844-4.863281 7.085938-4.863281 11.621094v-49.453125zm0 0" fill="#ff0c38"/><path d="m255.996094 289.472656c-13.636719 0-24.726563-11.09375-24.726563-24.726562v-8.242188h16.484375v8.242188c0 4.542968 3.695313 8.242187 8.242188 8.242187s8.242187-3.699219 8.242187-8.242187v-49.449219h16.484375v49.449219c-.003906 13.632812-11.09375 24.726562-24.726562 24.726562zm0 0" fill="#9e7452"/><path d="m155.773438 259.46875c-4.203126 3.296875-9.476563 5.277344-15.164063 5.277344-13.679687 0-24.726563-11.042969-24.726563-24.726563 0-13.679687 11.046876-24.726562 24.726563-24.726562v16.484375c0 11.703125 6.015625 21.925781 15.164063 27.691406zm0 0" fill="#9e7452"/><path d="m396.105469 240.019531c0 13.683594-11.042969 24.726563-24.726563 24.726563-5.6875 0-10.960937-1.980469-15.164062-5.277344 9.148437-5.765625 15.164062-15.988281 15.164062-27.691406v-16.484375c13.683594 0 24.726563 11.046875 24.726563 24.726562zm0 0" fill="#9e7452"/><path d="m445.554688 512h-379.121094v-115.386719l140.109375 24.726563h98.902343l140.109376-24.726563zm0 0" fill="#ff0c38"/><path d="m214.785156 347.164062h82.417969c0 18.207032-14.757813 32.964844-32.96875 32.964844h-16.480469c-18.207031 0-32.96875-14.757812-32.96875-32.964844zm0 0" fill="#ba977d"/><path d="m255.996094 314.195312c18.207031 0 32.964844 14.761719 32.964844 32.96875h-65.933594c0-18.207031 14.761718-32.96875 32.96875-32.96875zm0 0" fill="#9e7452"/><path d="m330.171875 297.714844c0 9.101562-7.378906 16.480468-16.484375 16.480468s-16.484375-7.378906-16.484375-16.480468c0-9.105469 7.378906-16.484375 16.484375-16.484375s16.484375 7.378906 16.484375 16.484375zm0 0" fill="#ff0c38"/><path d="m214.785156 297.714844c0 9.101562-7.378906 16.480468-16.484375 16.480468-9.101562 0-16.480469-7.378906-16.480469-16.480468 0-9.105469 7.378907-16.484375 16.480469-16.484375 9.105469 0 16.484375 7.378906 16.484375 16.484375zm0 0" fill="#ff0c38"/><g fill="#fff"><path d="m181.820312 248.261719h-8.242187v-16.484375h8.242187c9.085938 0 16.480469-7.390625 16.480469-16.484375h16.484375c0 18.179687-14.785156 32.96875-32.964844 32.96875zm0 0"/><path d="m198.300781 182.328125h16.484375v16.484375h-16.484375zm0 0"/><path d="m321.929688 248.261719h-8.242188v-16.484375h8.242188c9.085937 0 16.484374-7.390625 16.484374-16.484375h16.484376c0 18.179687-14.789063 32.96875-32.96875 32.96875zm0 0"/><path d="m338.414062 182.328125h16.484376v16.484375h-16.484376zm0 0"/></g><path d="m445.554688 396.613281-173.074219 115.386719h173.074219zm0 0" fill="#b2062b"/><path d="m206.542969 421.339844h-140.109375v-24.726563zm0 0" fill="#b2062b"/><path d="m181.820312 132.875h-16.484374c0-18.175781 14.785156-32.964844 32.964843-32.964844v16.484375c-9.085937 0-16.480469 7.390625-16.480469 16.480469zm0 0" fill="#fff"/><path d="m214.785156 99.910156h16.484375v16.484375h-16.484375zm0 0" fill="#fff"/><path d="m288.960938 363.648438c0 4.550781-3.6875 8.242187-8.242188 8.242187-4.550781 0-8.242188-3.691406-8.242188-8.242187 0-4.554688 3.691407-8.242188 8.242188-8.242188 4.554688 0 8.242188 3.6875 8.242188 8.242188zm0 0" fill="#fff"/></svg>