<svg height="511pt" viewBox="0 0 511 511.99953" width="511pt" xmlns="http://www.w3.org/2000/svg"><path d="m456.992188 177.96875-.246094-.082031c6.75-9.46875 9.796875-19.929688 9.796875-30.222657 0-26.191406-20.011719-50.8125-49.578125-52.378906v-.164062c7.082031-40.683594-33.515625-73.046875-71.566406-57.152344l-.164063.082031v-.082031c-11.28125-39.695312-62.011719-51.226562-89.355469-20.34375l-.082031.082031-.082031-.082031c-27.339844-30.882812-77.988282-19.351562-89.355469 20.34375v.082031l-.164063-.082031c-38.046874-15.894531-78.648437 16.46875-71.566406 57.152344v.164062c-29.5625 1.566406-49.574218 26.1875-49.574218 52.378906 0 10.210938 3.046874 20.667969 9.796874 30.140626l-.246093.164062c-36.070313 19.847656-36.070313 71.730469 0 91.578125l.246093.082031c-6.75 9.472656-9.796874 19.929688-9.796874 30.226563 0 26.1875 20.011718 50.8125 49.574218 52.375v.167969c-7.082031 40.683593 33.519532 73.046874 71.566406 57.152343l.167969-.082031v.082031c2.222657 7.824219 6.011719 14.578125 10.871094 20.09375h53.859375c-26.765625 0-48.589844-21.328125-49.332031-47.847656-.082031 0-.082031 0-.164063.082031-.742187.25-1.484375.496094-2.222656.660156-.660156.164063-1.320312.328126-1.976562.410157-.824219.25-1.648438.414062-2.472657.496093-1.070312.246094-2.058593.328126-3.128906.410157-25.695313 2.140625-48.753906-20.753907-43.894531-48.507813v-.082031c-23.472656-1.234375-39.363282-20.835937-39.363282-41.589844 0-8.152343 2.386719-16.46875 7.738282-23.964843l-.164063-.082032c-28.660156-15.730468-28.660156-56.988281 0-72.71875l.164063-.082031c-5.351563-7.574219-7.738282-15.894531-7.738282-23.964844 0-20.753906 15.890626-40.355469 39.363282-41.589843v-.082032c-5.683594-32.363281 26.601562-57.976562 56.742187-45.375l.164063.082032v-.082032c8.976562-31.542968 49.25-40.683594 70.910156-16.144531h.164062c21.660157-24.539063 61.929688-15.398437 70.90625 16.144531v.082032l.164063-.082032c30.140625-12.601562 62.425781 13.007813 56.742187 45.375v.082032c23.472657 1.234374 39.367188 20.835937 39.367188 41.589843 0 8.152344-2.390625 16.46875-7.742188 23.964844l.164063.082031c28.660156 15.730469 28.660156 56.988282 0 72.71875l-.164063.082032c5.351563 7.578124 7.742188 15.894531 7.742188 23.964843 0 20.753907-15.894531 40.355469-39.367188 41.589844v.082031c4.859376 27.753906-18.199218 50.648438-43.894531 48.507813-1.070312-.082031-2.058593-.164063-3.128906-.410157-.824219-.085937-1.648437-.25-2.46875-.496093-.660156-.082031-1.320313-.246094-1.976563-.410157-.742187-.164062-1.484374-.414062-2.226562-.660156-.082031-.082031-.082031-.082031-.164062-.082031-.328126 13.09375-5.765626 24.789063-14.410157 33.355469-8.894531 8.976562-21.25 14.492187-34.917969 14.492187h53.859376c4.859374-5.515625 8.648437-12.269531 10.871093-20.09375v-.082031l.164063.082031c38.046875 15.894531 78.648437-16.472656 71.566406-57.15625v-.164062c29.566406-1.566407 49.578125-26.1875 49.578125-52.378907 0-10.210937-3.046875-20.667968-9.800781-30.140624l.246094-.164063c36.070312-19.847656 36.070312-71.730469 0-91.578125zm0 0" fill="#684a29"/><path d="m415.484375 196.910156-.164063-.082031c5.351563-7.492187 7.742188-15.8125 7.742188-23.964844 0-20.753906-15.894531-40.355469-39.367188-41.589843v-.082032c5.683594-32.363281-26.601562-57.976562-56.742187-45.375l-.164063.082032v-.082032c-8.976562-31.542968-49.25-40.683594-70.90625-16.144531h-.167968c-21.65625-24.539063-61.929688-15.398437-70.90625 16.144531v.082032l-.164063-.082032c-30.140625-12.601562-62.425781 13.011719-56.742187 45.375v.082032c-23.472656 1.234374-39.367188 20.835937-39.367188 41.589843 0 8.070313 2.390625 16.390625 7.742188 23.964844l-.164063.082031c-28.660156 15.730469-28.660156 56.988282 0 72.71875l.164063.082032c-5.351563 7.496093-7.742188 15.8125-7.742188 23.964843 0 20.753907 15.894532 40.355469 39.367188 41.589844v.082031c-4.859375 27.753906 18.199218 50.648438 43.894531 48.507813 1.070313-.082031 2.058594-.164063 3.128906-.410157.824219-.082031 1.648438-.25 2.46875-.496093.660157-.082031 1.320313-.246094 1.976563-.410157.742187-.246093 1.484375-.410156 2.226562-.660156.082032-.082031.082032-.082031.164063-.082031.742187 26.519531 22.5625 47.847656 49.332031 47.847656h49.410156c13.671875 0 26.023438-5.515625 34.917969-14.492187 8.648437-8.566406 14.082031-20.261719 14.414063-33.355469.082031 0 .082031 0 .164062.082031.738281.25 1.480469.414063 2.222656.660156.660156.164063 1.316406.328126 1.976563.410157.824219.25 1.648437.414062 2.46875.496093 1.074219.246094 2.058593.328126 3.132812.410157 25.691407 2.140625 48.753907-20.753907 43.894531-48.507813v-.082031c23.46875-1.234375 39.363282-20.835937 39.363282-41.589844 0-8.070312-2.386719-16.386719-7.742188-23.964843l.167969-.082032c28.660156-15.730468 28.660156-56.988281 0-72.71875zm-60.859375 142.144532c0 2.882812-.496094 5.683593-1.484375 8.234374-3.292969 9.636719-12.433594 16.472657-23.222656 16.472657-2.882813 0-5.683594-.496094-8.234375-1.484375-.496094-.164063-1.074219-.410156-1.566406-.65625-5.273438 7.246094-11.777344 13.585937-19.1875 18.609375-1.320313.90625-2.636719 1.730469-3.953126 2.554687-6.671874 4.035156-14 7.164063-21.824218 9.058594-6.34375 1.566406-12.847656 2.386719-19.355469 2.386719-6.503906 0-13.011719-.820313-19.351563-2.386719-7.824218-1.894531-15.152343-5.023438-21.824218-9.058594-1.316406-.824218-2.632813-1.648437-3.953125-2.554687-4.035157-2.800781-7.824219-5.847657-11.363281-9.386719-2.882813-2.882812-5.4375-5.929688-7.824219-9.140625-2.964844 1.316406-6.339844 2.058594-9.800781 2.058594-2.878907 0-5.683594-.496094-8.234376-1.484375-9.636718-3.292969-16.472656-12.433594-16.472656-23.222656 0-10.953126 7.082032-20.179688 16.882813-23.390626l-16.882813-67.941406c3.046875-.660156 6.175782-1.648437 9.226563-2.882812l.164062-.082032v.082032c11.28125 39.695312 62.011719 51.226562 89.355469 20.34375l.082031-.085938.082031.085938c27.34375 30.882812 77.992188 19.351562 89.355469-20.34375v-.082032l.164063.082032c3.046875 1.234375 6.175781 2.222656 9.226562 2.882812l-16.882812 67.941406c9.796875 3.214844 16.878906 12.4375 16.878906 23.390626zm0 0" fill="#806749"/><path d="m206.386719 339.054688c0 2.882812-.496094 5.683593-1.484375 8.234374-2.222656 6.507813-7.082032 11.777344-13.421875 14.414063-2.964844 1.316406-6.34375 2.058594-9.800781 2.058594-2.882813 0-5.683594-.496094-8.234376-1.484375-9.636718-3.292969-16.472656-12.433594-16.472656-23.222656 0-10.953126 7.082032-20.179688 16.882813-23.390626 2.46875-.90625 5.105469-1.316406 7.824219-1.316406 13.671874 0 24.707031 11.035156 24.707031 24.707032zm0 0" fill="#ff0c38"/><path d="m354.625 339.054688c0 2.882812-.496094 5.683593-1.484375 8.234374-3.292969 9.636719-12.433594 16.472657-23.222656 16.472657-2.882813 0-5.683594-.496094-8.234375-1.484375-.496094-.164063-1.074219-.410156-1.566406-.65625-8.8125-3.625-14.90625-12.355469-14.90625-22.566406 0-13.671876 11.035156-24.707032 24.707031-24.707032 2.71875 0 5.351562.414063 7.824219 1.316406 9.800781 3.214844 16.882812 12.4375 16.882812 23.390626zm0 0" fill="#ff0c38"/><path d="m354.625 247.722656-16.882812 67.941406c-2.472657-.902343-5.105469-1.316406-7.824219-1.316406-13.671875 0-24.707031 11.035156-24.707031 24.707032 0 10.210937 6.09375 18.941406 14.90625 22.566406-6.175782 8.480468-14.082032 15.726562-23.140626 21.164062-6.671874 4.035156-14 7.164063-21.824218 9.058594-6.34375 1.566406-12.847656 2.390625-19.355469 2.390625-6.503906 0-13.011719-.824219-19.351563-2.390625-7.824218-1.894531-15.152343-5.023438-21.824218-9.058594-5.597656-3.375-10.703125-7.328125-15.316406-11.941406-2.882813-2.882812-5.4375-5.929688-7.824219-9.140625 6.339843-2.636719 11.199219-7.90625 13.425781-14.414063.988281-2.550781 1.480469-5.351562 1.480469-8.234374 0-13.671876-11.035157-24.707032-24.707031-24.707032-2.714844 0-5.351563.414063-7.824219 1.316406l-16.882813-67.941406c3.046875-.660156 6.175782-1.644531 9.226563-2.882812l.164062-.082032v.082032c11.28125 39.695312 62.011719 51.226562 89.355469 20.34375l.082031-.082032.082031.082032c27.34375 30.882812 77.992188 19.351562 89.355469-20.34375v-.082032l.164063.082032c3.046875 1.238281 6.175781 2.226562 9.222656 2.882812zm0 0" fill="#f0beb4"/><path d="m296.976562 382.785156v46.859375h-82.355468v-46.859375c6.671875 4.035156 14 7.164063 21.824218 9.058594 6.34375 1.566406 12.847657 2.390625 19.351563 2.390625 6.507813 0 13.015625-.824219 19.355469-2.390625 7.824218-1.894531 15.152344-5.023438 21.824218-9.058594zm0 0" fill="#f0beb4"/><path d="m428.742188 512v-16.472656c0-9.09375-7.375-16.46875-16.46875-16.46875-9.097657 0-16.472657 7.375-16.472657 16.46875v16.472656h-280.003906v-16.472656c0-9.09375-7.375-16.46875-16.472656-16.46875-9.09375 0-16.46875 7.375-16.46875 16.46875v16.472656h-82.355469l10.722656-42.898438c8.21875-32.871093 37.75-55.925781 71.632813-55.925781l32.941406 16.46875h280.003906l32.945313-16.46875c33.878906 0 63.410156 23.054688 71.628906 55.925781l10.722656 42.898438zm0 0" fill="#ffd422"/><path d="m115.796875 429.644531s24.707031 49.414063 140.003906 49.414063 140.003907-49.414063 140.003907-49.414063zm0 0" fill="#f0beb4"/><path d="m214.621094 297.878906h16.472656v16.46875h-16.472656zm0 0" fill="#693b00"/><path d="m280.503906 297.878906h16.472656v16.46875h-16.472656zm0 0" fill="#693b00"/><path d="m255.796875 365.738281c-11.054687 0-22.109375-4.210937-30.527344-12.625l11.644531-11.644531c10.417969 10.40625 27.355469 10.40625 37.769532 0l11.644531 11.644531c-8.417969 8.414063-19.476563 12.625-30.53125 12.625zm0 0" fill="#ff0c38"/><path d="m156.972656 248.464844h8.234375s24.707031-41.175782 90.589844-41.175782c65.886719 0 90.59375 41.175782 90.59375 41.175782h8.234375s16.46875-107.0625-98.828125-107.0625c-115.292969 0-98.824219 107.0625-98.824219 107.0625zm0 0" fill="#ff0c38"/><g fill="#fff"><path d="m132.265625 149.640625h-16.46875v-8.238281c0-27.246094 22.164063-49.410156 49.410156-49.410156h.6875c3.933594-23.339844 24.285157-41.179688 48.726563-41.179688h8.234375v16.472656h-8.234375c-18.164063 0-32.941406 14.777344-32.941406 32.941406v8.234376h-16.472657c-18.164062 0-32.941406 14.78125-32.941406 32.945312zm0 0"/><path d="m239.328125 50.8125h16.46875v16.472656h-16.46875zm0 0"/><path d="m354.625 231.992188h-16.472656v-8.234376c0-22.703124-18.472656-41.175781-41.175782-41.175781v-16.472656c31.785157 0 57.648438 25.859375 57.648438 57.648437zm0 0"/><path d="m264.035156 166.109375h16.46875v16.472656h-16.46875zm0 0"/></g></svg>