<svg height="512pt" viewBox="0 0 512 512" width="512pt" xmlns="http://www.w3.org/2000/svg"><path d="m134.734375 206.453125c-6.386719 0-11.949219-4.347656-13.5-10.539063l-12.125-34.941406c-4.304687-12.398437 6.875-24.621094 19.605469-21.4375l3.414062.851563c9.121094 0 16.515625 7.394531 16.515625 16.515625v35.636718c0 7.683594-6.226562 13.914063-13.910156 13.914063zm0 0" fill="#af8956"/><path d="m377.265625 206.453125c6.382813 0 11.949219-4.347656 13.496094-10.539063l12.128906-34.941406c4.304687-12.398437-6.875-24.621094-19.609375-21.4375l-3.410156.851563c-9.121094 0-16.515625 7.394531-16.515625 16.515625v35.636718c0 7.683594 6.226562 13.914063 13.910156 13.914063zm0 0" fill="#af8956"/><path d="m293.027344 56.472656 37.292968 42.625 24.777344 173.417969 2.933594.980469c.003906-.695313 0-1.363282.121094-2.136719l13.460937-114.457031-1.617187-11.027344-56.191406-96.324219c-6.769532 2.898438-13.742188 5.085938-20.777344 6.921875zm0 0" fill="#927444"/><path d="m362.28125 282.179688-4.375-5.863282c0-.660156 0-1.324218.082031-1.984375-.023437-.277343.042969-.566406.046875-.835937l-2.9375-.980469-24.773437-173.417969-37.296875-42.625c-31.335938 8.179688-64.691406 5.992188-94.832032-6.925781l-56.191406 96.328125-1.617187 11.027344 13.460937 114.457031c.167969 1.320313.25 2.558594.25 3.796875 0 2.5625-.332031 5.039062-.910156 7.433594v.082031c-.328125 1.40625-.742188 2.726563-1.238281 3.964844-1.238281 3.21875-2.972657 6.191406-5.121094 8.835937-2.890625 6.359375-4.375 13.210938-4.375 20.148438 0 9.332031 2.640625 18.664062 8.089844 26.839844.332031.578124.746093 1.074218 1.074219 1.570312 9.25 12.882812 22.378906 26.589844 40.546874 36.664062 1.238282.746094 2.644532 1.488282 3.964844 2.148438.414063.246094.824219.414062 1.320313.660156 1.816406.910156 3.714843 1.734375 5.617187 2.558594.660156.332031 1.238282.578125 1.898438.746094 1.570312.742187 3.136718 1.320312 4.789062 1.898437.742188.328125 1.570313.578125 2.394532.824219 1.984374.746094 4.128906 1.320312 6.277343 1.898438.414063.167968.824219.332031 1.320313.414062 2.230468.578125 4.460937 1.074219 6.773437 1.570312.578125.164063 1.074219.246094 1.648438.332032 2.644531.578125 5.453125.988281 8.261719 1.402344h.246093c3.054688.414062 6.109375.742187 9.332031.910156 3.21875.246094 6.605469.328125 9.992188.328125 3.054688 0 5.945312-.082031 8.835938-.246094h.414062c2.226562-.164063 4.457031-.332031 6.605469-.578125h.082031c1.15625-.082031 2.3125-.25 3.46875-.414062 2.144531-.246094 4.210938-.578126 6.273438-.910157 2.726562-.492187 5.453124-1.070312 8.09375-1.730469 1.902343-.496093 3.714843-.992187 5.535156-1.488281.660156-.246093 1.402344-.414062 2.0625-.660156 2.3125-.742187 4.625-1.488281 6.855468-2.394531 2.3125-.828125 4.542969-1.734375 6.6875-2.726563 2.148438-.910156 4.210938-1.980469 6.195313-3.054687h.164063c1.816406-.992188 3.46875-1.898438 5.121093-2.890625.246094-.164063.492188-.246094.660157-.414063 1.402343-.824218 2.808593-1.730468 4.046874-2.558594 1.320313-.824218 2.558594-1.652343 3.714844-2.558593 9.167969-6.523438 16.765625-13.875 23.039063-21.304688 1.15625-1.324219 2.230469-2.726562 3.222656-4.046875 1.074219-1.320312 1.980469-2.558594 2.890625-3.800781 1.484375-2.0625 2.886719-4.128906 4.210938-6.109375.082031-.167969.164062-.25.246093-.414062 7.183594-11.3125 9.332031-24.691407 6.441407-37.242188-1.402344-6.609375-4.292969-13.050781-8.585938-18.664062zm0 0" fill="#c29a5b"/><g fill="#6a4d05"><path d="m148.644531 99.097656.261719-.347656 2.464844-16.832031c8.175781-43.601563 44.261718-76.46875 88.441406-80.433594l16.1875-1.484375-17.148438 1.558594c-43.707031 3.972656-79.59375 36.21875-88.203124 79.253906l-10.261719 76.089844 1.613281-11.027344 6.90625-47.125zm0 0"/><path d="m360.628906 81.917969 9.367188 63.957031 1.617187 11.027344-10.265625-76.089844c-8.605468-43.035156-44.492187-75.28125-88.199218-79.253906l-17.148438-1.558594 16.1875 1.488281c44.179688 3.960938 80.265625 36.828125 88.441406 80.429688zm0 0"/><path d="m293.027344 56.472656-20.511719-23.441406h-74.320313l-49.289062 65.71875-8.519531 58.152344 57.804687-107.355469c30.144532 12.917969 63.5 15.105469 94.835938 6.925781zm0 0"/></g><path d="m151.371094 81.917969-2.464844 16.832031 49.289062-65.71875h74.320313l20.511719 23.441406c7.039062-1.839844 14.007812-4.023437 20.777344-6.925781l57.808593 107.355469-10.984375-74.984375c-8.175781-43.601563-44.261718-76.46875-88.441406-80.433594l-16.1875-1.484375-16.1875 1.488281c-44.179688 3.960938-80.265625 36.828125-88.441406 80.429688zm0 0" fill="#3a2a03"/><path d="m503.90625 370.375-8.421875 59.042969h-74.324219v82.582031h-330.320312v-82.582031h-74.324219l-8.421875-59.042969c-4.292969-29.894531 18.910156-56.570312 49.050781-56.570312h33.695313l62.347656-31.132813c-.332031 1.40625-1.410156 5.886719-1.90625 7.125-2.0625 2.808594-8.828125 18.890625-8.828125 25.824219 0 9.332031 2.640625 18.664062 8.089844 26.839844.332031.578124.746093 1.074218 1.074219 1.570312 9.25 12.882812 22.378906 26.589844 40.546874 36.664062 1.238282.746094 2.644532 1.488282 3.964844 2.148438.414063.246094.824219.414062 1.320313.660156 1.816406.910156 3.714843 1.734375 5.617187 2.558594.660156.332031 1.238282.578125 1.898438.746094 1.570312.742187 3.136718 1.320312 4.789062 1.898437.742188.328125 1.570313.578125 2.394532.824219 1.984374.746094 4.128906 1.320312 6.277343 1.898438.414063.167968.824219.332031 1.320313.414062 2.148437.578125 4.460937 1.15625 6.773437 1.570312.578125.164063 1.074219.246094 1.648438.332032 2.644531.578125 5.453125.988281 8.261719 1.402344h.246093c3.054688.414062 6.109375.742187 9.332031.910156 3.21875.246094 6.605469.328125 9.992188.328125 3.054688 0 5.945312-.082031 8.835938-.246094h.414062c2.226562-.164063 4.457031-.332031 6.605469-.578125h.082031c1.15625-.082031 2.3125-.25 3.46875-.414062 2.144531-.246094 4.210938-.578126 6.273438-.910157 2.726562-.492187 5.453124-1.070312 8.09375-1.730469 1.902343-.496093 3.714843-.992187 5.535156-1.488281.660156-.246093 1.402344-.414062 2.0625-.660156 2.394531-.660156 4.625-1.488281 6.855468-2.394531 2.3125-.828125 4.542969-1.734375 6.6875-2.726563 2.148438-.910156 4.210938-1.980469 6.195313-3.054687h.164063c1.816406-.992188 3.46875-1.898438 5.121093-2.890625.246094-.164063.492188-.246094.660157-.414063 1.402343-.824218 2.808593-1.730468 4.046874-2.558594 1.320313-.824218 2.558594-1.652343 3.714844-2.558593 9.167969-6.523438 16.765625-13.875 23.039063-21.304688 1.15625-1.324219 2.230469-2.726562 3.222656-4.046875 1.074219-1.320312 1.980469-2.558594 2.890625-3.800781 1.484375-2.0625 2.886719-4.128906 4.210938-6.109375.082031-.167969.164062-.25.246093-.414062 7.183594-11.3125 9.332031-24.691407 6.441407-37.242188-1.402344-6.609375-4.292969-13.050781-8.585938-18.664062l-4.378906-5.863282c0-.660156 0-1.320312.082031-1.984375l63.175781 39.476563h33.691406c30.144532-.003906 53.347657 26.671875 49.054688 56.566406zm0 0" fill="#00a5b8"/><path d="m90.839844 429.417969h-74.324219l-16.515625 82.582031h90.839844zm0 0" fill="#c29a5b"/><path d="m421.160156 429.417969h74.324219l16.515625 82.582031h-90.839844zm0 0" fill="#c29a5b"/><path d="m82.582031 404.644531h16.515625v24.773438h-16.515625zm0 0" fill="#006f79"/><path d="m412.902344 404.644531h16.515625v24.773438h-16.515625zm0 0" fill="#006f79"/><path d="m280.773438 297.289062h-49.546876c-13.660156 0-24.773437-11.113281-24.773437-24.773437s11.113281-24.773437 24.773437-24.773437h49.546876c13.660156 0 24.773437 11.113281 24.773437 24.773437s-11.113281 24.773437-24.773437 24.773437zm-49.546876-33.03125c-4.558593 0-8.257812 3.707032-8.257812 8.257813 0 4.554687 3.699219 8.257813 8.257812 8.257813h49.546876c4.558593 0 8.257812-3.703126 8.257812-8.257813 0-4.550781-3.699219-8.257813-8.257812-8.257813zm0 0" fill="#664e2f"/><path d="m198.195312 247.742188h-16.519531v-16.515626h15.179688l48.273437-16.09375 5.226563 15.667969-49.546875 16.519531c-.847656.28125-1.726563.421876-2.613282.421876zm0 0" fill="#6a4d05"/><path d="m330.324219 247.742188h-16.519531c-.886719 0-1.765626-.140626-2.609376-.425782l-49.550781-16.515625 5.226563-15.667969 48.277344 16.089844h15.175781zm0 0" fill="#6a4d05"/><path d="m256 231.226562c-9.121094 0-16.515625-7.394531-16.515625-16.515624v-66.066407h33.03125v66.066407c0 9.121093-7.394531 16.515624-16.515625 16.515624zm0 0" fill="#f58021"/><path d="m330.324219 165.160156c0 9.121094-7.394531 16.515625-16.519531 16.515625-9.121094 0-16.515626-7.394531-16.515626-16.515625s7.394532-16.515625 16.515626-16.515625c9.125 0 16.519531 7.394531 16.519531 16.515625zm0 0" fill="#00aeef"/><path d="m313.804688 189.933594c-13.660157 0-24.773438-11.109375-24.773438-24.773438 0-13.660156 11.113281-24.773437 24.773438-24.773437 13.664062 0 24.777343 11.113281 24.777343 24.773437 0 13.664063-11.113281 24.773438-24.777343 24.773438zm0-33.03125c-4.554688 0-8.257813 3.707031-8.257813 8.257812 0 4.554688 3.703125 8.257813 8.257813 8.257813 4.558593 0 8.261718-3.703125 8.261718-8.257813 0-4.550781-3.703125-8.257812-8.261718-8.257812zm0 0" fill="#fff"/><path d="m214.710938 165.160156c0 9.121094-7.394532 16.515625-16.515626 16.515625-9.125 0-16.519531-7.394531-16.519531-16.515625s7.394531-16.515625 16.519531-16.515625c9.121094 0 16.515626 7.394531 16.515626 16.515625zm0 0" fill="#00aeef"/><path d="m198.195312 189.933594c-13.664062 0-24.777343-11.109375-24.777343-24.773438 0-13.660156 11.113281-24.773437 24.777343-24.773437 13.660157 0 24.773438 11.113281 24.773438 24.773437 0 13.664063-11.113281 24.773438-24.773438 24.773438zm0-33.03125c-4.558593 0-8.261718 3.707031-8.261718 8.257812 0 4.554688 3.703125 8.257813 8.261718 8.257813 4.554688 0 8.257813-3.703125 8.257813-8.257813 0-4.550781-3.703125-8.257812-8.257813-8.257812zm0 0" fill="#fff"/><path d="m239.484375 156.902344h-16.515625c-1.792969 0-3.523438-.578125-4.953125-1.652344l-29.570313-22.175781-20.671874 6.890625-5.226563-15.671875 24.777344-8.257813c2.570312-.855468 5.402343-.402344 7.5625 1.230469l30.832031 23.121094h13.765625zm0 0" fill="#6a4d05"/><path d="m289.03125 156.902344h-16.515625v-16.515625h13.765625l30.832031-23.121094c2.160157-1.632813 4.992188-2.085937 7.5625-1.230469l24.777344 8.257813-5.226563 15.671875-20.671874-6.890625-29.570313 22.175781c-1.429687 1.074219-3.160156 1.652344-4.953125 1.652344zm0 0" fill="#6a4d05"/><path d="m256 338.582031c-23.507812 0-45.605469-9.15625-62.226562-25.78125l-1.410157-1.40625 11.660157-11.691406 1.417968 1.414063c13.507813 13.511718 31.460938 20.949218 50.558594 20.949218 19.09375 0 37.046875-7.4375 50.546875-20.941406l1.425781-1.421875 11.664063 11.691406-1.421875 1.414063c-16.609375 16.617187-38.707032 25.773437-62.214844 25.773437zm0 0" fill="#664e2f"/><path d="m181.675781 206.453125c0 9.121094-7.394531 16.515625-16.515625 16.515625s-16.515625-7.394531-16.515625-16.515625c0-9.125 7.394531-16.519531 16.515625-16.519531s16.515625 7.394531 16.515625 16.519531zm0 0" fill="#ff0c38"/><path d="m363.355469 206.453125c0 9.121094-7.394531 16.515625-16.515625 16.515625-9.125 0-16.519532-7.394531-16.519532-16.515625 0-9.125 7.394532-16.519531 16.519532-16.519531 9.121094 0 16.515625 7.394531 16.515625 16.519531zm0 0" fill="#ff0c38"/><path d="m421.160156 429.417969-115.613281 82.582031h115.613281zm0 0" fill="#006f79"/><path d="m199.582031 66.484375-13.742187-9.160156c10.144531-15.210938 27.109375-24.292969 45.386718-24.292969v16.519531c-12.742187-.003906-24.574218 6.328125-31.644531 16.933594zm0 0" fill="#fff"/><path d="m247.742188 33.03125h16.515624v16.519531h-16.515624zm0 0" fill="#fff"/></svg>