<svg height="512pt" viewBox="0 0 512 512" width="512pt" xmlns="http://www.w3.org/2000/svg"><path d="m297.289062 33.03125v16.519531c0 4.953125-1.074218 9.660157-3.136718 13.871094-1.320313-.988281-3.054688-2.3125-5.121094-3.632813-2.394531-1.570312-5.367188-3.304687-8.753906-4.789062.332031-1.734375.496094-3.632812.496094-5.449219v-16.519531c0-18.25-14.78125-33.03125-33.03125-33.03125h16.515624c18.25 0 33.03125 14.78125 33.03125 33.03125zm0 0" fill="#3f342f"/><path d="m280.773438 33.03125v16.519531c0 1.816407-.164063 3.714844-.496094 5.449219-6.523438-3.054688-14.78125-5.449219-24.277344-5.449219-2.890625 0-5.617188.246094-8.257812.65625-14.289063 2.066407-24.941407 9.25-29.894532 13.214844-1.320312-2.640625-2.230468-5.449219-2.640625-8.421875-.332031-1.734375-.496093-3.636719-.496093-5.453125v-16.515625c0-18.25 14.78125-33.03125 33.03125-33.03125s33.03125 14.78125 33.03125 33.03125zm0 0" fill="#534741"/><path d="m363.355469 140.386719v41.289062l-8.257813 24.777344v148.644531l-24.773437 16.515625-24.777344-16.515625v30.96875l-16.515625 10.320313-33.03125-16.515625-33.03125 16.515625-16.515625-10.320313v-30.96875l-24.777344 16.515625-24.773437-16.515625v-148.644531l-8.257813-33.035156v-33.03125l33.03125-16.515625 74.324219 24.773437 74.324219-24.773437zm0 0" fill="#ffb398"/><path d="m512 437.675781v74.324219h-512v-74.324219l156.902344-33.03125v-33.03125l82.582031 57.804688h33.03125l82.582031-57.804688v33.03125zm0 0" fill="#fe946f"/><path d="m322.066406 82.582031h-132.132812c-36.5 0-66.0625 29.5625-66.0625 66.0625v74.324219l8.257812 8.257812 8.257813 82.578126v49.546874l99.097656 66.066407h33.03125l99.097656-66.066407v-49.546874l8.257813-82.578126 8.257812-8.257812v-74.324219c0-36.5-29.5625-66.0625-66.0625-66.0625zm41.289063 99.09375-8.257813 24.777344v148.644531l-24.777344 16.515625-.824218-.496093-23.949219-16.019532v30.964844l-16.515625 10.324219-33.03125-16.515625-33.035156 16.515625-16.515625-10.324219v-30.964844l-23.949219 16.019532-.824219.496093-24.773437-16.515625v-148.644531l-8.257813-33.035156v-33.03125l33.03125-16.515625 74.320313 24.773437 74.324218-24.773437 33.03125 16.515625v41.289062zm0 0" fill="#534741"/><path d="m140.386719 313.804688h-12.136719c-7.433594 0-13.957031-4.953126-15.941406-12.136719l-12.800782-46.824219c-4.375-16.019531 7.765626-31.875 24.363282-31.875l8.257812 8.257812zm0 0" fill="#fe946f"/><path d="m412.492188 254.84375-12.800782 46.824219c-1.984375 7.183593-8.507812 12.136719-15.941406 12.136719h-12.136719l8.257813-82.578126 8.257812-8.257812c16.597656 0 28.738282 15.855469 24.363282 31.875zm0 0" fill="#fe946f"/><path d="m156.902344 404.644531v107.355469h-156.902344v-74.324219zm0 0" fill="#29485a"/><path d="m355.097656 404.644531v107.355469h156.902344v-74.324219zm0 0" fill="#29485a"/><path d="m156.902344 437.675781s24.773437 33.035157 99.097656 33.035157c74.320312 0 99.097656-33.035157 99.097656-33.035157v74.324219h-198.195312zm0 0" fill="#999"/><path d="m256 359.226562c-12.464844 0-23.902344-5.71875-31.378906-15.691406l13.207031-9.910156c4.332031 5.773438 10.953125 9.085938 18.171875 9.085938s13.839844-3.3125 18.167969-9.085938l13.210937 9.910156c-7.476562 9.972656-18.914062 15.691406-31.378906 15.691406zm0 0" fill="#ed6845"/><path d="m225.386719 204.03125c-10.445313-10.433594-27.425781-10.433594-37.871094 0l-11.675781-11.675781c16.878906-16.878907 44.347656-16.878907 61.226562 0zm0 0" fill="#534741"/><path d="m222.96875 231.226562c0 9.121094-7.394531 16.515626-16.515625 16.515626-9.125 0-16.519531-7.394532-16.519531-16.515626 0-9.121093 7.394531-16.515624 16.519531-16.515624 9.121094 0 16.515625 7.394531 16.515625 16.515624zm0 0" fill="#3d332f"/><path d="m324.484375 204.03125c-10.445313-10.433594-27.429687-10.433594-37.871094 0l-11.675781-11.675781c16.878906-16.878907 44.34375-16.878907 61.222656 0zm0 0" fill="#534741"/><path d="m322.066406 231.226562c0 9.121094-7.394531 16.515626-16.519531 16.515626-9.121094 0-16.515625-7.394532-16.515625-16.515626 0-9.121093 7.394531-16.515624 16.515625-16.515624 9.125 0 16.519531 7.394531 16.519531 16.515624zm0 0" fill="#3d332f"/><path d="m256 293.699219c-5.046875 0-10.089844-1.464844-14.492188-4.402344-5.808593-3.875-9.757812-9.773437-11.125-16.613281-1.367187-6.839844.011719-13.808594 3.882813-19.613282l13.742187 9.164063c-1.425781 2.136719-1.933593 4.695313-1.429687 7.214844.5 2.515625 1.957031 4.683593 4.089844 6.109375 3.242187 2.152344 7.429687 2.152344 10.664062 0 2.132813-1.425782 3.585938-3.59375 4.085938-6.109375.503906-2.515625-.003907-5.078125-1.425781-7.214844l-6.605469-9.914063c-.902344-1.355468-1.386719-2.949218-1.386719-4.578124v-41.292969h16.515625v38.792969l5.21875 7.828124c3.871094 5.804688 5.25 12.769532 3.882813 19.613282-1.367188 6.839844-5.320313 12.738281-11.125 16.613281-4.402344 2.933594-9.449219 4.402344-14.492188 4.402344zm0 0" fill="#f98c69"/><path d="m289.03125 59.789062c-7.183594-4.707031-18.746094-10.238281-33.03125-10.238281-18.417969 0-32.289062 9.164063-38.152344 13.871094 1.324219 2.882813 3.0625 5.53125 5.121094 7.890625v11.269531h66.0625v-11.316406c2.066406-2.394531 3.800781-5.035156 5.121094-7.84375-1.320313-.992187-3.054688-2.3125-5.121094-3.632813zm0 0" fill="#333"/><path d="m297.289062 338.582031c-1.601562 0-3.199218-.46875-4.578124-1.386719l-20.789063-13.859374-12.226563 6.117187c-2.324218 1.160156-5.066406 1.160156-7.386718 0l-12.230469-6.117187-20.785156 13.859374c-2.464844 1.632813-5.636719 1.824219-8.277344.515626l-16.515625-8.257813 7.386719-14.773437 12.230469 6.117187 20.785156-13.859375c2.460937-1.644531 5.625-1.839844 8.273437-.519531l12.824219 6.414062 12.824219-6.414062c2.636719-1.320313 5.808593-1.125 8.273437.519531l20.785156 13.859375 12.230469-6.117187 7.386719 14.773437-16.515625 8.257813c-1.167969.578124-2.433594.871093-3.695313.871093zm0 0" fill="#534741"/><path d="m363.355469 49.546875v33.035156h-74.324219v-11.316406c2.066406-2.394531 3.800781-5.035156 5.121094-7.84375 2.0625-4.210937 3.136718-8.917969 3.136718-13.875v-6.191406l24.777344-43.355469 33.03125 24.773438-33.03125 33.035156zm0 0" fill="#333"/><path d="m189.933594 289.03125c0 9.121094-7.394532 16.515625-16.515625 16.515625-9.121094 0-16.515625-7.394531-16.515625-16.515625s7.394531-16.515625 16.515625-16.515625c9.121093 0 16.515625 7.394531 16.515625 16.515625zm0 0" fill="#f40e34"/><path d="m355.097656 289.03125c0 9.121094-7.394531 16.515625-16.515625 16.515625-9.121093 0-16.515625-7.394531-16.515625-16.515625s7.394532-16.515625 16.515625-16.515625c9.121094 0 16.515625 7.394531 16.515625 16.515625zm0 0" fill="#f40e34"/><path d="m355.097656 404.644531 70.199219 28.082031c32.414063 12.964844 53.671875 44.359376 53.671875 79.273438h33.03125v-74.324219zm0 0" fill="#142a35"/><g fill="#3f342f"><path d="m123.871094 140.386719c0-31.925781 25.882812-57.804688 57.804687-57.804688h148.648438c31.925781 0 57.804687 25.878907 57.804687 57.804688v82.582031l-8.257812 8.257812-5.695313-85.449218c-1.441406-21.621094-19.402343-38.421875-41.070312-38.421875l-16.097657 3.449219c-40.277343 8.625-81.859374 9.234374-122.371093 1.785156l-28.457031-5.234375c-20.011719 0-37.457032 13.617187-42.308594 33.03125zm0 0"/><path d="m379.871094 231.226562-16.515625 16.515626v107.355468l-90.839844 74.320313 99.097656-66.0625v-57.808594zm0 0"/><path d="m256 379.871094 24.773438 24.773437 8.257812-8.257812zm0 0"/><path d="m305.546875 355.097656 16.519531 24.773438 8.257813-8.257813zm0 0"/><path d="m206.453125 355.097656-8.257813 24.773438 8.257813 8.257812zm0 0"/><path d="m148.644531 173.417969-8.257812-41.289063 41.289062-16.515625 74.324219 16.515625 74.324219-16.515625 41.289062 16.515625-8.257812 49.546875v-41.289062l-33.03125-16.515625-74.324219 24.773437-74.324219-24.773437-33.03125 16.515625zm0 0"/></g><path d="m148.644531 140.386719h-16.515625c0-27.320313 22.226563-49.546875 49.546875-49.546875v16.515625c-18.210937 0-33.03125 14.816406-33.03125 33.03125zm0 0" fill="#fff"/><path d="m198.195312 90.839844h16.515626v16.515625h-16.515626zm0 0" fill="#fff"/><path d="m239.484375 33.03125h-16.515625c0-13.660156 11.113281-24.773438 24.773438-24.773438v16.515626c-4.550782 0-8.257813 3.707031-8.257813 8.257812zm0 0" fill="#fff"/><path d="m264.257812 8.257812h16.515626v16.515626h-16.515626zm0 0" fill="#fff"/><path d="m214.710938 231.226562c0 4.558594-3.699219 8.257813-8.257813 8.257813-4.5625 0-8.257813-3.699219-8.257813-8.257813 0-4.5625 3.695313-8.257812 8.257813-8.257812 4.558594 0 8.257813 3.695312 8.257813 8.257812zm0 0" fill="#562100"/><path d="m313.804688 231.226562c0 4.558594-3.695313 8.257813-8.257813 8.257813-4.558594 0-8.257813-3.699219-8.257813-8.257813 0-4.5625 3.699219-8.257812 8.257813-8.257812 4.5625 0 8.257813 3.695312 8.257813 8.257812zm0 0" fill="#562100"/><path d="m214.710938 227.097656c0 2.28125-1.851563 4.128906-4.128907 4.128906-2.28125 0-4.128906-1.847656-4.128906-4.128906s1.847656-4.128906 4.128906-4.128906c2.277344 0 4.128907 1.847656 4.128907 4.128906zm0 0" fill="#fff"/><path d="m313.804688 227.097656c0 2.28125-1.847657 4.128906-4.128907 4.128906-2.277343 0-4.128906-1.847656-4.128906-4.128906s1.851563-4.128906 4.128906-4.128906c2.28125 0 4.128907 1.847656 4.128907 4.128906zm0 0" fill="#fff"/></svg>