<svg height="512pt" viewBox="-4 0 512 512" width="512pt" xmlns="http://www.w3.org/2000/svg"><path d="m422.75 144.707031 16.265625-81.265625 15.9375 3.191406-16.269531 81.261719zm0 0" fill="#b7cdc8"/><path d="m463.238281 56.886719c0 8.941406-7.316406 16.253906-16.253906 16.253906-.976563 0-1.953125-.078125-2.925781-.242187-7.558594-1.464844-13.328125-8.046876-13.328125-16.011719 0-8.9375 7.3125-16.253907 16.253906-16.253907 8.9375.003907 16.253906 7.316407 16.253906 16.253907zm0 0" fill="#f40e34"/><path d="m438.855469 0h16.253906v16.253906h-16.253906zm0 0" fill="#ffd422"/><path d="m401.027344 22.390625 11.5-11.492187 11.496094 11.5-11.503907 11.492187zm0 0" fill="#ffd422"/><path d="m469.988281 22.390625 11.492188-11.5 11.5 11.492187-11.492188 11.5zm0 0" fill="#ffd422"/><path d="m430.730469 130.03125v162.539062c-5.691407 4.390626-11.785157 8.535157-18.285157 12.351563-85.335937 50.390625-235.683593 50.390625-321.015624 0-6.503907-3.816406-12.597657-7.960937-18.289063-12.351563v-162.539062c5.609375-5.605469 11.703125-10.808594 18.367187-15.605469 0 0 0 0 0-.078125 41.285157-30.152344 100.855469-45.269531 160.429688-45.269531 59.570312 0 119.140625 15.117187 160.425781 45.269531v.078125c6.664063 4.796875 12.757813 10 18.367188 15.605469zm0 0" fill="#526d6f"/><path d="m412.445312 304.921875c-1.546874 2.847656-3.984374 7.074219-7.558593 12.03125-17.066407 23.730469-60.222657 65.015625-152.949219 65.015625-88.339844 0-131.738281-37.546875-150.351562-61.601562-5.039063-6.421876-8.289063-11.949219-10.15625-15.445313 7.476562 4.390625 15.441406 8.453125 23.8125 12.03125 78.914062 34.375 194.476562 34.375 273.390624 0 8.371094-3.578125 16.335938-7.640625 23.8125-12.03125zm0 0" fill="#a5b7b2"/><path d="m412.363281 114.347656c-35.597656-26.007812-84.925781-40.878906-136.046875-44.375-8.125-.648437-16.253906-.894531-24.378906-.894531-8.128906 0-16.253906.246094-24.382812.894531-51.117188 3.496094-100.449219 18.367188-136.046876 44.375 7.722657-23.488281 38.847657-94.597656 136.046876-104.921875 7.722656-.890625 15.847656-1.296875 24.382812-1.296875 8.53125 0 16.660156.40625 24.378906 1.296875 97.199219 10.324219 128.324219 81.433594 136.046875 104.921875zm0 0" fill="#b7cdc8"/><path d="m73.140625 146.285156h-32.503906l-24.382813 24.382813v81.269531l24.382813 24.378906h32.503906zm0 0" fill="#b7cdc8"/><path d="m40.636719 146.285156h32.507812v130.03125h-32.507812zm0 0" fill="#d9dddc"/><path d="m430.730469 146.285156h32.507812l24.378907 24.382813v81.269531l-24.378907 24.378906h-32.507812zm0 0" fill="#b7cdc8"/><path d="m430.730469 146.285156h32.507812v130.03125h-32.507812zm0 0" fill="#d9dddc"/><path d="m381.96875 130.03125v154.414062s-40.636719 32.507813-130.03125 32.507813c-89.398438 0-130.03125-32.507813-130.03125-32.507813v-154.414062s11.296875-9.101562 35.269531-17.636719c10.242188-3.65625 22.835938-7.230469 37.871094-9.996093 2.683594-.488282 5.445313-.972657 8.371094-1.378907 12.03125-1.789062 25.4375-3.089843 40.394531-3.414062 2.679688-.082031 5.363281-.082031 8.125-.082031 14.871094 0 28.445312.894531 40.636719 2.4375 2.925781.324218 5.6875.730468 8.371093 1.136718 15.925782 2.441406 29.339844 5.851563 40.390626 9.511719 27.628906 9.019531 40.632812 19.421875 40.632812 19.421875zm0 0" fill="#ffb398"/><path d="m203.175781 243.808594c0 13.464844-10.917969 24.382812-24.382812 24.382812-13.464844 0-24.378907-10.917968-24.378907-24.382812s10.914063-24.382813 24.378907-24.382813c13.464843 0 24.382812 10.917969 24.382812 24.382813zm0 0" fill="#f40e34"/><path d="m349.460938 243.808594c0 13.464844-10.917969 24.382812-24.382813 24.382812s-24.378906-10.917968-24.378906-24.382812 10.914062-24.382813 24.378906-24.382813 24.382813 10.917969 24.382813 24.382813zm0 0" fill="#f40e34"/><path d="m251.9375 219.429688c-13.445312 0-24.382812-10.9375-24.382812-24.382813h16.253906c0 4.484375 3.648437 8.128906 8.128906 8.128906s8.125-3.644531 8.125-8.128906v-16.253906h16.253906v16.253906c0 13.445313-10.9375 24.382813-24.378906 24.382813zm0 0" fill="#e58365"/><path d="m308.824219 203.175781c-8.964844 0-16.253907-7.296875-16.253907-16.253906 0-8.960937 7.289063-16.253906 16.253907-16.253906 8.964843 0 16.253906 7.292969 16.253906 16.253906 0 8.957031-7.289063 16.253906-16.253906 16.253906zm0-16.261719v.007813zm0 0" fill="#322d2b"/><path d="m195.046875 203.175781c-8.964844 0-16.253906-7.296875-16.253906-16.253906 0-8.960937 7.289062-16.253906 16.253906-16.253906s16.253906 7.292969 16.253906 16.253906c0 8.957031-7.289062 16.253906-16.253906 16.253906zm0-16.261719v.007813zm0 0" fill="#322d2b"/><path d="m292.570312 99.960938v38.195312c-22.429687 0-40.632812-18.203125-40.632812-40.632812 14.871094 0 28.441406.894531 40.632812 2.4375zm0 0" fill="#f37021"/><path d="m341.332031 110.609375v27.550781c-21.210937 0-38.683593-16.253906-40.390625-37.0625 15.929688 2.441406 29.339844 5.851563 40.390625 9.511719zm0 0" fill="#f37021"/><path d="m195.046875 102.398438v35.761718c-17.230469 0-31.855469-10.730468-37.871094-25.765625 10.238281-3.65625 22.835938-7.230469 37.871094-9.996093zm0 0" fill="#f37021"/><path d="m243.808594 97.605469v40.554687c-21.210938 0-38.683594-16.335937-40.390625-37.140625 12.027343-1.789062 25.4375-3.089843 40.390625-3.414062zm0 0" fill="#f37021"/><path d="m251.9375 292.570312c-13.445312 0-24.382812-10.933593-24.382812-24.378906v-16.253906c0-13.445312 10.9375-24.382812 24.382812-24.382812 13.441406 0 24.378906 10.9375 24.378906 24.382812v16.253906c0 13.445313-10.9375 24.378906-24.378906 24.378906zm0-48.761718c-4.480469 0-8.128906 3.644531-8.128906 8.128906v16.253906c0 4.484375 3.648437 8.125 8.128906 8.125s8.125-3.640625 8.125-8.125v-16.253906c0-4.484375-3.644531-8.128906-8.125-8.128906zm0 0" fill="#e58365"/><path d="m446.984375 357.585938s-12.191406 20.320312-42.667969 40.636718c-6.582031 4.386719-13.976562 8.777344-22.347656 12.921875-11.703125 5.851563-25.195312 11.296875-40.636719 15.765625v-12.433594h-178.792969v12.433594c-77.53125-22.511718-105.652343-69.324218-105.652343-69.324218l44.699219-37.21875c18.613281 24.054687 62.011718 61.601562 150.351562 61.601562 65.015625 0 105.648438-20.320312 130.03125-40.636719 10.402344-8.613281 17.796875-17.308593 22.917969-24.378906h1.460937zm0 0" fill="#b7cdc8"/><path d="m162.539062 426.910156v85.089844h-40.636718v-100.855469c11.707031 5.769531 25.195312 11.214844 40.636718 15.765625zm0 0" fill="#a5b7b2"/><path d="m381.96875 411.144531v100.855469h-40.636719v-85.089844c15.441407-4.46875 28.933594-9.914062 40.636719-15.765625zm0 0" fill="#a5b7b2"/><path d="m204.539062 167.046875c-4.300781-6.445313-14.679687-6.445313-18.984374 0l-13.523438-9.015625c5.144531-7.714844 13.746094-12.316406 23.015625-12.316406s17.875 4.601562 23.015625 12.316406zm0 0" fill="#f37021"/><path d="m318.316406 167.046875c-4.300781-6.445313-14.679687-6.445313-18.984375 0l-13.523437-9.015625c5.144531-7.714844 13.746094-12.316406 23.015625-12.316406s17.875 4.601562 23.015625 12.316406zm0 0" fill="#f37021"/><path d="m276.316406 9.425781v60.546875c-8.125-.648437-16.253906-.894531-24.378906-.894531-8.128906 0-16.253906.246094-24.382812.894531v-60.546875c7.722656-.890625 15.847656-1.296875 24.382812-1.296875 8.53125 0 16.660156.40625 24.378906 1.296875zm0 0" fill="#d9dddc"/><path d="m162.539062 414.476562h178.792969v97.523438h-178.792969zm0 0" fill="#d9dddc"/><path d="m308.824219 463.238281c0 8.976563-7.277344 16.253907-16.253907 16.253907-8.976562 0-16.253906-7.277344-16.253906-16.253907 0-8.976562 7.277344-16.253906 16.253906-16.253906 8.976563 0 16.253907 7.277344 16.253907 16.253906zm0 0" fill="#f40e34"/><path d="m195.046875 446.984375h32.507813v32.507813h-32.507813zm0 0" fill="#1e81ce"/><path d="m503.871094 414.476562v97.523438h-121.902344v-100.855469c8.371094-4.144531 15.765625-8.535156 22.347656-12.921875 30.476563-20.316406 42.667969-40.636718 42.667969-40.636718 31.449219 0 56.886719 25.4375 56.886719 56.890624zm0 0" fill="#d9dddc"/><path d="m121.90625 411.144531v100.855469h-121.90625v-97.523438c0-31.453124 25.4375-56.890624 56.886719-56.890624 0 0 .246093.40625.734375 1.140624.242187.40625.566406.894532 1.054687 1.460938.082031.164062.246094.40625.328125.570312.324219.40625.648438.8125.972656 1.300782.246094.242187.488282.570312.652344.8125.488282.652344 1.054688 1.382812 1.789063 2.195312.566406.8125 1.21875 1.625 2.03125 2.4375.648437.894532 1.460937 1.785156 2.355469 2.761719 1.707031 1.953125 3.65625 3.984375 5.851562 6.175781 1.054688 1.058594 2.273438 2.195313 3.492188 3.332032 1.21875 1.140624 2.519531 2.359374 3.902343 3.496093 1.21875 1.136719 2.519531 2.191407 3.820313 3.332031 4.550781 3.738282 9.753906 7.71875 15.683594 11.621094 2.765624 1.867188 5.769531 3.738282 8.859374 5.609375 1.546876.890625 3.089844 1.785157 4.796876 2.679688 1.707031.976562 3.492187 1.949219 5.28125 2.84375 1.136718.652343 2.273437 1.21875 3.414062 1.789062zm0 0" fill="#d9dddc"/><g fill="#fff"><path d="m105.652344 178.792969c-4.488282 0-8.128906-3.632813-8.128906-8.125 0-27.34375 16.167968-51.699219 41.183593-62.046875 12.09375-5.015625 25.132813-8.714844 38.75-10.988282 4.46875-.800781 8.613281 2.257813 9.351563 6.683594.738281 4.421875-2.253906 8.613282-6.675782 9.351563-12.398437 2.0625-24.242187 5.417969-35.203124 9.964843-18.925782 7.835938-31.152344 26.292969-31.152344 47.03125 0 4.496094-3.636719 8.128907-8.125 8.128907zm0 0"/><path d="m105.652344 219.429688c-4.488282 0-8.128906-3.636719-8.128906-8.128907v-8.125c0-4.492187 3.640624-8.128906 8.128906-8.128906 4.488281 0 8.125 3.636719 8.125 8.128906v8.125c0 4.492188-3.636719 8.128907-8.125 8.128907zm0 0"/><path d="m406.347656 276.316406c-4.488281 0-8.125-3.632812-8.125-8.125v-32.507812c0-4.492188 3.636719-8.128906 8.125-8.128906 4.488282 0 8.128906 3.636718 8.128906 8.128906v32.507812c0 4.492188-3.640624 8.125-8.128906 8.125zm0 0"/><path d="m406.347656 219.429688c-4.488281 0-8.125-3.636719-8.125-8.128907v-8.125c0-4.492187 3.636719-8.128906 8.125-8.128906 4.488282 0 8.128906 3.636719 8.128906 8.128906v8.125c0 4.492188-3.640624 8.128907-8.128906 8.128907zm0 0"/><path d="m56.886719 463.238281h-16.25v-24.382812c0-26.886719 21.871093-48.761719 48.761719-48.761719v16.253906c-17.925782 0-32.511719 14.582032-32.511719 32.511719zm0 0"/><path d="m152.785156 78.015625-13-9.746094c16.917969-22.5625 41.472656-38.039062 69.132813-43.570312l3.984375 15.777343c-24.53125 4.914063-45.597656 18.183594-60.117188 37.539063zm0 0"/><path d="m235.683594 24.382812h16.253906v16.253907h-16.253906zm0 0"/><path d="m40.636719 479.492188h16.253906v16.253906h-16.253906zm0 0"/><path d="m292.570312 495.746094h-16.253906v-16.253906h16.253906c8.964844 0 16.253907-7.292969 16.253907-16.253907h16.253906c0 17.925781-14.582031 32.507813-32.507813 32.507813zm0 0"/><path d="m308.824219 430.730469h16.253906v16.253906h-16.253906zm0 0"/><path d="m479.492188 406.347656h-16.253907c0-8.957031-7.289062-16.253906-16.253906-16.253906v-16.253906c17.925781 0 32.507813 14.582031 32.507813 32.507812zm0 0"/><path d="m463.238281 422.601562h16.253907v16.257813h-16.253907zm0 0"/><path d="m455.109375 178.792969h16.253906v16.253906h-16.253906zm0 0"/><path d="m455.109375 211.300781h16.253906v48.761719h-16.253906zm0 0"/></g></svg>