<svg height="512pt" viewBox="0 0 512 512" width="512pt" xmlns="http://www.w3.org/2000/svg"><path d="m371.613281 228.5c-2.558593 5.53125-5.285156 10.984375-8.257812 16.351562-5.285157 9.578126-11.230469 18.828126-17.921875 27.664063-13.460938 18.496094-29.730469 35.179687-48.144532 49.546875-25.433593 15.277344-57.144531 15.277344-82.582031 0-18.414062-14.367188-34.597656-31.050781-48.226562-49.546875-4.210938-5.53125-8.09375-11.3125-11.726563-17.175781-2.144531-3.46875-4.128906-6.9375-6.109375-10.488282-2.972656-5.367187-5.699219-10.820312-8.257812-16.351562 1.484375-1.15625 2.722656-2.558594 3.550781-4.292969l4.707031-9.5v-115.609375l-19.324219-19.324218c6.9375-14.453126 16.183594-27.417969 27.414063-38.648438 25.4375-25.433594 60.453125-41.125 99.265625-41.125s73.828125 15.691406 99.261719 41.125c11.230469 11.230469 20.480469 24.195312 27.417969 38.648438l-19.324219 19.324218v115.613282l4.707031 9.496093c.824219 1.734375 2.0625 3.136719 3.550781 4.292969zm0 0" fill="#f0beb4"/><path d="m148.644531 99.097656v49.546875h-31.378906l-.910156-4.707031-.742188-3.550781c0-21.71875 4.953125-42.28125 13.707031-60.613281zm0 0" fill="#b3b3b3"/><path d="m396.386719 140.386719-.742188 3.550781-.910156 4.707031h-31.378906v-49.546875l19.324219-19.324218c8.753906 18.332031 13.707031 38.894531 13.707031 60.613281zm0 0" fill="#b3b3b3"/><path d="m140.386719 228.5c-2.230469 1.734375-4.953125 2.726562-7.84375 2.726562-5.285157 0-9.910157-3.140624-11.890625-8.011718l-6.855469-17.175782c-4.296875-10.65625-10.570313-20.234374-18.664063-28.328124-3.964843-3.960938-6.027343-9.164063-6.027343-14.449219 0-4.292969 1.402343-8.671875 4.128906-12.304688 5.53125-7.351562 15.027344-9.828125 23.121094-7.019531l.910156 4.707031 4.625 23.289063c3.960937 19.652344 10.15625 38.648437 18.496094 56.566406zm0 0" fill="#efa69a"/><path d="m422.894531 163.261719c0 5.285156-2.0625 10.488281-6.027343 14.449219-8.09375 8.09375-14.367188 17.671874-18.664063 28.328124l-6.855469 17.175782c-1.980468 4.871094-6.605468 8.011718-11.890625 8.011718-2.890625 0-5.613281-.992187-7.84375-2.726562 8.339844-17.921875 14.535157-36.914062 18.496094-56.566406l4.625-23.289063.910156-4.707031c8.09375-2.808594 17.589844-.332031 23.121094 7.019531 2.726563 3.632813 4.128906 8.011719 4.128906 12.304688zm0 0" fill="#efa69a"/><path d="m363.355469 107.355469c-.394531-.386719-45.726563-41.292969-107.355469-41.292969s-106.960938 40.90625-107.355469 41.292969l-5.839843-14.097657c1.78125-1.78125 44.5-43.707031 113.195312-43.707031 68.691406 0 111.410156 41.925781 113.195312 43.707031zm0 0" fill="#b3b3b3"/><path d="m363.355469 99.097656c-.390625-.621094-38.664063-66.066406-107.355469-66.066406-68.949219 0-106.96875 65.445312-107.355469 66.066406l-15.261719-12.636718c1.785157-2.855469 44.613282-69.945313 122.617188-69.945313s120.832031 67.085937 122.617188 69.945313zm0 0" fill="#b3b3b3"/><path d="m148.644531 148.644531v66.0625l-4.707031 9.5c-.824219 1.730469-2.0625 3.136719-3.550781 4.292969-8.339844-17.921875-14.535157-36.914062-18.496094-56.566406l-4.625-23.289063zm0 0" fill="#b3b3b3"/><path d="m148.644531 140.386719h33.03125v16.515625h-33.03125zm0 0" fill="#fff"/><path d="m394.734375 148.644531-4.625 23.289063c-3.960937 19.652344-10.15625 38.644531-18.496094 56.566406-1.488281-1.15625-2.726562-2.558594-3.550781-4.292969l-4.707031-9.5v-66.0625zm0 0" fill="#b3b3b3"/><path d="m330.324219 140.386719h33.03125v16.515625h-33.03125zm0 0" fill="#fff"/><path d="m256 256c-10.765625 0-19.953125-6.902344-23.359375-16.515625h-1.414063c-9.109374 0-16.515624-7.414063-16.515624-16.515625 0-13.664062 11.113281-24.777344 24.773437-24.777344v16.515625c-4.554687 0-8.257813 3.703125-8.257813 8.261719h8.257813c4.5625 0 8.257813 3.691406 8.257813 8.257812 0 4.554688 3.707031 8.257813 8.257812 8.257813 4.554688 0 8.257812-3.703125 8.257812-8.257813 0-4.566406 3.699219-8.257812 8.257813-8.257812h8.257813c0-4.558594-3.703126-8.261719-8.257813-8.261719-4.558594 0-8.257813-3.691406-8.257813-8.257812v-57.804688c-.097656-3.71875-1.609374-8.257812-8.257812-8.257812s-8.160156 4.539062-8.257812 8.355469l-16.515626-.097657c0-9.960937 6.597657-24.773437 24.773438-24.773437 18.179688 0 24.773438 14.8125 24.773438 24.773437v50.960938c9.613281 3.410156 16.519531 12.59375 16.519531 23.363281 0 9.101562-7.410157 16.515625-16.519531 16.515625h-1.414063c-3.40625 9.613281-12.59375 16.515625-23.359375 16.515625zm0 0" fill="#f28879"/><path d="m256 297.289062c-30.375 0-40.453125-29.175781-40.867188-30.417968l15.652344-5.265625c.269532.78125 6.851563 19.167969 25.214844 19.167969s24.945312-18.386719 25.214844-19.167969l15.652344 5.265625c-.414063 1.242187-10.492188 30.417968-40.867188 30.417968zm0 0" fill="#f28879"/><path d="m306.417969 251.4375c-6.832031-13.671875-20.9375-21.011719-21.082031-21.082031l7.386718-14.773438c.777344.386719 19.085938 9.707031 28.46875 28.464844zm0 0" fill="#f28879"/><path d="m205.582031 251.4375-14.777343-7.386719c9.382812-18.757812 27.695312-28.082031 28.46875-28.46875l7.386718 14.773438-3.691406-7.386719 3.714844 7.371094c-.140625.070312-14.242188 7.371094-21.101563 21.097656zm0 0" fill="#f28879"/><path d="m181.675781 231.226562c0 9.121094-7.394531 16.515626-16.515625 16.515626s-16.515625-7.394532-16.515625-16.515626c0-9.121093 7.394531-16.515624 16.515625-16.515624s16.515625 7.394531 16.515625 16.515624zm0 0" fill="#f40e34"/><path d="m363.355469 231.226562c0 9.121094-7.394531 16.515626-16.515625 16.515626-9.125 0-16.519532-7.394532-16.519532-16.515626 0-9.121093 7.394532-16.515624 16.519532-16.515624 9.121094 0 16.515625 7.394531 16.515625 16.515624zm0 0" fill="#f40e34"/><path d="m355.097656 363.355469s-41.292968 33.03125-99.097656 33.03125-99.097656-33.03125-99.097656-33.03125l24.773437-24.777344-15.195312-66.0625c13.628906 18.496094 29.8125 35.179687 48.230469 49.546875 25.433593 15.277344 57.144531 15.277344 82.578124 0 18.417969-14.367188 34.683594-31.050781 48.144532-49.546875l-15.109375 66.0625zm0 0" fill="#efa69a"/><path d="m412.902344 512v-82.582031l-82.578125 82.582031h-330.324219l10.816406-70.109375c3.550782-23.042969 18.996094-42.613281 40.714844-51.285156l130.144531-52.023438-24.773437 24.773438s41.292968 33.03125 99.097656 33.03125 99.097656-33.03125 99.097656-33.03125l-24.777344-24.773438 82.582032 33.03125 47.566406 18.992188c21.71875 8.671875 37.160156 28.242187 40.710938 51.285156l10.820312 70.109375zm0 0" fill="#007fa4"/><path d="m140.386719 355.097656v156.902344h-140.386719l10.78125-70.070312c3.554688-23.105469 19.054688-42.613282 40.757812-51.296876zm0 0" fill="#00bcda"/><path d="m371.613281 355.097656v156.902344h140.386719l-10.78125-70.070312c-3.554688-23.105469-19.054688-42.613282-40.757812-51.296876zm0 0" fill="#00bcda"/><path d="m239.484375 148.644531c0 18.242188-14.789063 33.03125-33.03125 33.03125-18.246094 0-33.035156-14.789062-33.035156-33.03125 0-18.242187 14.789062-33.03125 33.035156-33.03125 18.242187 0 33.03125 14.789063 33.03125 33.03125zm0 0" fill="#f26038"/><path d="m338.582031 148.644531c0 18.242188-14.789062 33.03125-33.035156 33.03125-18.242187 0-33.03125-14.789062-33.03125-33.03125 0-18.242187 14.789063-33.03125 33.03125-33.03125 18.246094 0 33.035156 14.789063 33.035156 33.03125zm0 0" fill="#f26038"/><path d="m140.386719 355.097656-41.289063 16.515625v140.386719h41.289063zm0 0" fill="#d2ebe2"/><path d="m412.902344 371.613281v57.804688l-41.289063 41.292969v-115.613282zm0 0" fill="#d2ebe2"/><g fill="#fff"><path d="m231.226562 161.03125c0 6.84375-5.546874 12.386719-12.386718 12.386719-6.84375 0-12.386719-5.542969-12.386719-12.386719 0-6.839844 5.542969-12.386719 12.386719-12.386719 6.839844 0 12.386718 5.546875 12.386718 12.386719zm0 0"/><path d="m330.324219 161.03125c0 6.84375-5.546875 12.386719-12.386719 12.386719-6.84375 0-12.390625-5.542969-12.390625-12.386719 0-6.839844 5.546875-12.386719 12.390625-12.386719 6.839844 0 12.386719 5.546875 12.386719 12.386719zm0 0"/><path d="m198.195312 136.257812c0 2.28125-1.851562 4.128907-4.132812 4.128907-2.277344 0-4.128906-1.847657-4.128906-4.128907s1.851562-4.128906 4.128906-4.128906c2.28125 0 4.132812 1.847656 4.132812 4.128906zm0 0"/><path d="m297.289062 136.257812c0 2.28125-1.847656 4.128907-4.128906 4.128907s-4.128906-1.847657-4.128906-4.128907 1.847656-4.128906 4.128906-4.128906 4.128906 1.847656 4.128906 4.128906zm0 0"/><path d="m216.511719 51.953125-3.605469-16.113281c8.324219-1.863282 17.261719-2.808594 26.578125-2.808594v16.519531c-8.101563-.003906-15.832031.804688-22.972656 2.402344zm0 0"/><path d="m164.738281 93.453125-15.667969-5.226563c.417969-1.25 10.609376-30.816406 45.09375-46.21875l6.734376 15.082032c-27.921876 12.464844-36.078126 36.121094-36.160157 36.363281zm0 0"/></g><path d="m371.613281 470.710938v41.289062h-41.289062zm0 0" fill="#046c84"/><path d="m412.902344 429.417969v82.582031h-41.289063v-41.289062zm0 0" fill="#bdd6cc"/></svg>