<svg height="512pt" viewBox="0 0 512 512" width="512pt" xmlns="http://www.w3.org/2000/svg"><path d="m371.613281 28.902344v37.164062c0 9.082032-3.71875 17.339844-9.664062 23.367188-6.027344 5.945312-14.285157 9.664062-23.371094 9.664062-18.25 0-33.03125-14.785156-33.03125-33.035156v-16.515625h-165.160156v-20.644531c0-15.9375 12.964843-28.902344 28.902343-28.902344h173.421876c15.9375 0 28.902343 12.964844 28.902343 28.902344zm0 0" fill="#2d4245"/><path d="m140.386719 165.160156h-49.546875v-82.578125c0-27.367187 22.183594-49.550781 49.546875-49.550781zm0 0" fill="#809699"/><path d="m371.613281 165.160156h49.546875v-82.578125c0-27.367187-22.183594-49.550781-49.546875-49.550781zm0 0" fill="#809699"/><path d="m371.613281 66.0625v206.453125c0 6.855469-2.808593 13.046875-7.269531 17.507813-4.457031 4.457031-10.652344 7.265624-17.503906 7.265624-6.855469 0-13.050782-2.808593-17.507813-7.265624-4.460937-4.460938-7.269531-10.652344-7.269531-17.507813 0-19.984375-14.203125-36.664063-33.03125-40.464844v-.824219c0-4.542968-1.816406-8.671874-4.875-11.644531-2.96875-3.054687-7.097656-4.875-11.640625-4.875l-7.101563-49.628906c-.660156-4.707031-4.707031-8.175781-9.414062-8.175781s-8.753906 3.46875-9.414062 8.175781l-7.101563 49.628906c-4.542969 0-8.671875 1.820313-11.644531 4.875-3.054688 2.972657-4.871094 7.101563-4.871094 11.644531v.824219c-8.09375 1.652344-15.359375 5.617188-20.976562 11.230469-7.433594 7.515625-12.058594 17.835938-12.058594 29.234375 0 6.851563-2.804688 13.046875-7.265625 17.507813-4.457031 4.457031-10.652344 7.265624-17.507813 7.265624-13.707031 0-24.773437-11.066406-24.773437-24.773437v-222.96875h165.160156v16.515625c0 18.25 14.78125 33.035156 33.03125 33.035156 9.085937 0 17.34375-3.71875 23.371094-9.664062 5.945312-6.027344 9.664062-14.285156 9.664062-23.371094zm0 0" fill="#efc7b0"/><path d="m189.933594 227.097656c0 11.402344-9.242188 20.644532-20.644532 20.644532-11.402343 0-20.644531-9.242188-20.644531-20.644532s9.242188-20.644531 20.644531-20.644531c11.402344 0 20.644532 9.242187 20.644532 20.644531zm0 0" fill="#f40e34"/><path d="m363.355469 227.097656c0 11.402344-9.246094 20.644532-20.644531 20.644532-11.402344 0-20.648438-9.242188-20.648438-20.644532s9.246094-20.644531 20.648438-20.644531c11.398437 0 20.644531 9.242187 20.644531 20.644531zm0 0" fill="#f40e34"/><path d="m404.644531 165.160156v148.644532c0 18.25-14.78125 33.035156-33.03125 33.035156 0 9.082031-3.71875 17.339844-9.664062 23.367187-6.027344 5.945313-14.285157 9.664063-23.371094 9.664063h-165.160156c-18.25 0-33.03125-14.785156-33.03125-33.035156-9.085938 0-17.34375-3.714844-23.371094-9.660157-5.945313-6.03125-9.660156-14.289062-9.660156-23.371093v-148.644532h33.03125v107.355469c0 13.707031 11.066406 24.773437 24.773437 24.773437 6.855469 0 13.050782-2.808593 17.507813-7.265624 4.460937-4.460938 7.265625-10.652344 7.265625-17.507813 0-11.394531 4.625-21.71875 12.058594-29.234375 5.617187-5.613281 12.882812-9.578125 20.976562-11.230469.246094 4.210938 1.980469 8.011719 4.871094 10.820313 2.972656 3.054687 7.101562 4.871094 11.644531 4.871094h33.03125c8.835937 0 16.023437-6.9375 16.515625-15.691407 18.832031 3.800781 33.035156 20.480469 33.035156 40.464844 0 6.855469 2.808594 13.046875 7.265625 17.507813 4.460938 4.460937 10.652344 7.269531 17.507813 7.269531 6.855468 0 13.046875-2.808594 17.507812-7.269531 4.457032-4.460938 7.265625-10.652344 7.265625-17.507813v-107.355469zm0 0" fill="#b7cdc8"/><path d="m231.234375 148.644531c-.339844 0-.683594-.023437-1.03125-.066406l-66.066406-8.257813c-3.613281-.449218-6.5-3.207031-7.109375-6.796874-.613282-3.589844 1.183594-7.152344 4.441406-8.78125l16.515625-8.257813c1.960937-.984375 4.21875-1.15625 6.308594-.445313l49.546875 16.515626c4.023437 1.339843 6.378906 5.515624 5.441406 9.660156-.863281 3.800781-4.242188 6.429687-8.046875 6.429687zm0 0" fill="#2d4245"/><path d="m280.765625 148.644531c-3.804687 0-7.183594-2.628906-8.046875-6.425781-.9375-4.148438 1.417969-8.324219 5.441406-9.664062l49.546875-16.515626c2.097657-.703124 4.347657-.53125 6.308594.445313l16.515625 8.257813c3.257812 1.628906 5.054688 5.195312 4.441406 8.78125-.609375 3.589843-3.496094 6.347656-7.109375 6.800781l-66.066406 8.257812c-.347656.039063-.691406.0625-1.03125.0625zm0 0" fill="#2d4245"/><path d="m198.195312 189.933594c-9.105468 0-16.519531-7.410156-16.519531-16.515625s7.414063-16.515625 16.519531-16.515625c9.101563 0 16.515626 7.410156 16.515626 16.515625s-7.414063 16.515625-16.515626 16.515625zm0-16.53125v.015625zm0 0" fill="#303c42"/><path d="m313.804688 189.933594c-9.101563 0-16.515626-7.410156-16.515626-16.515625s7.414063-16.515625 16.515626-16.515625c9.105468 0 16.519531 7.410156 16.519531 16.515625s-7.414063 16.515625-16.519531 16.515625zm0-16.53125v.015625zm0 0" fill="#303c42"/><path d="m289.03125 231.226562v.824219c-.496094 8.753907-7.679688 15.691407-16.515625 15.691407h-33.03125c-4.542969 0-8.671875-1.816407-11.644531-4.871094-2.890625-2.808594-4.625-6.609375-4.871094-10.820313v-.824219c0-4.542968 1.816406-8.671874 4.871094-11.644531 2.972656-3.054687 7.101562-4.871093 11.644531-4.871093l7.101563-49.632813c.660156-4.707031 4.707031-8.175781 9.414062-8.175781s8.753906 3.46875 9.414062 8.175781l7.101563 49.632813c4.539063 0 8.667969 1.816406 11.640625 4.871093 3.058594 2.972657 4.875 7.101563 4.875 11.644531zm0 0" fill="#f8a17a"/><path d="m214.710938 289.03125h1.414062c14.957031 0 29.300781-5.941406 39.875-16.515625 10.574219 10.574219 24.917969 16.515625 39.875 16.515625h1.417969l-15.140625 15.136719c-.910156.914062-1.671875 1.96875-2.25 3.125-4.527344 9.050781-13.777344 14.769531-23.902344 14.769531-10.121094 0-19.375-5.71875-23.902344-14.769531-.574218-1.15625-1.335937-2.210938-2.25-3.125zm0 0" fill="#f8a17a"/><path d="m107.355469 165.160156h-16.515625c-9.121094 0-16.515625 7.394532-16.515625 16.515625v33.035157c0 9.121093 7.394531 16.515624 16.515625 16.515624h16.515625zm0 0" fill="#efc7b0"/><path d="m404.644531 165.160156h16.515625c9.121094 0 16.515625 7.394532 16.515625 16.515625v33.035157c0 9.121093-7.394531 16.515624-16.515625 16.515624h-16.515625zm0 0" fill="#efc7b0"/><path d="m404.644531 313.804688c0 18.253906-14.78125 33.035156-33.03125 33.035156 0 9.082031-3.71875 17.339844-9.664062 23.367187-6.027344 5.949219-14.285157 9.664063-23.371094 9.664063h-5.53125l-16.597656 28.492187c3.21875 1.070313 5.613281 4.042969 5.613281 7.761719v34.847656c0 5.699219-5.53125 9.660156-10.898438 7.84375l-20.234374-6.769531-34.929688 59.953125h256v-181.675781zm-132.128906 99.097656h-33.03125v41.292968h33.03125zm-71.679687 45.914062c-5.367188 1.816406-10.902344-2.144531-10.902344-7.84375v-34.847656c0-3.71875 2.398437-6.691406 5.617187-7.761719l-16.597656-28.492187h-5.535156c-18.25 0-33.03125-14.78125-33.03125-33.03125-9.085938 0-17.34375-3.71875-23.371094-9.664063-5.945313-6.027343-9.660156-14.285156-9.660156-23.371093l-107.355469 16.519531v181.675781h256l-34.929688-59.953125zm0 0" fill="#9b9851"/><path d="m290.929688 452.046875-34.929688 59.953125-34.929688-59.953125 18.414063-6.113281v8.257812h33.03125v-8.257812zm0 0" fill="#9b9851"/><path d="m333.046875 379.871094-16.597656 28.492187c-1.652344-.664062-3.46875-.664062-5.285157-.085937l-38.648437 12.882812v-8.257812h-33.03125v8.257812l-38.648437-12.882812c-1.816407-.578125-3.632813-.578125-5.285157.085937l-16.601562-28.492187zm0 0" fill="#9b9851"/><path d="m256 512h-256v-181.675781l107.355469-16.519531c0 9.085937 3.714843 17.34375 9.660156 23.371093 6.03125 5.945313 14.289063 9.664063 23.371094 9.664063 0 18.25 14.78125 33.03125 33.035156 33.03125h5.53125l16.597656 28.492187c-3.21875 1.070313-5.613281 4.042969-5.613281 7.761719v34.847656c0 5.699219 5.53125 9.660156 10.898438 7.84375l20.234374-6.769531zm0 0" fill="#203232"/><path d="m239.484375 412.902344h33.03125v41.292968h-33.03125zm0 0" fill="#78952c"/><path d="m239.484375 421.160156v24.777344l-18.414063 6.109375-20.234374 6.773437c-5.367188 1.816407-10.902344-2.148437-10.902344-7.847656v-34.847656c0-3.714844 2.398437-6.691406 5.617187-7.761719 1.652344-.660156 3.46875-.660156 5.285157-.082031zm0 0" fill="#5e7d23"/><path d="m512 330.324219v181.675781h-256l34.929688-59.953125 20.234374 6.769531c5.367188 1.816406 10.898438-2.144531 10.898438-7.84375v-34.847656c0-3.71875-2.394531-6.691406-5.613281-7.761719l16.597656-28.492187h5.53125c9.085937 0 17.34375-3.714844 23.371094-9.664063 5.945312-6.027343 9.664062-14.285156 9.664062-23.367187 18.25 0 33.03125-14.78125 33.03125-33.035156zm0 0" fill="#16211f"/><path d="m322.066406 416.125v34.847656c0 5.699219-5.535156 9.660156-10.902344 7.84375l-20.234374-6.769531-18.414063-6.113281v-24.773438l38.648437-12.882812c1.816407-.578125 3.632813-.578125 5.285157.082031 3.21875 1.074219 5.617187 4.046875 5.617187 7.765625zm0 0" fill="#5e7d23"/><g fill="#fff"><path d="m338.582031 49.546875h16.515625v16.515625h-16.515625zm0 0"/><path d="m355.097656 33.03125h-16.519531c0-4.554688-3.699219-8.257812-8.257813-8.257812h-49.546874v-16.515626h49.546874c13.664063 0 24.777344 11.113282 24.777344 24.773438zm0 0"/><path d="m115.613281 115.613281h-16.515625v-33.03125c0-13.664062 11.113282-24.777343 24.773438-24.777343v16.519531c-4.558594 0-8.257813 3.699219-8.257813 8.257812zm0 0"/><path d="m99.097656 132.128906h16.515625v16.515625h-16.515625zm0 0"/><path d="m330.324219 371.613281h-24.777344v-16.515625h24.777344c4.554687 0 8.257812-3.703125 8.257812-8.257812v-16.519532h16.515625v16.519532c0 13.660156-11.113281 24.773437-24.773437 24.773437zm0 0"/><path d="m363.355469 330.324219v-16.519531c9.105469 0 16.515625-7.410157 16.515625-16.515626h16.515625c0 18.21875-14.8125 33.035157-33.03125 33.035157zm0 0"/><path d="m379.871094 264.257812h16.515625v16.515626h-16.515625zm0 0"/></g><path d="m322.066406 173.417969c0 4.5625-3.699218 8.257812-8.261718 8.257812-4.558594 0-8.257813-3.695312-8.257813-8.257812 0-4.558594 3.699219-8.257813 8.257813-8.257813 4.5625 0 8.261718 3.699219 8.261718 8.257813zm0 0" fill="#172023"/><path d="m322.066406 169.289062c0 2.28125-1.851562 4.128907-4.128906 4.128907-2.28125 0-4.132812-1.847657-4.132812-4.128907s1.851562-4.128906 4.132812-4.128906c2.277344 0 4.128906 1.847656 4.128906 4.128906zm0 0" fill="#fff"/><path d="m206.453125 173.417969c0 4.5625-3.699219 8.257812-8.257813 8.257812-4.5625 0-8.261718-3.695312-8.261718-8.257812 0-4.558594 3.699218-8.257813 8.261718-8.257813 4.558594 0 8.257813 3.699219 8.257813 8.257813zm0 0" fill="#172023"/><path d="m206.453125 169.289062c0 2.28125-1.851563 4.128907-4.128906 4.128907-2.28125 0-4.128907-1.847657-4.128907-4.128907s1.847657-4.128906 4.128907-4.128906c2.277343 0 4.128906 1.847656 4.128906 4.128906zm0 0" fill="#fff"/></svg>