<svg height="512pt" viewBox="0 0 512 512" width="512pt" xmlns="http://www.w3.org/2000/svg"><path d="m140.386719 140.386719v66.066406h-16.515625c-9.082032 0-16.515625-7.433594-16.515625-16.519531v-33.03125c0-9.082032 7.433593-16.515625 16.515625-16.515625zm0 0" fill="#e0af6e"/><path d="m404.644531 156.902344v33.03125c0 9.085937-7.433593 16.519531-16.515625 16.519531h-16.515625v-66.066406h16.515625c9.082032 0 16.515625 7.433593 16.515625 16.515625zm0 0" fill="#e0af6e"/><path d="m371.613281 256v66.0625c0 25.105469-10.160156 47.816406-26.59375 64.25-16.433593 16.433594-39.140625 26.589844-64.246093 26.589844h-49.546876c-50.210937 0-90.839843-40.628906-90.839843-90.839844v-66.0625c0 18.25 7.433593 34.765625 19.324219 46.738281 11.972656 11.894531 28.488281 19.324219 46.738281 19.324219h99.097656c36.503906.003906 66.066406-29.5625 66.066406-66.0625zm0 0" fill="#edc68e"/><path d="m371.613281 181.675781v74.324219c0 36.5-29.5625 66.0625-66.066406 66.0625h-99.09375c-18.25 0-34.769531-7.429688-46.742187-19.324219-11.890626-11.972656-19.324219-28.488281-19.324219-46.738281v-74.324219c20.234375-15.195312 30.144531-40.464843 25.683593-65.402343l-9.167968-50.210938h132.128906l33.035156-33.03125v33.03125h33.03125l-9.164062 50.210938c-4.464844 24.941406 5.445312 50.207031 25.679687 65.402343zm0 0" fill="#edc68e"/><path d="m371.613281 111.484375v70.191406c-20.234375-15.195312-30.144531-40.464843-25.683593-65.402343l9.167968-50.210938h-33.035156v-33.03125l-33.03125 33.035156h-132.128906l9.167968 50.207032c4.460938 24.941406-5.453124 50.210937-25.683593 65.40625v-61.9375c0-28.242188 9.910156-54.253907 26.425781-74.734376.414062-.660156.992188-1.320312 1.488281-1.898437 21.140625-27.5 52.601563-43.109375 87.699219-43.109375.660156 0 1.402344 0 2.0625.0820312.664062-.0820312 1.40625-.0820312 2.066406-.0820312 61.605469 0 111.484375 49.878906 111.484375 111.484375zm0 0" fill="#495965"/><path d="m272.515625 214.710938h-33.03125c-4.5625 0-8.257813-3.699219-8.257813-8.257813v-16.519531h16.515626v8.261718h16.515624v-49.550781h16.515626v57.808594c0 4.558594-3.695313 8.257813-8.257813 8.257813zm0 0" fill="#f26038"/><path d="m198.195312 140.386719h16.515626v16.515625h-16.515626zm0 0" fill="#f26038"/><path d="m297.289062 140.386719h16.515626v16.515625h-16.515626zm0 0" fill="#f26038"/><path d="m179.0625 115.183594 5.222656-15.671875 49.546875 16.515625-5.222656 15.671875zm0 0" fill="#495965"/><path d="m278.15625 116.027344 49.542969-16.523438 5.226562 15.667969-49.542969 16.527344zm0 0" fill="#495965"/><path d="m107.355469 346.839844c0-13.683594-11.09375-24.777344-24.773438-24.777344-45.609375.003906-82.582031 36.972656-82.582031 82.582031v8.257813c0 9.121094 7.394531 16.515625 16.515625 16.515625-9.121094 0-16.515625 7.394531-16.515625 16.515625v66.066406h107.355469z" fill="#edc68e"/><path d="m404.644531 346.839844v165.160156h107.355469v-66.066406c0-9.121094-7.394531-16.515625-16.515625-16.515625 9.121094 0 16.515625-7.394531 16.515625-16.515625v-8.257813c0-45.609375-36.972656-82.582031-82.582031-82.582031-13.679688.003906-24.773438 11.09375-24.773438 24.777344" fill="#edc68e"/><path d="m404.644531 338.582031v156.902344c0 9.082031-7.433593 16.515625-16.515625 16.515625h-115.613281c-9.082031 0-16.515625-7.433594-16.515625-16.515625 0 4.542969-1.816406 8.671875-4.875 11.644531-2.972656 3.054688-7.101562 4.871094-11.640625 4.871094h-115.613281c-9.082032 0-16.515625-7.433594-16.515625-16.515625v-156.902344c0-9.085937 7.433593-16.515625 16.515625-16.515625h16.515625c0 50.207032 40.628906 90.835938 90.839843 90.835938h49.546876c25.105468 0 47.8125-10.15625 64.25-26.589844 16.433593-16.433594 26.589843-39.144531 26.589843-64.246094h16.515625c9.082032 0 16.515625 7.429688 16.515625 16.515625zm0 0" fill="#72808a"/><path d="m247.742188 396.386719h16.515624v16.515625h-16.515624zm0 0" fill="#e0af6e"/><path d="m371.613281 206.453125v49.546875c0 36.5-29.5625 66.0625-66.066406 66.0625h-99.09375c-18.25 0-34.769531-7.429688-46.742187-19.324219-11.890626-11.972656-19.324219-28.488281-19.324219-46.738281v-49.546875h1.488281c3.300781 9.660156 12.46875 16.515625 23.285156 16.515625 2.890625 0 5.699219-.496094 8.261719-1.488281v34.519531c0 18.25 14.78125 33.03125 33.03125 33.03125 0-27.332031 22.214844-49.546875 49.546875-49.546875 13.707031 0 26.097656 5.53125 35.015625 14.535156 9 8.917969 14.53125 21.304688 14.53125 35.011719 9.085937 0 17.34375-3.714844 23.371094-9.660156 5.945312-6.03125 9.664062-14.289063 9.664062-23.371094v-34.519531c2.558594.992187 5.367188 1.488281 8.257813 1.488281 10.816406 0 19.984375-6.855469 23.285156-16.515625zm0 0" fill="#495965"/><path d="m256 289.03125c-13.660156 0-24.773438-11.113281-24.773438-24.773438h16.515626c0 4.550782 3.703124 8.257813 8.257812 8.257813 4.550781 0 8.257812-3.707031 8.257812-8.257813h16.515626c0 13.660157-11.113282 24.773438-24.773438 24.773438zm0 0" fill="#e0af6e"/><path d="m404.644531 371.613281-107.355469 140.386719h90.839844c9.121094 0 16.515625-7.394531 16.515625-16.515625zm0 0" fill="#496272"/><g fill="#fff"><path d="m218.308594 30.839844-7.199219-14.863282c15.476563-7.5 27.101563-7.71875 28.375-7.71875v16.515626c-.03125 0-9.074219.203124-21.175781 6.066406zm0 0"/><path d="m173.417969 99.097656h-16.515625c0-1.488281.308594-36.761718 27.195312-63.644531 2.855469-2.859375 5.867188-5.554687 8.9375-8.011719l10.3125 12.902344c-2.597656 2.074219-5.148437 4.355469-7.574218 6.785156-22.101563 22.101563-22.355469 51.671875-22.355469 51.96875zm0 0"/><path d="m346.839844 487.226562h-8.261719v-16.515624h8.261719c13.660156 0 24.773437-11.113282 24.773437-24.777344h16.515625c0 22.765625-18.523437 41.292968-41.289062 41.292968zm0 0"/><path d="m371.613281 412.902344h16.515625v16.515625h-16.515625zm0 0"/><path d="m33.03125 404.644531h-16.515625v-16.515625c0-22.765625 18.523437-41.289062 41.292969-41.289062v16.515625c-13.664063 0-24.777344 11.113281-24.777344 24.773437zm0 0"/><path d="m74.324219 346.839844h16.515625v16.515625h-16.515625zm0 0"/><path d="m495.484375 396.386719h-16.515625v-16.515625c0-13.660156-11.113281-24.773438-24.777344-24.773438v-16.519531c22.769532 0 41.292969 18.527344 41.292969 41.292969zm0 0"/><path d="m478.96875 412.902344h16.515625v16.515625h-16.515625zm0 0"/></g><path d="m189.933594 206.453125c0 10.816406-6.851563 19.984375-16.515625 23.285156-2.558594.992188-5.367188 1.488281-8.257813 1.488281-10.816406 0-19.984375-6.855468-23.285156-16.515624-.992188-2.5625-1.488281-5.367188-1.488281-8.257813 0-13.710937 11.066406-24.777344 24.773437-24.777344 13.710938 0 24.773438 11.066407 24.773438 24.777344zm0 0" fill="#ff0c38"/><path d="m371.613281 206.453125c0 2.886719-.496093 5.695313-1.488281 8.257813-3.300781 9.660156-12.46875 16.515624-23.285156 16.515624-2.890625 0-5.699219-.496093-8.261719-1.488281-9.660156-3.300781-16.515625-12.46875-16.515625-23.285156 0-13.710937 11.066406-24.777344 24.777344-24.777344 13.707031 0 24.773437 11.066407 24.773437 24.777344zm0 0" fill="#ff0c38"/></svg>