<svg height="512pt" viewBox="0 0 512 512" width="512pt" xmlns="http://www.w3.org/2000/svg"><path d="m400.101562 219.5-16.351562 47.070312c-2.0625 8.339844-9.578125 14.203126-18.167969 14.203126-5.035156 0-9.496093-1.980469-12.796875-5.121094l.660156-3.136719h1.652344l37.492188-77.957031c7.183594 5.453125 10.898437 15.195312 7.511718 24.941406zm0 0" fill="#6c5216"/><path d="m159.214844 275.652344c-3.300782 3.140625-7.761719 5.121094-12.796875 5.121094-8.589844 0-16.105469-5.863282-18.167969-14.203126l-16.351562-47.070312c-3.386719-9.746094.328124-19.488281 7.511718-24.941406l37.492188 77.957031h1.652344zm0 0" fill="#6c5216"/><path d="m416.289062 128.578125-23.699218 65.980469-37.492188 77.957031h-1.652344l12.636719-63.011719 17.175781-47.894531c22.542969-46.988281-3.46875-103.144531-54.089843-115.777344-29.316407-7.351562-64.992188-12.800781-106.199219-12.800781s-76.882812 5.449219-106.199219 12.800781c-6.851562 1.734375-13.210937 4.210938-19.074219 7.347657 10.488282-19.324219 28.65625-34.519532 52.109376-40.382813 29.3125-7.347656 64.988281-12.796875 106.195312-12.796875s76.882812 5.449219 106.199219 12.800781c50.621093 12.632813 76.632812 68.789063 54.089843 115.777344zm0 0" fill="#272e35"/><path d="m383.257812 161.609375-17.179687 47.898437 3.550781-17.921874 1.984375-9.910157v-49.546875s-57.808593-16.515625-115.613281-16.515625c-57.808594 0-115.613281 16.515625-115.613281 16.515625v49.546875l1.980469 9.910157 16.1875 80.929687h-1.652344l-37.492188-77.957031-10.734375-29.808594-12.964843-36.171875c-12.054688-25.1875-10.238282-53.015625 1.984374-75.398437 5.863282-3.136719 12.21875-5.613282 19.074219-7.347657 29.316407-7.351562 64.992188-12.800781 106.199219-12.800781s76.882812 5.449219 106.199219 12.800781c50.621093 12.636719 76.632812 68.789063 54.089843 115.777344zm0 0" fill="#40474f"/><path d="m371.613281 132.128906v49.546875l-1.984375 9.910157-16.183594 80.929687-.664062 3.136719-14.203125 62.925781v82.582031c-48.308594 38.648438-116.851563 38.648438-165.160156 0v-82.582031l-14.203125-62.925781-.660156-3.136719-16.1875-80.929687-1.984376-9.910157v-49.546875s57.808594-16.515625 115.613282-16.515625c57.808594 0 115.617187 16.515625 115.617187 16.515625zm0 0" fill="#a46713"/><path d="m123.871094 454.191406 24.773437 57.808594h-148.644531v-107.355469l123.871094-16.515625-49.546875 49.546875 57.804687-24.773437 16.515625 16.515625zm0 0" fill="#f26322"/><path d="m338.582031 421.160156v90.839844h-165.164062v-90.839844c48.308593 38.648438 116.851562 38.648438 165.164062 0zm0 0" fill="#85bace"/><path d="m512 404.644531v107.355469h-148.644531l24.773437-57.808594-24.773437-24.773437 16.515625-16.515625 57.804687 24.773437-49.546875-49.546875zm0 0" fill="#f26322"/><path d="m173.417969 338.582031v173.417969h-24.773438l-24.773437-57.808594 24.773437-24.773437-16.515625-16.515625-57.804687 24.773437zm0 0" fill="#ffe0af"/><path d="m363.355469 429.417969 24.773437 24.773437-24.773437 57.808594h-24.773438v-173.417969l99.09375 99.09375-57.804687-24.773437zm0 0" fill="#ffe0af"/><path d="m338.582031 421.160156v90.839844h-165.164062v-90.839844c48.308593 38.648438 116.851562 38.648438 165.164062 0zm0 0" fill="#85bace"/><path d="m256 378.628906c-21.402344 0-42.816406-5.453125-61.902344-16.363281l8.191406-14.335937c33.128907 18.925781 74.289063 18.925781 107.421876 0l8.191406 14.335937c-19.085938 10.90625-40.5 16.363281-61.902344 16.363281zm0 0" fill="#6d3e05"/><path d="m166.515625 206.339844-2.707031-16.289063 49.546875-8.261719c2.597656-.460937 5.304687.417969 7.191406 2.308594l8.257813 8.257813-11.675782 11.675781-5.25-5.253906zm0 0" fill="#40474f"/><path d="m222.96875 239.484375h-16.515625c0-4.554687-3.703125-8.257813-8.257813-8.257813-4.558593 0-8.261718 3.703126-8.261718 8.257813h-16.515625c0-13.660156 11.113281-24.773437 24.777343-24.773437 13.660157 0 24.773438 11.113281 24.773438 24.773437zm0 0" fill="#562f04"/><path d="m345.484375 206.339844-45.363281-7.5625-5.25 5.253906-11.675782-11.675781 8.257813-8.257813c1.886719-1.886718 4.5625-2.765625 7.191406-2.308594l49.546875 8.261719zm0 0" fill="#40474f"/><path d="m338.582031 239.484375h-16.515625c0-4.554687-3.703125-8.257813-8.261718-8.257813-4.554688 0-8.257813 3.703126-8.257813 8.257813h-16.515625c0-13.660156 11.113281-24.773437 24.773438-24.773437 13.664062 0 24.777343 11.113281 24.777343 24.773437zm0 0" fill="#562f04"/><path d="m256 297.289062c-13.660156 0-24.773438-11.113281-24.773438-24.773437v-8.257813h16.515626v8.257813c0 4.554687 3.699218 8.257813 8.257812 8.257813 4.554688 0 8.257812-3.703126 8.257812-8.257813v-57.804687h16.515626v57.804687c0 13.660156-11.113282 24.773437-24.773438 24.773437zm0 0" fill="#6d3e05"/><path d="m256 338.582031c-18.21875 0-33.03125-14.820312-33.03125-33.035156h16.515625c0 9.109375 7.410156 16.519531 16.515625 16.519531s16.515625-7.410156 16.515625-16.519531h16.515625c0 18.214844-14.8125 33.035156-33.03125 33.035156zm0 0" fill="#e0b886"/><path d="m198.195312 280.773438c0 9.121093-7.394531 16.515624-16.519531 16.515624-9.121093 0-16.515625-7.394531-16.515625-16.515624 0-9.121094 7.394532-16.515626 16.515625-16.515626 9.125 0 16.519531 7.394532 16.519531 16.515626zm0 0" fill="#f40e34"/><path d="m346.839844 280.773438c0 9.121093-7.394532 16.515624-16.515625 16.515624-9.125 0-16.519531-7.394531-16.519531-16.515624 0-9.121094 7.394531-16.515626 16.519531-16.515626 9.121093 0 16.515625 7.394532 16.515625 16.515626zm0 0" fill="#f40e34"/><path d="m512 404.644531v107.355469h-123.871094zm0 0" fill="#ea4200"/><g fill="#fff"><path d="m116.039062 118.226562-1.894531-5.683593c-4.8125-14.417969-3.082031-30.167969 4.742188-43.214844l1.660156-2.777344c9.363281-15.589843 26.453125-25.261719 44.613281-25.261719v16.515626c-12.394531 0-24.0625 6.605468-30.441406 17.234374l-1.660156 2.777344c-5.347656 8.914063-6.527344 19.664063-3.25 29.5l1.894531 5.683594zm0 0"/><path d="m189.933594 41.289062h16.519531v16.519532h-16.519531zm0 0"/></g></svg>