<svg height="512pt" viewBox="0 0 512 512" width="512pt" xmlns="http://www.w3.org/2000/svg"><path d="m511.835938 256c0 16.761719-3.066407 33.527344-9.109376 49.546875l-65.050781-16.515625v-1.734375l4.371094-14.78125c3.25-10.984375 4.925781-22.296875 4.925781-33.609375 0-6.027344-.464844-12.058594-1.394531-17.921875l57.152344-14.53125c6.039062 16.019531 9.105469 32.78125 9.105469 49.546875zm0 0" fill="#f37321"/><path d="m445.933594 239.738281 31.246094-8.265625 3.789062 16.015625-31.242188 8.265625zm0 0" fill="#ffdf00"/><path d="m445.9375 272.265625 3.785156-16.015625 31.246094 8.257812-3.789062 16.015626zm0 0" fill="#ffdf00"/><path d="m.164062 256c0 16.761719 3.066407 33.527344 9.109376 49.546875l65.050781-16.515625v-1.734375l-4.371094-14.78125c-3.25-10.984375-4.925781-22.296875-4.925781-33.609375 0-6.027344.464844-12.058594 1.394531-17.921875l-57.148437-14.53125c-6.042969 16.019531-9.109376 32.78125-9.109376 49.546875zm0 0" fill="#f37321"/><path d="m31.019531 247.484375 4.003907-16.015625 33.03125 8.257812-4.003907 16.015626zm0 0" fill="#ffdf00"/><path d="m31.039062 264.515625 33.03125-8.269531 4.007813 16.019531-33.03125 8.265625zm0 0" fill="#ffdf00"/><path d="m173.417969 82.582031-16.515625 8.257813-5.53125-8.34375c-15.195313-22.707032-39.476563-37.40625-66.230469-40.546875 1.734375-1.730469 3.714844-3.382813 5.78125-4.871094 7.925781-5.53125 17.011719-8.175781 25.929687-8.175781 15.855469 0 31.378907 8.257812 39.71875 23.289062zm0 0" fill="#a5af19"/><path d="m512 512h-512l16.515625-66.0625 82.582031-33.035156-2.890625-10.980469-7.929687-30.308594-4.621094-17.589843-8.425781-31.957032-13.046875-49.550781c-2.890625-10.980469-4.378906-22.296875-4.378906-33.609375 0-15.773438 2.808593-31.378906 8.257812-45.914062 5.371094-14.617188 13.378906-28.242188 23.621094-40.214844l17.671875-20.648438-24.527344-28.078125c-16.105469-18.332031-14.453125-45.582031 2.3125-62.097656 26.753906 3.136719 51.035156 17.835937 66.230469 40.546875l5.53125 8.339844 66.066406-33.03125c9.742188 7.347656 21.386719 11.0625 33.03125 11.0625s23.289062-3.714844 33.03125-11.0625l49.546875 24.773437 16.847656-30.390625c2.394531-4.210937 5.285157-7.925781 8.671875-11.066406 15.113282-14.203125 38.894532-16.679688 56.980469-4.046875 12.636719 8.921875 19.324219 23.042969 19.324219 37.246094 0 10.488281-3.632813 21.140625-11.230469 29.730469l-24.527344 28.078124 17.671875 20.644532c16.597656 19.40625 27.25 43.105468 30.636719 68.210937.824219 5.863281 1.238281 11.890625 1.238281 17.921875 0 4.457032-.246094 8.835938-.742187 13.292969v.085937c-.164063 1.898438-.414063 3.878907-.660157 5.777344-.746093 4.875-1.734374 9.664063-2.972656 14.453125l-13.050781 49.546875-8.421875 31.957032-4.542969 17.59375h-.082031l-7.929688 30.304687-2.886718 10.984375 82.578125 33.03125zm0 0" fill="#bfd22b"/><path d="m512 512h-74.324219c0-29.976562-18-57.0625-45.746093-68.625l-53.347657-22.214844 34.1875-48.804687.496094-.742188 29.894531-42.777343 4.789063-6.769532 44.839843-64 1.40625-2.066406-4.378906 16.519531-13.046875 49.546875-8.339843 32.039063-4.625 17.507812h-.082032l-7.929687 30.308594-2.890625 10.980469 82.582031 33.035156zm0 0" fill="#a5af19"/><path d="m289.03125 57.804688 49.550781 41.292968v-16.515625zm0 0" fill="#a5af19"/><path d="m454.191406 238.90625c0 4.457031-.246094 8.835938-.742187 13.296875-2.476563-12.140625-11.644531-51.203125-32.289063-78.78125-24.773437-33.035156-41.289062-41.292969-41.289062-41.292969l24.773437-24.773437s24.773438-24.773438 8.257813-49.546875c-15.03125-22.628906-43.933594-17.671875-48.804688-16.683594 15.113282-14.203125 38.894532-16.679688 56.980469-4.046875 12.636719 8.921875 19.324219 23.039063 19.324219 37.246094 0 10.488281-3.632813 21.140625-11.230469 29.726562l-24.527344 28.078125 17.671875 20.648438c16.597656 19.402344 27.25 43.105468 30.636719 68.210937.828125 5.859375 1.238281 11.890625 1.238281 17.917969zm0 0" fill="#a5af19"/><path d="m398.863281 222.96875c-.082031 9.25-1.980469 18.496094-5.699219 27.332031l-35.671874 84.730469-5.699219 13.460938c-1.074219 2.476562-2.230469 4.953124-3.550781 7.265624l-.082032.082032c-2.808594 5.039062-6.195312 9.664062-10.078125 13.875-1.320312 1.402344-2.722656 2.808594-4.128906 4.046875-4.871094 4.460937-10.488281 8.339843-16.515625 11.398437l-.246094.078125c-3.46875 1.652344-6.855468 3.058594-10.570312 4.132813h-.085938c-.164062.164062-.410156.164062-.578125.246094-1.898437.578124-3.714843 1.074218-5.613281 1.570312-10.078125 2.640625-20.398438 4.457031-30.804688 5.203125-4.457031.414063-9 .578125-13.542968.578125-4.539063 0-9.082032-.164062-13.542969-.578125-10.402344-.746094-20.726563-2.558594-30.800781-5.203125-1.898438-.496094-3.714844-.992188-5.617188-1.570312-.164062-.082032-.410156-.082032-.578125-.246094h-.082031c-3.714844-1.074219-7.101562-2.480469-10.570312-4.132813l-.246094-.078125c-6.03125-3.058594-11.644532-6.9375-16.519532-11.398437-1.402343-1.238281-2.804687-2.640625-4.128906-4.046875-2.804687-3.054688-5.367187-6.277344-7.59375-9.746094l-2.480468-4.128906-.082032-.082032c-1.320312-2.3125-2.476562-4.789062-3.550781-7.265624l-5.613281-13.378907-35.757813-84.808593c-3.714843-8.839844-5.617187-18.085938-5.699219-27.335938-.082031-8.753906 1.488282-17.589844 4.625-26.011719 0-.082031.082032-.167969.082032-.25.082031-.328125.246094-.578125.332031-.90625.082031-.082031.082031-.246093.164063-.332031.082031-.082031.082031-.246094.164062-.328125 1.734375-4.210937 3.800781-8.257813 6.277344-11.976563.164062-.328124.332031-.660156.496094-.90625 2.640624-3.964843 5.695312-7.679687 9.082031-11.066406l10.488281-10.488281c3.714844-3.714844 7.929688-7.019531 12.386719-9.824219.414062-.332031.910156-.660156 1.402343-.910156 4.542969-2.808594 9.414063-5.039062 14.453126-6.6875 10.488281-3.550781 21.222656-6.195312 32.125-8.011719.988281-.246093 1.898437-.414062 2.804687-.496093 11.066406-1.734376 22.296875-2.640626 33.613281-2.640626h28.734375c11.316407 0 22.546875.90625 33.613281 2.640626.90625.082031 1.816407.25 2.804688.496093 10.902344 1.816407 21.636719 4.460938 32.125 8.011719 5.039062 1.648438 9.910156 3.878906 14.449219 6.6875.496093.25.992187.578125 1.40625.910156 4.457031 2.804688 8.671875 6.109375 12.386719 9.824219l10.488281 10.488281c3.386719 3.386719 6.441406 7.101563 9.082031 11.066406.164062.246094.332031.578126.496094.90625 2.476562 3.71875 4.542968 7.765626 6.277344 11.976563.082031.082031.082031.246094.164062.328125.082031.085938.082031.25.164062.332031 3.476563 8.75 5.125 18 5.042969 27.167969zm0 0" fill="#ffb398"/><g fill="#fff"><path d="m256 132.128906-10.652344 17.671875c-6.359375 10.734375-21.882812 10.734375-28.242187 0l-9.085938-15.027343c11.066407-1.734376 22.296875-2.644532 33.609375-2.644532zm0 0"/><path d="m445.9375 74.324219c0 18.242187-14.789062 33.03125-33.035156 33.03125-18.242188 0-33.03125-14.789063-33.03125-33.03125 0-18.246094 14.789062-33.035157 33.03125-33.035157 18.246094 0 33.035156 14.789063 33.035156 33.035157zm0 0"/><path d="m132.128906 66.0625c0 18.246094-14.789062 33.035156-33.03125 33.035156-18.246094 0-33.035156-14.789062-33.035156-33.035156 0-18.242188 14.789062-33.03125 33.035156-33.03125 18.242188 0 33.03125 14.789062 33.03125 33.03125zm0 0"/><path d="m205.210938 135.265625-7.265626 18.167969c-4.046874 10.074218-16.515624 13.542968-25.269531 7.019531l-14.039062-10.488281c4.542969-2.804688 9.414062-5.035156 14.453125-6.6875 10.488281-3.550782 21.222656-6.191406 32.121094-8.011719zm0 0"/><path d="m137.910156 187.292969-12.636718-5.039063c2.644531-3.964844 5.699218-7.679687 9.085937-11.0625l10.484375-10.488281c3.71875-3.714844 7.929688-7.019531 12.390625-9.828125l3.136719 18.332031c2.066406 12.71875-10.488282 22.875-22.460938 18.085938zm0 0"/><path d="m148.644531 222.96875h-35.507812c-.085938-8.753906 1.484375-17.589844 4.625-26.015625 0-.082031.082031-.164063.082031-.246094.082031-.332031.246094-.578125.328125-.90625.082031-.082031.082031-.25.167969-.332031.082031-.082031.082031-.246094.164062-.328125 1.734375-4.214844 3.796875-8.257813 6.273438-11.976563zm0 0"/><path d="m303.980469 134.773438-9.085938 15.027343c-6.359375 10.734375-21.882812 10.734375-28.242187 0l-10.652344-17.671875h14.367188c11.316406 0 22.546874.910156 33.613281 2.644532zm0 0"/><path d="m353.363281 149.964844-14.039062 10.488281c-8.753907 6.523437-21.222657 3.054687-25.269531-7.019531l-7.269532-18.167969c10.902344 1.816406 21.636719 4.460937 32.125 8.011719 5.039063 1.652344 9.910156 3.882812 14.453125 6.6875zm0 0"/><path d="m386.726562 182.253906-12.636718 5.039063c-11.976563 4.789062-24.527344-5.367188-22.460938-18.085938l3.136719-18.332031c4.457031 2.808594 8.671875 6.113281 12.386719 9.828125l10.488281 10.488281c3.386719 3.382813 6.441406 7.097656 9.085937 11.0625zm0 0"/><path d="m398.863281 222.96875h-35.507812l23.863281-39.804688c2.480469 3.714844 4.542969 7.761719 6.277344 11.972657.082031.085937.082031.25.164062.332031.082032.082031.082032.246094.167969.328125 3.46875 8.753906 5.117187 18.003906 5.035156 27.171875zm0 0"/><path d="m205.378906 389.367188c-3.71875-1.074219-7.101562-2.476563-10.570312-4.128907l-.25-.082031c-6.027344-3.054688-11.644532-6.9375-16.515625-11.394531l9.082031-12.140625c4.296875-5.699219 13.296875-3.632813 14.699219 3.304687zm0 0"/><path d="m247.742188 396.386719h-5.285157c-10.40625-.742188-20.730469-2.558594-30.804687-5.203125l17.507812-17.507813c4.542969-4.542969 12.304688-2.394531 13.875 3.796875zm0 0"/><path d="m148.644531 335.832031 41.375-21.941406-18.808593 57.722656zm0 0"/><path d="m333.957031 373.761719c-4.875 4.457031-10.488281 8.339843-16.515625 11.394531l-.25.082031c-3.46875 1.652344-6.855468 3.054688-10.570312 4.128907l3.550781-24.441407c1.402344-6.9375 10.40625-9.003906 14.699219-3.304687zm0 0"/><path d="m300.34375 391.183594c-10.074219 2.644531-20.394531 4.460937-30.800781 5.203125h-5.285157l4.707032-18.910157c1.570312-6.195312 9.332031-8.339843 13.875-3.800781zm0 0"/><path d="m340.738281 371.613281-18.671875-57.808593 41.289063 21.945312zm0 0"/></g><path d="m289.03125 57.804688c-9.742188 7.351562-21.386719 11.066406-33.03125 11.066406s-23.289062-3.714844-33.03125-11.066406l33.03125-57.804688zm0 0" fill="#f40e34"/><path d="m107.355469 66.0625c0 9.125-7.394531 16.519531-16.515625 16.519531s-16.515625-7.394531-16.515625-16.519531c0-9.121094 7.394531-16.515625 16.515625-16.515625s16.515625 7.394531 16.515625 16.515625zm0 0"/><path d="m437.675781 74.324219c0 9.121093-7.394531 16.515625-16.515625 16.515625s-16.515625-7.394532-16.515625-16.515625c0-9.125 7.394531-16.519531 16.515625-16.519531s16.515625 7.394531 16.515625 16.519531zm0 0"/><path d="m256 404.644531-24.773438 57.804688h49.546876zm0 0" fill="#f37321"/><path d="m181.675781 272.515625c0 13.683594-11.089843 24.773437-24.773437 24.773437s-24.773438-11.089843-24.773438-24.773437 11.089844-24.773437 24.773438-24.773437 24.773437 11.089843 24.773437 24.773437zm0 0" fill="#f40e34"/><path d="m379.871094 272.515625c0 13.683594-11.09375 24.773437-24.773438 24.773437-13.683594 0-24.777344-11.089843-24.777344-24.773437s11.09375-24.773437 24.777344-24.773437c13.679688 0 24.773438 11.089843 24.773438 24.773437zm0 0" fill="#f40e34"/><path d="m188.03125 212.460938-11.320312-12.019532c15.597656-14.691406 38.320312-18.53125 57.886718-9.789062l-6.742187 15.082031c-13.464844-6.023437-29.089844-3.378906-39.824219 6.726563zm0 0" fill="#f37021"/><path d="m329.640625 218.691406c-9.121094-11.585937-24.183594-16.523437-38.386719-12.546875l-4.445312-15.902343c20.660156-5.773438 42.542968 1.394531 55.808594 18.226562zm0 0" fill="#f37021"/><path d="m231.226562 305.546875h49.546876v16.519531c0 13.679688-11.089844 24.773438-24.773438 24.773438s-24.773438-11.09375-24.773438-24.773438zm0 0" fill="#e58365"/><path d="m256 289.03125c-13.660156 0-24.773438-11.113281-24.773438-24.773438v-8.257812h16.515626v8.257812c0 4.558594 3.703124 8.257813 8.257812 8.257813 4.550781 0 8.257812-3.699219 8.257812-8.257813v-8.257812h16.515626v8.257812c0 13.660157-11.113282 24.773438-24.773438 24.773438zm0 0" fill="#e58365"/><path d="m99.097656 412.902344 8.257813 66.066406-49.550781-49.550781zm0 0" fill="#f37321"/><path d="m16.515625 445.933594 33.03125 41.292968 8.257813-57.808593zm0 0" fill="#f37321"/><path d="m115.613281 322.066406-31.957031 31.957032-8.425781-31.957032zm0 0" fill="#f37321"/><path d="m140.386719 371.613281-44.179688 30.308594-7.929687-30.308594zm0 0" fill="#f37321"/><path d="m412.902344 412.902344-8.257813 66.066406 49.546875-49.550781zm0 0" fill="#f37321"/><path d="m495.484375 445.933594-33.035156 41.292968-8.257813-57.808593zm0 0" fill="#f37321"/><path d="m436.769531 322.066406-8.339843 32.039063-32.042969-32.039063zm0 0" fill="#f37321"/><path d="m423.722656 371.613281-7.929687 30.308594-43.023438-29.566406-1.15625-.742188zm0 0" fill="#f37321"/><path d="m214.710938 49.546875c0 9.121094-7.394532 16.515625-16.515626 16.515625-9.125 0-16.519531-7.394531-16.519531-16.515625s7.394531-16.515625 16.519531-16.515625c9.121094 0 16.515626 7.394531 16.515626 16.515625zm0 0" fill="#f9ed20"/><path d="m330.324219 49.546875c0 9.121094-7.394531 16.515625-16.519531 16.515625-9.121094 0-16.515626-7.394531-16.515626-16.515625s7.394532-16.515625 16.515626-16.515625c9.125 0 16.519531 7.394531 16.519531 16.515625zm0 0" fill="#f9ed20"/><path d="m247.742188 462.449219h16.515624v49.550781h-16.515624zm0 0" fill="#a2b427"/><path d="m445.933594 495.484375h-16.515625c-.011719-.460937-.460938-13.558594-14.09375-27.195313-2.410157-2.410156-5.472657-4.820312-9.097657-7.152343l8.949219-13.886719c4.605469 2.976562 8.585938 6.121094 11.824219 9.363281 18.722656 18.714844 18.933594 38.054688 18.933594 38.871094zm0 0" fill="#fff"/><path d="m392.980469 454.03125c-12.109375-5.484375-23.265625-8.3125-23.375-8.34375l4.011719-16.019531c.507812.121093 12.648437 3.195312 26.175781 9.316406zm0 0" fill="#fff"/><path d="m416.632812 186.238281c-4.875-12.191406-12.179687-23.269531-21.464843-32.558593l-10.496094-10.492188c-10.648437-10.648438-23.628906-18.675781-37.917969-23.4375-24.628906-8.210938-50.421875-12.394531-76.382812-12.394531h-28.742188c-25.960937 0-51.753906 4.183593-76.382812 12.394531-14.289063 4.761719-27.269532 12.785156-37.917969 23.4375l-10.496094 10.496094c-9.285156 9.285156-16.589843 20.363281-21.464843 32.558594-9.476563 23.683593-9.238282 50.152343.660156 73.664062l41.351562 98.207031c11.234375 26.679688 33.792969 46.945313 61.523438 55.265625 37.246094 11.171875 76.949218 11.171875 114.195312 0 27.726563-8.320312 50.289063-28.585937 61.523438-55.265625l41.351562-98.207031c9.898438-23.511719 10.136719-49.980469.660156-73.667969zm-23.492187 64.050781-41.355469 98.210938c-8.390625 19.933594-25.085937 34.933594-45.804687 41.152344-16.222657 4.863281-33.039063 7.332031-49.980469 7.332031-16.9375 0-33.757812-2.46875-49.980469-7.339844-20.71875-6.210937-37.414062-21.210937-45.808593-41.144531l-41.347657-98.210938c-7.417969-17.621093-7.597656-37.097656-.496093-54.84375 3.65625-9.128906 9.03125-17.292968 15.988281-24.25l10.488281-10.492187c7.890625-7.878906 17.65625-13.921875 28.242188-17.453125 22.140624-7.378906 45.203124-11.121094 68.542968-11.121094h28.742188c23.34375 0 46.402344 3.742188 68.550781 11.121094 10.578125 3.53125 20.34375 9.574219 28.234375 17.460938l10.492188 10.484374c6.953124 6.957032 12.332031 15.121094 15.988281 24.25 7.097656 17.746094 6.917969 37.222657-.496094 54.84375zm0 0" fill="#f37321"/><path d="m199.261719 117.523438-2.136719-16.371094c15.546875-2.03125 25.433594-2.054688 25.84375-2.054688l.007812 16.515625c-.09375 0-9.328124.03125-23.714843 1.910157zm0 0" fill="#fff"/><path d="m122.992188 160.613281-14.765626-7.402343c.746094-1.484376 18.632813-36.535157 54.929688-45.605469 2.898438-.726563 5.734375-1.386719 8.492188-1.992188l3.539062 16.128907c-2.609375.570312-5.292969 1.199218-8.03125 1.886718-28.804688 7.199219-44.015625 36.6875-44.164062 36.984375zm0 0" fill="#fff"/><path d="m222.96875 239.484375c0 4.5625-3.699219 8.257813-8.257812 8.257813-4.5625 0-8.257813-3.695313-8.257813-8.257813s3.695313-8.257813 8.257813-8.257813c4.558593 0 8.257812 3.695313 8.257812 8.257813zm0 0" fill="#fff"/><path d="m214.710938 214.710938c-13.664063 0-24.777344 11.113281-24.777344 24.773437s11.113281 24.773437 24.777344 24.773437c13.660156 0 24.773437-11.113281 24.773437-24.773437s-11.113281-24.773437-24.773437-24.773437zm0 33.03125c-4.554688 0-8.257813-3.703126-8.257813-8.257813 0-4.558594 3.703125-8.257813 8.257813-8.257813 4.550781 0 8.257812 3.699219 8.257812 8.257813 0 4.554687-3.707031 8.257813-8.257812 8.257813zm0 0" fill="#007fa4"/><path d="m305.546875 239.484375c0 4.5625-3.695313 8.257813-8.257813 8.257813-4.558593 0-8.257812-3.695313-8.257812-8.257813s3.699219-8.257813 8.257812-8.257813c4.5625 0 8.257813 3.695313 8.257813 8.257813zm0 0" fill="#fff"/><path d="m297.289062 214.710938c-13.660156 0-24.773437 11.113281-24.773437 24.773437s11.113281 24.773437 24.773437 24.773437c13.664063 0 24.777344-11.113281 24.777344-24.773437s-11.113281-24.773437-24.777344-24.773437zm0 33.03125c-4.550781 0-8.257812-3.703126-8.257812-8.257813 0-4.558594 3.707031-8.257813 8.257812-8.257813 4.554688 0 8.257813 3.699219 8.257813 8.257813 0 4.554687-3.703125 8.257813-8.257813 8.257813zm0 0" fill="#007fa4"/></svg>