<svg height="512pt" viewBox="0 0 512 512.00199" width="512pt" xmlns="http://www.w3.org/2000/svg"><path d="m140.386719 247.742188v49.550781h-24.773438c-13.707031 0-24.773437-11.066407-24.773437-24.777344 0-6.851563 2.808594-13.046875 7.265625-17.507813 4.460937-4.457031 10.652343-7.265624 17.507812-7.265624zm0 0" fill="#efab7b"/><path d="m421.164062 272.519531c0 13.707031-11.066406 24.773438-24.777343 24.773438h-24.773438v-49.546875h24.773438c6.855469 0 13.050781 2.804687 17.507812 7.265625 4.460938 4.457031 7.269531 10.652343 7.269531 17.507812zm0 0" fill="#efab7b"/><path d="m371.613281 66.066406v33.03125h-86.957031l-1.320312-7.679687 27.332031-26.589844-37.820313-5.449219-16.847656-34.273437-16.847656 34.273437-37.820313 5.449219 27.335938 26.589844-1.324219 7.679687h-86.957031v-33.03125l25.765625-5.203125c1.652344-.660156 3.222656-1.488281 4.789062-2.3125l1.984375-1.074219c1.15625-.660156 2.3125-1.320312 3.386719-2.0625l1.898438-1.324218c1.484374-.90625 2.890624-1.980469 4.210937-3.136719l4.707031-4.210937c1.484375-1.488282 2.890625-3.054688 4.210938-4.707032 1.15625-1.320312 2.230468-2.726562 3.136718-4.210937.496094-.578125.910157-1.238281 1.324219-1.902344.742188-1.074219 1.402344-2.226563 2.0625-3.382813.414063-.664062.742188-1.320312 1.074219-1.984374.824219-1.570313 1.652344-3.136719 2.3125-4.789063 3.386719-7.929687 5.203125-16.683594 5.203125-25.765625h99.097656c0 18.25 7.429688 34.765625 19.324219 46.738281l20.972656 14.121094c7.929688 3.390625 16.683594 5.207031 25.765625 5.207031zm0 0" fill="#b36c1d"/><path d="m206.453125.00390625c0 9.08203175-1.816406 17.83593775-5.203125 25.76171875-.660156 1.652344-1.488281 3.222656-2.3125 4.792969-.332031.660156-.660156 1.320312-1.074219 1.980468-.660156 1.15625-1.320312 2.3125-2.0625 3.386719-.414062.660157-.828125 1.320313-1.324219 1.898438-.90625 1.488281-1.980468 2.890625-3.136718 4.210937-1.320313 1.652344-2.726563 3.222656-4.210938 4.707032l-4.707031 4.214843c-1.320313 1.15625-2.726563 2.226563-4.210937 3.136719l-1.898438 1.320312c-1.074219.746094-2.230469 1.40625-3.386719 2.066407l-1.984375 1.074219c-1.566406.824218-3.136718 1.648437-4.789062 2.308593l-25.765625 5.203125v-33.03125c0-18.25 14.78125-33.03124975 33.035156-33.03124975zm0 0" fill="#76490e"/><path d="m371.613281 99.097656v49.550782h-231.226562v-49.550782h86.957031l-5.117188 29.976563 33.773438-17.753907 33.777344 17.753907-5.121094-29.976563zm0 0" fill="#f37021"/><path d="m388.128906 247.742188h-16.515625v115.613281s-33.03125 49.546875-115.613281 49.546875c-82.578125 0-115.613281-49.546875-115.613281-49.546875v-115.613281h-16.515625c6.027344 0 11.644531-1.648438 16.515625-4.457032 2.476562-1.40625 4.789062-3.222656 6.855469-5.203125 5.945312-6.03125 9.660156-14.289062 9.660156-23.371093 0 18.25 14.78125 33.03125 33.035156 33.03125 9.082031 0 17.339844-3.714844 23.371094-9.660157 5.945312-6.03125 9.660156-14.289062 9.660156-23.371093 0 18.25 14.78125 33.035156 33.03125 33.035156 9.085938 0 17.34375-3.71875 23.371094-9.664063 5.945312-6.027343 9.664062-14.285156 9.664062-23.371093 0 18.253906 14.78125 33.035156 33.03125 33.035156 9.085938 0 17.34375-3.71875 23.371094-9.664063 5.945312-6.027343 9.660156-14.285156 9.660156-23.367187 0 12.21875 6.609375 22.875 16.519532 28.570312 4.871093 2.808594 10.484374 4.457032 16.511718 4.457032zm0 0" fill="#e7c1a2"/><path d="m338.582031.00390625h-33.03125c0 18.24999975 7.429688 34.76562475 19.324219 46.73828175l20.972656 14.121093c7.929688 3.386719 16.683594 5.203125 25.765625 5.203125v-33.03125c0-18.25-14.78125-33.03124975-33.03125-33.03124975zm0 0" fill="#76490e"/><path d="m214.710938 272.519531h-16.515626c0-4.558593-3.707031-8.261719-8.257812-8.261719-4.554688 0-8.257812 3.703126-8.257812 8.261719h-16.519532c0-13.664062 11.113282-24.777343 24.777344-24.777343 13.660156 0 24.773438 11.113281 24.773438 24.777343zm0 0" fill="#e58365"/><path d="m346.839844 272.519531h-16.515625c0-4.558593-3.707031-8.261719-8.257813-8.261719-4.554687 0-8.261718 3.703126-8.261718 8.261719h-16.515626c0-13.664062 11.113282-24.777343 24.777344-24.777343 13.660156 0 24.773438 11.113281 24.773438 24.777343zm0 0" fill="#e58365"/><path d="m256 305.550781c-13.660156 0-24.773438-11.113281-24.773438-24.773437v-8.257813h16.515626v8.257813c0 4.554687 3.707031 8.257812 8.257812 8.257812 4.554688 0 8.257812-3.703125 8.257812-8.257812v-33.035156h16.515626v33.035156c0 13.660156-11.113282 24.773437-24.773438 24.773437zm0 0" fill="#e58365"/><path d="m322.066406 329.332031c0 8.261719-5.535156 15.941407-13.710937 17.261719-10.320313 1.734375-19.324219-6.277344-19.324219-16.269531 0 9.085937-7.429688 16.515625-16.515625 16.515625-9.082031 0-16.515625-7.429688-16.515625-16.515625 0 9.085937-7.433594 16.515625-16.515625 16.515625s-16.515625-7.429688-16.515625-16.515625c0 9.992187-9.003906 18.003906-19.324219 16.269531-8.175781-1.320312-13.710937-9-13.710937-17.261719 0-8.835937 3.636718-16.84375 9.414062-22.625 5.78125-5.78125 13.792969-9.414062 22.628906-9.414062h68.046876c17.671874 0 32.042968 14.367187 32.042968 32.039062zm0 0" fill="#4d4d4d"/><path d="m189.9375 322.066406c0 13.683594-11.09375 24.773438-24.777344 24.773438-13.679687 0-24.773437-11.089844-24.773437-24.773438s11.09375-24.773437 24.773437-24.773437c13.683594 0 24.777344 11.089843 24.777344 24.773437zm0 0" fill="#f40e34"/><path d="m371.613281 322.066406c0 13.683594-11.089843 24.773438-24.773437 24.773438s-24.773438-11.089844-24.773438-24.773438 11.089844-24.773437 24.773438-24.773437 24.773437 11.089843 24.773437 24.773437zm0 0" fill="#f40e34"/><path d="m256 512.003906h-173.417969v-99.097656h41.289063c26.757812 42.777344 67.054687 75.394531 114.539062 92.65625zm0 0" fill="#76490e"/><path d="m429.421875 412.90625v99.097656h-173.421875l5.949219-2.398437c25.101562-9.992188 48.554687-23.367188 69.777343-39.71875 21.226563-16.1875 40.21875-35.34375 56.402344-56.980469zm0 0" fill="#76490e"/><path d="m388.128906 412.90625c-16.183594 21.636719-35.179687 40.792969-56.402344 56.980469-21.222656 16.351562-44.675781 29.726562-69.78125 39.71875l-5.945312 2.398437-17.589844-6.441406c-4.128906-1.488281-8.257812-3.140625-12.304687-4.957031 22.378906-6.6875 72.835937-25.269531 104.21875-62.925781 21.800781-26.09375 40.132812-71.351563 41.207031-74.15625.082031-.082032.082031-.167969.082031-.167969 0 11.066406 3.632813 21.308593 9.828125 29.484375v.082031zm0 0" fill="#ea5b13"/><path d="m371.53125 363.523438c-1.074219 2.804687-19.40625 48.0625-41.207031 74.15625-31.382813 37.65625-81.839844 56.238281-104.21875 62.925781-42.117188-18.085938-77.789063-48.640625-102.234375-87.699219l16.515625-49.550781s33.035156 49.550781 115.613281 49.550781c80.019531 0 113.464844-46.492188 115.53125-49.382812zm0 0" fill="#f37021"/><path d="m289.03125 330.324219v16.515625c0 18.25-14.78125 33.035156-33.03125 33.035156s-33.03125-14.785156-33.03125-33.035156v-16.515625c0 9.085937 7.433594 16.515625 16.515625 16.515625s16.515625-7.429688 16.515625-16.515625c0 9.085937 7.433594 16.515625 16.515625 16.515625 9.085937 0 16.515625-7.433594 16.515625-16.515625zm0 0" fill="#e58365"/><path d="m469.878906 384.710938-11.675781 11.675781c-11.503906 11.503906-27.269531 16.175781-42.21875 13.957031-.058594.058594-.058594-.058594-.058594-.058594-10.160156-1.402344-19.96875-6.074218-27.796875-13.898437l11.679688-11.675781c9.691406-9.695313 22.363281-14.542969 35.035156-14.480469 12.671875-.0625 25.34375 4.785156 35.035156 14.480469zm0 0" fill="#f37021"/><path d="m388.128906 396.390625c-19.347656-19.351563-19.347656-50.722656 0-70.074219l11.679688-11.675781c19.347656 19.347656 19.347656 50.722656 0 70.070313zm0 0" fill="#f37021"/><path d="m0 512.003906h82.582031v-99.097656c-45.609375 0-82.582031 36.972656-82.582031 82.578125zm0 0" fill="#b36c1d"/><path d="m512 512.003906h-82.578125v-99.097656c45.605469 0 82.578125 36.972656 82.578125 82.578125zm0 0" fill="#b36c1d"/><path d="m123.871094 247.742188h-24.773438c-54.75 0-99.097656-44.34375-99.097656-99.09375v-8.261719c5.367188 19.078125 24.609375 41.292969 45.421875 41.292969h45.417969v33.03125c0 18.25 14.78125 33.03125 33.03125 33.03125zm0 0" fill="#76490e"/><path d="m512 148.648438c0 27.414062-11.066406 52.1875-28.984375 70.109374-17.921875 17.917969-42.695313 28.984376-70.113281 28.984376h-24.773438c9.085938 0 17.34375-3.714844 23.371094-9.660157 5.945312-6.03125 9.664062-14.289062 9.664062-23.371093v-33.03125h45.417969c20.8125 0 40.050781-22.214844 45.421875-41.292969v8.261719zm0 0" fill="#76490e"/><path d="m222.96875 181.679688v33.03125c0 9.085937-3.714844 17.34375-9.660156 23.371093-6.03125 5.945313-14.289063 9.660157-23.371094 9.660157-18.25 0-33.035156-14.78125-33.035156-33.03125v-33.03125zm0 0" fill="#4d4d4d"/><path d="m156.902344 181.679688v33.03125c0 9.085937-3.714844 17.34375-9.660156 23.371093-2.066407 1.980469-4.378907 3.796875-6.855469 5.203125-4.871094 2.808594-10.488281 4.460938-16.515625 4.460938-18.25 0-33.03125-14.785156-33.03125-33.035156v-33.03125zm0 0" fill="#808080"/><path d="m289.03125 181.679688v33.03125c0 9.085937-3.714844 17.34375-9.660156 23.371093-6.027344 5.945313-14.285156 9.660157-23.371094 9.660157-18.25 0-33.03125-14.78125-33.03125-33.03125v-33.03125zm0 0" fill="#808080"/><path d="m355.097656 181.679688v33.03125c0 9.085937-3.714844 17.34375-9.664062 23.371093-6.027344 5.945313-14.285156 9.660157-23.367188 9.660157-18.253906 0-33.035156-14.78125-33.035156-33.03125v-33.03125zm0 0" fill="#4d4d4d"/><path d="m421.164062 181.679688v33.03125c0 9.085937-3.71875 17.34375-9.664062 23.371093-6.027344 5.945313-14.285156 9.660157-23.371094 9.660157-6.027344 0-11.640625-1.648438-16.515625-4.457032-9.910156-5.699218-16.515625-16.351562-16.515625-28.574218v-33.03125zm0 0" fill="#808080"/><path d="m284.65625 99.097656 5.121094 29.976563-33.777344-17.753907-33.773438 17.753907 5.117188-29.976563 1.324219-7.679687-27.335938-26.589844 37.820313-5.449219 16.847656-34.273437 16.847656 34.273437 37.820313 5.449219-27.332031 26.589844zm0 0" fill="#fdb71a"/><path d="m181.679688 66.066406h-16.519532c0-22.765625 18.527344-41.289062 41.292969-41.289062v16.515625c-13.660156 0-24.773437 11.113281-24.773437 24.773437zm0 0" fill="#fff"/><path d="m165.160156 82.582031h16.519532v16.515625h-16.519532zm0 0" fill="#fff"/><path d="m429.421875 412.90625-99.097656 99.097656h99.097656zm0 0" fill="#543006"/><path d="m256 66.066406c0 4.5625-3.695312 8.257813-8.257812 8.257813s-8.257813-3.695313-8.257813-8.257813 3.695313-8.257812 8.257813-8.257812 8.257812 3.695312 8.257812 8.257812zm0 0" fill="#fff"/><path d="m392.011719 478.96875 5.117187 29.976562-33.773437-17.753906-33.777344 17.753906 5.121094-29.976562 1.320312-7.679688-27.332031-26.589843 37.820312-5.449219 16.847657-34.273438 16.847656 34.273438 37.820313 5.449219-27.335938 26.589843zm0 0" fill="#fdb71a"/><path d="m371.613281 441.808594c0 6.839844-5.546875 12.386718-12.386719 12.386718-6.839843 0-12.386718-5.546874-12.386718-12.386718 0-6.84375 5.546875-12.386719 12.386718-12.386719 6.839844 0 12.386719 5.542969 12.386719 12.386719zm0 0" fill="#fff"/><path d="m388.128906 478.96875c0 4.5625-3.695312 8.257812-8.257812 8.257812-4.558594 0-8.257813-3.695312-8.257813-8.257812 0-4.558594 3.699219-8.257812 8.257813-8.257812 4.5625 0 8.257812 3.699218 8.257812 8.257812zm0 0" fill="#fff"/><path d="m512 136.261719c0 4.292969-.578125 8.421875-1.734375 12.386719-5.367187 19.074218-22.875 33.03125-43.683594 33.03125h-421.160156c-20.8125 0-38.320313-13.957032-43.6875-33.03125-1.15625-3.964844-1.734375-8.09375-1.734375-12.386719 0-10.242188 4.128906-19.574219 10.902344-26.261719 6.6875-6.769531 16.019531-10.898438 26.257812-10.898438 10.242188 0 19.574219 4.128907 26.261719 10.898438 6.769531 6.6875 10.902344 16.019531 10.902344 26.261719 0 6.851562 5.53125 12.386719 12.386719 12.386719h338.578124c6.855469 0 12.386719-5.535157 12.386719-12.386719 0-10.242188 4.132813-19.574219 10.902344-26.261719 6.6875-6.769531 16.019531-10.898438 26.261719-10.898438 10.238281 0 19.570312 4.128907 26.257812 10.898438 6.773438 6.6875 10.902344 16.019531 10.902344 26.261719zm0 0" fill="#b36c1d"/><g fill="#fff"><path d="m462.453125 173.421875v-16.515625c13.660156 0 24.773437-11.113281 24.773437-24.777344h16.515626c0 22.769532-18.523438 41.292969-41.289063 41.292969zm0 0"/><path d="m429.421875 156.90625h16.515625v16.515625h-16.515625zm0 0"/><path d="m66.066406 140.390625h-16.515625c0-9.105469-7.410156-16.515625-16.519531-16.515625v-16.519531c18.214844 0 33.035156 14.816406 33.035156 33.035156zm0 0"/><path d="m82.582031 181.679688h-8.257812c-13.664063 0-24.773438-11.113282-24.773438-24.773438h16.515625c0 4.554688 3.703125 8.257812 8.257813 8.257812h8.257812zm0 0"/></g></svg>