<svg height="512pt" viewBox="0 0 512 512" width="512pt" xmlns="http://www.w3.org/2000/svg"><path d="m363.355469 264.257812v62.597657c0 7.511719-2.972657 14.699219-8.257813 20.066406-3.222656 3.632813-9.167968 7.019531-16.351562 10.238281-3.054688 1.324219-6.359375 2.644532-9.746094 3.882813-1.402344.496093-2.808594 1.074219-4.210938 1.570312-4.953124 1.730469-9.992187 3.382813-14.699218 4.953125-.828125.246094-1.652344.496094-2.394532.742188-3.882812 1.238281-7.351562 2.394531-10.40625 3.46875-1.652343.578125-3.21875 1.15625-4.542968 1.652344-8.257813 3.300781-16.761719 5.449218-25.433594 6.441406-3.714844.410156-7.515625.660156-11.3125.660156-3.800781 0-7.597656-.25-11.3125-.660156-8.671875-.992188-17.179688-3.140625-25.4375-6.441406-1.320312-.496094-2.804688-1.074219-4.539062-1.652344-2.066407-.742188-4.378907-1.488282-6.855469-2.3125-1.074219-.332032-2.230469-.742188-3.46875-1.15625-.082031 0-.246094-.082032-.328125-.082032-1.902344-.660156-3.800782-1.238281-5.78125-1.902343-.742188-.246094-1.488282-.492188-2.3125-.742188-3.46875-1.074219-7.019532-2.3125-10.488282-3.550781-.742187-.246094-1.484374-.496094-2.230468-.742188-1.402344-.496093-2.722656-.992187-4.042969-1.570312-2.066406-.828125-4.046875-1.652344-5.949219-2.476562-.824218-.414063-1.730468-.742188-2.558594-1.15625-1.652343-.746094-3.21875-1.570313-4.707031-2.394532-1.570312-.828125-3.054687-1.734375-4.375-2.5625-.828125-.660156-1.652343-1.238281-2.3125-1.816406-.742187-.660156-1.40625-1.238281-1.984375-1.898438-.164062-.164062-.246094-.332031-.410156-.496093-5.289062-5.53125-8.257812-12.964844-8.257812-20.644531v-62.019532l74.320312 16.519532 24.773438-49.550782h16.515624l24.777344 49.550782zm0 0" fill="#fe946f"/><path d="m214.710938 297.289062c0 13.683594-11.09375 24.777344-24.777344 24.777344-13.679688 0-24.773438-11.09375-24.773438-24.777344 0-13.679687 11.09375-24.773437 24.773438-24.773437 13.683594 0 24.777344 11.09375 24.777344 24.773437zm0 0" fill="#ff0c38"/><path d="m346.839844 297.289062c0 13.683594-11.09375 24.777344-24.773438 24.777344-13.683594 0-24.777344-11.09375-24.777344-24.777344 0-13.679687 11.09375-24.773437 24.777344-24.773437 13.679688 0 24.773438 11.09375 24.773438 24.773437zm0 0" fill="#ff0c38"/><g fill="#ee3124"><path d="m272.515625 0v110.078125l-16.515625-2.722656-16.515625 2.722656v-110.078125zm0 0"/><path d="m206.453125 16.515625v99.097656l-33.035156 5.53125v-88.113281zm0 0"/><path d="m140.386719 49.546875v77.046875l-33.03125 5.535156v-66.066406zm0 0"/><path d="m338.582031 33.03125v88.113281l-33.035156-5.53125v-99.097656zm0 0"/><path d="m404.644531 66.0625v66.066406l-33.03125-5.535156v-77.046875zm0 0"/></g><path d="m305.546875 49.546875v33.035156l-33.03125-16.519531v-33.03125zm0 0" fill="#1e81ce"/><path d="m371.613281 74.324219v33.03125l-33.03125-16.515625v-33.035156zm0 0" fill="#1e81ce"/><path d="m239.484375 33.03125v33.03125l-33.03125 16.519531v-33.035156zm0 0" fill="#1e81ce"/><path d="m173.417969 57.804688v33.035156l-33.03125 16.515625v-33.03125zm0 0" fill="#1e81ce"/><path d="m173.417969 90.839844v30.304687l-33.03125 5.449219v-19.238281zm0 0" fill="#495965"/><path d="m239.484375 66.0625v44.015625l-33.03125 5.535156v-33.03125zm0 0" fill="#495965"/><path d="m305.546875 82.582031v33.03125l-33.03125-5.535156v-44.015625zm0 0" fill="#495965"/><path d="m371.613281 107.355469v19.238281l-33.03125-5.449219v-30.304687zm0 0" fill="#495965"/><path d="m404.644531 132.128906v33.03125l-33.03125 33.035156v-24.777343l-115.613281-24.773438-115.613281 24.773438v24.777343l-33.03125-33.035156v-33.03125l33.03125-5.535156 33.03125-5.449219 33.035156-5.53125 33.03125-5.535156 16.515625-2.722656 16.515625 2.722656 33.03125 5.535156 33.035156 5.53125 33.03125 5.449219zm0 0" fill="#1e81ce"/><path d="m388.128906 198.195312v16.515626l-8.257812 5.53125-16.515625 10.984374h-24.773438v-16.515624h8.257813v-24.777344l-90.839844-16.515625-90.839844 16.515625v24.777344h8.257813v16.515624h-24.773438l-16.515625-10.984374-8.257812-5.53125v-16.515626h16.515625v-24.777343l115.613281-24.773438 115.613281 24.773438v24.777343zm0 0" fill="#fff200"/><path d="m379.871094 231.226562v16.515626l-16.515625 16.515624-8.257813 1.816407-66.066406 14.699219-24.773438-49.546876h-16.515624l-24.773438 49.546876-66.066406-14.699219-8.257813-1.816407-16.515625-16.515624v-16.515626l16.515625 16.515626 8.257813 1.816406 66.066406 14.699218 24.773438-49.546874h16.515624l24.773438 49.546874 66.066406-14.699218 8.257813-1.816406zm0 0" fill="#10918e"/><path d="m379.871094 220.242188v10.984374l-16.515625 16.515626-8.257813 1.816406-66.066406 14.699218-24.773438-49.546874h-16.515624l-24.773438 49.546874-66.066406-14.699218-8.257813-1.816406-16.515625-16.515626v-10.984374l16.515625 10.984374h24.773438v-16.515624h-8.257813v-24.777344l90.839844-16.515625 90.839844 16.515625v24.777344h-8.257813v16.515624h24.773438zm0 0" fill="#0ff"/><path d="m247.742188 231.226562-24.773438 49.546876c0 9.121093 7.394531 16.515624 16.515625 16.515624h33.03125c9.121094 0 16.515625-7.394531 16.515625-16.515624l-24.773438-49.546876zm0 0" fill="#f26038"/><path d="m256 341.253906c-13.402344 0-26.808594-4.195312-37.984375-12.585937l9.902344-13.207031c16.53125 12.394531 39.628906 12.394531 56.160156 0l9.90625 13.207031c-11.179687 8.390625-24.582031 12.585937-37.984375 12.585937zm0 0" fill="#f26038"/><path d="m74.324219 422.648438v89.351562h-74.324219v-7.183594c0-1.074218 0-2.148437.0820312-3.222656.4140628-10.898438 2.9726568-21.304688 7.2695308-30.800781 11.808594-26.097657 36.828126-45.171875 66.972657-48.144531zm0 0" fill="#ee3124"/><path d="m256 437.675781v74.324219h-181.675781v-89.351562c.246093 0 .492187-.085938.742187-.085938l81.835938-9.660156 87.125 21.800781zm0 0" fill="#e4e1dc"/><path d="m437.675781 422.648438v89.351562h-181.675781v-49.550781c9.082031 0 16.515625-7.429688 16.515625-16.515625 0-4.375-1.652344-8.339844-4.542969-11.230469l87.125-21.800781 81.835938 9.664062c.25-.003906.496094.082032.742187.082032zm0 0" fill="#d5d0ca"/><path d="m512 504.816406v7.183594h-74.324219v-89.351562c30.144531 2.972656 55.164063 22.046874 66.972657 48.144531 4.296874 9.496093 6.855468 19.902343 7.269531 30.800781.082031 1.074219.082031 2.148438.082031 3.222656zm0 0" fill="#ee3124"/><path d="m256 380.53125v48.886719c-4.707031 0-9.003906 2.066406-11.976562 5.285156l-87.121094-21.800781v-65.980469c.164062.164063.25.328125.414062.496094.578125.660156 1.238282 1.238281 1.980469 1.898437.660156.578125 1.40625 1.15625 2.3125 1.816406 1.320313.828126 2.808594 1.734376 4.378906 2.558594 1.484375.910156 3.054688 1.652344 4.707031 2.398438.824219.410156 1.734376.742187 2.558594 1.15625 1.898438.824218 3.882813 1.648437 5.945313 2.476562 1.320312.578125 2.640625 1.074219 4.046875 1.570313.742187.246093 1.484375.492187 2.230468.742187 3.464844 1.320313 7.015626 2.476563 10.488282 3.550782.824218.246093 1.566406.496093 2.308594.742187 1.984374.660156 3.882812 1.320313 5.78125 1.898437.082031 0 .25.085938.332031.085938 1.238281.410156 2.394531.824219 3.46875 1.15625 2.476562.824219 4.789062 1.570312 6.851562 2.3125 1.734375.578125 3.222657 1.15625 4.542969 1.648438 8.257812 3.304687 16.765625 5.453124 25.433594 6.441406 3.71875.414062 7.515625.660156 11.316406.660156zm0 0" fill="#ee3124"/><path d="m179.199219 359.722656c2.066406.742188 4.128906 1.566406 6.277343 2.3125-.746093-.25-1.488281-.496094-2.230468-.746094-1.402344-.496093-2.722656-.988281-4.046875-1.566406zm0 0" fill="#ee3124"/><path d="m355.097656 346.921875v65.980469l-87.125 21.800781c-2.972656-3.21875-7.265625-5.285156-11.972656-5.285156v-48.886719c3.796875 0 7.597656-.246094 11.3125-.660156 8.671875-.992188 17.175781-3.136719 25.433594-6.441406 1.324218-.496094 2.890625-1.074219 4.542968-1.652344 3.054688-1.070313 6.523438-2.230469 10.40625-3.46875.742188-.246094 1.566407-.492188 2.394532-.742188 4.707031-1.570312 9.746094-3.21875 14.699218-4.953125 1.402344-.496093 2.808594-.992187 4.210938-1.570312 3.386719-1.238281 6.6875-2.558594 9.746094-3.878907 7.183594-3.222656 13.128906-6.609374 16.351562-10.242187zm0 0" fill="#e21e1a"/><path d="m412.902344 222.96875v33.03125c0 9.085938-7.429688 16.515625-16.515625 16.515625h-35.261719l2.230469-8.257813 16.515625-16.515624v-16.515626h-16.515625l24.773437-16.515624v-8.257813h8.257813c9.085937 0 16.515625 7.429687 16.515625 16.515625zm0 0" fill="#fe946f"/><path d="m99.097656 222.96875v33.03125c0 9.085938 7.429688 16.515625 16.515625 16.515625h35.261719l-2.230469-8.257813-16.515625-16.515624v-16.515626h16.515625l-24.773437-16.515624v-8.257813h-8.257813c-9.085937 0-16.515625 7.429687-16.515625 16.515625zm0 0" fill="#fe946f"/><path d="m338.582031 210.582031c0 6.839844-5.546875 12.386719-12.386719 12.386719-6.84375 0-12.390624-5.546875-12.390624-12.386719 0-6.84375 5.546874-12.386719 12.390624-12.386719 6.839844 0 12.386719 5.542969 12.386719 12.386719zm0 0" fill="#fff"/><path d="m181.675781 247.742188c0 4.558593-3.695312 8.257812-8.257812 8.257812-4.558594 0-8.257813-3.699219-8.257813-8.257812 0-4.5625 3.699219-8.257813 8.257813-8.257813 4.5625 0 8.257812 3.695313 8.257812 8.257813zm0 0" fill="#fff"/><path d="m115.613281 90.839844h16.515625v16.515625h-16.515625zm0 0" fill="#fff"/><path d="m123.871094 156.902344c-1.917969 0-3.796875-.667969-5.289063-1.917969-1.878906-1.570313-2.96875-3.890625-2.96875-6.339844v-24.773437h16.515625v14.878906l81.105469-14.746094 2.949219 16.25-90.835938 16.515625c-.492187.089844-.984375.132813-1.476562.132813zm0 0" fill="#fff"/><path d="m345.214844 148.476562 3.238281-16.195312 41.292969 8.257812-3.238282 16.195313zm0 0" fill="#fff"/><path d="m256 429.417969v8.257812l-11.976562-2.96875c2.976562-3.222656 7.269531-5.289062 11.976562-5.289062zm0 0" fill="#e4e1dc"/><path d="m267.972656 434.703125-11.972656 2.972656v-8.257812c4.707031 0 9 2.066406 11.972656 5.285156zm0 0" fill="#d5d0ca"/><path d="m272.515625 445.933594c0 9.085937-7.433594 16.515625-16.515625 16.515625v-24.773438l11.972656-2.972656c2.890625 2.890625 4.542969 6.855469 4.542969 11.230469zm0 0" fill="#e21e1a"/><path d="m256 437.675781v24.773438c-9.085938 0-16.515625-7.429688-16.515625-16.515625 0-4.375 1.648437-8.339844 4.539063-11.230469zm0 0" fill="#ee3124"/><path d="m173.417969 445.933594c0 9.121094-7.394531 16.515625-16.515625 16.515625s-16.515625-7.394531-16.515625-16.515625 7.394531-16.515625 16.515625-16.515625 16.515625 7.394531 16.515625 16.515625zm0 0" fill="#ee3124"/><path d="m222.96875 487.226562c0 9.121094-7.394531 16.515626-16.515625 16.515626-9.125 0-16.519531-7.394532-16.519531-16.515626 0-9.121093 7.394531-16.515624 16.519531-16.515624 9.121094 0 16.515625 7.394531 16.515625 16.515624zm0 0" fill="#ee3124"/><path d="m74.324219 445.933594c0 9.121094-7.398438 16.515625-16.519531 16.515625-9.121094 0-16.515626-7.394531-16.515626-16.515625s7.394532-16.515625 16.515626-16.515625c9.121093 0 16.519531 7.394531 16.519531 16.515625zm0 0" fill="#e4e1dc"/><path d="m24.773438 487.226562c0 9.082032-7.429688 16.515626-16.515626 16.515626-2.972656 0-5.78125-.746094-8.1757808-2.148438.4140628-10.898438 2.9726568-21.304688 7.2695308-30.800781.246094-.082031.578126-.082031.90625-.082031 9.085938 0 16.515626 7.429687 16.515626 16.515624zm0 0" fill="#e4e1dc"/><path d="m511.917969 501.59375c-2.394531 1.402344-5.203125 2.148438-8.175781 2.148438-9.085938 0-16.515626-7.433594-16.515626-16.519532 0-9.082031 7.429688-16.515625 16.515626-16.515625.328124 0 .660156 0 .90625.085938 4.296874 9.496093 6.855468 19.902343 7.269531 30.800781zm0 0" fill="#d5d0ca"/><path d="m123.871094 487.226562c0 9.121094-7.394532 16.515626-16.515625 16.515626-9.121094 0-16.515625-7.394532-16.515625-16.515626 0-9.121093 7.394531-16.515624 16.515625-16.515624 9.121093 0 16.515625 7.394531 16.515625 16.515624zm0 0" fill="#ee3124"/><path d="m222.96875 404.644531c0 9.121094-7.394531 16.515625-16.515625 16.515625-9.125 0-16.519531-7.394531-16.519531-16.515625 0-9.121093 7.394531-16.515625 16.519531-16.515625 9.121094 0 16.515625 7.394532 16.515625 16.515625zm0 0" fill="#e4e1dc"/><path d="m371.613281 445.933594c0 9.121094-7.394531 16.515625-16.515625 16.515625-9.125 0-16.519531-7.394531-16.519531-16.515625s7.394531-16.515625 16.519531-16.515625c9.121094 0 16.515625 7.394531 16.515625 16.515625zm0 0" fill="#e21e1a"/><path d="m173.253906 357.242188c-1.074218 8.09375-8.011718 14.371093-16.351562 14.371093v-24.691406c.164062.164063.25.328125.414062.496094 3.136719 3.550781 9 6.769531 15.9375 9.824219zm0 0" fill="#e4e1dc"/><path d="m355.097656 346.921875v24.691406c-8.34375 0-15.359375-6.277343-16.351562-14.453125 7.183594-3.21875 13.128906-6.605468 16.351562-10.238281zm0 0" fill="#d5d0ca"/><path d="m322.066406 487.226562c0 9.121094-7.394531 16.515626-16.519531 16.515626-9.121094 0-16.515625-7.394532-16.515625-16.515626 0-9.121093 7.394531-16.515624 16.515625-16.515624 9.125 0 16.519531 7.394531 16.519531 16.515624zm0 0" fill="#e21e1a"/><path d="m470.710938 445.933594c0 9.121094-7.394532 16.515625-16.519532 16.515625-9.121094 0-16.515625-7.394531-16.515625-16.515625s7.394531-16.515625 16.515625-16.515625c9.125 0 16.519532 7.394531 16.519532 16.515625zm0 0" fill="#d5d0ca"/><path d="m421.160156 487.226562c0 9.121094-7.394531 16.515626-16.515625 16.515626-9.121093 0-16.515625-7.394532-16.515625-16.515626 0-9.121093 7.394532-16.515624 16.515625-16.515624 9.121094 0 16.515625 7.394531 16.515625 16.515624zm0 0" fill="#e21e1a"/><path d="m322.066406 404.644531c0 9.121094-7.394531 16.515625-16.519531 16.515625-9.121094 0-16.515625-7.394531-16.515625-16.515625 0-9.121093 7.394531-16.515625 16.515625-16.515625 9.125 0 16.519531 7.394532 16.519531 16.515625zm0 0" fill="#d5d0ca"/></svg>