<svg height="512pt" viewBox="0 0 512 512.00001" width="512pt" xmlns="http://www.w3.org/2000/svg"><path d="m256 33.03125v49.550781h-66.066406c-18.25 0-33.03125 14.78125-33.03125 33.03125v16.515625h.746094c-.496094 2.644532-.746094 5.449219-.746094 8.257813v140.386719c0 45.585937-36.996094 82.582031-82.578125 82.582031v-231.226563c0-73 59.125-132.128906 132.128906-132.128906h16.515625c18.25 0 33.03125 14.78125 33.03125 33.03125zm0 0" fill="#b7cdc8"/><path d="m437.675781 132.128906v231.226563c-22.792969 0-43.4375-9.25-58.382812-24.195313-14.949219-14.949218-24.195313-35.59375-24.195313-58.386718v-140.386719c0-2.808594-.25-5.613281-.746094-8.257813h.746094v-16.515625c0-18.25-14.78125-33.03125-33.035156-33.03125h-66.0625v-49.550781c0-18.25 14.78125-33.03125 33.03125-33.03125h16.515625c73.003906 0 132.128906 59.128906 132.128906 132.128906zm0 0" fill="#b7cdc8"/><path d="m355.097656 244.273438c0 3.964843-.25 7.84375-.746094 11.726562-2.808593 24.113281-14.449218 46.164062-32.289062 62.101562-6.441406 5.863282-13.707031 10.816407-21.71875 14.863282-13.953125 6.9375-29.148438 10.488281-44.34375 10.488281s-30.390625-3.550781-44.347656-10.488281c-8.007813-4.046875-15.277344-9-21.71875-14.863282-7.183594-6.359374-13.292969-13.707031-18.25-21.71875-7.511719-12.140624-12.386719-25.847656-14.035156-40.382812-.496094-3.882812-.746094-7.761719-.746094-11.726562 0 0-.496094-109.5 0-128.660157h198.195312zm0 0" fill="#fbb992"/><path d="m256 247.742188c-13.660156 0-24.773438-11.113282-24.773438-24.773438h16.515626c0 4.554688 3.699218 8.257812 8.257812 8.257812 4.554688 0 8.257812-3.703124 8.257812-8.257812v-49.550781h16.515626v49.550781c0 13.660156-11.113282 24.773438-24.773438 24.773438zm0 0" fill="#d36c37"/><path d="m206.453125 264.257812c0 13.683594-11.09375 24.773438-24.777344 24.773438-13.679687 0-24.773437-11.089844-24.773437-24.773438 0-13.683593 11.09375-24.773437 24.773437-24.773437 13.683594 0 24.777344 11.089844 24.777344 24.773437zm0 0" fill="#f40e34"/><path d="m355.097656 264.257812c0 13.683594-11.09375 24.773438-24.773437 24.773438-13.683594 0-24.777344-11.089844-24.777344-24.773438 0-13.683593 11.09375-24.773437 24.777344-24.773437 13.679687 0 24.773437 11.089844 24.773437 24.773437zm0 0" fill="#f40e34"/><path d="m355.097656 115.613281h-198.195312c0-18.242187 14.789062-33.03125 33.03125-33.03125h132.132812c18.242188 0 33.03125 14.789063 33.03125 33.03125zm0 0" fill="#6d5560"/><path d="m74.324219 396.386719h363.351562v115.613281h-363.351562zm0 0" fill="#6d5560"/><path d="m256 305.546875c-18.21875 0-33.03125-14.8125-33.03125-33.03125 0-4.566406 3.691406-8.257813 8.257812-8.257813h49.546876c4.5625 0 8.257812 3.691407 8.257812 8.257813 0 18.21875-14.8125 33.03125-33.03125 33.03125zm-14.296875-24.773437c2.851563 4.9375 8.191406 8.257812 14.296875 8.257812s11.445312-3.320312 14.300781-8.257812zm0 0" fill="#6d5560"/><path d="m0 512h74.324219v-115.613281c-41.050781 0-74.324219 33.273437-74.324219 74.324219zm0 0" fill="#d4c8c8"/><path d="m512 512h-74.324219v-115.613281c41.050781 0 74.324219 33.273437 74.324219 74.324219zm0 0" fill="#d4c8c8"/><path d="m211.015625 205.582031-12.820313-6.414062-12.824218 6.414062-7.386719-14.777343 16.515625-8.257813c2.324219-1.160156 5.066406-1.160156 7.386719 0l16.515625 8.257813zm0 0" fill="#526d6f"/><path d="m326.628906 205.582031-12.824218-6.414062-12.820313 6.414062-7.386719-14.777343 16.515625-8.257813c2.320313-1.160156 5.0625-1.160156 7.386719 0l16.515625 8.257813zm0 0" fill="#526d6f"/><path d="m140.386719 396.386719c0 20.039062 11.941406 38.152343 30.363281 46.042969l85.25 36.539062 85.253906-36.539062c18.417969-7.894532 30.359375-26.003907 30.359375-46.042969zm0 0" fill="#d4c8c8"/><path d="m322.066406 318.101562v78.285157h-132.132812v-78.285157c6.441406 5.863282 13.710937 10.816407 21.71875 14.863282 13.957031 6.9375 29.152344 10.488281 44.347656 10.488281s30.390625-3.550781 44.34375-10.488281c8.011719-4.046875 15.28125-9 21.722656-14.863282zm0 0" fill="#f19a67"/><path d="m171.683594 296.382812c4.957031 8.007813 11.066406 15.359376 18.25 21.71875v45.253907h-115.609375c45.582031 0 82.578125-36.996094 82.578125-82.582031v-66.0625l.746094 41.289062c1.648437 14.535156 6.523437 28.242188 14.035156 40.382812zm0 0" fill="#526d6f"/><path d="m437.675781 363.355469h-115.609375v-45.253907c17.835938-15.9375 29.480469-37.988281 32.285156-62.101562l.746094-41.292969v66.066407c0 22.792968 9.25 43.4375 24.195313 58.382812 14.945312 14.949219 35.589843 24.199219 58.382812 24.199219zm0 0" fill="#526d6f"/><path d="m338.582031 156.902344h-49.550781c-10.75 0-19.832031 6.925781-23.25 16.515625h-19.558594c-3.421875-9.589844-12.503906-16.515625-23.253906-16.515625h-49.550781c-13.660157 0-24.773438 11.113281-24.773438 24.773437v13.050781c0 11.644532 4.953125 22.796876 13.582031 30.613282 7.621094 6.894531 17.539063 10.675781 27.734376 10.675781 1.363281 0 2.722656-.066406 4.085937-.203125l16.519531-1.652344c21.191406-2.128906 37.175782-19.789062 37.175782-41.085937v-3.140625h16.515624v3.140625c0 21.296875 15.984376 38.957031 37.179688 41.085937l16.515625 1.652344c1.363281.136719 2.726563.203125 4.089844.203125 10.191406 0 20.113281-3.78125 27.734375-10.675781 8.628906-7.816406 13.578125-18.96875 13.578125-30.613282v-13.050781c0-13.660156-11.113281-24.773437-24.773438-24.773437zm-107.355469 36.171875c0 12.78125-9.589843 23.378906-22.308593 24.652343l-16.515625 1.652344c-7.03125.734375-13.832032-1.523437-19.089844-6.28125-5.257812-4.757812-8.152344-11.285156-8.152344-18.371094v-13.050781c0-4.554687 3.703125-8.257812 8.257813-8.257812h49.550781c4.554688 0 8.257812 3.703125 8.257812 8.257812zm115.613282 1.652343c0 7.085938-2.898438 13.613282-8.15625 18.371094-5.257813 4.757813-12.03125 7.015625-19.085938 6.28125l-16.519531-1.652344c-12.714844-1.277343-22.304687-11.871093-22.304687-24.652343v-11.398438c0-4.554687 3.699218-8.257812 8.257812-8.257812h49.546875c4.558594 0 8.257813 3.703125 8.257813 8.257812v13.050781zm0 0" fill="#382728"/><g fill="#fff"><path d="m192.476562 46.066406-5.082031-15.710937c11.453125-3.703125 23.421875-5.582031 35.574219-5.582031v16.515624c-10.429688 0-20.6875 1.605469-30.492188 4.777344zm0 0"/><path d="m123.871094 140.386719h-16.515625c0-43.265625 23.855469-82.570313 62.25-102.578125l7.628906 14.644531c-32.914063 17.152344-53.363281 50.84375-53.363281 87.933594zm0 0"/><path d="m421.160156 338.582031c-22.765625 0-41.289062-18.527343-41.289062-41.292969v-49.546874h16.515625v49.546874c0 13.664063 11.113281 24.777344 24.773437 24.777344zm0 0"/><path d="m379.871094 214.710938h16.515625v16.515624h-16.515625zm0 0"/></g><path d="m437.675781 396.386719s-3.453125 51.851562-49.546875 82.582031c-49.546875 33.03125-132.128906 33.03125-132.128906 33.03125h181.675781zm0 0" fill="#4f3844"/></svg>