<svg height="512pt" viewBox="0 0 512 512" width="512pt" xmlns="http://www.w3.org/2000/svg"><path d="m355.097656 189.933594-24.777344 66.066406v54.160156c0 7.109375-4.546874 13.421875-11.292968 15.667969l-52.582032 17.527344c-6.78125 2.261719-14.109374 2.261719-20.890624 0l-52.585938-17.527344c-6.742188-2.246094-11.292969-8.558594-11.292969-15.667969v-54.160156l-24.773437-66.066406h33.03125l-8.257813-33.03125 33.035157 8.257812 16.515624-24.773437 24.773438 24.773437 24.773438-24.773437 16.519531 24.773437 33.03125-8.257812-8.257813 33.03125zm0 0" fill="#f0beb4"/><path d="m378.21875 119.90625c-11.558594-16.679688-28.078125-29.894531-47.894531-37.324219l33.03125-16.519531h-33.03125l8.257812-33.03125-33.035156 24.773438c8.277344-28.96875-13.472656-57.804688-43.601563-57.804688h-11.890624c-30.128907 0-51.878907 28.835938-43.601563 57.804688l-33.03125-8.257813 16.515625 24.777344-13.875 6.191406c-36.75 16.269531-60.449219 52.769531-60.449219 92.984375v32.949219h16.515625l24.773438 57.808593-16.515625 24.773438h8.257812c8.292969 0 15.804688-3.199219 21.652344-8.257812h11.378906v-24.773438l-24.773437-66.066406h33.03125l-8.257813-33.03125 33.035157 8.257812 16.515624-24.773437 24.773438 24.773437 24.773438-24.773437 16.519531 24.773437 33.03125-8.257812-8.257813 33.03125h33.03125l-24.773437 66.066406v24.773438h11.386719c5.808593 5.078124 13.320312 8.257812 21.644531 8.257812h8.257812l-16.515625-24.773438 24.773438-57.808593h16.515625v-28.570313c0-21.222656-6.605469-41.289062-18.167969-57.972656zm0 0" fill="#f15a24"/><path d="m140.386719 346.839844c-27.320313 0-49.546875-22.226563-49.546875-49.550782 0-27.320312 22.226562-49.546874 49.546875-49.546874 27.324219 0 49.546875 22.226562 49.546875 49.546874 0 27.324219-22.222656 49.550782-49.546875 49.550782zm0-82.582032c-18.214844 0-33.03125 14.816407-33.03125 33.03125 0 18.214844 14.8125 33.035157 33.03125 33.035157s33.035156-14.820313 33.035156-33.035157c-.003906-18.210937-14.816406-33.03125-33.035156-33.03125zm0 0" fill="#ffd422"/><path d="m371.613281 346.839844c-27.324219 0-49.546875-22.226563-49.546875-49.550782 0-27.320312 22.222656-49.546874 49.546875-49.546874 27.320313 0 49.546875 22.226562 49.546875 49.546874 0 27.324219-22.222656 49.550782-49.546875 49.550782zm0-82.582032c-18.21875 0-33.035156 14.816407-33.035156 33.03125 0 18.214844 14.816406 33.035157 33.035156 33.035157s33.03125-14.820313 33.03125-33.035157c0-18.210937-14.8125-33.03125-33.03125-33.03125zm0 0" fill="#ffd422"/><path d="m206.453125 57.804688 8.257813 16.519531s24.773437-8.261719 41.289062-8.261719 41.292969 8.261719 41.292969 8.261719l8.257812-16.519531s-16.519531-16.515626-49.550781-16.515626-49.546875 16.515626-49.546875 16.515626zm0 0" fill="#ffd422"/><path d="m214.710938 396.386719c0 9.085937-7.433594 16.515625-16.515626 16.515625-7.351562 0-13.710937-4.871094-15.773437-11.644532-.496094-1.484374-.746094-3.136718-.746094-4.871093 0-9.082031 7.433594-16.515625 16.519531-16.515625.742188 0 1.402344.082031 2.0625.164062 8.175782.992188 14.453126 8.011719 14.453126 16.351563zm0 0" fill="#ffd422"/><path d="m429.417969 429.417969-173.417969 57.808593-165.160156-57.808593 91.582031-28.160157c2.0625 6.773438 8.421875 11.644532 15.773437 11.644532 9.082032 0 16.515626-7.429688 16.515626-16.515625 0-8.339844-6.277344-15.359375-14.453126-16.351563l6.195313-49.714844 39.140625 13.046876c6.773438 2.230468 14.039062 2.230468 20.8125 0l39.140625-13.046876 6.277344 49.714844c-8.175781.992188-14.535157 7.929688-14.535157 16.351563 0 9.085937 7.433594 16.515625 16.515626 16.515625 7.515624 0 13.875-5.035156 15.855468-11.972656zm0 0" fill="#efa69a"/><path d="m512 512h-512c0-21.058594 8.011719-40.382812 21.304688-54.832031 13.214843-14.535157 31.710937-24.28125 52.6875-26.179688l16.847656-1.570312 165.160156 57.804687 173.417969-57.804687 8.589843.828125c42.035157 4.210937 73.992188 39.554687 73.992188 81.753906zm0 0" fill="#fc715e"/><path d="m272.515625 429.417969c0 9.125-7.394531 16.519531-16.515625 16.519531s-16.515625-7.394531-16.515625-16.519531c0-9.121094 7.394531-16.515625 16.515625-16.515625s16.515625 7.394531 16.515625 16.515625zm0 0" fill="#ffd422"/><path d="m239.484375 421.160156c0 9.121094-7.394531 16.515625-16.515625 16.515625s-16.515625-7.394531-16.515625-16.515625 7.394531-16.515625 16.515625-16.515625 16.515625 7.394531 16.515625 16.515625zm0 0" fill="#ffd422"/><path d="m305.546875 421.160156c0 9.121094-7.394531 16.515625-16.515625 16.515625s-16.515625-7.394531-16.515625-16.515625 7.394531-16.515625 16.515625-16.515625 16.515625 7.394531 16.515625 16.515625zm0 0" fill="#ffd422"/><path d="m330.324219 396.386719c0 1.570312-.25 3.136719-.664063 4.542969-1.980468 6.9375-8.339844 11.972656-15.855468 11.972656-9.082032 0-16.515626-7.429688-16.515626-16.515625 0-8.421875 6.359376-15.359375 14.535157-16.351563.660156-.164062 1.320312-.164062 1.980469-.164062 9.085937 0 16.519531 7.429687 16.519531 16.515625zm0 0" fill="#ffd422"/><path d="m237.863281 231.066406-36.953125-7.390625-5.136718 5.132813-11.675782-11.679688 8.257813-8.257812c1.953125-1.953125 4.742187-2.804688 7.460937-2.257813l41.289063 8.257813zm0 0" fill="#f15a24"/><path d="m239.484375 256h-16.515625c0-4.554688-3.703125-8.257812-8.257812-8.257812-4.558594 0-8.257813 3.703124-8.257813 8.257812h-16.519531c0-13.660156 11.113281-24.773438 24.777344-24.773438 13.660156 0 24.773437 11.113282 24.773437 24.773438zm0 0" fill="#3d332f"/><path d="m274.136719 231.066406-3.242188-16.195312 41.292969-8.257813c2.707031-.539062 5.507812.300781 7.457031 2.257813l8.257813 8.257812-11.675782 11.679688-5.136718-5.132813zm0 0" fill="#f15a24"/><path d="m322.066406 256h-16.519531c0-4.554688-3.699219-8.257812-8.257813-8.257812-4.554687 0-8.257812 3.703124-8.257812 8.257812h-16.515625c0-13.660156 11.113281-24.773438 24.773437-24.773438 13.664063 0 24.777344 11.113282 24.777344 24.773438zm0 0" fill="#3d332f"/><path d="m264.257812 280.773438h-16.515624v-16.515626h6.765624l-3.902343-23.414062 16.289062-2.71875 5.507813 33.03125c.402344 2.394531-.273438 4.84375-1.847656 6.699219-1.5625 1.847656-3.867188 2.917969-6.296876 2.917969zm0 0" fill="#ef6b59"/><path d="m256 309.421875c-6.945312 0-13.878906-1.582031-20.210938-4.746094l7.386719-14.773437c8.03125 4.015625 17.613281 4.015625 25.644531 0l7.386719 14.773437c-6.328125 3.164063-13.261719 4.746094-20.207031 4.746094zm0 0" fill="#f40e34"/><path d="m214.710938 280.773438c0 9.121093-7.394532 16.515624-16.515626 16.515624-9.125 0-16.519531-7.394531-16.519531-16.515624 0-9.121094 7.394531-16.515626 16.519531-16.515626 9.121094 0 16.515626 7.394532 16.515626 16.515626zm0 0" fill="#f40e34"/><path d="m330.324219 280.773438c0 9.121093-7.394531 16.515624-16.519531 16.515624-9.121094 0-16.515626-7.394531-16.515626-16.515624 0-9.121094 7.394532-16.515626 16.515626-16.515626 9.125 0 16.519531 7.394532 16.519531 16.515626zm0 0" fill="#f40e34"/><path d="m448.03125 462.441406-192.03125 49.558594h256c0-33.457031-31.574219-57.917969-63.96875-49.558594zm0 0" fill="#e54c3c"/><path d="m156.902344 156.902344h-16.515625c0-31.875 25.933593-57.804688 57.804687-57.804688v16.515625c-22.765625 0-41.289062 18.523438-41.289062 41.289063zm0 0" fill="#fff"/><path d="m214.710938 99.097656h16.515624v16.515625h-16.515624zm0 0" fill="#fff"/><path d="m239.484375 41.289062h-16.515625c0-18.210937 14.8125-33.03125 33.03125-33.03125v16.515626c-9.105469 0-16.515625 7.40625-16.515625 16.515624zm0 0" fill="#fff"/><g fill="#cc3e12"><path d="m355.097656 189.933594h-33.03125l8.257813-33.03125-33.035157 8.257812-16.515624-24.773437-24.773438 24.773437-24.773438-24.773437 24.773438 8.257812 24.773438-24.773437 24.773437 24.773437 41.292969-8.257812-8.257813 33.03125h33.03125zm0 0"/><path d="m181.675781 156.902344 8.257813-16.515625 24.777344 24.773437zm0 0"/><path d="m132.128906 206.453125h24.773438v57.804687zm0 0"/><path d="m379.871094 206.453125h-24.773438v57.804687zm0 0"/><path d="m214.710938 165.160156v-33.03125l16.515624 8.257813zm0 0"/><path d="m181.675781 156.902344 8.257813 33.03125h-33.03125l-16.515625-16.515625h33.03125l-8.257813-24.773438zm0 0"/></g><path d="m272.515625 8.257812h8.257813v16.515626h-8.257813zm0 0" fill="#fff"/></svg>