<svg height="512pt" viewBox="-1 0 512 512.01405" width="512pt" xmlns="http://www.w3.org/2000/svg"><path d="m353.863281 181.042969v148.125h-197.5v-148.125c22.710938 0 41.144531-18.433594 41.144531-41.144531 0-1.234376-.082031-2.386719-.246093-3.539063 5.101562 2.304687 10.78125 3.539063 16.707031 3.539063 22.710938 0 41.144531-18.433594 41.144531-41.148438 0 22.710938 18.433594 41.148438 41.148438 41.148438 5.925781 0 11.601562-1.234376 16.707031-3.539063-.167969 1.152344-.25 2.304687-.25 3.539063 0 22.710937 18.433594 41.144531 41.144531 41.144531zm0 0" fill="#fdd1b0"/><path d="m197.507812 271.566406c0 9.089844-7.367187 16.457032-16.457031 16.457032-9.089843 0-16.457031-7.367188-16.457031-16.457032s7.367188-16.460937 16.457031-16.460937c9.089844 0 16.457031 7.371093 16.457031 16.460937zm0 0" fill="#f40e34"/><path d="m345.636719 271.566406c0 9.089844-7.371094 16.457032-16.460938 16.457032-9.089843 0-16.457031-7.367188-16.457031-16.457032s7.367188-16.460937 16.457031-16.460937c9.089844 0 16.460938 7.371093 16.460938 16.460937zm0 0" fill="#f40e34"/><path d="m156.363281 181.042969v82.292969l-19.175781-57.605469-13.824219-41.390625c7.40625 10.121094 19.503907 16.703125 33 16.703125zm0 0" fill="#a16125"/><path d="m386.863281 164.339844-13.824219 41.390625-19.175781 57.605469v-82.292969c13.496094 0 25.59375-6.582031 33-16.703125zm0 0" fill="#a16125"/><path d="m156.363281 263.335938h-20.574219c-7.898437 0-15.140624-3.210938-20.324218-8.476563-5.269532-5.183594-8.476563-12.425781-8.476563-20.324219 0-15.882812 12.917969-28.804687 28.800781-28.804687h1.398438zm0 0" fill="#f9a872"/><path d="m403.238281 234.535156c0 7.898438-3.207031 15.140625-8.476562 20.324219-5.183594 5.269531-12.425781 8.476563-20.324219 8.476563h-20.574219l19.175781-57.601563h1.398438c15.882812-.003906 28.800781 12.917969 28.800781 28.800781zm0 0" fill="#f9a872"/><path d="m452.617188 123.4375c0 22.714844-18.433594 41.148438-41.148438 41.148438-7.734375 0-14.894531-2.140626-21.066406-5.84375-.988282 1.976562-2.222656 3.871093-3.539063 5.597656-7.40625 10.121094-19.503906 16.707031-33 16.707031-22.710937 0-41.144531-18.433594-41.144531-41.148437 0-1.234376.082031-2.386719.246094-3.539063-5.101563 2.304687-10.78125 3.539063-16.707032 3.539063-22.710937 0-41.144531-18.433594-41.144531-41.144532 0 22.710938-18.433593 41.144532-41.148437 41.144532-5.925782 0-11.601563-1.234376-16.707032-3.539063.167969 1.152344.25 2.304687.25 3.539063 0 22.714843-18.433593 41.148437-41.148437 41.148437-13.496094 0-25.59375-6.585937-33-16.707031-1.316406-1.726563-2.550781-3.621094-3.539063-5.597656-6.171874 3.703124-13.332031 5.84375-21.066406 5.84375-22.710937 0-41.144531-18.433594-41.144531-41.148438 0-19.914062 14.152344-36.535156 32.996094-40.324219-.078125-.246093-.078125-.574219-.078125-.820312 0-22.714844 18.433594-41.148438 41.148437-41.148438 6.582031 0 12.753907 1.566407 18.269531 4.28125 5.183594-16.789062 20.820313-28.96875 39.335938-28.96875 10.449219 0 19.914062 3.867188 27.238281 10.371094 5.839844-15.636719 20.902344-26.828125 38.59375-26.828125 17.691407 0 32.753907 11.191406 38.59375 26.828125 7.324219-6.503906 16.789063-10.371094 27.242188-10.371094 18.515625 0 34.148437 12.179688 39.335937 28.96875 5.511719-2.714843 11.683594-4.277343 18.269532-4.277343 22.710937 0 41.144531 18.429687 41.144531 41.144531 0 .246093 0 .578125-.082031.824219 18.84375 3.785156 33 20.40625 33 40.320312zm0 0" fill="#ca7c1b"/><path d="m126.65625 329.171875c8.308594-19.339844 29.707031-24.6875 29.707031-24.6875v24.6875zm0 0" fill="#82c341"/><path d="m148.132812 403.234375v24.6875h-6.253906c-.082031 0-.082031 0-.082031 0h-18.351563v-24.6875zm0 0" fill="#cdd9d5"/><path d="m139.902344 386.773438c2.71875 1.402343 5.679687 2.636718 8.808594 3.953124-.414063 1.316407-.578126 2.796876-.578126 4.277344v8.230469h-8.230468s-6.089844-9.136719-10.859375-23.699219c3.125 2.714844 6.746093 5.183594 10.859375 7.238282zm0 0" fill="#ffd422"/><path d="m107.070312 330.980469c.492188 48.140625 24.605469 72.253906 24.605469 72.253906h-8.230469v21.148437c-2.058593-.410156-4.03125-.824218-6.007812-1.316406-3.949219-.90625-7.652344-1.8125-11.191406-2.796875-1.8125-.414062-3.621094-.988281-5.347656-1.484375-1.730469-.492187-3.375-.988281-5.023438-1.480468-3.207031-.988282-6.335938-1.976563-9.296875-2.960938-1.648437-.578125-3.210937-1.152344-4.773437-1.730469-1.484376-.492187-2.878907-1.070312-4.28125-1.644531-1.5625-.574219-3.125-1.234375-4.609376-1.808594-.410156-.164062-.820312-.328125-1.234374-.578125-1.5625-.574219-3.042969-1.234375-4.441407-1.976562-5.515625-2.386719-10.371093-4.933594-14.730469-7.484375-31.929687-18.515625-36.046874-37.035156-36.046874-37.035156 0-13.660157 5.515624-26.003907 14.484374-34.890626 8.890626-8.96875 21.230469-14.484374 34.890626-14.484374h8.230468c0-13.660157 5.515625-26.003907 14.484375-34.890626 8.886719-8.96875 21.230469-14.484374 34.890625-14.484374h32.917969s-49.375 16.460937-49.375 65.835937c.003906.574219.003906 1.234375.085937 1.808594zm0 0" fill="#ffd422"/><path d="m255.113281 436.148438c-10.449219 0-20.40625-.164063-29.871093-.492188-2.960938-.082031-5.84375-.164062-8.640626-.328125-.90625 0-1.726562-.082031-2.632812-.082031v-27.488282c16.785156 3.789063 31.515625 13.910157 41.144531 28.390626zm0 0" fill="#ffd422"/><path d="m383.574219 329.171875h-29.710938v-24.6875s21.398438 5.347656 29.710938 24.6875zm0 0" fill="#82c341"/><path d="m296.261719 407.761719v27.484375c-.90625 0-1.730469.082031-2.632813.082031-2.882812.164063-5.679687.246094-8.640625.328125-9.464843.332031-19.421875.496094-29.875.496094 3.621094-5.433594 7.902344-10.289063 12.839844-14.320313 1.070313-.90625 2.140625-1.808593 3.292969-2.550781.820312-.65625 1.644531-1.234375 2.464844-1.726562.167968-.164063.332031-.328126.496093-.410157 1.316407-.90625 2.632813-1.730469 4.03125-2.46875.082031-.082031.246094-.082031.328125-.164062 1.8125-.988281 3.621094-1.894531 5.515625-2.71875 1.726563-.820313 3.457031-1.480469 5.265625-2.054688.246094-.082031.492188-.164062.742188-.246093 1.890625-.660157 3.785156-1.152344 5.757812-1.648438.164063 0 .246094-.082031.414063-.082031zm0 0" fill="#e5bd13"/><path d="m386.78125 403.234375v24.6875h-18.351562s0 0-.082032 0h-6.253906v-24.6875zm0 0" fill="#cdd9d5"/><path d="m381.1875 379.535156c-4.773438 14.5625-10.863281 23.699219-10.863281 23.699219h-8.230469v-8.230469c0-1.480468-.164062-2.960937-.574219-4.277344 3.125-1.316406 6.089844-2.550781 8.804688-3.953124 4.113281-2.054688 7.734375-4.523438 10.863281-7.238282zm0 0" fill="#e5bd13"/><path d="m493.761719 362.085938s-4.113281 18.515624-36.042969 37.035156c-4.363281 2.550781-9.21875 5.101562-14.730469 7.484375-1.8125.824219-3.703125 1.648437-5.679687 2.550781-4.195313 1.730469-8.722656 3.457031-13.660156 5.1875-4.527344 1.480469-9.300782 3.042969-14.320313 4.445312-6.910156 2.054688-14.398437 3.949219-22.546875 5.59375v-21.148437h-8.226562s24.109374-24.113281 24.605468-72.253906c.082032-.574219.082032-1.234375.082032-1.808594 0-49.375-49.375-65.835937-49.375-65.835937h32.917968c13.660156 0 26.003906 5.515624 34.890625 14.484374 8.96875 8.886719 14.484375 21.230469 14.484375 34.890626h8.226563c13.660156 0 26.003906 5.515624 34.894531 14.484374 8.96875 8.886719 14.480469 21.230469 14.480469 34.890626zm0 0" fill="#e5bd13"/><path d="m362.09375 395.003906v41.148438c0 9.050781-7.40625 16.457031-16.457031 16.457031h-16.460938v-74.0625h16.460938c7.570312 0 13.988281 5.183594 15.882812 12.179687.410157 1.316407.574219 2.796876.574219 4.277344zm0 0" fill="#004e38"/><path d="m329.175781 378.546875v74.0625c0 4.527344-1.808593 8.640625-4.855469 11.601563-2.960937 3.046874-7.074218 4.855468-11.601562 4.855468-9.050781 0-16.460938-7.40625-16.460938-16.457031v-74.0625c0-4.527344 1.8125-8.640625 4.859376-11.605469 2.960937-3.042968 7.074218-4.855468 11.601562-4.855468 9.050781 0 16.457031 7.40625 16.457031 16.460937zm0 0" fill="#45634f"/><path d="m213.96875 378.546875v74.0625c0 9.050781-7.410156 16.457031-16.460938 16.457031-4.527343 0-8.640624-1.808594-11.601562-4.855468-3.046875-2.960938-4.855469-7.074219-4.855469-11.601563v-74.0625c0-9.054687 7.40625-16.460937 16.457031-16.460937 4.527344 0 8.640626 1.8125 11.601563 4.855468 3.046875 2.964844 4.859375 7.078125 4.859375 11.605469zm0 0" fill="#45634f"/><path d="m181.050781 378.546875v74.0625h-16.457031c-9.054688 0-16.460938-7.40625-16.460938-16.460937v-41.144532c0-1.480468.164063-2.960937.578126-4.28125 1.890624-6.992187 8.308593-12.179687 15.882812-12.179687h16.457031zm0 0" fill="#004e38"/><path d="m386.78125 345.628906c0 12.921875-2.550781 24.523438-5.59375 33.902344-3.128906 2.71875-6.75 5.1875-10.863281 7.242188-2.714844 1.398437-5.679688 2.632812-8.804688 3.949218-1.894531-6.992187-8.3125-12.179687-15.882812-12.179687h-16.460938c0-9.050781-7.40625-16.457031-16.457031-16.457031-4.527344 0-8.640625 1.8125-11.601562 4.855468-3.046876 2.960938-4.859376 7.078125-4.859376 11.601563v29.214843c-.164062 0-.246093.082032-.410156.082032-1.976562.496094-3.867187.988281-5.757812 1.648437-.25.082031-.496094.164063-.742188.246094-1.8125.574219-3.539062 1.234375-5.265625 2.054687-1.894531.824219-3.703125 1.730469-5.515625 2.714844-.082031.085938-.246094.085938-.328125.167969-1.398437.738281-2.714843 1.5625-4.03125 2.46875-.167969.082031-.332031.246094-.496093.410156-.820313.492188-1.644532 1.070313-2.46875 1.726563-1.152344.742187-2.21875 1.644531-3.289063 2.550781-4.9375 4.03125-9.21875 8.886719-12.839844 14.320313-9.628906-14.484376-24.359375-24.605469-41.144531-28.390626v-29.214843c0-4.527344-1.8125-8.640625-4.859375-11.605469-2.960937-3.042969-7.074219-4.855469-11.601563-4.855469-9.050781 0-16.457031 7.40625-16.457031 16.460938h-16.460937c-7.570313 0-13.988282 5.183593-15.882813 12.179687-3.125-1.316406-6.089843-2.550781-8.804687-3.953125-4.113282-2.054687-7.734375-4.523437-10.863282-7.238281-3.042968-9.382812-5.59375-20.988281-5.59375-33.90625 0-6.335938 1.234376-11.765625 3.207032-16.457031h256.917968c1.976563 4.691406 3.210938 10.125 3.210938 16.460937zm0 0" fill="#f1563f"/><path d="m510.21875 362.085938v148.128906h-510.2109375v-148.128906h16.4570315s4.117187 18.515624 36.046875 37.035156c4.359375 2.550781 9.214843 5.101562 14.726562 7.484375 1.402344.742187 2.882813 1.402343 4.445313 1.976562.414062.25.824218.414063 1.234375.578125 1.480469.574219 3.046875 1.234375 4.609375 1.808594 1.398437.578125 2.796875 1.152344 4.277344 1.644531 1.566406.578125 3.128906 1.152344 4.777343 1.730469 2.960938 1.070312 6.089844 2.054688 9.296875 2.960938 1.644532.492187 3.292969.988281 5.019532 1.480468 1.730468.496094 3.539062 1.070313 5.351562 1.484375 3.617188.984375 7.324219 1.972657 11.191406 2.796875 1.972656.492188 3.949219.90625 6.007813 1.316406v3.539063h18.351562.082031c2.054688.328125 4.113282.65625 6.253907.988281v7.238282c0 9.054687 7.40625 16.460937 16.457031 16.460937h16.460938c0 4.527344 1.808593 8.640625 4.855468 11.601563 2.960938 3.046874 7.074219 4.855468 11.601563 4.855468 9.050781 0 16.460937-7.40625 16.460937-16.457031v-17.363281c.902344 0 1.726563.082031 2.632813.082031 2.796875.164063 5.675781.246094 8.640625.328125 9.460937.328125 19.417968.492188 29.871094.492188 10.449218 0 20.40625-.164063 29.871093-.492188 2.960938-.082031 5.761719-.164062 8.640625-.328125.90625 0 1.726563-.082031 2.632813-.082031v17.363281c0 9.050781 7.40625 16.457031 16.460937 16.457031 4.523438 0 8.640625-1.808594 11.601563-4.855468 3.046875-2.960938 4.855469-7.074219 4.855469-11.601563h16.457031c9.054687 0 16.460937-7.40625 16.460937-16.460937v-7.238282c2.140625-.332031 4.195313-.660156 6.253906-.988281h.082032 18.351562v-3.539063c8.148438-1.644531 15.636719-3.539062 22.546875-5.597656 5.101563-1.398437 9.875-2.878906 14.320313-4.441406 4.9375-1.730469 9.460937-3.457031 13.660156-5.1875 1.976562-.90625 3.867188-1.726562 5.679688-2.550781 5.511718-2.386719 10.367187-4.9375 14.726562-7.488281 31.929688-18.515626 36.046875-37.03125 36.046875-37.03125zm0 0" fill="#82c341"/><path d="m126.65625 329.171875c-1.976562 4.691406-3.210938 10.121094-3.210938 16.457031 0 12.921875 2.550782 24.523438 5.597657 33.90625 4.773437 14.5625 10.859375 23.699219 10.859375 23.699219h-8.226563s-24.113281-24.113281-24.605469-72.253906c-.082031-.574219-.082031-1.234375-.082031-1.808594 0-49.375 49.375-65.835937 49.375-65.835937v41.148437s-21.398437 5.347656-29.707031 24.6875zm0 0" fill="#004e38"/><path d="m403.238281 329.171875c0 .574219 0 1.234375-.082031 1.808594-.492188 48.140625-24.605469 72.253906-24.605469 72.253906h-8.226562s6.089843-9.136719 10.859375-23.699219c3.046875-9.382812 5.597656-20.984375 5.597656-33.90625 0-6.335937-1.234375-11.765625-3.210938-16.457031-8.308593-19.339844-29.707031-24.6875-29.707031-24.6875v-41.148437s49.375 16.457031 49.375 65.835937zm0 0" fill="#004e38"/><path d="m214.148438 508.425781 16.441406-74.0625 16.070312 3.566407-16.441406 74.066406zm0 0" fill="#ffd422"/><path d="m263.527344 437.949219 16.070312-3.570313 16.457032 74.0625-16.070313 3.574219zm0 0" fill="#ffd422"/><path d="m225.859375 187.890625c-12.230469-8.148437-28.011719-8.148437-40.246094 0l-9.128906-13.695313c17.777344-11.84375 40.730469-11.84375 58.503906 0zm0 0" fill="#a16125"/><path d="m192.960938 237.78125-7.363282-14.722656 18.195313-9.097656-18.195313-9.097657 7.363282-14.722656 32.917968 16.460937c2.785156 1.394532 4.546875 4.242188 4.546875 7.359376 0 3.117187-1.757812 5.96875-4.546875 7.359374zm0 0" fill="#f26038"/><path d="m324.613281 187.890625c-12.234375-8.148437-28.015625-8.148437-40.246093 0l-9.132813-13.695313c17.777344-11.84375 40.730469-11.84375 58.507813 0zm0 0" fill="#a16125"/><path d="m317.265625 237.78125-32.914063-16.460938c-2.789062-1.390624-4.550781-4.242187-4.550781-7.359374 0-3.117188 1.757813-5.964844 4.550781-7.359376l32.914063-16.460937 7.363281 14.722656-18.195312 9.097657 18.195312 9.097656zm0 0" fill="#f26038"/><path d="m271.574219 271.566406h-24.691407c-13.613281 0-24.6875-11.074218-24.6875-24.6875h16.460938c0 4.535156 3.6875 8.226563 8.226562 8.226563h24.691407c4.539062 0 8.226562-3.691407 8.226562-8.226563 0-4.539062-3.6875-8.230468-8.226562-8.230468-9.074219 0-16.460938-7.382813-16.460938-16.460938v-24.6875h16.460938v24.6875c13.613281 0 24.6875 11.074219 24.6875 24.691406 0 13.613282-11.074219 24.6875-24.6875 24.6875zm0 0" fill="#f26038"/><path d="m255.113281 307.84375c-18.21875 0-36.445312-4.152344-53.054687-12.457031l7.359375-14.722657c28.609375 14.304688 62.78125 14.304688 91.390625 0l7.359375 14.722657c-16.609375 8.304687-34.835938 12.457031-53.054688 12.457031zm0 0" fill="#f26038"/><path d="m452.617188 123.4375c0 22.714844-18.433594 41.148438-41.148438 41.148438-7.734375 0-14.894531-2.140626-21.066406-5.84375-.988282 1.976562-2.222656 3.871093-3.539063 5.597656-7.40625 10.121094-19.503906 16.707031-33 16.707031-22.710937 0-41.144531-18.433594-41.144531-41.148437 0-1.234376.082031-2.386719.246094-3.539063-5.101563 2.304687-10.78125 3.539063-16.707032 3.539063-22.710937 0-41.144531-18.433594-41.144531-41.144532 0 22.710938-18.433593 41.144532-41.148437 41.144532-5.925782 0-11.601563-1.234376-16.707032-3.539063.167969 1.152344.25 2.304687.25 3.539063 0 22.714843-18.433593 41.148437-41.148437 41.148437-13.496094 0-25.59375-6.585937-33-16.707031-1.316406-1.726563-2.550781-3.621094-3.539063-5.597656-6.171874 3.703124-13.332031 5.84375-21.066406 5.84375-22.710937 0-41.144531-18.433594-41.144531-41.148438 0-2.796875.246094-5.511719.820313-8.144531 3.867187 18.679687 20.410156 32.835937 40.324218 32.835937 7.734375 0 14.894532-2.140625 21.066406-5.84375.988282 1.976563 2.222657 3.867188 3.539063 5.59375 7.40625 10.125 19.503906 16.707032 33 16.707032 22.714844 0 41.148437-18.433594 41.148437-41.144532 0-1.234375-.082031-2.386718-.25-3.539062 5.101563 2.304687 10.78125 3.539062 16.707032 3.539062 22.710937 0 41.148437-18.433594 41.148437-41.148437 0 22.714843 18.429688 41.148437 41.144531 41.148437 5.925782 0 11.601563-1.234375 16.707032-3.539062-.164063 1.152344-.246094 2.304687-.246094 3.539062 0 22.710938 18.429688 41.144532 41.144531 41.144532 13.496094 0 25.59375-6.582032 33-16.707032 1.316407-1.726562 2.550781-3.617187 3.539063-5.59375 6.171875 3.703125 13.332031 5.84375 21.066406 5.84375 19.914062 0 36.457031-14.15625 40.324219-32.835937.574219 2.632812.824219 5.347656.824219 8.144531zm0 0" fill="#e58c3c"/><g fill="#fff"><path d="m172.820312 65.832031h-16.457031c0-22.683593 18.460938-41.144531 41.144531-41.144531v16.460938c-13.613281 0-24.6875 11.074218-24.6875 24.683593zm0 0"/><path d="m106.988281 148.125h-8.230469c-13.613281 0-24.6875-11.074219-24.6875-24.6875h16.457032c0 4.539062 3.691406 8.230469 8.230468 8.230469h8.230469zm0 0"/><path d="m367.027344 93.257812c-4.152344-1.816406-8.582032-2.734374-13.164063-2.734374v-16.460938c6.863281 0 13.511719 1.382812 19.753907 4.109375zm0 0"/><path d="m403.238281 123.4375h-16.457031c0-10.449219-4.796875-20.050781-13.171875-26.332031l9.886719-13.164063c12.542968 9.421875 19.742187 23.816406 19.742187 39.496094zm0 0"/></g><path d="m510.21875 362.085938v148.128906h-164.582031l15.929687-2.8125c74.753906-13.191406 133.765625-70.878906 148.652344-145.316406zm0 0" fill="#6b9b34"/></svg>