<svg height="512pt" viewBox="-4 0 512 512.00098" width="512pt" xmlns="http://www.w3.org/2000/svg"><path d="m349.460938 83.707031v129.546875c-32.753907-4.144531-64.933594-6.257812-97.117188-6.257812-32.429688 0-64.855469 2.113281-97.929688 6.335937v-129.625c0-11.621093 6.175782-22.265625 16.089844-28.117187l79.15625-46.082032c1.546875-.082031 3.007813-.082031 4.550782 0l.082031.082032 79.074219 46c9.917968 5.851562 16.09375 16.496094 16.09375 28.117187zm0 0" fill="#e3ddd5"/><path d="m390.09375 219.429688v13.816406c0 21.777344-20.640625 36.730468-40.632812 31.449218-1.953126-.488281-3.820313-1.136718-5.6875-2.03125l-24.542969-11.539062c-17.230469-8.128906-34.136719-13.085938-51.039063-14.792969-10.808594-1.136719-21.617187-.894531-32.507812.570313-14.386719 1.949218-28.851563 6.257812-43.5625 12.757812l-32.667969 14.46875c-1.625.730469-3.332031 1.300782-5.039063 1.707032-19.996093 5.441406-40.636718-9.671876-40.636718-31.453126v-14.953124l7.882812-1.300782c10.972656-1.789062 21.941406-3.414062 32.75-4.792968 33.078125-4.226563 65.503906-6.339844 97.929688-6.339844 45.433594-.003906 90.78125 4.144531 137.753906 12.433594zm0 0" fill="#f40e34"/><path d="m65.015625 227.554688h48.761719v56.890624c-15.765625 0-27.957032-6.339843-36.164063-16.660156-8.289062-10.324218-12.597656-24.464844-12.597656-40.230468zm0 0" fill="#423530"/><path d="m113.777344 284.445312v121.902344h-48.761719c-33.15625 0-60.546875 24.789063-64.527344 56.890625h-.488281v-48.761719c0-44.859374 36.410156-81.269531 81.269531-81.269531-13.488281 0-25.679687-5.445312-34.457031-14.304687-8.859375-8.777344-14.304688-20.964844-14.304688-34.457032zm0 0" fill="#423530"/><path d="m343.773438 262.664062-24.542969-11.539062c-17.230469-8.128906-34.136719-13.085938-51.039063-14.792969-10.808594-1.136719-21.617187-.894531-32.507812.570313-14.386719 1.949218-28.851563 6.257812-43.5625 12.757812l-32.667969 14.46875c-1.625.730469-3.332031 1.300782-5.039063 1.707032v108.007812l34.699219-34.703125c3.820313-3.820313 8.941407-5.933594 14.386719-5.933594h96.875c5.445312 0 10.5625 2.113281 14.382812 5.933594l34.703126 34.703125v-109.148438c-1.949219-.488281-3.820313-1.136718-5.6875-2.03125zm0 0" fill="#ffb398"/><path d="m424.554688 262.015625c-8.777344 8.855469-20.96875 14.300781-34.460938 14.300781v-48.761718h48.761719c0 13.492187-5.441407 25.679687-14.300781 34.460937zm0 0" fill="#423530"/><path d="m503.875 422.601562v40.636719h-.488281c-3.984375-32.101562-31.371094-56.886719-64.527344-56.886719h-48.761719v-130.035156h81.269532c0 15.765625-6.339844 29.90625-16.660157 40.230469-10.324219 10.320313-24.464843 16.660156-40.230469 16.660156 24.707032 0 47.054688 9.996094 63.230469 26.167969 16.171875 16.171875 26.167969 38.519531 26.167969 63.226562zm0 0" fill="#423530"/><path d="m390.09375 463.238281c0 13.488281-5.445312 25.679688-14.300781 34.457031-8.777344 8.859376-20.96875 14.304688-34.457031 14.304688h-178.796876c-26.898437 0-48.761718-21.863281-48.761718-48.761719-56.886719 0 0-56.890625 0-56.890625v-171.964844c0 21.777344 20.644531 36.894532 40.636718 31.449219v108.007813l34.703126-34.703125c3.816406-3.816407 8.9375-5.929688 14.382812-5.929688h96.875c5.445312 0 10.566406 2.109375 14.386719 5.929688l34.699219 34.703125v-109.144532c19.992187 5.28125 40.636718-9.671874 40.636718-31.449218v173.101562c-.003906 0 56.886719 56.890625-.003906 56.890625zm0 0" fill="#534741"/><path d="m292.570312 316.953125c0 8.9375-7.3125 16.253906-16.253906 16.253906h-48.761718c-4.46875 0-8.53125-1.789062-11.457032-4.796875-3.007812-2.925781-4.796875-6.988281-4.796875-11.457031 0-8.941406 7.316407-16.253906 16.253907-16.253906h8.128906v-63.796875c10.890625-1.464844 21.699218-1.707032 32.507812-.570313v64.367188h8.128906c4.46875 0 8.53125 1.785156 11.457032 4.792969 3.007812 2.925781 4.792968 6.992187 4.792968 11.460937zm0 0" fill="#f26038"/><path d="m24.382812 420.652344v18.203125h-15.6875c4.066407-6.988281 9.347657-13.246094 15.6875-18.203125zm0 0" fill="#ffd422"/><path d="m73.144531 406.347656v32.511719h-24.382812v-30.398437c5.203125-1.378907 10.644531-2.109376 16.253906-2.109376h8.128906zm0 0" fill="#ffd422"/><path d="m113.777344 406.347656s-8.9375 8.941406-16.253906 19.832032v-19.832032zm0 0" fill="#ffd422"/><path d="m.488281 463.238281h23.894531v24.378907h-24.382812v-16.253907c0-2.761719.164062-5.445312.488281-8.125zm0 0" fill="#ffd422"/><path d="m48.761719 463.238281h24.382812v24.378907h-24.382812zm0 0" fill="#ffd422"/><path d="m113.777344 463.238281c0 8.9375 2.359375 17.230469 6.582031 24.378907h-22.835937v-26.816407c3.902343 1.542969 9.183593 2.4375 16.253906 2.4375zm0 0" fill="#ffd422"/><path d="m162.539062 512h-8.125v-.730469c2.601563.484375 5.363282.730469 8.125.730469zm0 0" fill="#ffd422"/><path d="m113.777344 463.238281h-16.253906v-2.4375c3.902343 1.542969 9.183593 2.4375 16.253906 2.4375zm0 0" fill="#666"/><path d="m120.359375 487.617188h-22.835937v-26.816407c-10.238282-4.0625-10.5625-12.679687-6.824219-21.941406 1.625-4.226563 4.144531-8.617187 6.824219-12.679687v-19.832032h-24.378907v32.511719h-24.382812v-30.398437c-9.019531 2.277343-17.3125 6.421874-24.382813 12.191406v18.207031h-15.683594c-4.304687 7.3125-7.148437 15.519531-8.207031 24.378906h23.894531v24.382813h-24.382812v24.378906h154.414062v-.730469c-14.546874-2.4375-26.984374-11.296875-34.054687-23.652343zm-71.597656 0v-24.378907h24.382812v24.378907zm0 0" fill="#666"/><path d="m503.875 471.363281v40.636719h-162.542969c13.492188 0 25.683594-5.445312 34.460938-14.304688 8.855469-8.777343 14.300781-20.964843 14.300781-34.457031 56.890625 0 0-56.886719 0-56.886719h48.761719c33.160156 0 60.546875 24.785157 64.527343 56.886719.328126 2.679688.492188 5.363281.492188 8.125zm0 0" fill="#ffd422"/><path d="m211.300781 390.09375h8.128907c8.976562 0 16.253906-7.277344 16.253906-16.253906h32.507812c0 8.976562 7.277344 16.253906 16.253906 16.253906h8.128907c-22.445313 22.445312-58.828125 22.445312-81.273438 0zm0 0" fill="#f40e34"/><path d="m162.539062 316.953125c0 13.464844-10.914062 24.378906-24.378906 24.378906s-24.382812-10.914062-24.382812-24.378906 10.917968-24.382813 24.382812-24.382813 24.378906 10.917969 24.378906 24.382813zm0 0" fill="#f40e34"/><path d="m390.09375 316.953125c0 13.464844-10.914062 24.378906-24.378906 24.378906s-24.382813-10.914062-24.382813-24.378906 10.917969-24.382813 24.382813-24.382813 24.378906 10.917969 24.378906 24.382813zm0 0" fill="#f40e34"/><path d="m249.660156 9.507812-79.15625 46.082032c-9.914062 5.851562-16.089844 16.496094-16.089844 28.117187v129.625c-10.808593 1.382813-21.78125 3.007813-32.753906 4.796875l-7.882812 1.296875v-153.027343c0-.8125 0-1.707032.082031-2.519532.082031-.894531.242187-1.871094.40625-2.765625.324219-1.785156.8125-3.574219 1.382813-5.363281 3.65625-10.238281 12.433593-18.285156 23.566406-20.804688l75.175781-18.042968 28.527344-6.664063c2.191406-.484375 4.46875-.730469 6.742187-.730469zm0 0" fill="#1e81ce"/><path d="m390.09375 66.398438v153.03125l-7.882812-1.300782c-10.96875-1.871094-21.941407-3.496094-32.75-4.796875v-129.625c0-11.621093-6.175782-22.265625-16.089844-28.117187l-79.078125-46c2.683593 0 5.363281.324218 8.046875.976562l27.144531 6.339844 75.582031 17.796875c1.21875.324219 2.4375.648437 3.65625 1.136719.242188.082031.488282.164062.8125.246094.8125.324218 1.625.730468 2.4375 1.136718 1.953125.894532 3.738282 2.03125 5.363282 3.332032.734374.570312 1.464843 1.136718 2.113281 1.789062 1.058593.894531 1.949219 1.867188 2.84375 2.925781.8125.976563 1.625 2.03125 2.355469 3.085938v.082031c.8125 1.136719 1.464843 2.355469 2.03125 3.574219.570312 1.21875 1.140624 2.441406 1.546874 3.742187.570313 1.785156 1.054688 3.574219 1.382813 5.363282.160156.894531.324219 1.867187.40625 2.761718.078125.8125.078125 1.707032.078125 2.519532zm0 0" fill="#1e81ce"/><path d="m349.460938 511.269531v.730469h154.414062v-24.382812h-24.382812v-24.378907h23.894531c-1.058594-8.859375-3.902344-17.066406-8.210938-24.382812h-15.683593v-18.203125c-7.070313-5.769532-15.359376-9.914063-24.382813-12.191406v30.394531h-24.378906v-32.507813h-24.382813v19.832032c2.683594 4.0625 5.203125 8.449218 6.828125 12.675781 3.738281 9.265625 3.414063 17.878906-6.828125 21.945312v26.816407h-22.835937c-7.070313 12.355468-19.503907 21.214843-34.050781 23.652343zm81.269531-23.652343v-24.378907h24.378906v24.378907zm0 0" fill="#666"/><g fill="#fff"><path d="m316.953125 487.617188h-48.761719v-16.253907h48.761719c17.929687 0 32.507813-14.582031 32.507813-32.507812h16.253906c0 26.890625-21.875 48.761719-48.761719 48.761719zm0 0"/><path d="m349.460938 406.347656h16.253906v16.253906h-16.253906zm0 0"/><path d="m162.539062 154.414062h-16.253906v-53.054687c0-25.515625 14.175782-48.453125 37-59.867187l7.269532 14.539062c-17.277344 8.640625-28.015626 26.007812-28.015626 45.332031zm0 0"/><path d="m199.535156 33.367188 16.253906-8.125 7.269532 14.539062-16.253906 8.125zm0 0"/><path d="m32.507812 406.347656h-16.253906c0-31.367187 25.523438-56.886718 56.890625-56.886718v16.253906c-22.40625 0-40.636719 18.230468-40.636719 40.632812zm0 0"/><path d="m89.398438 349.460938h16.253906v16.253906h-16.253906zm0 0"/><path d="m422.605469 325.078125v-16.253906c8.957031 0 16.253906-7.289063 16.253906-16.253907h16.253906c-.003906 17.925782-14.582031 32.507813-32.507812 32.507813zm0 0"/><path d="m184.539062 379.585938-11.492187-11.492188 7.144531-7.140625c12.660156-12.652344 29.476563-19.621094 47.363282-19.621094v16.253907c-13.546876 0-26.285157 5.277343-35.871094 14.859374zm0 0"/><path d="m148.664062 400.601562 16.253907-16.253906 11.492187 11.492188-16.253906 16.253906zm0 0"/></g><path d="m268.191406 12.191406c0-6.734375-7.277344-12.191406-16.253906-12.191406s-16.253906 5.457031-16.253906 12.191406c0 6.730469 7.277344 12.191406 16.253906 12.191406s16.253906-5.460937 16.253906-12.191406zm0 0" fill="#f40e34"/><path d="m276.316406 312.890625c0 6.730469-5.457031 12.1875-12.1875 12.1875-6.734375 0-12.191406-5.457031-12.191406-12.1875 0-6.734375 5.457031-12.191406 12.191406-12.191406 6.730469 0 12.1875 5.457031 12.1875 12.191406zm0 0" fill="#fff"/><path d="m330.890625 241.125c-12.128906-3.613281-25.015625-5.441406-38.320313-5.441406v-16.253906c14.875 0 29.328126 2.058593 42.953126 6.113281zm0 0" fill="#fff"/><path d="m353.105469 250.585938c-.058594-.035157-5.253907-3.417969-14.613281-6.910157l5.683593-15.230469c11.285157 4.214844 17.65625 8.425782 17.917969 8.601563zm0 0" fill="#fff"/></svg>