<svg height="512pt" viewBox="0 0 512 512" width="512pt" xmlns="http://www.w3.org/2000/svg"><path d="m412.902344 231.226562v107.355469c0 2.886719-.328125 5.613281-1.074219 8.257813-3.632813 14.285156-16.597656 24.773437-31.957031 24.773437 0 9.085938-3.714844 17.34375-9.664063 23.371094-6.027343 5.945313-14.285156 9.660156-23.367187 9.660156 0 9.085938-3.71875 17.34375-9.664063 23.371094-6.027343 5.945313-14.285156 9.660156-23.371093 9.660156 0 6.855469-2.808594 13.046875-7.265626 17.507813-4.460937 4.460937-10.652343 7.265625-17.507812 7.265625h-66.0625c-13.710938 0-24.777344-11.0625-24.777344-24.773438-9.082031 0-17.339844-3.714843-23.371094-9.660156-5.945312-6.03125-9.660156-14.289063-9.660156-23.371094-9.085937 0-17.34375-3.714843-23.371094-9.660156-5.945312-6.03125-9.660156-14.289063-9.660156-23.371094-9.085937 0-17.34375-3.714843-23.371094-9.660156-4.046874-4.128906-7.101562-9.332031-8.589843-15.113281-.742188-2.644532-1.074219-5.367188-1.074219-8.257813v-107.355469c0-15.609374 10.902344-28.738281 25.519531-32.125 2.394531-.578124 4.953125-.90625 7.511719-.90625v11.558594c-.988281 1.570313-1.898438 3.222656-2.722656 4.953125-3.550782 7.515625-5.535156 15.855469-5.535156 24.777344 0 10.898437 2.972656 21.058594 8.257812 29.726563v11.5625c0 22.792968 18.5 41.292968 41.292969 41.292968 0-4.542968 1.816406-8.671875 4.871093-11.644531 2.972657-3.058594 7.101563-4.875 11.644532-4.875h24.773437c0-4.539063 1.816407-8.667969 4.875-11.644531 2.972657-3.054688 7.101563-4.871094 11.640625-4.871094h8.257813c0 9.085938 7.433593 16.515625 16.519531 16.515625 9.082031 0 16.515625-7.429687 16.515625-16.515625h8.257813c9.082031 0 16.515624 7.433594 16.515624 16.515625h24.773438c9.085938 0 16.515625 7.433594 16.515625 16.519531 11.398437 0 21.71875-4.625 29.234375-12.058594 7.433594-7.515624 12.058594-17.835937 12.058594-29.234374v-11.5625c5.285156-8.667969 8.257812-18.828126 8.257812-29.726563 0-8.921875-1.980468-17.261719-5.53125-24.777344-.828125-1.730469-1.734375-3.382812-2.726562-4.953125v-11.558594c2.558594 0 5.121094.328126 7.515625.90625 6.109375 1.402344 11.558593 4.542969 15.855469 8.753907 5.945312 6.027343 9.660156 14.285156 9.660156 23.371093zm0 0" fill="#8c6239"/><path d="m412.902344 338.582031v49.546875c0 2.890625-.328125 5.617188-1.074219 8.257813-3.632813 14.285156-16.597656 24.773437-31.957031 24.773437 0 9.085938-3.714844 17.34375-9.664063 23.371094-6.027343 5.945312-14.285156 9.660156-23.367187 9.660156 0 9.085938-3.71875 17.34375-9.664063 23.371094-6.027343 5.945312-14.285156 9.660156-23.371093 9.660156 0 6.855469-2.808594 13.050782-7.265626 17.507813-4.460937 4.460937-10.652343 7.269531-17.507812 7.269531h-66.0625c-13.710938 0-24.777344-11.066406-24.777344-24.777344-9.082031 0-17.339844-3.714844-23.371094-9.660156-5.945312-6.027344-9.660156-14.285156-9.660156-23.371094-9.085937 0-17.34375-3.714844-23.371094-9.660156-5.945312-6.027344-9.660156-14.285156-9.660156-23.371094-9.085937 0-17.34375-3.714844-23.371094-9.660156-4.046874-4.128906-7.101562-9.332031-8.589843-15.113281-.742188-2.640625-1.074219-5.367188-1.074219-8.257813v-49.546875c0 2.886719.332031 5.613281 1.074219 8.257813 1.488281 5.78125 4.542969 10.984375 8.589843 15.113281 6.027344 5.945313 14.285157 9.660156 23.371094 9.660156 0 9.085938 3.714844 17.34375 9.660156 23.371094 6.027344 5.945313 14.285157 9.660156 23.371094 9.660156 0 9.085938 3.714844 17.34375 9.660156 23.371094 6.03125 5.945313 14.289063 9.660156 23.371094 9.660156 0 13.710938 11.066406 24.773438 24.777344 24.773438h66.0625c6.855469 0 13.046875-2.804688 17.507812-7.265625 4.457032-4.460938 7.265626-10.652344 7.265626-17.507813 9.085937 0 17.34375-3.714843 23.371093-9.660156 5.945313-6.03125 9.664063-14.289063 9.664063-23.371094 9.082031 0 17.339844-3.714843 23.367187-9.660156 5.949219-6.03125 9.664063-14.289063 9.664063-23.371094 15.359375 0 28.324218-10.488281 31.957031-24.773437.746094-2.644532 1.074219-5.371094 1.074219-8.257813zm0 0" fill="#5b3b20"/><path d="m206.453125 239.484375c0 9.121094-7.394531 16.515625-16.519531 16.515625-9.121094 0-16.515625-7.394531-16.515625-16.515625s7.394531-16.515625 16.515625-16.515625c9.125 0 16.519531 7.394531 16.519531 16.515625zm0 0" fill="#ffb398"/><path d="m338.582031 239.484375c0 9.121094-7.394531 16.515625-16.515625 16.515625-9.125 0-16.519531-7.394531-16.519531-16.515625s7.394531-16.515625 16.519531-16.515625c9.121094 0 16.515625 7.394531 16.515625 16.515625zm0 0" fill="#ffb398"/><path d="m82.582031 305.546875h16.515625v-66.0625h-16.515625c-18.246093 0-33.035156 14.789063-33.035156 33.03125s14.789063 33.03125 33.035156 33.03125zm0 0" fill="#fe946f"/><path d="m429.417969 305.546875h-16.515625v-66.0625h16.515625c18.246093 0 33.035156 14.789063 33.035156 33.03125-.003906 18.242187-14.792969 33.03125-33.035156 33.03125zm0 0" fill="#fe946f"/><path d="m148.644531 330.324219c0 13.679687-11.089843 24.773437-24.773437 24.773437s-24.773438-11.09375-24.773438-24.773437c0-13.683594 11.089844-24.777344 24.773438-24.777344s24.773437 11.09375 24.773437 24.777344zm0 0" fill="#ff0c38"/><path d="m412.902344 330.324219c0 13.679687-11.089844 24.773437-24.773438 24.773437s-24.773437-11.09375-24.773437-24.773437c0-13.683594 11.089843-24.777344 24.773437-24.777344s24.773438 11.09375 24.773438 24.777344zm0 0" fill="#ff0c38"/><path d="m222.96875 512h-140.386719v-115.613281h17.589844c1.484375 5.78125 4.539063 10.984375 8.585937 15.113281 6.03125 5.945312 14.289063 9.660156 23.371094 9.660156 0 9.085938 3.714844 17.34375 9.664063 23.371094 6.027343 5.945312 14.285156 9.660156 23.367187 9.660156 0 9.085938 3.71875 17.34375 9.664063 23.371094 6.027343 5.945312 14.285156 9.660156 23.371093 9.660156 0 13.710938 11.0625 24.777344 24.773438 24.777344zm0 0" fill="#1e81ce"/><path d="m429.417969 396.386719v115.613281h-140.386719c6.855469 0 13.050781-2.808594 17.507812-7.265625 4.460938-4.460937 7.265626-10.65625 7.265626-17.507813 9.085937 0 17.34375-3.71875 23.371093-9.664062 5.945313-6.027344 9.664063-14.285156 9.664063-23.367188 9.082031 0 17.339844-3.71875 23.371094-9.664062 5.945312-6.027344 9.660156-14.285156 9.660156-23.367188 15.359375 0 28.324218-10.488281 31.960937-24.777343zm0 0" fill="#1e81ce"/><path d="m0 512h82.582031v-115.613281c-45.609375 0-82.582031 36.972656-82.582031 82.582031zm0 0" fill="#ff0c38"/><path d="m512 512h-82.582031v-115.613281c45.609375 0 82.582031 36.972656 82.582031 82.582031zm0 0" fill="#ff0c38"/><path d="m412.902344 0s0 33.03125-41.289063 74.324219c-2.972656 2.96875-6.03125 5.695312-9.25 8.257812-41.207031 33.03125-98.105469 33.03125-98.105469 33.03125h-165.160156v-115.613281zm0 0" fill="#754c24"/><path d="m132.128906 218.011719c-.734375 0-1.472656-.097657-2.207031-.296875-3.574219-.992188-6.050781-4.25-6.050781-7.960938v-11.558594c0-4.039062.390625-7.984374 1.160156-11.738281.617188-3.015625 2.863281-5.4375 5.820312-6.28125 2.957032-.835937 6.140626.027344 8.261719 2.257813 2.214844 2.332031 5.042969 4.265625 8.1875 5.585937 2.65625 1.113281 4.535157 3.527344 4.96875 6.371094.433594 2.84375-.644531 5.710937-2.847656 7.5625-3.996094 3.359375-7.429687 7.414063-10.210937 12.050781-1.523438 2.53125-4.234376 4.007813-7.082032 4.007813zm0 0" fill="#ffb398"/><path d="m195.386719 191.589844c-.679688 0-1.371094-.085938-2.050781-.257813-2.660157-.683593-5.492188-1.101562-8.421876-1.238281-2.910156-.140625-5.53125-1.808594-6.898437-4.378906-1.367187-2.578125-1.273437-5.683594.246094-8.175782 2.234375-3.660156 3.414062-7.941406 3.414062-12.378906 0-4.558594 3.699219-8.257812 8.257813-8.257812 4.5625 0 8.261718 3.699218 8.261718 8.257812 0 4.898438 1.40625 9.597656 4.0625 13.59375 1.898438 2.847656 1.84375 6.5625-.136718 9.355469-1.574219 2.21875-4.101563 3.480469-6.734375 3.480469zm0 0"/><path d="m206.453125 239.484375c0 9.121094-7.394531 16.515625-16.519531 16.515625-9.121094 0-16.515625-7.394531-16.515625-16.515625s7.394531-16.515625 16.515625-16.515625c9.125 0 16.519531 7.394531 16.519531 16.515625zm0 0" fill="#ffb398"/><path d="m239.484375 239.484375v49.546875h-8.257813c-4.542968 0-8.671874 1.816406-11.644531 4.871094-3.054687 2.976562-4.871093 7.105468-4.871093 11.644531h-24.777344c-4.539063 0-8.667969 1.816406-11.640625 4.875-3.058594 2.972656-4.875 7.101563-4.875 11.644531-22.792969 0-41.289063-18.5-41.289063-41.292968v-11.5625c10.074219 16.847656 28.488282 28.078124 49.546875 28.078124 31.960938 0 57.808594-25.847656 57.808594-57.804687zm0 0" fill="#ffb398"/><path d="m289.941406 198.109375c-10.734375 10.488281-17.425781 25.1875-17.425781 41.375h-33.03125c0-16.1875-6.691406-30.886719-17.425781-41.375.328125.085937.578125.085937.910156.085937 18.25 0 33.03125-14.785156 33.03125-33.035156 0 18.25 14.78125 33.035156 33.03125 33.035156.332031 0 .578125 0 .910156-.085937zm0 0" fill="#ffb398"/><path d="m326.6875 181.839844c-3.464844.167968-6.851562.664062-10.074219 1.488281 3.46875-5.203125 5.453125-11.480469 5.453125-18.167969 0 6.03125 1.648438 11.808594 4.621094 16.679688zm0 0" fill="#8c6239"/><path d="m338.582031 239.484375c0 9.121094-7.394531 16.515625-16.515625 16.515625-9.125 0-16.519531-7.394531-16.519531-16.515625s7.394531-16.515625 16.519531-16.515625c9.121094 0 16.515625 7.394531 16.515625 16.515625zm0 0" fill="#ffb398"/><path d="m379.871094 218.011719c-2.847656 0-5.5625-1.476563-7.082032-4.007813-2.78125-4.636718-6.21875-8.695312-10.210937-12.050781-2.203125-1.851563-3.28125-4.71875-2.847656-7.5625.433593-2.84375 2.3125-5.257813 4.96875-6.371094 3.144531-1.320312 5.972656-3.253906 8.1875-5.585937 2.125-2.230469 5.308593-3.09375 8.261719-2.257813 2.957031.84375 5.203124 3.269531 5.820312 6.28125.769531 3.753907 1.160156 7.699219 1.160156 11.738281v11.558594c0 3.710938-2.476562 6.96875-6.050781 7.960938-.734375.199218-1.472656.296875-2.207031.296875zm0 0" fill="#ffb398"/><path d="m379.871094 269.210938v11.5625c0 11.398437-4.625 21.71875-12.058594 29.234374-7.511719 7.433594-17.835938 12.058594-29.234375 12.058594 0-9.085937-7.429687-16.519531-16.515625-16.519531h-24.773438c0-9.082031-7.433593-16.515625-16.515624-16.515625h-8.257813v-49.546875c0 31.957031 25.847656 57.804687 57.804687 57.804687 21.058594 0 39.476563-11.230468 49.550782-28.078124zm0 0" fill="#ffb398"/><path d="m256 350.8125c-20.0625 0-40.117188-7.640625-55.386719-22.910156l11.675781-11.675782c24.105469 24.097657 63.316407 24.097657 87.421876 0l11.675781 11.675782c-15.269531 15.269531-35.324219 22.910156-55.386719 22.910156zm0 0" fill="#f26038"/><path d="m512 177.546875c0 17.097656-6.9375 32.539063-18.167969 43.769531-11.230469 11.230469-26.671875 18.167969-43.765625 18.167969h-37.164062v-8.257813c0-9.085937-3.714844-17.34375-9.660156-23.371093-.496094-.496094-.992188-.992188-1.570313-1.40625-5.863281-5.117188-13.460937-8.257813-21.800781-8.257813 0-3.46875-.332032-6.851562-.992188-10.074218-4.707031-22.542969-24.691406-39.472657-48.558594-39.472657h-148.644531c-23.863281 0-43.847656 16.929688-48.554687 39.472657-.664063 3.222656-.992188 6.605468-.992188 10.074218-8.339844 0-15.9375 3.140625-21.800781 8.257813-6.855469 6.03125-11.230469 14.867187-11.230469 24.777343v8.257813h-37.164062c-34.1875 0-61.933594-27.746094-61.933594-61.9375 0-17.09375 6.9375-32.535156 18.167969-43.765625 10.238281-10.242188 23.867187-16.847656 39.140625-17.921875 1.488281-.164063 3.058594-.246094 4.625-.246094h388.128906c1.570312 0 3.140625.082031 4.625.246094 32.042969 2.3125 57.3125 29.070313 57.3125 61.6875zm0 0" fill="#a06f3f"/><path d="m495.484375 161.03125c0 12.550781-5.121094 23.949219-13.296875 32.125s-19.570312 13.296875-32.125 13.296875h-48.390625c-5.863281-5.121094-13.460937-8.257813-21.800781-8.257813 0-3.472656-.332032-6.855468-.992188-10.078124-4.707031-22.542969-24.691406-39.472657-48.558594-39.472657h-148.644531c-23.863281 0-43.847656 16.929688-48.554687 39.472657-.664063 3.222656-.992188 6.605468-.992188 10.078124-8.339844 0-15.9375 3.136719-21.800781 8.257813h-48.394531c-25.101563 0-45.417969-20.316406-45.417969-45.421875 0-12.550781 5.121094-23.949219 13.296875-32.125 7.183594-7.183594 16.761719-11.972656 27.496094-13.046875 1.488281-.164063 3.058594-.246094 4.625-.246094h388.128906c1.570312 0 3.140625.082031 4.625.246094 22.957031 2.3125 40.796875 21.636719 40.796875 45.171875zm0 0" fill="#c69c6d"/><path d="m362.363281 82.582031c-41.207031 33.03125-98.105469 33.03125-98.105469 33.03125h-165.160156v-33.03125zm0 0" fill="#ff0c38"/><path d="m272.515625 239.484375v49.546875c0 9.085938-7.433594 16.515625-16.515625 16.515625-9.085938 0-16.515625-7.429687-16.515625-16.515625v-49.546875zm0 0" fill="#f26038"/><path d="m222.058594 198.109375s0 0-.082032 0c-11.148437-.246094-20.8125-6.027344-26.589843-14.78125-3.222657-.824219-6.605469-1.320313-10.074219-1.484375-5.617188 9.824219-16.269531 16.351562-28.410156 16.351562-4.542969 0-8.835938-.910156-12.800782-2.558593-4.707031 3.960937-8.753906 8.75-11.972656 14.121093-5.285156 8.667969-8.257812 18.828126-8.257812 29.726563 0 10.902344 2.972656 21.058594 8.257812 29.730469 10.074219 16.847656 28.488282 28.078125 49.546875 28.078125 31.960938 0 57.804688-25.847657 57.804688-57.808594.003906-16.1875-6.6875-30.886719-17.421875-41.375zm-32.125 57.890625c-9.082032 0-16.515625-7.433594-16.515625-16.515625 0-9.085937 7.433593-16.515625 16.515625-16.515625 9.085937 0 16.519531 7.429688 16.519531 16.515625 0 9.082031-7.433594 16.515625-16.519531 16.515625zm0 0" fill="#f3c50a"/><path d="m206.453125 239.484375c0 9.121094-7.394531 16.515625-16.519531 16.515625-9.121094 0-16.515625-7.394531-16.515625-16.515625s7.394531-16.515625 16.515625-16.515625c9.125 0 16.519531 7.394531 16.519531 16.515625zm0 0" fill="#4d4d4d"/><path d="m379.871094 209.753906c-3.222656-5.367187-7.265625-10.15625-11.976563-14.121094-3.960937 1.652344-8.257812 2.558594-12.796875 2.558594-12.140625 0-22.792968-6.523437-28.410156-16.351562-3.46875.167968-6.851562.660156-10.074219 1.488281-5.78125 8.753906-15.523437 14.535156-26.671875 14.78125-10.738281 10.488281-17.425781 25.1875-17.425781 41.371094 0 31.960937 25.847656 57.808593 57.804687 57.808593 21.058594 0 39.472657-11.230468 49.546876-28.078124 5.289062-8.671876 8.257812-18.828126 8.257812-29.730469 0-10.902344-2.96875-21.054688-8.253906-29.726563zm-57.804688 46.246094c-9.085937 0-16.519531-7.433594-16.519531-16.515625 0-9.085937 7.433594-16.515625 16.519531-16.515625 9.082032 0 16.515625 7.429688 16.515625 16.515625 0 9.082031-7.433593 16.515625-16.515625 16.515625zm0 0" fill="#f3c50a"/><path d="m338.582031 239.484375c0 9.121094-7.394531 16.515625-16.515625 16.515625-9.125 0-16.519531-7.394531-16.519531-16.515625s7.394531-16.515625 16.519531-16.515625c9.121094 0 16.515625 7.394531 16.515625 16.515625zm0 0" fill="#4d4d4d"/><path d="m412.902344 231.226562h-17.074219c-1.140625-9.144531-4.128906-17.921874-8.890625-25.742187-3.71875-6.195313-8.339844-11.636719-13.722656-16.167969l-3.851563-3.242187-4.644531 1.9375c-11.195312 4.652343-24.945312.085937-30.859375-10.265625l-2.507813-4.390625-5.058593.238281c-4.042969.191406-7.992188.777344-11.734375 1.738281l-3.082032.792969-1.753906 2.65625c-4.460937 6.757812-11.929687 10.898438-19.96875 11.078125l-3.253906.074219-2.328125 2.273437c-10.84375 10.59375-17.515625 24.230469-19.347656 39.019531h-17.648438c-1.828125-14.789062-8.5-28.425781-19.34375-39.019531l-2.417969-2.273437-3.25-.074219c-8.109374-.183594-15.355468-4.21875-19.882812-11.078125l-1.753906-2.65625-3.085938-.792969c-3.742187-.960937-7.691406-1.546875-11.734375-1.738281l-5.058593-.238281-2.507813 4.390625c-5.917969 10.359375-19.675781 14.933594-30.855469 10.265625l-4.648437-1.9375-3.851563 3.242187c-5.390625 4.535156-10.011718 9.984375-13.707031 16.140625-4.769531 7.828125-7.761719 16.617188-8.90625 25.769531h-17.074219v16.515626h17.074219c1.140625 9.152343 4.128906 17.929687 8.867187 25.710937 11.839844 19.796875 33.542969 32.097656 56.640626 32.097656 33.625 0 61.40625-25.269531 65.488281-57.808593h17.664062c4.085938 32.539062 31.867188 57.808593 65.492188 57.808593 23.09375 0 44.796875-12.300781 56.597656-32.039062 4.769531-7.828125 7.761719-16.617188 8.90625-25.769531h17.074219zm-231.226563 57.804688c-17.578125 0-33.453125-8.992188-42.496093-24.117188-4.613282-7.566406-7.050782-16.363281-7.050782-25.429687 0-9.070313 2.4375-17.863281 7.078125-25.480469 1.980469-3.296875 4.296875-6.308594 6.902344-8.976562 3.507813.949218 7.121094 1.425781 10.792969 1.425781 12.839844 0 24.855468-5.984375 32.511718-15.917969.382813.058594.757813.121094 1.132813.1875 6.820313 8.640625 16.796875 14.195313 27.777344 15.40625 8.34375 9.140625 12.898437 20.875 12.898437 33.355469.003906 27.320313-22.222656 49.546875-49.546875 49.546875zm191.105469-24.054688c-9.003906 15.0625-24.878906 24.054688-42.457031 24.054688-27.324219 0-49.550781-22.226562-49.550781-49.546875 0-12.476563 4.558593-24.210937 12.890624-33.347656 10.929688-1.195313 20.949219-6.757813 27.785157-15.414063.378906-.066406.753906-.128906 1.136719-.1875 9.84375 12.777344 27.535156 18.753906 43.304687 14.492188 2.605469 2.671875 4.921875 5.679687 6.898437 8.976562l.027344.050782c4.613282 7.566406 7.054688 16.363281 7.054688 25.429687 0 9.070313-2.4375 17.863281-7.089844 25.492187zm0 0" fill="#42210b"/><path d="m256 148.644531v20.875c0 17.972657-16.359375 32.585938-33.882812 28.605469-.019532-.003906-.039063-.011719-.058594-.015625 0 0 0 0-.082032 0-11.148437-.246094-20.8125-6.027344-26.59375-14.78125-3.464843-5.203125-5.449218-11.480469-5.449218-18.167969v-16.515625zm0 0" fill="#8c6239"/><path d="m189.933594 148.644531v16.515625c0 6.03125-1.648438 11.808594-4.621094 16.679688-5.617188 9.828125-16.269531 16.355468-28.410156 16.355468-4.542969 0-8.835938-.910156-12.800782-2.5625-4.128906-1.734374-7.925781-4.292968-10.980468-7.515624 4.707031-22.542969 24.691406-39.472657 48.554687-39.472657zm0 0" fill="#8c6239"/><path d="m322.066406 148.644531v16.515625c0 6.6875-1.984375 12.964844-5.453125 18.167969-5.777343 8.753906-15.523437 14.535156-26.671875 14.78125-.019531.003906-.039062.011719-.0625.015625-17.523437 3.980469-33.878906-10.636719-33.878906-28.605469v-20.875zm0 0" fill="#8c6239"/><path d="m378.878906 188.117188c-3.054687 3.222656-6.855468 5.78125-10.984375 7.515624-3.960937 1.652344-8.257812 2.5625-12.796875 2.5625-12.140625 0-22.792968-6.527343-28.410156-16.355468-2.972656-4.871094-4.625-10.648438-4.625-16.679688v-16.515625h8.257812c23.867188 0 43.851563 16.929688 48.558594 39.472657zm0 0" fill="#8c6239"/><path d="m429.417969 396.386719v115.613281h-115.613281s57.808593-16.515625 82.582031-49.546875c24.773437-33.035156 33.03125-66.066406 33.03125-66.066406zm0 0" fill="#0f70b2"/><path d="m412.902344 82.582031v33.03125h-148.644532s56.898438 0 98.105469-33.03125zm0 0" fill="#c60932"/><path d="m412.902344 0v82.582031h-50.539063c3.21875-2.5625 6.277344-5.289062 9.25-8.257812 41.289063-41.292969 41.289063-74.324219 41.289063-74.324219zm0 0" fill="#5b3b20"/><g fill="#fff"><path d="m181.675781 280.773438v-16.515626c13.664063 0 24.777344-11.113281 24.777344-24.773437h16.515625c0 22.765625-18.523438 41.289063-41.292969 41.289063zm0 0"/><path d="m330.324219 280.773438v-16.515626c13.660156 0 24.773437-11.113281 24.773437-24.773437h16.515625c0 22.765625-18.523437 41.289063-41.289062 41.289063zm0 0"/><path d="m148.644531 57.804688h-16.515625v-24.773438c0-4.558594 3.695313-8.257812 8.257813-8.257812h33.03125v16.515624h-24.773438zm0 0"/><path d="m132.128906 74.324219h16.515625v16.515625h-16.515625zm0 0"/><path d="m289.03125 470.710938v-16.519532c9.109375 0 16.515625-7.40625 16.515625-16.515625 0-4.558593 3.699219-8.257812 8.257813-8.257812h8.261718c9.105469 0 16.515625-7.40625 16.515625-16.515625v-8.257813c0-4.5625 3.695313-8.257812 8.257813-8.257812h8.257812c9.109375 0 16.515625-7.410157 16.515625-16.515625v-8.257813h16.515625v8.257813c0 18.210937-14.816406 33.03125-33.03125 33.03125 0 18.214844-14.820312 33.03125-33.03125 33.03125h-1.046875c-3.675781 14.230468-16.625 24.777344-31.988281 24.777344zm0 0"/><path d="m256 454.191406h16.515625v16.519532h-16.515625zm0 0"/></g></svg>