<svg height="512pt" viewBox="0 0 512 512" width="512pt" xmlns="http://www.w3.org/2000/svg"><path d="m445.933594 412.902344-189.933594 74.324218-189.9375-74.324218 82.582031-24.773438v-65.320312c0 4.789062 2.0625 9.332031 5.617188 12.46875l29.398437 25.683594c9.992188 8.753906 21.46875 15.523437 33.691406 20.148437 12.222657 4.625 25.351563 7.019531 38.648438 7.019531 26.589844 0 52.355469-9.660156 72.339844-27.167968l29.398437-25.683594c3.550781-3.136719 5.617188-7.679688 5.617188-12.46875v65.320312zm0 0" fill="#cf9e76"/><path d="m66.0625 412.902344 189.9375 74.324218 189.933594-74.324218 66.066406 16.515625v82.582031h-512v-82.582031zm0 0" fill="#666"/><path d="m512 429.417969v82.582031h-189.933594s10.6875 0 26.734375-1c63.160157-3.9375 122.015625-33.53125 163.199219-81.582031zm0 0" fill="#3f4344"/><path d="m445.933594 412.902344-189.933594 74.324218 132.128906-74.324218-41.289062-24.773438-8.257813-41.289062 24.773438-24.773438v66.0625zm0 0" fill="#af7951"/><path d="m123.871094 173.417969c-57.804688-8.257813-57.804688-57.804688-57.804688-57.804688h-66.066406c0 31.875 12.964844 60.777344 33.859375 81.753907 20.972656 20.894531 49.878906 33.859374 81.753906 33.859374h24.773438v-8.257812h-8.257813v-16.515625h11.066406c5.863282-14.453125 20.894532-24.777344 38.480469-24.777344h24.777344c11.066406 0 20.972656 4.128907 28.40625 10.820313 18.332031-20.398438 29.398437-47.320313 29.398437-76.882813 0 0-24.773437 74.320313-140.386718 57.804688zm0 0" fill="#222c30"/><path d="m431.402344 72.339844c-8.921875-9-21.308594-14.53125-35.015625-14.53125 0-31.960938-25.847657-57.808594-57.804688-57.808594h-165.164062c-16.019531 0-30.386719 6.441406-40.875 16.929688-10.488281 10.488281-16.929688 24.855468-16.929688 40.878906-27.335937 0-49.550781 22.210937-49.550781 49.546875v8.257812s0 49.546875 57.808594 57.804688c115.613281 16.515625 140.386718-57.804688 140.386718-57.804688h99.097657v49.546875h16.515625c34.914062 0 63.386718-26.976562 65.890625-61.21875-.835938-12.339844-6.117188-23.433594-14.359375-31.601562zm0 0" fill="#303c42"/><path d="m363.355469 115.613281v207.195313c0 4.789062-2.066407 9.332031-5.617188 12.46875l-29.398437 25.683594c-19.984375 17.507812-45.75 27.167968-72.339844 27.167968-13.296875 0-26.425781-2.394531-38.648438-7.019531-12.222656-4.625-23.699218-11.394531-33.691406-20.148437l-29.402344-25.683594c-3.550781-3.136719-5.613281-7.679688-5.613281-12.46875v-91.582032c31.460938 0 59.953125-12.636718 80.84375-33.03125 1.40625-1.40625 2.808594-2.808593 4.132813-4.296874 19.074218-20.5625 30.636718-48.0625 30.636718-78.285157zm0 0" fill="#dfb28b"/><path d="m396.386719 214.710938v24.773437c0 18.25-14.78125 33.03125-33.03125 33.03125v-57.804687c0-9.085938 7.429687-16.515626 16.515625-16.515626 4.542968 0 8.671875 1.816407 11.644531 4.871094 3.054687 2.972656 4.871094 7.101563 4.871094 11.644532zm0 0" fill="#cf9e76"/><path d="m148.644531 231.226562v41.289063c-18.25 0-33.03125-14.78125-33.03125-33.03125v-8.257813zm0 0" fill="#cf9e76"/><path d="m256 297.289062c-9.121094 0-16.515625-7.394531-16.515625-16.515624v-57.804688c0-9.121094 7.394531-16.515625 16.515625-16.515625s16.515625 7.394531 16.515625 16.515625v57.804688c0 9.121093-7.394531 16.515624-16.515625 16.515624zm0 0" fill="#efa065"/><path d="m181.675781 322.066406c0 9.121094-7.394531 16.515625-16.515625 16.515625s-16.515625-7.394531-16.515625-16.515625c0-9.125 7.394531-16.519531 16.515625-16.519531s16.515625 7.394531 16.515625 16.519531zm0 0" fill="#f40e34"/><path d="m363.355469 322.066406c0 9.121094-7.394531 16.515625-16.515625 16.515625-9.125 0-16.519532-7.394531-16.519532-16.515625 0-9.125 7.394532-16.519531 16.519532-16.519531 9.121094 0 16.515625 7.394531 16.515625 16.519531zm0 0" fill="#f40e34"/><path d="m256 346.839844c-13.683594 0-24.773438-11.09375-24.773438-24.777344v-8.257812h49.546876v8.257812c0 13.683594-11.089844 24.777344-24.773438 24.777344zm0 0" fill="#f2f2f2"/><path d="m368.804688 206.453125c-5.863282-14.453125-20.894532-24.777344-38.484376-24.777344h-24.773437c-15.691406 0-29.148437 8.257813-36.171875 20.152344-3.464844-2.148437-7.84375-3.632813-13.375-3.632813-5.535156 0-9.910156 1.484376-13.378906 3.632813-7.019532-11.894531-20.480469-20.152344-36.171875-20.152344h-24.773438c-17.589843 0-32.621093 10.324219-38.480469 24.777344h-11.066406v16.515625h8.257813v11.972656c0 25.269532 22.210937 45.832032 49.546875 45.832032 21.058594 0 39.472656-10.402344 49.546875-25.929688 5.285156-8.007812 8.257812-17.421875 8.257812-27.332031v-4.460938c.082031-3.796875 1.570313-8.339843 8.257813-8.339843 6.691406 0 8.175781 4.542968 8.257812 8.257812v4.542969c0 9.910156 2.972656 19.324219 8.261719 27.332031 10.074219 15.527344 28.488281 25.929688 49.546875 25.929688 27.332031 0 49.546875-20.5625 49.546875-45.832032v-11.972656h8.257813v-16.515625zm-137.578126 21.058594c0 20.230469-18.5 36.746093-41.292968 36.746093-18.25 0-33.03125-13.128906-33.03125-29.316406v-14.945312c0-12.058594 11.148437-21.800782 24.773437-21.800782h24.777344c13.625 0 24.773437 9.742188 24.773437 21.800782zm123.871094 7.429687c0 16.1875-14.78125 29.316406-33.035156 29.316406-22.789062 0-41.289062-16.515624-41.289062-36.746093v-7.515625c0-12.058594 11.148437-21.800782 24.773437-21.800782h24.773437c13.628907 0 24.777344 9.742188 24.777344 21.800782zm0 0" fill="#f2f2f2"/><path d="m272.515625 222.96875v31.875c-5.285156-8.011719-8.257813-17.425781-8.257813-27.332031v-4.542969c-.082031-3.71875-1.570312-8.257812-8.257812-8.257812s-8.175781 4.539062-8.257812 8.339843v4.460938c0 9.90625-2.972657 19.320312-8.257813 27.332031v-31.875c0-9.085938 7.429687-16.515625 16.515625-16.515625 4.542969 0 8.671875 1.816406 11.644531 4.871094 3.054688 2.972656 4.871094 7.101562 4.871094 11.644531zm0 0" fill="#edd5c5"/><path d="m206.453125 198.195312c6.355469 0 12.304687 2.226563 16.679687 5.695313-18.167968 15.359375-41.042968 25.269531-66.230468 27.003906v-10.898437c0-12.058594 11.148437-21.800782 24.777344-21.800782zm0 0" fill="#2c373a"/><path d="m445.761719 103.941406c-2.503907 34.242188-30.976563 61.21875-65.890625 61.21875h-16.515625v49.546875c0-4.210937 1.570312-8.007812 4.210937-10.898437 2.972656-3.46875 7.429688-5.617188 12.304688-5.617188 4.542968 0 8.671875 1.816406 11.644531 4.871094 3.054687 2.976562 4.871094 7.105469 4.871094 11.644531 27.335937 0 49.546875-22.210937 49.546875-49.546875v-57.804687c0-1.152344-.09375-2.28125-.171875-3.414063zm0 0" fill="#222c30"/><path d="m363.355469 197.203125v17.507813c0-4.214844 1.570312-8.011719 4.210937-10.902344-1.15625-2.394532-2.558594-4.542969-4.210937-6.605469zm0 0" fill="#adb1b2"/><path d="m234.859375 192.496094c-.414063.496094-.824219.988281-1.238281 1.402344-1.320313 1.488281-2.726563 2.890624-4.128906 4.296874-2.0625 1.980469-4.128907 3.878907-6.359376 5.695313-4.375-3.46875-10.320312-5.695313-16.679687-5.695313h-24.777344c-13.625 0-24.773437 9.742188-24.773437 21.800782v10.898437c-2.726563.25-5.449219.332031-8.257813.332031h-8.257812v-8.257812h-8.257813v-16.515625h11.066406c5.863282-14.453125 20.890626-24.777344 38.480469-24.777344h24.773438c11.070312 0 20.976562 4.128907 28.410156 10.820313zm0 0" fill="#adb1b2"/><path d="m173.417969 0c-31.925781 0-57.804688 25.878906-57.804688 57.804688h57.804688c0-31.925782 25.882812-57.804688 57.808593-57.804688zm0 0" fill="#222c30"/><path d="m123.871094 57.804688c-31.925782 0-57.804688 25.882812-57.804688 57.808593h57.804688c0-31.925781 25.882812-57.808593 57.804687-57.808593zm0 0" fill="#222c30"/><g fill="#fff"><path d="m90.839844 198.195312c-9.300782 0-18.527344-1.527343-27.421875-4.535156l5.292969-15.644531c7.183593 2.429687 14.628906 3.664063 22.128906 3.664063zm0 0"/><path d="m45.3125 185.28125c-17.117188-10.207031-26.738281-22.886719-27.144531-23.417969l13.195312-9.9375c.078125.105469 8.214844 10.703125 22.417969 19.179688zm0 0"/><path d="m181.675781 66.0625h-41.289062v-16.515625h24.773437c0-22.765625 18.523438-41.289063 41.292969-41.289063v16.515626c-13.664063 0-24.777344 11.113281-24.777344 24.773437zm0 0"/><path d="m222.96875 8.257812h24.773438v16.515626h-24.773438zm0 0"/><path d="m421.160156 115.613281h-16.515625c0-18.21875-14.8125-33.03125-33.03125-33.03125h-8.257812v-16.519531c0-9.101562-7.414063-16.515625-16.515625-16.515625v-16.515625c18.214844 0 33.03125 14.816406 33.03125 33.035156v.683594c23.402344 3.945312 41.289062 24.355469 41.289062 48.863281zm0 0"/><path d="m404.644531 132.128906h16.515625v16.515625h-16.515625zm0 0"/><path d="m272.515625 99.097656h-16.515625c0-13.664062-11.113281-24.773437-24.773438-24.773437v-16.519531c22.765626 0 41.289063 18.527343 41.289063 41.292968zm0 0"/></g><path d="m66.0625 412.902344-33.03125 8.257812 222.96875 66.066406zm0 0" fill="#af7951"/><path d="m330.324219 231.226562c0 9.121094-7.394531 16.515626-16.519531 16.515626-9.121094 0-16.515626-7.394532-16.515626-16.515626 0-9.121093 7.394532-16.515624 16.515626-16.515624 9.125 0 16.519531 7.394531 16.519531 16.515624zm0 0" fill="#3d332f"/><path d="m322.066406 231.226562c0 4.558594-3.699218 8.257813-8.261718 8.257813-4.558594 0-8.257813-3.699219-8.257813-8.257813 0-4.5625 3.699219-8.257812 8.257813-8.257812 4.5625 0 8.261718 3.695312 8.261718 8.257812zm0 0" fill="#562100"/><path d="m322.066406 227.097656c0 2.28125-1.851562 4.128906-4.128906 4.128906-2.28125 0-4.132812-1.847656-4.132812-4.128906s1.851562-4.128906 4.132812-4.128906c2.277344 0 4.128906 1.847656 4.128906 4.128906zm0 0" fill="#fff"/><path d="m214.710938 231.226562c0 9.121094-7.394532 16.515626-16.515626 16.515626-9.125 0-16.519531-7.394532-16.519531-16.515626 0-9.121093 7.394531-16.515624 16.519531-16.515624 9.121094 0 16.515626 7.394531 16.515626 16.515624zm0 0" fill="#3d332f"/><path d="m206.453125 231.226562c0 4.558594-3.699219 8.257813-8.257813 8.257813-4.5625 0-8.261718-3.699219-8.261718-8.257813 0-4.5625 3.699218-8.257812 8.261718-8.257812 4.558594 0 8.257813 3.695312 8.257813 8.257812zm0 0" fill="#562100"/><path d="m206.453125 227.097656c0 2.28125-1.851563 4.128906-4.128906 4.128906-2.28125 0-4.128907-1.847656-4.128907-4.128906s1.847657-4.128906 4.128907-4.128906c2.277343 0 4.128906 1.847656 4.128906 4.128906zm0 0" fill="#fff"/></svg>