<svg height="512pt" viewBox="-4 0 512 512" width="512pt" xmlns="http://www.w3.org/2000/svg"><path d="m138.160156 268.191406 5.039063 80.863282c-1.625.324218-3.332031.40625-5.039063.40625-22.429687 0-40.636718-18.207032-40.636718-40.636719 0-4.390625.730468-8.695313 2.03125-12.679688-16.007813-11.863281-26.414063-30.878906-26.414063-52.335937 0-35.921875 29.097656-65.015625 65.015625-65.015625h1.546875l14.710937 89.394531h-16.253906zm0 0" fill="#b3b3b3"/><path d="m381.96875 268.191406-5.039062 80.863282c1.625.324218 3.332031.40625 5.039062.40625 22.429688 0 40.632812-18.207032 40.632812-40.636719 0-4.390625-.730468-8.695313-2.03125-12.679688 16.011719-11.863281 26.414063-30.878906 26.414063-52.335937 0-35.921875-29.09375-65.015625-65.015625-65.015625h-1.542969l-14.710937 89.394531h16.253906zm0 0" fill="#b3b3b3"/><path d="m406.347656 243.808594c0 6.746094-2.761718 12.839844-7.148437 17.230468-4.390625 4.386719-10.484375 7.152344-17.230469 7.152344h-16.253906l6.5-48.761718h9.753906c13.488281 0 24.378906 10.886718 24.378906 24.378906zm0 0" fill="#fe946f"/><path d="m113.777344 243.808594c0 6.746094 2.765625 12.839844 7.152344 17.230468 4.386718 4.386719 10.484374 7.152344 17.230468 7.152344h16.253906l-6.5-48.761718h-9.753906c-13.492187 0-24.382812 10.886718-24.382812 24.378906zm0 0" fill="#fe946f"/><path d="m365.714844 268.191406h16.253906l-5.6875 91.101563-2.4375-1.707031-40.636719 40.636718h-154.414062l-32.507813-40.636718-2.4375 1.707031-.652344-10.238281-5.039062-80.863282h16.257812l-14.710937-89.398437-.164063-1.054688-1.382812-7.070312c0-27.472657 9.105469-52.828125 24.382812-73.144531 22.269532-29.582032 57.703126-48.761719 97.523438-48.761719 33.644531 0 64.121094 13.65625 86.144531 35.757812 22.105469 22.023438 35.761719 52.5 35.761719 86.148438zm0 0" fill="#ffb398"/><path d="m219.429688 251.9375h-16.253907c0-4.480469-3.648437-8.128906-8.128906-8.128906s-8.125 3.648437-8.125 8.128906h-16.253906c0-13.445312 10.933593-24.382812 24.378906-24.382812s24.382813 10.9375 24.382813 24.382812zm0 0" fill="#f26038"/><path d="m349.460938 251.9375h-16.253907c0-4.480469-3.648437-8.128906-8.128906-8.128906s-8.125 3.648437-8.125 8.128906h-16.253906c0-13.445312 10.933593-24.382812 24.378906-24.382812s24.382813 10.9375 24.382813 24.382812zm0 0" fill="#f26038"/><path d="m333.207031 398.222656v32.507813l-73.144531 73.140625-81.269531-73.140625v-32.507813zm0 0" fill="#fe946f"/><path d="m430.730469 398.222656v113.777344h-341.332031v-113.777344h56.886718l-24.378906 40.632813 138.15625 65.015625 138.160156-65.015625-24.382812-40.632813zm0 0" fill="#ff9811"/><path d="m89.398438 398.222656v113.777344h-81.269532v-32.507812c0-22.429688 9.101563-42.75 23.808594-57.457032 14.710938-14.710937 35.027344-23.8125 57.460938-23.8125zm0 0" fill="#806749"/><path d="m512 479.492188v32.507812h-81.269531v-113.777344c22.429687 0 42.746093 9.101563 57.457031 23.8125 14.710938 14.707032 23.8125 35.027344 23.8125 57.457032zm0 0" fill="#806749"/><path d="m276.316406 315.488281v17.71875c0 8.9375-7.3125 16.253907-16.253906 16.253907-4.46875 0-8.53125-1.789063-11.457031-4.796876-3.007813-2.925781-4.796875-6.988281-4.796875-11.457031v-17.71875c3.496094-1.136719 6.582031-3.167969 9.101562-5.6875 4.390625-4.390625 7.152344-10.484375 7.152344-17.230469 0 6.746094 2.765625 12.839844 7.152344 17.230469 2.519531 2.519531 5.609375 4.550781 9.101562 5.6875zm0 0" fill="#ff0c38"/><path d="m186.921875 121.90625-16.253906 32.507812-31.128907 23.324219-1.382812-7.070312c0-27.46875 9.105469-52.824219 24.382812-73.144531zm0 0" fill="#b3b3b3"/><path d="m333.207031 121.90625 16.253907 32.507812 31.125 23.324219 1.382812-7.070312c0-27.46875-9.101562-52.824219-24.382812-73.144531zm0 0" fill="#b3b3b3"/><g fill="#f2f2f2"><path d="m260.0625 284.445312v8.125c0 6.746094-2.761719 12.839844-7.152344 17.230469-2.519531 2.519531-5.605468 4.550781-9.101562 5.6875-2.519532.976563-5.28125 1.464844-8.125 1.464844 0 22.429687-18.207032 40.632813-40.636719 40.632813h-8.128906c-11.214844 0-21.371094-4.550782-28.769531-11.863282-7.3125-7.394531-11.863282-17.554687-11.863282-28.769531h48.761719c0-17.960937 14.546875-32.507813 32.507813-32.507813zm0 0"/><path d="m373.839844 316.953125c0 11.214844-4.550782 21.371094-11.863282 28.769531-7.394531 7.3125-17.554687 11.863282-28.769531 11.863282h-8.128906c-22.429687 0-40.636719-18.203126-40.636719-40.632813-2.84375 0-5.605468-.488281-8.125-1.464844-3.496094-1.136719-6.582031-3.167969-9.101562-5.6875-4.390625-4.390625-7.152344-10.484375-7.152344-17.230469v-8.125h32.507812c17.960938 0 32.507813 14.546876 32.507813 32.507813zm0 0"/><path d="m292.570312 195.046875 12.417969 6.210937c22.273438 11.136719 48.929688 8.730469 68.851563-6.210937l-55.402344-12.3125c-10.425781-2.316406-21.089844 2.761719-25.867188 12.3125zm0 0"/><path d="m227.554688 195.046875-12.417969 6.210937c-22.273438 11.136719-48.929688 8.730469-68.851563-6.210937l55.402344-12.3125c10.425781-2.316406 21.089844 2.761719 25.867188 12.3125zm0 0"/></g><path d="m260.0625 268.191406c-8.976562 0-16.253906-7.277344-16.253906-16.253906v-48.765625h32.507812v48.765625c0 8.976562-7.277344 16.253906-16.253906 16.253906zm0 0" fill="#f26038"/><path d="m219.429688 154.414062h81.269531v16.253907h-81.269531zm0 0" fill="#fe946f"/><path d="m219.429688 121.90625h81.269531v16.253906h-81.269531zm0 0" fill="#fe946f"/><path d="m186.921875 292.570312c0 13.464844-10.917969 24.382813-24.382813 24.382813-13.464843 0-24.382812-10.917969-24.382812-24.382813 0-13.464843 10.917969-24.378906 24.382812-24.378906 13.464844 0 24.382813 10.914063 24.382813 24.378906zm0 0" fill="#ff0c38"/><path d="m381.96875 292.570312c0 13.464844-10.917969 24.382813-24.382812 24.382813-13.464844 0-24.378907-10.917969-24.378907-24.382813 0-13.464843 10.914063-24.378906 24.378907-24.378906 13.464843 0 24.382812 10.914063 24.382812 24.378906zm0 0" fill="#ff0c38"/><path d="m121.90625 438.855469 24.378906-40.632813h-56.886718l54.449218-38.929687 2.4375-1.707031 32.507813 40.636718v32.507813l81.269531 73.140625zm0 0" fill="#806749"/><path d="m373.839844 398.222656 24.382812 40.632813-138.160156 65.015625 73.144531-73.140625v-32.507813l40.632813-40.636718 2.441406 1.707031 54.449219 38.929687zm0 0" fill="#806749"/><path d="m260.0625 21.863281c-8.738281-13.160156-23.683594-21.863281-40.632812-21.863281v16.253906c17.921874 0 32.507812 14.582032 32.507812 32.507813h16.253906c0-17.921875 14.582032-32.507813 32.507813-32.507813v-16.253906c-16.953125 0-31.894531 8.703125-40.636719 21.863281zm0 0" fill="#b3b3b3"/><path d="m430.730469 398.222656v113.777344h-113.777344s44.410156-11.902344 73.140625-40.636719c32.507812-32.507812 40.636719-73.140625 40.636719-73.140625zm0 0" fill="#e07e07"/><path d="m229.875 99.542969-4.640625-15.578125c6-1.785156 12.25-2.695313 18.574219-2.695313v16.253907c-4.753906 0-9.441406.679687-13.933594 2.019531zm0 0" fill="#fff"/><path d="m197.066406 132.347656-15.578125-4.632812c4.628907-15.554688 14.859375-28.75 28.8125-37.15625l8.390625 13.921875c-10.472656 6.308593-18.15625 16.207031-21.625 27.867187zm0 0" fill="#fff"/></svg>