<svg height="512pt" viewBox="0 0 512 512" width="512pt" xmlns="http://www.w3.org/2000/svg"><path d="m437.675781 388.128906v123.871094h-363.351562v-123.871094h33.03125c0 9.082032 3.714843 17.34375 9.660156 23.371094 6.03125 5.945312 14.289063 9.660156 23.371094 9.660156v16.515625c0 9.167969 7.351562 16.515625 16.515625 16.515625 9.167968 0 16.519531-7.347656 16.519531-16.515625 0 9.167969 7.347656 16.515625 16.515625 16.515625 9.164062 0 16.515625-7.347656 16.515625-16.515625 0 9.167969 7.347656 16.515625 16.515625 16.515625s16.515625-7.347656 16.515625-16.515625c0 9.085938 7.433594 16.515625 16.515625 16.515625 9.085938 0 16.519531-7.429687 16.519531-16.515625 0 9.085938 7.429688 16.515625 16.515625 16.515625 9.082032 0 16.515625-7.429687 16.515625-16.515625 0 9.085938 7.433594 16.515625 16.515625 16.515625 9.085938 0 16.515625-7.429687 16.515625-16.515625 0 9.085938 7.433594 16.515625 16.515625 16.515625 9.085938 0 16.519532-7.429687 16.519532-16.515625v-16.515625c9.082031 0 17.339843-3.714844 23.367187-9.660156 5.949219-6.03125 9.664063-14.289062 9.664063-23.371094zm0 0" fill="#dfb28b"/><path d="m0 512h74.324219v-123.871094h-24.777344c-27.363281 0-49.546875 22.183594-49.546875 49.546875zm0 0" fill="#a38563"/><path d="m512 512h-74.324219v-123.871094h24.777344c27.363281 0 49.546875 22.183594 49.546875 49.546875zm0 0" fill="#a38563"/><path d="m512 260.128906c0 38.730469-31.464844 70.191406-70.191406 70.191406-13.628906 0-26.425782-3.878906-37.164063-10.652343-1.074219-.660157-2.0625-1.320313-3.054687-2.144531 1.898437-3.554688 3.054687-7.601563 3.054687-11.976563 0-13.707031-11.066406-24.773437-24.773437-24.773437-1.652344 0-3.304688.164062-4.957032.496093 0 0 0 0-.082031 0-2.0625-6.691406-3.21875-13.792969-3.21875-21.140625 0-1.40625 0-2.726562.082031-4.128906h-.082031v-57.808594c-43.027343 0-78.949219-29.8125-88.363281-69.863281-8.585938 2.476563-17.753906 3.800781-27.25 3.800781s-18.664062-1.320312-27.25-3.800781c-9.414062 40.054687-45.339844 69.863281-88.363281 69.863281v57.808594h-.082031c.082031 1.402344.082031 2.722656.082031 4.128906 0 7.347656-1.15625 14.449219-3.222657 21.140625-.082031 0-.082031 0-.082031 0-1.648437-.332031-3.300781-.496093-4.953125-.496093-13.707031 0-24.773437 11.066406-24.773437 24.773437 0 4.375 1.15625 8.421875 3.054687 11.976563-.992187.824218-1.984375 1.484374-3.054687 2.144531-10.738281 6.773437-23.535157 10.652343-37.164063 10.652343-38.726562.003907-70.191406-31.460937-70.191406-70.191406 0-31.546875 20.8125-58.21875 49.546875-67.136718v-19.574219c0-50.207031 40.628906-90.835938 90.839844-90.835938 6.027343 0 11.972656.578125 17.671875 1.730469 7.101562-47.730469 48.226562-84.3125 97.941406-84.3125s90.839844 36.582031 97.941406 84.3125c5.695313-1.152344 11.640625-1.730469 17.671875-1.730469 50.207031 0 90.835938 40.628907 90.835938 90.835938v19.574219c28.738281 8.917968 49.550781 35.589843 49.550781 67.136718zm0 0" fill="#b3b3b3"/><path d="m149.222656 82.992188c-3.714844 8.175781-6.277344 16.929687-7.679687 26.097656-5.699219-1.15625-11.644531-1.734375-17.671875-1.734375-26.261719 0-49.796875 11.066406-66.394532 28.820312 14.289063-31.628906 45.996094-53.59375 82.910157-53.59375 2.972656 0 5.945312.164063 8.835937.410157zm0 0" fill="#848280"/><path d="m490.609375 310.585938c3.140625-7.929688 4.875-16.597657 4.875-25.683594 0-31.546875-20.8125-58.21875-49.546875-67.136719v-19.570313c0-50.210937-40.632812-90.839843-90.839844-90.839843-6.027344 0-11.976562.578125-17.671875 1.734375-7.101562-47.730469-48.226562-84.316406-97.941406-84.316406-28.984375 0-55.164063 12.472656-73.25 32.371093 15.773437-33.773437 50.042969-57.144531 89.765625-57.144531 49.714844 0 90.839844 36.582031 97.941406 84.3125 5.695313-1.152344 11.640625-1.730469 17.671875-1.730469 50.207031 0 90.835938 40.628907 90.835938 90.835938v19.574219c28.738281 8.917968 49.546875 35.589843 49.546875 67.136718.003906 19.738282-8.171875 37.65625-21.386719 50.457032zm0 0" fill="#848280"/><path d="m338.582031 421.160156h-198.195312v16.515625c0 9.167969 7.347656 16.519531 16.515625 16.519531 9.167968 0 16.515625-7.351562 16.515625-16.519531 0 9.167969 7.351562 16.519531 16.515625 16.519531 9.167968 0 16.519531-7.351562 16.519531-16.519531 0 9.167969 7.347656 16.519531 16.515625 16.519531 9.164062 0 16.515625-7.351562 16.515625-16.519531 0 9.085938 7.433594 16.519531 16.515625 16.519531 9.085938 0 16.515625-7.433593 16.515625-16.519531 0 9.085938 7.433594 16.519531 16.515625 16.519531 9.085938 0 16.519531-7.433593 16.519531-16.519531 0 9.085938 7.429688 16.519531 16.515625 16.519531 9.082032 0 16.515625-7.433593 16.515625-16.519531 0 9.085938 7.433594 16.519531 16.515625 16.519531 9.085938 0 16.515625-7.433593 16.515625-16.519531v-16.515625zm0 0" fill="#e3ddd5"/><path d="m305.546875 371.613281c0 9.121094 7.394531 16.515625 16.519531 16.515625h49.546875v33.03125h-231.226562v-33.03125h49.550781c9.121094 0 16.515625-7.394531 16.515625-16.515625 0-9.121093-7.394531-16.515625-16.515625-16.515625h-47.15625c-19.984375 0-36.09375-16.535156-35.40625-36.675781 1.550781-.417969 1.527344-.410156 3.074219-.828125 4.902343 8.863281 15.085937 14.289062 26.21875 12.328125 10.007812-1.765625 18.167969-10.027344 19.867187-20.042969 2.347656-13.828125-6.804687-26.023437-19.367187-28.609375 2.0625-6.691406 3.21875-13.792969 3.21875-21.140625 0-1.40625 0-2.726562-.082031-4.128906h.082031v-57.808594c43.027343 0 78.949219-29.8125 88.363281-69.863281 8.585938 2.476563 17.753906 3.800781 27.25 3.800781s18.664062-1.320312 27.25-3.800781c9.414062 40.054687 45.339844 69.863281 88.363281 69.863281v57.808594h.082031c-.082031 1.402344-.082031 2.722656-.082031 4.128906 0 7.347656 1.15625 14.449219 3.222657 21.140625-12.5625 2.585938-21.714844 14.777344-19.371094 28.609375 1.699218 10.015625 9.863281 18.277344 19.867187 20.042969 11.132813 1.960937 21.320313-3.46875 26.21875-12.328125 1.546875.417969 1.523438.410156 3.074219.828125.6875 20.140625-15.421875 36.675781-35.40625 36.675781h-47.152344c-9.125 0-16.519531 7.394532-16.519531 16.515625zm0 0" fill="#f0beb4"/><g fill="#e3ddd5"><path d="m404.644531 388.128906c0 9.082032-3.714843 17.34375-9.660156 23.371094-6.03125 5.945312-14.289063 9.660156-23.371094 9.660156v-33.03125zm0 0"/><path d="m140.386719 388.128906v33.03125c-9.082031 0-17.339844-3.714844-23.371094-9.660156-5.945313-6.027344-9.660156-14.289062-9.660156-23.371094zm0 0"/><path d="m57.804688 421.160156h16.519531v-33.03125h-16.519531c-9.121094 0-16.515626 7.394532-16.515626 16.515625 0 9.121094 7.394532 16.515625 16.515626 16.515625zm0 0"/><path d="m57.804688 454.191406h16.519531v-33.03125h-16.519531c-9.121094 0-16.515626 7.394532-16.515626 16.515625 0 9.121094 7.394532 16.515625 16.515626 16.515625zm0 0"/><path d="m57.804688 487.226562h16.519531v-33.035156h-16.519531c-9.121094 0-16.515626 7.394532-16.515626 16.519532 0 9.121093 7.394532 16.515624 16.515626 16.515624zm0 0"/><path d="m454.191406 421.160156h-16.515625v-33.03125h16.515625c9.125 0 16.519532 7.394532 16.519532 16.515625 0 9.121094-7.394532 16.515625-16.519532 16.515625zm0 0"/><path d="m454.191406 454.191406h-16.515625v-33.03125h16.515625c9.125 0 16.519532 7.394532 16.519532 16.515625 0 9.121094-7.394532 16.515625-16.519532 16.515625zm0 0"/><path d="m454.191406 487.226562h-16.515625v-33.035156h16.515625c9.125 0 16.519532 7.394532 16.519532 16.519532 0 9.121093-7.394532 16.515624-16.519532 16.515624zm0 0"/></g><path d="m198.195312 222.96875c-1.601562 0-3.199218-.464844-4.582031-1.386719l-24.773437-16.515625 9.160156-13.742187 15.613281 10.40625c4.367188-7.074219 12.1875-11.796875 21.097657-11.796875 13.660156 0 24.773437 11.113281 24.773437 24.777344h-16.515625c0-4.554688-3.707031-8.257813-8.257812-8.257813-4.554688 0-8.257813 3.703125-8.257813 8.257813 0 3.042968-1.679687 5.84375-4.363281 7.28125-1.21875.652343-2.5625.976562-3.894532.976562zm0 0" fill="#e55845"/><path d="m313.804688 222.96875c-1.332032 0-2.675782-.324219-3.894532-.976562-2.683594-1.441407-4.359375-4.238282-4.359375-7.28125 0-4.554688-3.707031-8.257813-8.257812-8.257813-4.554688 0-8.261719 3.703125-8.261719 8.257813h-16.515625c0-13.664063 11.113281-24.777344 24.777344-24.777344 8.90625 0 16.726562 4.722656 21.09375 11.796875l15.613281-10.40625 9.164062 13.742187-24.777343 16.515625c-1.382813.917969-2.980469 1.386719-4.582031 1.386719zm0 0" fill="#e55845"/><path d="m264.257812 313.804688h-16.515624c-4.5625 0-8.257813-3.695313-8.257813-8.257813v-8.257813h-16.515625v-16.515624h24.773438c4.558593 0 8.257812 3.699218 8.257812 8.257812v8.257812h8.257812c4.550782 0 8.257813-3.703124 8.257813-8.257812v-33.03125h16.515625v33.03125c0 13.664062-11.113281 24.773438-24.773438 24.773438zm0 0" fill="#f26038"/><path d="m363.355469 363.355469c-22.804688 0-41.292969-18.488281-41.292969-41.292969v-4.835938l-14.09375-14.097656 11.675781-11.679687 16.515625 16.515625c1.550782 1.550781 2.417969 3.652344 2.417969 5.84375v8.253906c0 13.683594 11.09375 24.777344 24.777344 24.777344 4.558593 0 8.257812 3.695312 8.257812 8.257812 0 4.558594-3.699219 8.257813-8.257812 8.257813zm0 0" fill="#e89182"/><path d="m148.644531 363.355469c-4.5625 0-8.257812-3.699219-8.257812-8.257813 0-4.5625 3.695312-8.257812 8.257812-8.257812 13.683594 0 24.773438-11.09375 24.773438-24.777344v-8.257812c0-2.1875.871093-4.289063 2.417969-5.835938l16.519531-16.519531 11.675781 11.679687-14.097656 14.097656v4.839844c0 22.800782-18.484375 41.289063-41.289063 41.289063zm0 0" fill="#e89182"/><path d="m256 355.097656c-18.214844 0-33.03125-14.820312-33.03125-33.035156h16.515625c0 9.109375 7.40625 16.515625 16.515625 16.515625s16.515625-7.40625 16.515625-16.515625h16.515625c0 18.214844-14.816406 33.035156-33.03125 33.035156zm0 0" fill="#f26038"/><path d="m404.644531 305.546875c0 4.378906-1.15625 8.425781-3.054687 11.976563-4.210938 7.679687-12.386719 12.800781-21.71875 12.800781-13.707032 0-24.773438-11.066407-24.773438-24.777344 0-11.972656 8.507813-21.964844 19.738282-24.277344h.082031c1.648437-.332031 3.300781-.496093 4.953125-.496093 13.707031 0 24.773437 11.066406 24.773437 24.773437zm0 0" fill="#ff0c38"/><path d="m156.902344 305.546875c0 13.710937-11.066406 24.777344-24.773438 24.777344-9.332031 0-17.507812-5.121094-21.71875-12.800781-1.898437-3.550782-3.054687-7.597657-3.054687-11.976563 0-13.707031 11.066406-24.773437 24.773437-24.773437 1.652344 0 3.304688.164062 4.957032.496093h.082031c11.230469 2.3125 19.734375 12.304688 19.734375 24.277344zm0 0" fill="#ff0c38"/><path d="m437.675781 388.128906v123.871094h-156.902343s66.066406-8.257812 107.355468-41.289062c41.289063-33.035157 49.546875-82.582032 49.546875-82.582032zm0 0" fill="#cc9b76"/><path d="m27.800781 303.683594c-13.113281-10.730469-20.636719-26.605469-20.636719-43.554688 0-16.949218 7.523438-32.824218 20.636719-43.550781l10.460938 12.78125c-9.265625 7.582031-14.582031 18.796875-14.582031 30.769531s5.316406 23.191406 14.582031 30.769532zm0 0" fill="#fff"/><path d="m82.582031 189.933594h-16.519531c0-50.085938 40.75-90.835938 90.839844-90.835938v16.515625c-40.980469 0-74.320313 33.34375-74.320313 74.320313zm0 0" fill="#fff"/><path d="m189.933594 82.582031h-16.515625c0-36.429687 29.636719-66.066406 66.066406-66.066406v16.515625c-27.324219 0-49.550781 22.226562-49.550781 49.550781zm0 0" fill="#fff"/><path d="m412.902344 165.160156h-16.515625c0-22.765625-18.523438-41.289062-41.289063-41.289062v-16.515625c31.875 0 57.804688 25.929687 57.804688 57.804687zm0 0" fill="#fff"/><path d="m462.449219 305.546875c-36.425781 0-66.0625-29.636719-66.0625-66.0625v-16.515625h16.515625v16.515625c0 27.324219 22.226562 49.546875 49.546875 49.546875zm0 0" fill="#fff"/><path d="m256 16.515625h16.515625v16.515625h-16.515625zm0 0" fill="#fff"/><path d="m305.546875 222.96875c-12.050781 0-22.511719 6.558594-28.277344 16.226562-5.765625-4.898437-13.128906-7.96875-21.269531-7.96875s-15.503906 3.070313-21.265625 7.96875c-5.769531-9.667968-16.230469-16.226562-28.28125-16.226562-18.214844 0-33.03125 14.816406-33.03125 33.03125s14.816406 33.03125 33.03125 33.03125c15.34375 0 28.164063-10.566406 31.859375-24.773438 0 0 1.171875-16.515624 17.6875-16.515624s17.6875 16.515624 17.6875 16.515624c3.695312 14.207032 16.515625 24.773438 31.859375 24.773438 18.214844 0 33.035156-14.816406 33.035156-33.03125s-14.820312-33.03125-33.035156-33.03125zm-99.09375 49.546875c-9.109375 0-16.519531-7.40625-16.519531-16.515625s7.410156-16.515625 16.519531-16.515625c9.105469 0 16.515625 7.40625 16.515625 16.515625s-7.410156 16.515625-16.515625 16.515625zm99.09375 0c-9.105469 0-16.515625-7.40625-16.515625-16.515625s7.410156-16.515625 16.515625-16.515625c9.109375 0 16.519531 7.40625 16.519531 16.515625s-7.410156 16.515625-16.519531 16.515625zm0 0" fill="#f2f2f2"/></svg>