<svg height="512pt" viewBox="0 -1 512 512" width="512pt" xmlns="http://www.w3.org/2000/svg"><path d="m373.183594 345.140625-4.875 24.445313-2.0625 10.15625c-3.386719 16.847656-11.726563 31.792968-23.535156 43.191406-11.726563 11.394531-26.921876 19.238281-43.851563 22.046875-14.203125 2.394531-28.492187 3.550781-42.859375 3.550781s-28.65625-1.15625-42.859375-3.550781c-33.859375-5.613281-60.695313-31.546875-67.382813-65.238281l-2.066406-10.15625-4.871094-24.445313c4.457032 4.871094 10.898438 7.929687 18.082032 7.929687 2.5625 0 5.039062-.414062 7.351562-1.15625.082032.164063.164063.328126.164063.410157.910156 2.808593 1.652343 5.699219 2.230469 8.589843.328124 1.570313.578124 3.136719.742187 4.707032.25 1.320312.332031 2.640625.414063 4.046875.164062 1.816406.246093 3.632812.246093 5.53125 0 3.058593-.164062 6.113281-.578125 9.167969-.082031.824218-.164062 1.652343-.164062 2.476562 0 9.25 6.605468 17.425781 16.019531 19.078125l15.773437 2.890625c37.574219 6.851562 76.222657 6.851562 113.796876 0l15.773437-2.890625c10.238281-1.820313 17.175781-11.316406 15.855469-21.554687-.414063-3.054688-.578125-6.113282-.578125-9.167969 0-1.898438.082031-3.714844.246093-5.53125.082032-1.40625.164063-2.726563.414063-4.046875.164063-1.570313.414063-3.140625.742187-4.707032.578126-3.058593 1.40625-6.113281 2.394532-9.003906 2.3125.746094 4.792968 1.15625 7.351562 1.15625 7.183594.003906 13.625-3.054687 18.085938-7.925781zm0 0" fill="#be8769"/><path d="m315.457031 349.929688c0 4.875-4.542969 9.167968-9.910156 8.09375l-24.773437-4.953126 24.773437 8.257813s-8.257813 24.773437-49.546875 24.773437-49.546875-24.773437-49.546875-24.773437l24.773437-8.257813-24.773437 4.953126c-6.6875 1.320312-12.058594-5.617188-9.003906-11.808594 5.78125-11.480469 15.859375-20.234375 27.996093-24.277344l12.222657-4.046875c-2.972657-3.964844-4.707031-8.753906-4.707031-13.875 0-.742187 0-1.570313.082031-2.3125l6.441406-64.246094h33.03125l6.441406 64.246094c.578125 5.945313-1.15625 11.644531-4.625 16.1875l12.222657 4.046875c12.140624 4.042969 22.214843 12.796875 27.996093 24.277344.578125 1.238281.90625 2.476562.90625 3.714844zm0 0" fill="#efab7b"/><path d="m404.644531 171.390625v41.292969h-297.289062v-41.292969s31.875-12.714844 71.84375-22.378906c24.363281-5.945313 51.777343-10.652344 76.800781-10.652344s52.4375 4.707031 76.800781 10.652344c39.96875 9.664062 71.84375 22.378906 71.84375 22.378906zm0 0" fill="#fdd1b0"/><path d="m396.386719 196.167969c-5.285157-1.734375-10.734375-3.222657-16.1875-4.460938-11.394531-2.476562-23.039063-3.800781-34.683594-3.800781h-56.484375c-4.542969 0-8.671875 1.820312-11.644531 4.875-3.054688 2.972656-4.871094 7.101562-4.871094 11.644531h-33.035156c0-9.085937-7.429688-16.519531-16.515625-16.519531h-56.484375c-11.644531 0-23.289063 1.324219-34.683594 3.800781-5.449219 1.238281-10.902344 2.722657-16.1875 4.460938h-16.511719v33.03125h16.515625l3.386719 30.222656c.824219 7.269531 3.136719 13.957031 6.605469 19.902344 8.671875 14.617187 24.609375 24.199219 42.609375 24.199219h3.140625c30.304687 0 56.730469-20.648438 64.082031-50.046876l4.046875-16.019531h33.03125l4.046875 16.019531c7.347656 29.402344 33.773438 50.046876 64.082031 50.046876h3.136719c18.003906 0 33.941406-9.582032 42.613281-24.199219 3.46875-5.945313 5.78125-12.632813 6.605469-19.902344l3.386719-30.222656h16.515625v-33.03125zm-189.933594 66.0625c-8.257813 16.515625-33.035156 16.515625-33.035156 16.515625-11.394531 0-19.652344-4.625-25.101563-12.058594-5.371094-7.511719-7.929687-17.835938-7.929687-29.230469v-24.777343h74.320312c.003907.003906.003907 33.035156-8.253906 49.550781zm165.160156-24.773438c0 11.394531-2.558593 21.71875-7.929687 29.230469-5.449219 7.433594-13.707032 12.058594-25.105469 12.058594 0 0-24.773437 0-33.03125-16.515625s-8.257813-49.546875-8.257813-49.546875h74.324219zm0 0"/><path d="m115.613281 196.167969h-9.25c.992188-14.535157.992188-24.777344.992188-24.777344s31.875-12.714844 71.84375-22.378906c-6.109375 4.789062-11.066407 9.578125-14.039063 14.121093-9.90625 14.863282-22.875 20.8125-33.359375 28.574219-5.453125 1.238281-10.902343 2.722657-16.1875 4.460938zm0 0" fill="#be8769"/><path d="m111.484375 269.664062c0 15.195313 1.320313 30.800782-2.726563 45.582032-3.878906 13.875-13.378906 20.398437-22.625 30.636718-9.167968 10.242188-13.625 24.695313-11.808593 38.320313 2.394531 18.414063 14.367187 30.882813 30.472656 39.636719l-5.699219 28.328125-57.808594 8.257812s-33.03125-57.808593 0-123.871093c16.519532-33.035157 33.035157-33.035157 49.550782-66.066407 5.613281-11.230469 9.332031-26.257812 11.726562-41.289062h9.578125c-1.570312 13.375-.660156 27.496093-.660156 40.464843zm0 0" fill="#be8769"/><path d="m404.644531 171.390625s-31.875-12.714844-71.84375-22.378906c-24.363281-5.945313-51.777343-10.652344-76.800781-10.652344s-52.4375 4.707031-76.800781 10.652344c-39.96875 9.664062-71.84375 22.378906-71.84375 22.378906l14.699219-66.0625 10.074218-53.84375c5.449219-24.359375 23.78125-43.765625 47.894532-50.371094 21.226562-5.863281 48.640624 13.375 75.976562 13.375 27.332031 0 54.75-19.238281 75.972656-13.375 24.113282 6.605469 42.449219 26.011719 47.898438 50.371094l10.074218 53.84375zm0 0" fill="#1c2b39"/><path d="m405.636719 196.167969h-9.25c-5.285157-1.734375-10.734375-3.222657-16.1875-4.460938-10.484375-7.761719-23.449219-13.710937-33.359375-28.574219-2.972656-4.542968-7.929688-9.332031-14.039063-14.121093 39.96875 9.664062 71.84375 22.378906 71.84375 22.378906s0 10.242187.992188 24.777344zm0 0" fill="#be8769"/><path d="m470.710938 460.421875-57.808594-8.257813-5.699219-28.324218c16.105469-8.753906 28.078125-21.222656 30.472656-39.640625 1.816407-13.625-2.640625-28.074219-11.808593-38.316407-9.25-10.238281-18.746094-16.765624-22.625-30.636718-4.046876-14.78125-2.726563-30.390625-2.726563-45.585938 0-12.964844.910156-27.085937-.660156-40.460937h9.578125c2.394531 15.027343 6.113281 30.058593 11.726562 41.289062 16.515625 33.03125 33.03125 33.03125 49.546875 66.0625 33.035157 66.066407.003907 123.871094.003907 123.871094zm0 0" fill="#be8769"/><path d="m315.457031 349.929688c0 4.875-4.542969 9.167968-9.910156 8.09375l-24.773437-4.953126-24.773438 8.257813-24.773438-8.257813-24.777343 4.953126c-6.6875 1.320312-12.054688-5.617188-9-11.808594 5.78125-11.480469 15.855469-20.234375 27.996093-24.277344l12.222657-4.046875c2.722656 3.632813 6.523437 6.441406 11.0625 8.007813 2.3125.746093 4.792969 1.15625 7.269531 1.15625s4.953125-.410157 7.265625-1.15625c4.542969-1.570313 8.339844-4.375 11.066406-8.007813l12.222657 4.046875c12.136718 4.042969 22.214843 12.796875 27.996093 24.277344.578125 1.238281.90625 2.476562.90625 3.714844zm0 0" fill="#be8769"/><path d="m181.675781 328.292969c0 11.148437-7.265625 20.480469-17.339843 23.621093h-.082032c-2.3125.742188-4.792968 1.15625-7.351562 1.15625-7.183594 0-13.625-3.058593-18.085938-7.929687-4.128906-4.375-6.6875-10.320313-6.6875-16.847656 0-3.054688.578125-5.945313 1.570313-8.585938.660156-1.816406 1.570312-3.550781 2.558593-5.203125h.082032v-.082031c4.460937-6.605469 11.976562-10.902344 20.5625-10.902344 13.707031 0 24.773437 11.066407 24.773437 24.773438zm0 0" fill="#f40e34"/><path d="m379.871094 328.292969c0 6.527343-2.558594 12.472656-6.6875 16.847656-4.460938 4.871094-10.902344 7.929687-18.085938 7.929687-2.558594 0-5.039062-.414062-7.351562-1.15625-10.15625-3.058593-17.421875-12.472656-17.421875-23.621093 0-13.707031 11.066406-24.773438 24.773437-24.773438 8.585938 0 16.101563 4.292969 20.5625 10.902344v.082031h.082032c.992187 1.648438 1.898437 3.382813 2.558593 5.203125v.082031c.992188 2.640626 1.570313 5.53125 1.570313 8.503907zm0 0" fill="#f40e34"/><path d="m386.394531 279.324219-6.523437 32.453125-1.570313 7.929687c-.660156-1.816406-1.570312-3.550781-2.558593-5.203125.082031-.082031.164062-.164062.328124-.246094-.082031.082032-.246093.164063-.410156.164063-4.460937-6.605469-11.976562-10.902344-20.5625-10.902344-13.710937 0-24.777344 11.066407-24.777344 24.777344 0 11.144531 7.269532 20.5625 17.425782 23.617187-.992188 2.890626-1.816406 5.945313-2.394532 9-.332031 1.570313-.578124 3.140626-.742187 4.707032-.25 1.320312-.332031 2.644531-.414063 4.046875-.167968 1.816406-.246093 3.632812-.246093 5.535156 0 3.054687.164062 6.109375.574219 9.164063 1.324218 10.242187-5.613282 19.738281-15.855469 21.554687l-15.769531 2.890625c-37.574219 6.855469-76.222657 6.855469-113.796876 0l-15.773437-2.890625c-9.414063-1.652344-16.019531-9.828125-16.019531-19.074219 0-.828125.082031-1.652344.164062-2.476562.414063-3.058594.578125-6.113282.578125-9.167969 0-1.898437-.082031-3.714844-.246093-5.535156-.085938-1.402344-.167969-2.722657-.414063-4.046875-.164063-1.566406-.414063-3.136719-.742187-4.703125-.582032-2.890625-1.324219-5.78125-2.230469-8.589844 0-.082031-.082031-.25-.082031-.414063 10.074218-3.136718 17.339843-12.46875 17.339843-23.617187 0-13.707031-11.066406-24.773437-24.773437-24.773437-8.585938 0-16.101563 4.292968-20.5625 10.898437-.164063 0-.332032-.082031-.414063-.164063.167969.082032.25.164063.332031.246094-.992187 1.652344-1.898437 3.386719-2.558593 5.203125l-1.570313-7.925781-6.523437-32.457031c8.667969 14.617187 24.609375 24.199219 42.609375 24.199219h3.136718c30.308594 0 56.734376-20.648438 64.085938-50.046876l4.042969-16.019531-6.441407 64.25c-.078124.742188-.078124 1.566407-.078124 2.308594 0 5.121094 1.730468 9.910156 4.707031 13.875l-12.222657 4.046875c-12.140624 4.046875-22.214843 12.800781-27.996093 24.277344-3.054688 6.195312 2.3125 13.132812 9 11.8125l24.777343-4.957032-24.777343 8.257813s8.257812 24.773437 49.550781 24.773437c41.289062 0 49.546875-24.773437 49.546875-24.773437l-24.773437-8.257813 24.773437 4.957032c5.367187 1.070312 9.910156-3.222656 9.910156-8.09375 0-1.238282-.332031-2.476563-.910156-3.71875-5.78125-11.476563-15.855469-20.230469-27.996094-24.277344l-12.222656-4.046875c3.46875-4.542969 5.203125-10.238281 4.625-16.183594l-6.441406-64.25 4.046875 16.019531c7.351562 29.402344 33.777344 50.046876 64.082031 50.046876h3.140625c18.003906-.003907 33.941406-9.582032 42.613281-24.199219zm0 0" fill="#fdd1b0"/><path d="m512 509.972656h-256v-33.03125c66.0625 0 156.902344-24.777344 156.902344-24.777344h32.453125c33.527343 0 61.9375 24.609376 66.644531 57.808594zm0 0" fill="#ddb305"/><path d="m256 476.941406v33.03125h-256c4.707031-33.195312 33.117188-57.804687 66.640625-57.804687h32.457031c0-.003907 90.835938 24.773437 156.902344 24.773437zm0 0" fill="#f8cf26"/><path d="m437.675781 384.203125c-2.394531 18.414063-14.367187 30.882813-30.472656 39.636719l-8.171875-40.957032c-1.570312-7.765624-8.34375-13.296874-16.1875-13.296874h-14.535156l4.875-24.445313c4.128906-4.375 6.6875-10.320313 6.6875-16.84375 0-2.972656-.578125-5.863281-1.570313-8.507813v-.082031l1.570313-7.929687 6.523437-32.453125c3.46875-5.945313 5.78125-12.636719 6.605469-19.902344l3.386719-30.222656h3.46875c1.570312 13.375.660156 27.496093.660156 40.460937 0 15.195313-1.320313 30.804688 2.726563 45.585938 3.878906 13.875 13.378906 20.398437 22.625 30.636718 9.167968 10.242188 13.625 24.695313 11.808593 38.320313zm0 0" fill="#663326"/><path d="m143.691406 369.585938h-14.535156c-7.84375 0-14.617188 5.53125-16.1875 13.292968l-8.171875 40.960938c-16.105469-8.753906-28.078125-21.222656-30.472656-39.640625-1.816407-13.625 2.640625-28.074219 11.808593-38.316407 9.25-10.238281 18.746094-16.765624 22.625-30.636718 4.046876-14.78125 2.726563-30.390625 2.726563-45.585938 0-12.964844-.910156-27.085937.660156-40.460937h3.46875l3.386719 30.222656c.824219 7.265625 3.136719 13.957031 6.605469 19.902344l6.523437 32.453125 1.570313 7.929687c-.992188 2.640625-1.570313 5.53125-1.570313 8.585938 0 6.527343 2.558594 12.472656 6.6875 16.847656zm0 0" fill="#663326"/><path d="m256 448.53125v28.410156c-66.066406 0-156.902344-24.777344-156.902344-24.777344l5.699219-28.324218 8.171875-40.960938c1.570312-7.761718 8.34375-13.292968 16.1875-13.292968h14.535156l2.0625 10.15625c6.691406 33.691406 33.527344 59.625 67.386719 65.238281 14.203125 2.394531 28.492187 3.550781 42.859375 3.550781zm0 0" fill="#1c2b39"/><path d="m412.902344 452.164062s-90.835938 24.777344-156.902344 24.777344v-28.410156c14.367188 0 28.65625-1.15625 42.859375-3.550781 16.929687-2.808594 32.125-10.652344 43.851563-22.046875 11.808593-11.398438 20.148437-26.34375 23.535156-43.191406l2.0625-10.15625h14.535156c7.84375 0 14.617188 5.53125 16.1875 13.292968l8.171875 40.960938zm0 0" fill="#151f28"/><path d="m214.710938 212.683594s0 33.03125-8.257813 49.546875-33.035156 16.515625-33.035156 16.515625c-11.394531 0-19.652344-4.625-25.101563-12.058594-5.371094-7.511719-7.929687-17.835938-7.929687-29.230469v-24.777343h74.324219zm0 0" fill="#333"/><path d="m371.613281 212.683594v24.773437c0 11.394531-2.558593 21.71875-7.929687 29.234375-5.449219 7.429688-13.707032 12.054688-25.105469 12.054688 0 0-24.773437 0-33.03125-16.515625s-8.257813-49.546875-8.257813-49.546875zm0 0" fill="#333"/><path d="m115.613281 196.167969h-9.25c.992188-14.535157.992188-24.777344.992188-24.777344s31.875-12.714844 71.84375-22.378906c-6.109375 4.789062-11.066407 9.578125-14.039063 14.121093-9.90625 14.863282-22.875 20.8125-33.359375 28.574219-5.453125 1.238281-10.902343 2.722657-16.1875 4.460938zm0 0" fill="#be8769"/><path d="m405.636719 196.167969h-9.25c-5.285157-1.734375-10.734375-3.222657-16.1875-4.460938-10.484375-7.761719-23.449219-13.710937-33.359375-28.574219-2.972656-4.542968-7.929688-9.332031-14.039063-14.121093 39.96875 9.664062 71.84375 22.378906 71.84375 22.378906s0 10.242187.992188 24.777344zm0 0" fill="#be8769"/><g fill="#fff"><path d="m156.902344 220.941406c0 4.558594-3.695313 8.257813-8.257813 8.257813s-8.257812-3.699219-8.257812-8.257813c0-4.5625 3.695312-8.257812 8.257812-8.257812s8.257813 3.695312 8.257813 8.257812zm0 0"/><path d="m206.453125 266.359375c0 6.839844-5.546875 12.386719-12.390625 12.386719-6.839844 0-12.386719-5.546875-12.386719-12.386719s5.546875-12.386719 12.386719-12.386719c6.84375 0 12.390625 5.546875 12.390625 12.386719zm0 0"/><path d="m313.804688 220.941406c0 4.558594-3.695313 8.257813-8.257813 8.257813-4.558594 0-8.257813-3.699219-8.257813-8.257813 0-4.5625 3.699219-8.257812 8.257813-8.257812 4.5625 0 8.257813 3.695312 8.257813 8.257812zm0 0"/><path d="m363.355469 266.359375c0 6.839844-5.546875 12.386719-12.386719 12.386719-6.84375 0-12.390625-5.546875-12.390625-12.386719s5.546875-12.386719 12.390625-12.386719c6.839844 0 12.386719 5.546875 12.386719 12.386719zm0 0"/><path d="m348.226562 43.84375c-7.878906-11.816406-22.328124-17.152344-36.007812-13.234375l-29.175781 8.339844-4.539063-15.886719 29.179688-8.339844c20.578125-5.863281 42.402344 2.144532 54.285156 19.957032zm0 0"/><path d="m355.523438 66.660156 15.671874-5.222656 8.257813 24.773438-15.671875 5.222656zm0 0"/><path d="m68.484375 416.714844c-.503906-.5-5.042969-5.136719-9.589844-13.097656l14.339844-8.195313c3.460937 6.058594 6.917969 9.605469 6.953125 9.640625zm0 0"/><path d="m52.363281 388.480469c-1.867187-6.210938-2.816406-12.566407-2.816406-18.894531 0-28.863282 27.292969-47.386719 28.453125-48.160157l9.160156 13.742188-4.578125-6.871094 4.597657 6.855469c-.207032.144531-21.117188 14.492187-21.117188 34.433594 0 4.71875.710938 9.476562 2.113281 14.136718zm0 0"/><path d="m453.324219 447.601562-14.777344-7.378906c.15625-.316406 15.644531-31.765625 15.644531-62.378906h16.519532c0 34.578125-16.679688 68.339844-17.386719 69.757812zm0 0"/><path d="m446.765625 347.777344c-6.453125-13.265625-14.859375-21.828125-14.945313-21.917969l11.695313-11.660156c.421875.417969 10.378906 10.476562 18.105469 26.355469zm0 0"/></g><path d="m171 160.714844-11.675781-11.675782 5.835937 5.835938-5.921875-5.75c.074219-.078125 7.265625-7.871094 14.605469-29.894531l8.257812-24.773438 15.671876 5.226563-8.261719 24.773437c-8.625 25.878907-17.523438 35.273438-18.511719 36.257813zm0 0" fill="#72808a"/><path d="m222.722656 148.617188-16.023437-4c.339843-1.363282 8.429687-33.628907 16.691406-58.417969l15.671875 5.222656c-8.066406 24.195313-16.261719 56.875-16.339844 57.195313zm0 0" fill="#72808a"/><path d="m339.003906 157.488281-8.257812-24.773437c-8.261719-24.789063-8.683594-34.042969-8.683594-35.644532h16.515625c.003906 0 .40625 8.128907 7.835937 30.417969l8.257813 24.773438zm0 0" fill="#72808a"/><path d="m289.277344 148.617188c-.078125-.324219-8.277344-33.015626-16.335938-57.195313l15.667969-5.222656c8.261719 24.789062 16.351563 57.054687 16.695313 58.417969zm0 0" fill="#72808a"/><path d="m355.695312 124.910156 15.335938-6.132812 16.519531 41.289062-15.339843 6.136719zm0 0" fill="#72808a"/><path d="m124.472656 160.078125 16.5-41.292969 15.339844 6.128906-16.503906 41.296876zm0 0" fill="#72808a"/><path d="m156.65625 90.8125-16.023438-4 8.257813-33.035156c2.742187-10.964844 9.589844-20.207032 19.28125-26.023438 9.683594-5.8125 21.058594-7.523437 32.027344-4.757812l-4.007813 16.015625c-6.671875-1.636719-13.609375-.644531-19.527344 2.910156-5.90625 3.542969-10.078124 9.179687-11.75 15.855469zm0 0" fill="#fff"/><path d="m132.550781 135.753906 8.261719-24.773437 15.667969 5.226562-8.261719 24.773438zm0 0" fill="#fff"/></svg>