<svg height="512pt" viewBox="0 0 512 512.00089" width="512pt" xmlns="http://www.w3.org/2000/svg"><path d="m371.164062 215.070312v29.527344c0 23.257813-5.195312 46.105469-15.09375 66.976563-.496093 1.070312-.992187 2.058593-1.566406 3.132812-2.144531 4.207031-4.457031 8.414063-7.011718 12.453125-11.464844 18.3125-28.125 32.828125-47.839844 41.570313-13.9375 6.1875-28.949219 9.324219-43.960938 9.324219-15.011718 0-30.023437-3.136719-43.964844-9.324219-11.214843-4.945313-21.441406-11.792969-30.269531-20.289063-6.679687-6.1875-12.617187-13.363281-17.566406-21.28125-7.753906-12.371094-13.691406-25.734375-17.652344-39.589844-3.957031-13.9375-6.019531-28.371093-6.019531-42.972656v-29.527344h65.984375c1.316406 0 2.636719-.082031 3.957031-.164062 1.15625-.082031 2.308594-.246094 3.382813-.414062.824219-.082032 1.648437-.246094 2.390625-.410157 1.074218-.167969 2.144531-.414062 3.21875-.742187 1.15625-.25 2.144531-.578125 3.132812-.992188.824219-.246094 1.648438-.578125 2.472656-.90625.992188-.414062 1.980469-.824218 2.886719-1.320312 1.238281-.578125 2.476563-1.238282 3.714844-1.980469 4.535156-2.636719 8.578125-5.9375 11.957031-9.898437.824219-.90625 1.648438-1.894532 2.394532-2.96875.824218-.988282 1.484374-1.976563 2.144531-3.050782.742187-1.070312 1.316406-2.144531 1.894531-3.214844.660156-1.074218 1.15625-2.226562 1.648438-3.382812.578124-1.15625.992187-2.308594 1.402343-3.546875h5.773438c.414062 1.238281.828125 2.394531 1.402343 3.546875.496094 1.15625.992188 2.308594 1.652344 3.382812.574219 1.070313 1.152344 2.144532 1.894532 3.214844.660156 1.074219 1.320312 2.0625 2.144531 3.050782.742187 1.074218 1.566406 2.0625 2.394531 2.96875 3.378906 3.960937 7.421875 7.261718 11.957031 9.898437 1.238281.742187 2.476563 1.402344 3.714844 1.980469.90625.496094 1.894531.90625 2.882813 1.320312.824218.328125 1.652343.660156 2.476562.90625.988281.414063 1.980469.742188 3.132812.992188 1.074219.328125 2.144532.574218 3.21875.742187.738282.164063 1.566407.328125 2.390626.410157 1.074218.167968 2.226562.332031 3.382812.414062 1.320312.082031 2.636719.164062 3.957031.164062zm0 0" fill="#ffb398"/><path d="m470.140625 413.023438v98.976562h-428.898437v-98.976562h34.558593c-.992187 2.226562-1.566406 4.703124-1.566406 7.257812 0 4.785156 1.976563 9.238281 5.113281 12.371094 3.132813 3.136718 7.585938 5.117187 12.371094 5.117187 4.621094 0 9.074219-1.816406 12.371094-5.117187l11.382812-11.382813 11.382813 11.382813c3.300781 3.300781 7.753906 5.117187 12.371093 5.117187 4.785157 0 9.238282-1.980469 12.375-5.117187 3.132813-3.132813 5.113282-7.585938 5.113282-12.371094 0-2.554688-.578125-5.03125-1.566406-7.257812h199.601562c-.992188 2.226562-1.570312 4.703124-1.570312 7.257812 0 4.785156 1.980468 9.238281 5.117187 12.371094 3.132813 3.136718 7.585937 5.117187 12.371094 5.117187 4.617187 0 9.074219-1.816406 12.371093-5.117187l11.382813-11.382813 11.382813 11.382813c3.296874 3.300781 7.753906 5.117187 12.371093 5.117187 4.785157 0 9.238281-1.980469 12.375-5.117187 3.132813-3.132813 5.113281-7.585938 5.113281-12.371094 0-2.554688-.578124-5.03125-1.570312-7.257812zm0 0" fill="#bf6a1e"/><path d="m255.691406 83.101562v49.488282h-137.332031c18.558594-39.015625 58.316406-65.984375 104.339844-65.984375h16.496093c9.070313 0 16.496094 7.421875 16.496094 16.496093zm0 0" fill="#ffdf00"/><path d="m393.019531 132.589844h-137.328125v-49.488282c0-9.074218 7.421875-16.496093 16.496094-16.496093h16.496094c32.332031 0 61.613281 13.359375 82.5625 34.886719.742187 12.949218 8.910156 23.921874 20.457031 28.621093.492187.824219.90625 1.652344 1.316406 2.476563zm0 0" fill="#ffdf00"/><path d="m380.8125 271.402344-9.648438 9.652344h15.011719l-27.878906 27.878906c-.824219.824218-1.570313 1.730468-2.226563 2.636718 9.894532-20.867187 15.09375-43.714843 15.09375-66.972656v-29.527344h-65.984374c-1.320313 0-2.640626-.085937-3.960938-.167968-1.152344-.082032-2.308594-.246094-3.382812-.410156-.824219-.082032-1.648438-.25-2.390626-.414063-1.074218-.164063-2.144531-.414063-3.214843-.742187-1.15625-.246094-2.144531-.578126-3.136719-.988282-.824219-.25-1.648438-.578125-2.472656-.910156-.992188-.410156-1.980469-.824219-2.886719-1.316406-1.238281-.578125-2.476563-1.238282-3.710937-1.980469-4.535157-2.640625-8.578126-5.941406-11.960938-9.898437-.824219-.90625-1.648438-1.898438-2.390625-2.96875-.742187-.988282-1.484375-1.980469-2.144531-3.050782-.742188-1.074218-1.320313-2.144531-1.898438-3.21875-.578125-1.152344-1.152344-2.226562-1.648437-3.378906-.578125-1.15625-.992188-2.3125-1.402344-3.546875h145.578125v32.992187c0 21.113282-8.414062 41.40625-23.34375 56.332032zm0 0" fill="#ffdf00"/><path d="m107.226562 182.078125v32.992187c0 21.113282 8.414063 41.40625 23.339844 56.332032l9.652344 9.652344h-16.496094l24.742188 32.992187c.824218.824219 6.1875-3.382813 6.847656-2.472656-9.898438-20.867188-15.09375-43.71875-15.09375-66.976563v-29.527344h65.984375c1.316406 0 2.636719-.082031 3.957031-.164062 1.15625-.085938 2.308594-.25 3.382813-.414062.824219-.082032 1.648437-.246094 2.390625-.414063 1.074218-.164063 2.144531-.410156 3.21875-.742187 1.15625-.246094 2.144531-.578126 3.132812-.988282.824219-.246094 1.648438-.578125 2.472656-.90625.992188-.414062 1.980469-.828125 2.886719-1.320312 1.238281-.578125 2.476563-1.238282 3.714844-1.980469 4.535156-2.640625 8.578125-5.9375 11.957031-9.898437.824219-.90625 1.648438-1.894532 2.394532-2.96875.742187-.988282 1.484374-1.980469 2.144531-3.050782.742187-1.074218 1.316406-2.144531 1.894531-3.214844.578125-1.15625 1.15625-2.230468 1.648438-3.382812.578124-1.15625.992187-2.308594 1.402343-3.546875zm0 0" fill="#ffdf00"/><path d="m140.21875 281.054688h-32.992188c-9.074218 0-17.320312-3.710938-23.34375-9.652344-5.9375-6.019532-9.648437-14.269532-9.648437-23.339844 0-18.226562 14.761719-32.992188 32.992187-32.992188 0 21.113282 8.414063 41.40625 23.339844 56.332032zm0 0" fill="#f9a085"/><path d="m437.148438 248.0625c0 9.070312-3.710938 17.320312-9.652344 23.339844-6.019532 5.9375-14.269532 9.652344-23.339844 9.652344h-32.992188l9.648438-9.652344c14.929688-14.929688 23.34375-35.21875 23.34375-56.332032 18.226562 0 32.992188 14.761719 32.992188 32.992188zm0 0" fill="#f9a085"/><path d="m156.714844 321.304688c0 4.785156-1.980469 9.238281-5.113282 12.371093-3.136718 3.136719-7.589843 5.113281-12.375 5.113281-4.617187 0-9.070312-1.8125-12.371093-5.113281l-11.382813-11.382812-11.382812 11.382812c-3.296875 3.300781-7.75 5.113281-12.371094 5.113281-4.785156 0-9.238281-1.976562-12.371094-5.113281-3.136718-3.132812-5.113281-7.585937-5.113281-12.371093 0-4.617188 1.8125-9.074219 5.113281-12.371094l27.878906-27.878906h16.496094l27.878906 27.878906c3.296876 3.296875 5.113282 7.753906 5.113282 12.371094zm0 0" fill="#f8cf26"/><path d="m115.472656 371.78125 11.371094 11.371094c3.28125 3.28125 7.730469 5.125 12.375 5.125 9.660156 0 17.496094-7.832032 17.496094-17.496094 0-4.640625-1.84375-9.089844-5.125-12.371094l-36.117188-36.117187-36.113281 36.117187c-3.285156 3.28125-5.125 7.730469-5.125 12.371094 0 9.664062 7.832031 17.496094 17.496094 17.496094 4.640625 0 9.089843-1.84375 12.371093-5.125zm0 0" fill="#ffdf00"/><path d="m156.714844 420.28125c0 4.785156-1.980469 9.238281-5.113282 12.371094-3.136718 3.136718-7.589843 5.117187-12.375 5.117187-4.617187 0-9.070312-1.816406-12.371093-5.117187l-11.382813-11.382813-11.382812 11.382813c-3.296875 3.300781-7.75 5.117187-12.371094 5.117187-4.785156 0-9.238281-1.980469-12.371094-5.117187-3.136718-3.132813-5.113281-7.585938-5.113281-12.371094 0-2.554688.574219-5.03125 1.566406-7.257812.824219-1.898438 2.0625-3.628907 3.546875-5.113282l36.125-36.128906 36.128906 36.128906c1.484376 1.484375 2.71875 3.214844 3.546876 5.113282.988281 2.226562 1.566406 4.699218 1.566406 7.257812zm0 0" fill="#f8cf26"/><path d="m156.714844 496.65625c0 8.496094-6.847656 15.34375-15.34375 15.34375h-51.796875c-8.496094 0-15.339844-6.847656-15.339844-15.34375 0-21.855469 8.660156-42.804688 24.167969-58.3125l17.070312-17.074219 17.074219 17.074219c7.753906 7.753906 13.777344 16.910156 17.898437 26.804688 4.125 9.898437 6.269532 20.621093 6.269532 31.507812zm0 0" fill="#ffdf00"/><path d="m435.664062 321.304688c0 4.785156-1.980468 9.238281-5.113281 12.371093-3.136719 3.136719-7.589843 5.113281-12.375 5.113281-4.617187 0-9.070312-1.8125-12.371093-5.113281l-11.382813-11.382812-11.382813 11.382812c-3.296874 3.300781-7.753906 5.113281-12.371093 5.113281-4.785157 0-9.238281-1.976562-12.371094-5.113281-3.136719-3.132812-5.117187-7.585937-5.117187-12.371093 0-2.308594.414062-4.535157 1.320312-6.597657.578125-1.074219 1.074219-2.0625 1.570312-3.136719.660157-.90625 1.402344-1.8125 2.226563-2.636718l27.878906-27.878906h16.496094l27.878906 27.878906c3.296875 3.296875 5.113281 7.753906 5.113281 12.371094zm0 0" fill="#f8cf26"/><path d="m394.421875 371.78125-11.371094 11.371094c-3.28125 3.28125-7.730469 5.125-12.371093 5.125-9.664063 0-17.5-7.832032-17.5-17.496094 0-4.640625 1.84375-9.089844 5.125-12.371094l36.117187-36.117187 36.117187 36.117187c3.28125 3.28125 5.125 7.730469 5.125 12.371094 0 9.664062-7.835937 17.496094-17.5 17.496094-4.636718 0-9.089843-1.84375-12.371093-5.125zm0 0" fill="#ffdf00"/><path d="m435.664062 420.28125c0 4.785156-1.980468 9.238281-5.113281 12.371094-3.136719 3.136718-7.589843 5.117187-12.375 5.117187-4.617187 0-9.070312-1.816406-12.371093-5.117187l-11.382813-11.382813-11.382813 11.382813c-3.296874 3.300781-7.753906 5.117187-12.371093 5.117187-4.785157 0-9.238281-1.980469-12.371094-5.117187-3.136719-3.132813-5.117187-7.585938-5.117187-12.371094 0-2.554688.578124-5.03125 1.570312-7.257812.824219-1.898438 2.0625-3.628907 3.546875-5.113282l36.125-36.128906 36.128906 36.128906c1.484375 1.484375 2.71875 3.214844 3.542969 5.113282.992188 2.226562 1.570312 4.699218 1.570312 7.257812zm0 0" fill="#f8cf26"/><path d="m404.15625 91.347656v41.242188c-4.375 0-8.660156-.90625-12.457031-2.472656-11.546875-4.703126-19.710938-15.671876-20.453125-28.621094-.082032-.664063-.082032-1.238282-.082032-1.898438v-41.242187zm0 0" fill="#b9571a"/><path d="m437.148438 58.355469v41.242187c0 18.226563-14.765626 32.992188-32.992188 32.992188v-41.242188zm0 0" fill="#809699"/><path d="m371.164062 58.355469v-41.238281l32.992188 32.992187v41.238281zm0 0" fill="#c6cdd1"/><path d="m371.164062 17.117188c0-15.21875 18.398438-22.839844 29.160157-12.078126l3.832031 3.828126v41.242187zm0 0" fill="#f7c3af"/><path d="m437.148438 58.355469v-41.238281l-32.992188 32.992187v41.238281zm0 0" fill="#e7c1a2"/><path d="m437.148438 17.117188c0-15.21875-18.402344-22.839844-29.160157-12.078126l-3.832031 3.828126v41.242187zm0 0" fill="#bf6a1e"/><path d="m180.5625 251.800781-14.730469-7.429687c.429688-.859375 10.773438-21.054688 32.121094-21.054688 21.351563 0 31.691406 20.195313 32.121094 21.054688l-14.753907 7.378906c-.035156-.074219-6.296874-11.9375-17.367187-11.9375s-17.328125 11.867188-17.390625 11.988281zm0 0" fill="#ed5537"/><path d="m330.816406 251.800781c-.058594-.121093-6.316406-11.988281-17.390625-11.988281-11.070312 0-17.328125 11.863281-17.390625 11.988281l-14.730468-7.429687c.429687-.859375 10.773437-21.054688 32.121093-21.054688 21.347657 0 31.691407 20.195313 32.121094 21.054688zm0 0" fill="#ed5537"/><path d="m255.691406 305.796875c-13.644531 0-24.746094-11.097656-24.746094-24.742187h16.496094c0 4.550781 3.703125 8.246093 8.25 8.246093s8.246094-3.695312 8.246094-8.246093v-16.496094h16.496094v16.496094c0 13.644531-11.097656 24.742187-24.742188 24.742187zm0 0" fill="#ed5537"/><path d="m206.203125 322.292969c0 9.113281-7.386719 16.496093-16.496094 16.496093s-16.496093-7.382812-16.496093-16.496093c0-9.109375 7.386718-16.496094 16.496093-16.496094s16.496094 7.386719 16.496094 16.496094zm0 0" fill="#f40e34"/><path d="m338.171875 322.292969c0 9.113281-7.386719 16.496093-16.496094 16.496093-9.113281 0-16.496093-7.382812-16.496093-16.496093 0-9.109375 7.382812-16.496094 16.496093-16.496094 9.109375 0 16.496094 7.386719 16.496094 16.496094zm0 0" fill="#f40e34"/><path d="m164.960938 264.558594h32.992187v16.496094h-32.992187zm0 0" fill="#43c5e4"/><path d="m313.425781 264.558594h32.992188v16.496094h-32.992188zm0 0" fill="#43c5e4"/><path d="m255.691406 338.789062c-13.644531 0-24.746094-11.097656-24.746094-24.742187h16.496094c0 4.550781 3.703125 8.246094 8.25 8.246094s8.246094-3.695313 8.246094-8.246094h16.496094c0 13.644531-11.097656 24.742187-24.742188 24.742187zm0 0" fill="#ed5537"/><path d="m107.226562 132.589844h296.929688v49.488281h-296.929688zm0 0" fill="#f26924"/><path d="m299.652344 368.730469c-13.9375 6.1875-28.949219 9.320312-43.960938 9.320312-15.011718 0-30.023437-3.132812-43.964844-9.320312-11.214843-4.949219-21.441406-11.792969-30.269531-20.289063v64.582032h148.464844v-64.582032c-8.824219 8.496094-19.050781 15.339844-30.269531 20.289063zm0 0" fill="#f9a085"/><path d="m41.242188 512h-41.242188v-57.734375c0-22.777344 18.464844-41.242187 41.242188-41.242187zm0 0" fill="#ffb398"/><path d="m470.140625 512h41.242187v-57.734375c0-22.777344-18.464843-41.242187-41.242187-41.242187zm0 0" fill="#ffb398"/><path d="m305.179688 462.511719h-49.488282v-16.496094h49.488282c13.644531 0 24.742187-11.101563 24.742187-24.746094v-24.742187h16.496094v24.742187c0 22.742188-18.5 41.242188-41.238281 41.242188zm0 0" fill="#803208"/><path d="m107.226562 132.589844 24.742188 24.742187-24.742188 24.746094zm0 0" fill="#803208"/><path d="m148.464844 132.589844 24.746094 24.742187-24.746094 24.746094zm0 0" fill="#c38355"/><path d="m189.707031 132.589844 24.742188 24.742187-24.742188 24.746094zm0 0" fill="#fff"/><path d="m404.15625 132.589844-24.746094 24.742187 24.746094 24.746094zm0 0" fill="#803208"/><path d="m362.914062 132.589844-24.742187 24.742187 24.742187 24.746094zm0 0" fill="#c38355"/><path d="m321.675781 132.589844-24.746093 24.742187 24.746093 24.746094zm0 0" fill="#fff"/><path d="m230.945312 157.335938 24.742188-24.746094 24.742188 24.746094-24.742188 24.742187zm0 0" fill="#803208"/><path d="m173.210938 132.589844h-16.496094c0-22.738282 18.5-41.242188 41.238281-41.242188h57.738281v16.496094h-57.738281c-13.644531 0-24.742187 11.101562-24.742187 24.746094zm0 0" fill="#fdb515"/><path d="m354.667969 132.589844h-16.496094c0-13.644532-11.101563-24.746094-24.746094-24.746094h-57.734375v-16.496094h57.734375c22.738281 0 41.242188 18.503906 41.242188 41.242188zm0 0" fill="#fdb515"/><path d="m247.441406 91.347656h16.496094v41.242188h-16.496094zm0 0" fill="#f8cf26"/><path d="m255.691406 429.519531c-22.777344 0-41.242187 18.464844-41.242187 41.242188 0 22.773437 18.464843 41.238281 41.242187 41.238281s41.238282-18.464844 41.238282-41.238281c0-22.777344-18.460938-41.242188-41.238282-41.242188zm0 49.488281c-9.109375 0-16.496094-7.386718-16.496094-16.496093s7.386719-16.496094 16.496094-16.496094 16.496094 7.382813 16.496094 16.496094c0 9.109375-7.386719 16.496093-16.496094 16.496093zm0 0" fill="#43c5e4"/><path d="m255.691406 462.511719h-49.488281c-22.738281 0-41.242187-18.503907-41.242187-41.242188v-24.742187h16.496093v24.742187c0 13.644531 11.101563 24.746094 24.746094 24.746094h49.488281zm0 0" fill="#803208"/><path d="m164.960938 132.589844h-16.496094c0-27.289063 22.199218-49.488282 49.488281-49.488282v16.496094c-18.191406 0-32.992187 14.796875-32.992187 32.992188zm0 0" fill="#fff"/><path d="m214.449219 83.101562h16.496093v16.496094h-16.496093zm0 0" fill="#fff"/><path d="m470.140625 413.023438-156.714844 98.976562h156.714844zm0 0" fill="#9b4e10"/><path d="m435.664062 496.65625c0 8.496094-6.847656 15.34375-15.34375 15.34375h-51.796874c-8.496094 0-15.339844-6.847656-15.339844-15.34375 0-10.886719 2.144531-21.609375 6.265625-31.507812 4.125-9.894532 10.148437-19.050782 17.898437-26.804688l17.074219-17.074219 17.074219 17.074219c15.507812 15.507812 24.167968 36.457031 24.167968 58.3125zm0 0" fill="#ffdf00"/><g fill="#fff"><path d="m395.90625 231.566406h-16.496094c0-13.644531-11.097656-24.746094-24.742187-24.746094h-41.242188c-13.644531 0-24.742187-11.097656-24.742187-24.742187h16.496094c0 4.550781 3.699218 8.246094 8.246093 8.246094h41.242188c22.738281 0 41.238281 18.503906 41.238281 41.242187zm0 0"/><path d="m379.410156 248.0625h16.496094v16.496094h-16.496094zm0 0"/><path d="m131.96875 231.566406h-16.496094c0-22.738281 18.503906-41.242187 41.242188-41.242187h41.238281c4.550781 0 8.25-3.695313 8.25-8.246094h16.496094c0 13.644531-11.097657 24.742187-24.746094 24.742187h-41.238281c-13.644532 0-24.746094 11.101563-24.746094 24.746094zm0 0"/><path d="m115.472656 248.0625h16.496094v16.496094h-16.496094zm0 0"/><path d="m412.402344 25.363281h16.496094v41.242188h-16.496094zm0 0"/><path d="m412.402344 83.101562h16.496094v16.496094h-16.496094zm0 0"/><path d="m131.96875 314.046875h16.496094v16.496094h-16.496094zm0 0"/><path d="m131.96875 363.535156h16.496094v16.496094h-16.496094zm0 0"/><path d="m131.96875 413.023438h16.496094v16.496093h-16.496094zm0 0"/><path d="m107.226562 503.75v-16.496094c9.097657 0 16.496094-7.402344 16.496094-16.496094h16.496094c0 18.195313-14.800781 32.992188-32.992188 32.992188zm0 0"/><path d="m412.402344 314.046875h16.496094v16.496094h-16.496094zm0 0"/><path d="m412.402344 363.535156h16.496094v16.496094h-16.496094zm0 0"/><path d="m412.402344 413.023438h16.496094v16.496093h-16.496094zm0 0"/><path d="m387.660156 503.75v-16.496094c9.097656 0 16.496094-7.402344 16.496094-16.496094h16.496094c0 18.195313-14.800782 32.992188-32.992188 32.992188zm0 0"/></g><path d="m247.441406 82.289062h16.496094v50.300782h-16.496094zm0 0" fill="#fdb515"/></svg>