<svg height="512pt" viewBox="0 0 512 512.00001" width="512pt" xmlns="http://www.w3.org/2000/svg"><path d="m82.582031 396.386719h346.835938v115.613281h-346.835938zm0 0" fill="#008599"/><path d="m132.128906 195.632812v167.722657h-8.257812c-9.082032 0-17.34375-3.714844-23.371094-9.664063-5.945312-6.027344-9.660156-14.285156-9.660156-23.367187-9.085938 0-17.34375-3.714844-23.371094-9.664063-5.945312-6.027344-9.664062-14.285156-9.664062-23.367187-9.082032 0-17.339844-3.71875-23.371094-9.664063-5.945313-6.027344-9.660156-14.285156-9.660156-23.367187l92.40625-71.101563c4.378906.820313 9.332031 1.5625 14.949218 2.472656zm0 0" fill="#4d4d4d"/><path d="m487.226562 264.257812c0 9.082032-3.71875 17.339844-9.664062 23.371094-6.027344 5.945313-14.285156 9.660156-23.371094 9.660156 0 9.082032-3.714844 17.34375-9.660156 23.371094-6.027344 5.945313-14.285156 9.660156-23.371094 9.660156 0 9.085938-3.714844 17.34375-9.660156 23.371094-6.03125 5.945313-14.289062 9.660156-23.371094 9.660156h-8.257812v-167.71875c5.613281-.90625 10.570312-1.648437 14.945312-2.476562zm0 0" fill="#4d4d4d"/><path d="m231.226562 24.773438v74.324218c-3.136718 2.3125-5.863281 5.121094-8.09375 8.257813-5.367187 6.9375-8.421874 15.523437-8.421874 24.773437 0 3.386719.410156 6.773438 1.15625 9.910156.164062.578126.246093 1.074219.410156 1.570313l-100.664063 21.550781v-24.773437c0-2.808594.082031-5.613281.328125-8.339844 2.066406-28.492187 14.535156-54.171875 33.613282-73.332031 20.976562-20.894532 49.878906-33.941406 81.671874-33.941406zm0 0" fill="#ffd422"/><path d="m396.386719 140.386719v24.773437l-100.664063-21.550781c.164063-.496094.246094-.992187.410156-1.570313.082032-.414062.167969-.824218.25-1.238281.246094-1.15625.496094-2.394531.578126-3.632812.246093-1.652344.328124-3.386719.328124-5.039063 0-3.136718-.328124-6.191406-1.074218-9.167968-.082032-.492188-.246094-1.070313-.410156-1.566407-.496094-2.148437-1.238282-4.128906-2.148438-6.113281-.414062-.824219-.742188-1.652344-1.238281-2.394531-.992188-1.980469-2.230469-3.800781-3.550781-5.53125-2.230469-3.140625-4.953126-5.949219-8.09375-8.257813v-74.324218c60.78125 0 110.988281 47.566406 115.285156 107.273437.246094 2.726563.328125 5.53125.328125 8.339844zm0 0" fill="#ffd422"/><path d="m280.773438 0v99.097656c-6.855469-5.203125-15.441407-8.257812-24.773438-8.257812s-17.921875 3.054687-24.773438 8.257812v-99.097656zm0 0" fill="#f26924"/><path d="m412.902344 189.933594s-6.769532 1.324218-18.082032 3.222656c-4.378906.824219-9.332031 1.566406-14.949218 2.476562-16.351563 2.558594-37.574219 5.449219-60.53125 7.515626-20.398438 1.980468-42.199219 3.300781-63.339844 3.300781s-42.941406-1.320313-63.339844-3.300781c-22.957031-2.066407-44.179687-4.957032-60.53125-7.515626-5.617187-.910156-10.570312-1.652343-14.945312-2.476562-11.3125-1.898438-18.085938-3.222656-18.085938-3.222656l16.515625-24.773438 100.667969-21.554687c5.035156 17.179687 20.890625 29.8125 39.71875 29.8125 18.832031 0 34.683594-12.632813 39.722656-29.8125l100.667969 21.554687zm0 0" fill="#f8cf26"/><path d="m297.289062 132.128906c0 1.652344-.082031 3.386719-.328124 5.039063-.082032 1.238281-.332032 2.476562-.578126 3.632812-.082031.414063-.167968.824219-.25 1.238281-.164062.578126-.246093 1.074219-.410156 1.570313-5.039062 17.175781-20.894531 29.8125-39.722656 29.8125s-34.683594-12.636719-39.722656-29.8125c-.164063-.496094-.246094-.992187-.410156-1.570313-.746094-3.136718-1.160157-6.523437-1.160157-9.910156 0-9.25 3.058594-17.835937 8.425781-24.773437 2.230469-3.136719 4.953126-5.945313 8.09375-8.257813 6.851563-5.203125 15.441407-8.257812 24.773438-8.257812s17.917969 3.054687 24.773438 8.257812c3.136718 2.3125 5.863281 5.121094 8.09375 8.257813 1.320312 1.734375 2.558593 3.550781 3.550781 5.53125.496093.746093.824219 1.570312 1.238281 2.394531.90625 1.984375 1.652344 3.964844 2.144531 6.113281.167969.496094.332031 1.074219.414063 1.570313.746094 2.96875 1.074218 6.027344 1.074218 9.164062zm0 0" fill="#43c5e4"/><path d="m214.710938 132.128906c0 3.386719.410156 6.773438 1.15625 9.910156l-100.253907 23.121094v-33.03125l.328125-.082031 107.027344-24.691406h.164062c-5.367187 6.933593-8.421874 15.523437-8.421874 24.773437zm0 0" fill="#f26924"/><path d="m297.289062 132.128906c0 3.386719-.410156 6.773438-1.15625 9.910156l100.253907 23.121094v-33.03125l-.328125-.082031-107.027344-24.691406h-.164062c5.367187 6.933593 8.421874 15.523437 8.421874 24.773437zm0 0" fill="#f26924"/><path d="m379.871094 195.632812v200.753907h-247.742188v-200.753907c16.351563 2.5625 37.574219 5.453126 60.53125 7.515626 20.398438 1.980468 42.199219 3.304687 63.339844 3.304687s42.941406-1.324219 63.339844-3.304687c22.957031-2.066407 44.179687-4.953126 60.53125-7.515626zm0 0" fill="#cf9e76"/><path d="m206.453125 256c0 9.121094-7.394531 16.515625-16.519531 16.515625-9.121094 0-16.515625-7.394531-16.515625-16.515625s7.394531-16.515625 16.515625-16.515625c9.125 0 16.519531 7.394531 16.519531 16.515625zm0 0" fill="#322d2b"/><path d="m338.582031 256c0 9.121094-7.394531 16.515625-16.515625 16.515625-9.125 0-16.519531-7.394531-16.519531-16.515625s7.394531-16.515625 16.519531-16.515625c9.121094 0 16.515625 7.394531 16.515625 16.515625zm0 0" fill="#322d2b"/><path d="m115.613281 305.546875h16.515625v-66.0625h-16.515625c-18.242187 0-33.03125 14.789063-33.03125 33.03125s14.789063 33.03125 33.03125 33.03125zm0 0" fill="#bf8d67"/><path d="m396.386719 305.546875h-16.515625v-66.0625h16.515625c18.242187 0 33.03125 14.789063 33.03125 33.03125s-14.789063 33.03125-33.03125 33.03125zm0 0" fill="#bf8d67"/><path d="m256 350.804688c-20.058594 0-40.117188-7.628907-55.386719-22.902344l11.675781-11.675782c24.105469 24.097657 63.316407 24.097657 87.421876 0l11.675781 11.675782c-15.269531 15.273437-35.324219 22.902344-55.386719 22.902344zm0 0" fill="#bf8d67"/><path d="m181.675781 338.582031c0 13.679688-11.089843 24.773438-24.773437 24.773438s-24.773438-11.09375-24.773438-24.773438c0-13.683593 11.089844-24.777343 24.773438-24.777343s24.773437 11.09375 24.773437 24.777343zm0 0" fill="#f40e34"/><path d="m379.871094 338.582031c0 13.679688-11.09375 24.773438-24.773438 24.773438-13.683594 0-24.777344-11.09375-24.777344-24.773438 0-13.683593 11.09375-24.777343 24.777344-24.777343 13.679688 0 24.773438 11.09375 24.773438 24.777343zm0 0" fill="#f40e34"/><g fill="#ee3124"><path d="m256 396.386719-123.871094 74.324219v-74.324219zm0 0"/><path d="m256 396.386719 123.871094 74.324219v-74.324219zm0 0"/><path d="m0 512h82.582031v-115.613281c-45.609375 0-82.582031 36.972656-82.582031 82.582031zm0 0"/><path d="m512 512h-82.582031v-115.613281c45.609375 0 82.582031 36.972656 82.582031 82.582031zm0 0"/></g><path d="m82.582031 396.386719h49.546875v115.613281h-49.546875zm0 0" fill="#f9c20a"/><path d="m379.871094 396.386719h49.546875v115.613281h-49.546875zm0 0" fill="#f9c20a"/><path d="m256 396.386719-41.289062 24.773437v90.839844h82.578124v-90.839844zm0 0" fill="#00bcda"/><path d="m272.515625 445.933594c0 9.121094-7.394531 16.515625-16.515625 16.515625s-16.515625-7.394531-16.515625-16.515625 7.394531-16.515625 16.515625-16.515625 16.515625 7.394531 16.515625 16.515625zm0 0" fill="#fff"/><path d="m264.257812 256 10.320313 30.96875c3.421875 10.257812-2.125 21.351562-12.386719 24.773438-4.019531 1.339843-8.367187 1.339843-12.386718 0-10.261719-3.421876-15.804688-14.511719-12.386719-24.773438l10.324219-30.96875zm0 0" fill="#f26722"/><path d="m192.660156 203.148438-60.53125 36.335937v-43.851563c16.351563 2.5625 37.574219 5.449219 60.53125 7.515626zm0 0" fill="#808080"/><path d="m379.871094 195.632812v43.851563l-60.53125-36.335937c22.957031-2.066407 44.179687-4.953126 60.53125-7.515626zm0 0" fill="#808080"/><path d="m280.773438 132.128906c0 13.683594-11.089844 24.773438-24.773438 24.773438s-24.773438-11.089844-24.773438-24.773438 11.089844-24.773437 24.773438-24.773437 24.773438 11.089843 24.773438 24.773437zm0 0" fill="#fff"/><path d="m174.039062 79.046875-13.546874-9.449219c12.363281-17.726562 32.628906-28.308594 54.214843-28.308594v16.519532c-16.1875-.003906-31.390625 7.941406-40.667969 21.238281zm0 0" fill="#fff"/><path d="m165.160156 107.355469h-16.515625c0-6.429688.921875-12.78125 2.738281-18.878907l15.832032 4.722657c-1.363282 4.566406-2.054688 9.324219-2.054688 14.15625zm0 0" fill="#fff"/></svg>