<svg height="512pt" viewBox="0 0 512 512" width="512pt" xmlns="http://www.w3.org/2000/svg"><path d="m140.386719 132.128906h231.226562v305.546875h-231.226562zm0 0" fill="#0f0d0e"/><path d="m371.613281 214.710938v33.03125c0 41.371093-19.902343 79.773437-52.933593 103.640624-3.71875 2.804688-7.515626 5.285157-11.5625 7.59375-15.855469 9.003907-33.445313 13.542969-51.117188 13.542969s-35.261719-4.539062-51.117188-13.542969c-4.046874-2.3125-7.847656-4.789062-11.5625-7.59375-14.617187-10.574218-26.753906-24.03125-35.671874-39.394531-11.152344-19.15625-17.261719-41.289062-17.261719-64.246093 31.875 0 60.78125-12.964844 81.753906-33.859376 20.894531-20.972656 33.859375-49.878906 33.859375-81.753906h33.03125c45.585938 0 82.582031 36.996094 82.582031 82.582032zm0 0" fill="#efc7b0"/><path d="m512 355.097656c0 45.582032-36.996094 82.578125-82.582031 82.578125h-57.804688v-222.964843c0 9.082031 3.714844 17.339843 9.664063 23.367187 6.027344 5.945313 14.285156 9.664063 23.367187 9.664063 5.699219 0 11.230469-.578126 16.519531-1.652344v34.683594c0 13.707031 11.0625 24.773437 24.773438 24.773437 6.855469 0 13.046875 2.808594 17.507812 7.269531 4.457032 4.457032 7.265626 10.652344 7.265626 17.507813 0 6.851562 2.808593 13.046875 7.265624 17.507812 4.460938 4.457031 10.652344 7.265625 17.507813 7.265625zm0 0" fill="#2d292c"/><path d="m140.386719 247.742188v189.933593h-57.804688c-8.671875 0-16.929687-1.320312-24.777343-3.796875-33.527344-10.570312-57.804688-41.871094-57.804688-78.78125h16.515625c6.855469 0 13.050781-2.808594 17.507813-7.269531 4.460937-4.460937 7.265624-10.652344 7.265624-17.507813 0-6.851562 2.808594-13.046874 7.269532-17.507812 2.558594-2.558594 5.699218-4.621094 9.25-5.777344 2.421875-.9375 5.066406-1.433594 7.789062-1.484375 13.871094-.253906 25.242188-10.90625 25.242188-24.777343 0-18.242188 14.789062-33.03125 33.03125-33.03125zm0 0" fill="#2d292c"/><path d="m404.644531 437.675781s-33.03125 41.292969-148.644531 41.292969-156.902344-41.292969-156.902344-41.292969h48.0625c15.359375 0 28.738282-10.652343 32.207032-25.597656l13.953124-60.699219c3.71875 2.808594 7.515626 5.285156 11.5625 7.597656 15.855469 9 33.445313 13.542969 51.117188 13.542969s35.261719-4.542969 51.117188-13.542969c4.046874-2.3125 7.847656-4.789062 11.5625-7.597656l13.957031 60.699219c3.464843 14.945313 16.84375 25.597656 32.203125 25.597656zm0 0" fill="#e4b69d"/><path d="m330.324219 256h-33.035157c0-9.105469 7.414063-16.515625 16.515626-16.515625 9.105468 0 16.519531 7.410156 16.519531 16.515625zm0 0" fill="#3d332f"/><path d="m214.710938 256h-33.035157c0-9.105469 7.414063-16.515625 16.519531-16.515625 9.101563 0 16.515626 7.410156 16.515626 16.515625zm0 0" fill="#3d332f"/><path d="m355.097656 297.289062c0 9.121094-7.394531 16.515626-16.515625 16.515626-9.121093 0-16.515625-7.394532-16.515625-16.515626 0-9.121093 7.394532-16.515624 16.515625-16.515624 9.121094 0 16.515625 7.394531 16.515625 16.515624zm0 0" fill="#f40e34"/><path d="m189.933594 297.289062c0 9.121094-7.394532 16.515626-16.515625 16.515626-9.121094 0-16.515625-7.394532-16.515625-16.515626 0-9.121093 7.394531-16.515624 16.515625-16.515624 9.121093 0 16.515625 7.394531 16.515625 16.515624zm0 0" fill="#f40e34"/><path d="m487.226562 165.160156c0 39.886719-28.410156 73.25-66.066406 80.929688-5.285156 1.074218-10.816406 1.652344-16.515625 1.652344-9.082031 0-17.339843-3.71875-23.371093-9.664063-5.945313-6.027344-9.660157-14.285156-9.660157-23.367187 0-22.792969-9.25-43.4375-24.195312-58.386719-14.949219-14.945313-35.59375-24.195313-58.386719-24.195313h-33.03125c0 63.835938-51.777344 115.613282-115.613281 115.613282h-16.515625c-18.25 0-33.035156 14.78125-33.035156 33.03125 0 6.9375-2.804688 13.046874-7.429688 17.507812s-10.902344 7.101562-17.839844 7.269531c-2.722656.082031-5.367187.578125-7.761718 1.484375v-1.484375c-16.019532 0-30.390626-6.441406-40.878907-16.929687-10.484375-10.488282-16.925781-24.859375-16.925781-40.878906v-8.257813h24.773438c0-9.085937 3.71875-17.34375 9.664062-23.371094 6.027344-5.945312 14.285156-9.664062 23.371094-9.664062v-90.835938c0-31.960937 25.847656-57.808593 57.804687-57.808593 0-16.019532 6.441407-30.386719 16.929688-40.875 10.488281-10.488282 24.855469-16.929688 40.875-16.929688h99.097656c91.25 0 165.160156 73.910156 165.160156 165.160156zm0 0" fill="#1e1b1d"/><path d="m265.695312 231.097656-2.871093-16.257812 43.578125-7.703125c16.042968-6.039063 34.113281-2.179688 46.277344 9.992187l-11.679688 11.675782c-7.691406-7.683594-19.199219-10.046876-29.289062-6.007813-.53125.210937-1.082032.363281-1.636719.460937zm0 0" fill="#2d292c"/><path d="m246.304688 231.097656-44.378907-7.839844c-.554687-.097656-1.101562-.25-1.636719-.460937-10.078124-4.039063-21.585937-1.691406-29.289062 6.007813l-11.675781-11.675782c12.152343-12.167968 30.230469-16.03125 46.273437-9.992187l43.582032 7.703125zm0 0" fill="#2d292c"/><path d="m256 289.03125c-13.660156 0-24.773438-11.113281-24.773438-24.773438h16.515626c0 4.558594 3.699218 8.257813 8.257812 8.257813 4.554688 0 8.257812-3.699219 8.257812-8.257813v-16.515624h16.515626v16.515624c0 13.660157-11.113282 24.773438-24.773438 24.773438zm0 0" fill="#f8a17a"/><path d="m255.394531 346.78125c-10.175781 0-20.347656-3.636719-28.089843-10.917969-5.320313-5-6.980469-12.273437-4.328126-18.96875 2.734376-6.894531 9.425782-11.347656 17.054688-11.347656h30.726562c7.628907 0 14.316407 4.453125 17.050782 11.347656 2.652344 6.695313.992187 13.96875-4.332032 18.96875-7.742187 7.28125-17.914062 10.917969-28.082031 10.917969zm-15.363281-24.714844c-1.160156 0-1.5625.570313-1.703125.910156-.121094.304688-.101563.484376.285156.855469 9.265625 8.699219 24.304688 8.691407 33.554688 0 .386719-.371093.402343-.558593.28125-.855469-.136719-.339843-.53125-.910156-1.691407-.910156zm0 0" fill="#f8a17a"/><path d="m441.472656 444.546875c-11.535156-4.417969-23.957031-6.871094-36.828125-6.871094 0 0-33.03125 41.292969-148.644531 41.292969s-156.902344-41.292969-156.902344-41.292969c-39.453125 0-74.480468 25.246094-86.957031 62.675781l-3.882813 11.648438h289.035157s82.578125 0 115.609375-33.03125c13.546875-13.546875 23.3125-26.722656 28.570312-34.421875zm0 0" fill="#999"/><path d="m502.46875 508.1875c-9.964844-29.898438-32.75-52.820312-60.996094-63.640625-5.257812 7.699219-15.023437 20.875-28.570312 34.421875-33.03125 33.03125-115.613282 33.03125-115.613282 33.03125h206.453126zm0 0" fill="#777675"/><g fill="#fff"><path d="m90.839844 148.644531h-16.515625v-33.03125c0-22.765625 18.523437-41.292969 41.289062-41.292969v16.515626c-13.660156 0-24.773437 11.113281-24.773437 24.777343zm0 0"/><path d="m165.160156 66.0625h-16.515625c0-22.765625 18.523438-41.289062 41.289063-41.289062h24.777344v16.515624h-24.777344c-13.660156 0-24.773438 11.113282-24.773438 24.773438zm0 0"/><path d="m148.644531 82.582031h16.515625v16.515625h-16.515625zm0 0"/><path d="m140.386719 231.226562v-16.515624c32.167969 0 61.644531-18.898438 75.089843-48.144532l15 6.902344c-16.121093 35.085938-51.484374 57.757812-90.089843 57.757812zm0 0"/><path d="m237.847656 150.136719-16.242187-2.984375c.902343-4.925782 1.363281-9.984375 1.363281-15.023438h16.515625c0 6.039063-.546875 12.097656-1.636719 18.007813zm0 0"/><path d="m82.582031 272.515625h-16.519531c0-31.871094 25.9375-57.804687 57.808594-57.804687v16.515624c-22.765625 0-41.289063 18.523438-41.289063 41.289063zm0 0"/><path d="m396.386719 231.226562h-8.257813v-66.066406h16.515625v48.621094c7.558594-1.371094 18.792969-4.773438 27.195313-13.167969l11.675781 11.675781c-18.71875 18.71875-45.976563 18.9375-47.128906 18.9375zm0 0"/><path d="m388.242188 141.742188c-6.953126-41.71875-40.050782-42.628907-41.453126-42.644532l.050782-16.515625c10.234375 0 26.78125 4.425781 39.789062 18.117188-6.925781-33.851563-36.941406-59.410157-72.824218-59.410157v-16.515624c50.089843 0 90.839843 40.75 90.839843 90.839843v24.773438zm0 0"/><path d="m33.03125 388.128906v-16.515625c18.21875 0 33.035156-14.816406 33.035156-33.035156v-16.515625h8.257813c18.214843 0 33.03125-14.8125 33.03125-33.03125v-8.257812h16.515625v8.257812c0 24.507812-17.886719 44.917969-41.289063 48.863281v.683594c0 27.324219-22.226562 49.550781-49.550781 49.550781zm0 0"/><path d="m478.96875 388.128906c-27.324219 0-49.550781-22.226562-49.550781-49.546875v-.6875c-23.402344-3.941406-41.289063-24.351562-41.289063-48.863281v-8.257812h16.515625v8.257812c0 18.21875 14.816407 33.035156 33.03125 33.035156h8.261719v16.515625c0 18.21875 14.8125 33.03125 33.03125 33.03125zm0 0"/><path d="m280.773438 24.773438h16.515624v16.515624h-16.515624zm0 0"/></g><path d="m322.066406 256s-3.699218 0-8.261718 0c-4.558594 0-8.257813 0-8.257813 0 0-4.5625 3.699219-8.257812 8.257813-8.257812 4.5625 0 8.261718 3.695312 8.261718 8.257812zm0 0" fill="#562100"/><path d="m322.066406 251.871094c0 2.28125-1.851562 4.128906-4.128906 4.128906-2.28125 0-4.132812-1.847656-4.132812-4.128906s1.851562-4.128906 4.132812-4.128906c2.277344 0 4.128906 1.847656 4.128906 4.128906zm0 0" fill="#fff"/><path d="m206.453125 256s-3.699219 0-8.257813 0c-4.5625 0-8.261718 0-8.261718 0 0-4.5625 3.699218-8.257812 8.261718-8.257812 4.558594 0 8.257813 3.695312 8.257813 8.257812zm0 0" fill="#562100"/><path d="m198.195312 251.871094c0 2.28125-1.851562 4.128906-4.132812 4.128906-2.277344 0-4.128906-1.847656-4.128906-4.128906s1.851562-4.128906 4.128906-4.128906c2.28125 0 4.132812 1.847656 4.132812 4.128906zm0 0" fill="#fff"/></svg>