<svg height="512pt" viewBox="0 0 512 512" width="512pt" xmlns="http://www.w3.org/2000/svg"><path d="m346.839844 181.675781v95.792969c0 19.492188-6.195313 37.824219-17.011719 52.851562-.496094.828126-1.074219 1.570313-1.652344 2.3125-3.964843 5.203126-8.589843 9.992188-13.625 14.207032-9.910156 8.421875-21.636719 14.699218-34.683593 18.25-7.847657 2.144531-15.859376 3.21875-23.867188 3.21875-8.011719 0-16.019531-1.074219-23.867188-3.21875-13.046874-3.550782-24.773437-9.828125-34.683593-18.25-5.78125-4.792969-10.898438-10.40625-15.277344-16.519532-10.816406-15.027343-17.011719-33.359374-17.011719-52.851562v-117.097656c14.699219 0 27.914063-5.945313 37.492188-15.523438 9.578125-9.582031 15.527344-22.792968 15.527344-37.492187 20.3125 35.261719 54.75 61.355469 95.625 70.605469 10.574218 2.476562 21.636718 3.714843 33.035156 3.714843zm0 0" fill="#f0beb4"/><path d="m346.839844 280.773438c0 13.683593-11.09375 24.773437-24.773438 24.773437-13.683594 0-24.777344-11.089844-24.777344-24.773437 0-13.683594 11.09375-24.773438 24.777344-24.773438 13.679688 0 24.773438 11.089844 24.773438 24.773438zm0 0" fill="#ff0c38"/><path d="m330.324219 412.902344v8.257812l-57.808594 24.773438h-33.03125l-57.808594-24.773438v-8.257812zm0 0" fill="#e3ddd5"/><path d="m330.324219 503.742188v8.257812h-148.648438v-8.257812l57.808594-24.773438h33.03125zm0 0" fill="#e3ddd5"/><path d="m82.582031 412.902344v99.097656h-82.582031v-16.515625c0-22.792969 9.25-43.4375 24.195312-58.386719 14.949219-14.945312 35.59375-24.195312 58.386719-24.195312zm0 0" fill="#ff0c38"/><path d="m512 495.484375v16.515625h-82.582031v-99.097656c22.792969 0 43.4375 9.25 58.386719 24.195312 14.945312 14.949219 24.195312 35.59375 24.195312 58.386719zm0 0" fill="#ff0c38"/><path d="m214.710938 280.773438c0 13.683593-11.09375 24.773437-24.777344 24.773437-13.679688 0-24.773438-11.089844-24.773438-24.773437 0-13.683594 11.09375-24.773438 24.773438-24.773438 13.683594 0 24.777344 11.089844 24.777344 24.773438zm0 0" fill="#ff0c38"/><path d="m256 280.773438c-13.660156 0-24.773438-11.113282-24.773438-24.773438h16.515626c0 4.550781 3.699218 8.257812 8.257812 8.257812 4.554688 0 8.257812-3.707031 8.257812-8.257812v-24.773438h16.515626v24.773438c0 13.660156-11.113282 24.773438-24.773438 24.773438zm0 0" fill="#e89182"/><path d="m429.417969 173.417969v338.582031h-74.320313c13.707032 0 24.773438-11.066406 24.773438-24.777344 0-6.851562-2.808594-13.046875-7.265625-17.503906-4.460938-4.460938-10.652344-7.269531-17.507813-7.269531 13.707032 0 24.773438-11.066407 24.773438-24.773438 0-6.855469-2.808594-13.046875-7.265625-17.507812-4.460938-4.460938-10.652344-7.265625-17.507813-7.265625h-24.773437v-82.582032h-.496094c10.816406-15.027343 17.011719-33.363281 17.011719-52.851562v-95.792969c-11.398438 0-22.460938-1.238281-33.035156-3.714843-37.820313-8.589844-70.109376-31.546876-90.835938-62.84375-1.652344-2.558594-3.304688-5.121094-4.789062-7.761719 0 14.699219-5.949219 27.910156-15.527344 37.488281-9.578125 9.582031-22.792969 15.527344-37.492188 15.527344v117.097656c0 19.488281 6.195313 37.824219 17.011719 52.851562h-.496094v82.582032h-24.773437c-6.855469 0-13.046875 2.808594-17.507813 7.265625-4.457031 4.460937-7.265625 10.652343-7.265625 17.507812 0 13.707031 11.066406 24.773438 24.773438 24.773438-6.855469 0-13.046875 2.808593-17.507813 7.269531-4.457031 4.457031-7.265625 10.652344-7.265625 17.503906 0 13.710938 11.066406 24.777344 24.773438 24.777344h-74.320313v-338.582031c0-48.558594 19.898438-92.40625 52.105469-123.871094 31.21875-30.636719 74.078125-49.546875 121.3125-49.546875 47.894531 0 91.25 19.40625 122.632812 50.785156 31.378907 31.382813 50.785157 74.738282 50.785157 122.632813zm0 0" fill="#f7d880"/><path d="m222.96875 115.117188c-1.652344-2.558594-3.304688-5.121094-4.789062-7.761719 0 14.699219-5.949219 27.910156-15.527344 37.492187-9.578125 9.578125-22.792969 15.523438-37.492188 15.523438v117.097656c0 19.492188 6.195313 37.824219 17.011719 52.851562h-.496094v82.582032h-33.03125v-258.3125c35.179688 0 63.75-28.570313 63.75-63.75zm0 0" fill="#f4c653"/><path d="m429.417969 173.417969v338.582031h-33.03125v-297.289062c0-91.253907-73.910157-165.160157-165.160157-165.160157h-96.539062c31.21875-30.640625 74.078125-49.550781 121.3125-49.550781 47.894531 0 91.25 19.40625 122.632812 50.785156 31.378907 31.382813 50.785157 74.738282 50.785157 122.632813zm0 0" fill="#f4c653"/><path d="m189.933594 222.96875c-2.109375 0-4.222656-.808594-5.835938-2.417969l-24.777344-24.777343 11.679688-11.675782 19.492188 19.492188c16.84375-11.355469 39.941406-9.601563 54.828124 5.28125l-11.675781 11.679687c-10.4375-10.4375-27.4375-10.4375-37.871093 0-1.613282 1.609375-3.726563 2.417969-5.839844 2.417969zm0 0" fill="#0071bc"/><path d="m322.066406 222.96875c-2.113281 0-4.226562-.808594-5.839844-2.417969-10.4375-10.4375-27.4375-10.4375-37.871093 0l-11.679688-11.679687c14.890625-14.882813 37.984375-16.636719 54.832031-5.28125l19.492188-19.492188 11.675781 11.675782-24.773437 24.777343c-1.613282 1.609375-3.726563 2.417969-5.835938 2.417969zm0 0" fill="#0071bc"/><path d="m280.773438 289.03125c0 13.683594-11.089844 24.773438-24.773438 24.773438s-24.773438-11.089844-24.773438-24.773438zm0 0" fill="#f072ae"/><path d="m330.324219 330.324219v82.578125h-148.648438v-82.578125h.496094c4.378906 6.109375 9.496094 11.726562 15.277344 16.515625 9.910156 8.421875 21.636719 14.699218 34.683593 18.25 7.847657 2.144531 15.855469 3.21875 23.867188 3.21875 8.007812 0 16.019531-1.074219 23.867188-3.21875 13.046874-3.550782 24.773437-9.828125 34.683593-18.25 5.035157-4.210938 9.660157-9.003906 13.625-14.203125.578125-.746094 1.15625-1.488281 1.652344-2.3125zm0 0" fill="#e89182"/><path d="m239.484375 445.933594v33.035156l-57.808594 24.773438v-82.582032zm0 0" fill="#ff0c38"/><path d="m239.484375 445.933594h33.03125v33.035156h-33.03125zm0 0" fill="#ffd422"/><path d="m181.675781 412.902344v49.546875h-24.773437c-13.707032 0-24.773438-11.0625-24.773438-24.773438 0-6.851562 2.808594-13.046875 7.265625-17.507812 4.460938-4.457031 10.652344-7.265625 17.507813-7.265625zm0 0" fill="#e3ddd5"/><path d="m181.675781 462.449219v49.550781h-24.773437c-13.707032 0-24.773438-11.066406-24.773438-24.777344 0-6.851562 2.808594-13.046875 7.265625-17.503906 4.460938-4.460938 10.652344-7.269531 17.507813-7.269531zm0 0" fill="#e3ddd5"/><path d="m330.324219 421.160156v82.582032l-57.808594-24.773438v-33.035156zm0 0" fill="#ff0c38"/><path d="m379.871094 437.675781c0 13.710938-11.066406 24.773438-24.773438 24.773438h-24.777344v-49.546875h24.777344c6.851563 0 13.046875 2.808594 17.507813 7.269531 4.457031 4.457031 7.265625 10.652344 7.265625 17.503906zm0 0" fill="#e3ddd5"/><path d="m379.871094 487.226562c0 13.707032-11.066406 24.773438-24.773438 24.773438h-24.777344v-49.546875h24.777344c6.851563 0 13.046875 2.808594 17.507813 7.265625 4.457031 4.457031 7.265625 10.652344 7.265625 17.507812zm0 0" fill="#e3ddd5"/><g fill="#fff"><path d="m216.355469 35.347656-3.289063-16.1875c8.652344-1.753906 17.539063-2.644531 26.417969-2.644531v16.515625c-7.78125 0-15.566406.777344-23.128906 2.316406zm0 0"/><path d="m130.441406 110.109375-15.5625-5.507813c12.886719-36.464843 40.984375-65.355468 77.082032-79.273437l5.933593 15.410156c-31.578125 12.175781-56.167969 37.460938-67.453125 69.371094zm0 0"/><path d="m388.128906 256h16.515625v16.515625h-16.515625zm0 0"/><path d="m388.128906 289.03125h16.515625v74.324219h-16.515625zm0 0"/></g></svg>