<svg height="511pt" viewBox="0 0 511 511.99814" width="511pt" xmlns="http://www.w3.org/2000/svg"><path d="m412.871094 198.59375c0 32.992188-32.992188 41.238281-32.992188 41.238281s-24.742187 16.496094-24.742187 32.992188c0 16.492187 8.25 24.742187 8.25 24.742187s8.246093 8.246094 8.246093 24.742188c0 3.214844-.988281 6.183594-2.554687 8.742187-5.773437 9.980469-20.207031 15.339844-22.023437 15.917969 1.15625-1.320312 6.765624-8.082031 7.917968-20.453125.082032-1.320313.164063-2.722656.164063-4.207031 0-16.496094-24.742188-24.742188-32.988281-41.238282-8.246094-16.496093-8.246094-32.988281 8.246093-49.484374 16.496094-16.496094 32.992188-24.742188 32.992188-41.238282 0-13.773437-11.546875-21.855468-24.992188-24-2.636719-.492187-5.277343-.742187-7.996093-.742187-11.382813 0-18.804688-7.835938-22.351563-15.339844-1.566406-3.464844-2.394531-6.84375-2.394531-9.402344 0-8.246093 16.496094-57.648437-16.410156-82.390625.90625 2.472656 15.421874 41.648438-16.578126 57.648438-32.988281 16.496094-41.238281-8.246094-65.980468 8.25-14.515625 9.648437-11.957032 16.492187-9.070313 25.566406 1.980469 6.265625 4.203125 13.691406.824219 23.917969-4.949219 14.761719-15.671875 20.699219-23.585938 23.09375-5.363281 1.648437-9.402343 1.648437-9.402343 1.648437s5.9375 1.980469 11.957031 6.925782c1.734375 1.402343 3.546875 3.050781 5.199219 5.03125-.414063 1.402343-.664063 2.96875-.664063 4.535156 0 6.023437 3.21875 11.300781 8.085938 14.1875.164062.742187.164062 1.484375.164062 2.308594 0 2.308593 9.238282 7.753906 14.679688 20.125.246094.496093.496094.988281.660156 1.484374 3.546875 8.578126 5.113281 20.207032 1.15625 36.125-8.25 32.988282-32.992188 32.988282-32.992188 32.988282-8.246093 41.238281 32.992188 65.980468 32.992188 65.980468l-74.640625 8.824219c-28.453125 3.296875-54.183594-14.269531-62.597656-39.917969-1.980469-5.773437-2.96875-11.957031-2.96875-18.390624 0 0-21.359375-24.414063-21.359375-56.578126 0-20.703124 8.824218-44.539062 37.855468-67.136718 29.113282-22.679688 16.492188-49.480469 16.492188-49.480469s-8.246094-24.746094 0-49.484375c8.25-24.742188 49.484375-32.992188 49.484375-32.992188s-8.246094-32.988281 24.742187-65.976562c32.992188-32.992188 98.96875-8.25 98.96875-8.25s32.992188-16.496094 57.734376 16.496094c24.742187 32.988281 16.492187 65.980468 24.742187 90.722656 8.246094 24.742188 24.742187 32.988281 24.742187 32.988281s32.988282 16.492188 32.988282 49.480469zm0 0" fill="#fdb515"/><path d="m297.40625 215.089844c0 9.074218 7.421875 16.496094 16.496094 16.496094 1.8125 0 3.546875-.332032 5.195312-.824219l-2.640625 8.660156c-1.484375 5.027344-5.359375 9.070313-10.308593 10.800781-.328126.164063-.574219.25-.90625.332032l-32.082032 9.152343c-11.132812 3.21875-22.925781 3.382813-34.144531.578125l-33.238281-8.328125-.90625-.25c-5.441406-12.371093-14.679688-17.8125-14.679688-20.121093 0-.828126 0-1.570313-.164062-2.3125 2.472656 1.488281 5.359375 2.3125 8.410156 2.3125 9.074219 0 16.496094-7.425782 16.496094-16.496094 0-9.070313-7.421875-16.496094-16.496094-16.496094-7.503906 0-13.855469 5.03125-15.832031 11.960938-1.652344-1.980469-3.464844-3.628907-5.199219-5.03125-6.019531-4.949219-11.957031-6.929688-11.957031-6.929688s4.039062 0 9.402343-1.648438c7.914063-2.390624 18.636719-8.328124 23.585938-23.09375 3.378906-10.226562 1.15625-17.648437-.824219-23.917968-2.886719-9.070313-5.445312-15.914063 9.070313-25.566406 24.742187-16.496094 32.992187 8.25 65.980468-8.246094 32-16 17.484376-55.175782 16.578126-57.652344 32.90625 24.746094 16.410156 74.144531 16.410156 82.394531 0 2.554688.828125 5.9375 2.394531 9.402344 3.546875 7.503906 10.96875 15.339844 22.351563 15.339844 2.71875 0 5.359374.246093 7.996093.742187l-11.542969 38.515625c-3.050781-3.796875-7.753906-6.269531-12.949218-6.269531-9.074219 0-16.496094 7.425781-16.496094 16.496094zm0 0" fill="#fadaba"/><path d="m355.140625 322.308594c0 1.484375-.085937 2.882812-.167969 4.207031-19.875-3.21875-35.875-18.230469-40.328125-38.105469l-8.496093-38.183594c4.949218-1.734374 8.824218-5.773437 10.308593-10.804687l2.640625-8.660156v-.082031c6.515625-2.144532 11.296875-8.328126 11.296875-15.585938 0-3.796875-1.320312-7.339844-3.546875-10.144531v-.082031l11.546875-38.515626c13.445313 2.144532 24.988281 10.226563 24.988281 24 0 16.496094-16.492187 24.742188-32.988281 41.238282-16.496093 16.492187-16.496093 32.988281-8.246093 49.484375 8.25 16.492187 32.992187 24.738281 32.992187 41.234375zm0 0" fill="#dd971a"/><path d="m274.285156 165.445312-3.238281-16.171874 41.238281-8.246094c2.722656-.511719 5.5.304687 7.449219 2.253906l8.246094 8.246094-11.660157 11.664062-5.132812-5.125zm0 0" fill="#fdb515"/><path d="m322.148438 190.347656h-16.496094c0-4.550781-3.695313-8.246094-8.246094-8.246094s-8.246094 3.695313-8.246094 8.246094h-16.496094c0-13.640625 11.097657-24.742187 24.742188-24.742187s24.742188 11.101562 24.742188 24.742187zm0 0" fill="#efab7b"/><path d="m264.417969 215.089844h-16.496094v-16.496094h6.757813l-3.898438-23.386719 16.269531-2.707031 5.5 32.992188c.402344 2.390624-.273437 4.832031-1.84375 6.683593-1.5625 1.851563-3.867187 2.914063-6.289062 2.914063zm0 0" fill="#efab7b"/><path d="m256.171875 243.707031c-6.9375 0-13.871094-1.585937-20.183594-4.746093l7.375-14.753907c8.023438 4.011719 17.589844 4.011719 25.613281 0l7.375 14.753907c-6.3125 3.160156-13.246093 4.746093-20.179687 4.746093zm0 0" fill="#f19a67"/><path d="m330.398438 215.089844c0 7.257812-4.785157 13.445312-11.300782 15.589844v.082031c-1.648437.492187-3.382812.824219-5.195312.824219-9.074219 0-16.496094-7.421876-16.496094-16.496094 0-9.070313 7.421875-16.496094 16.496094-16.496094 5.195312 0 9.894531 2.476562 12.949218 6.269531v.082031c2.226563 2.804688 3.546876 6.351563 3.546876 10.144532zm0 0" fill="#f40e34"/><path d="m396.625 340.535156c-.746094 17.648438-7.835938 54.515625-50.804688 80.742188-4.703124 2.886718-9.816406 5.691406-15.421874 8.246094-107.21875 49.484374-222.683594-8.246094-222.683594-8.246094l-24.742188 32.988281v57.734375h-82.472656v-96.25c0-21.277344 13.691406-40.246094 33.894531-46.925781l35.054688-11.628907c8.410156 25.648438 34.144531 43.214844 62.597656 39.917969l74.636719-8.828125s-41.234375-24.742187-32.988282-65.976562c0 0 24.742188 0 32.988282-32.992188 3.960937-15.917968 2.394531-27.546875-1.152344-36.121094l.246094-1.238281 33.238281 8.328125c9.8125 2.476563 20.121094 2.640625 30.019531.496094l45.527344 27.300781.082031.328125c4.453125 19.875 20.453125 34.886719 40.328125 38.105469-1.152344 12.371094-6.761718 19.132813-7.917968 20.453125 1.816406-.578125 16.25-5.941406 22.023437-15.917969zm0 0" fill="#fadaba"/><path d="m314.5625 288.082031-45.527344-27.300781c1.402344-.328125 2.722656-.660156 4.125-1.070312l32.082032-9.15625c.332031-.082032.578124-.164063.90625-.328126zm0 0" fill="#efab7b"/><path d="m511.839844 415.421875v96.578125h-82.472656v-57.734375l-24.742188-32.988281h-4.042969c.824219-2.722656 2.226563-5.527344 4.042969-8.25 16.492188-24.742188 30.101562-11.792969 49.480469-24.742188 10.640625-7.089844 16.660156-14.183594 20.042969-21.195312l4.289062 1.484375c19.957031 6.847656 33.402344 25.652343 33.402344 46.847656zm0 0" fill="#fadaba"/><path d="m429.367188 454.265625v57.734375h-346.394532v-57.734375l24.742188-32.988281s-8.246094 24.742187 8.25 49.484375c16.492187 24.742187 32.988281 8.246093 57.730468 8.246093 24.742188 0 16.496094 16.496094 57.730469 16.496094 41.238281 0 41.238281-24.742187 74.226563-24.742187 32.988281 0 34.472656 28.121093 74.226562 8.246093 29.28125-14.679687 13.03125-35.792968 20.703125-57.730468h4.039063zm0 0" fill="#fabeae"/><path d="m256.171875 454.265625c-2.59375 0-5.042969-1.222656-6.597656-3.300781l-24.742188-32.992188 13.191407-9.890625 18.148437 24.1875 18.144531-24.1875 13.191406 9.890625-24.742187 32.992188c-1.554687 2.078125-4.003906 3.300781-6.59375 3.300781zm0 0" fill="#efab7b"/><g fill="#fff"><path d="m190.078125 76.238281-16.269531-2.707031 1.464844-8.808594c2.570312-15.410156 11.484374-29.222656 24.453124-37.917968l9.183594 13.691406c-9.207031 6.183594-15.539062 16-17.367187 26.941406zm0 0"/><path d="m217.734375 36.03125-5.605469-15.511719c6.179688-2.230469 12.679688-3.367187 19.296875-3.367187v16.496094c-4.703125 0-9.308593.804687-13.691406 2.382812zm0 0"/><path d="m132.457031 314.058594v-16.492188c18.195313 0 32.992188-14.796875 32.992188-32.992187v-8.246094h16.492187v8.246094c0 27.289062-22.195312 49.484375-49.484375 49.484375zm0 0"/><path d="m82.972656 297.566406h-16.492187v-31.652344c0-19.15625 12.207031-36.09375 30.378906-42.148437 6.5625-2.191406 12.066406-6.71875 15.480469-12.742187l14.351562 8.132812c-5.4375 9.585938-14.175781 16.769531-24.613281 20.25-11.429687 3.816406-19.105469 14.464844-19.105469 26.507812zm0 0"/><path d="m115.964844 157.359375h16.492187v16.496094h-16.492187zm0 0"/><path d="m132.457031 140.863281h-16.492187c0-22.734375 18.5-41.238281 41.234375-41.238281v16.496094c-13.640625 0-24.742188 11.097656-24.742188 24.742187zm0 0"/><path d="m66.480469 314.058594h16.492187v16.496094h-16.492187zm0 0"/><path d="m346.890625 264.574219h-16.492187c0-9.050781 3.363281-17.933594 10.007812-26.390625l12.96875 10.179687c-4.300781 5.484375-6.484375 10.9375-6.484375 16.210938zm0 0"/><path d="m363.957031 238.101562-10.113281-13.03125c7.375-5.726562 13.828125-8.972656 14.101562-9.109374l1.078126-.441407c4.945312-1.675781 19.105468-8.402343 19.105468-16.921875 0-10.640625-10.171875-23.222656-14.085937-27.167968l11.667969-11.652344c1.933593 1.929687 18.914062 19.464844 18.914062 38.820312 0 20.691406-24.542969 30.5-29.722656 32.335938-1.375.734375-5.910156 3.261718-10.945313 7.167968zm0 0"/><path d="m343.195312 156.496094 7.375-14.753906 16.496094 8.246093-7.378906 14.753907zm0 0"/></g><path d="m308.292969 124.617188c-2.804688 3.050781-6.351563 5.773437-10.886719 8-32.988281 16.496093-41.238281-8.25-65.980469 8.246093-14.515625 9.652344-11.957031 16.496094-9.070312 25.566407 1.980469 6.269531 4.207031 13.691406.824219 23.917968-4.949219 14.765625-15.671876 20.703125-23.585938 23.09375-5.363281 1.648438-9.402344 1.648438-9.402344 1.648438s5.9375 1.980468 11.957032 6.929687c1.730468 1.402344 3.546874 3.050781 5.195312 5.03125-.410156 1.402344-.660156 2.96875-.660156 4.535157 0 6.019531 3.21875 11.296874 8.082031 14.183593.167969.746094.167969 1.488281.167969 2.3125 0 2.308594 9.234375 7.75 14.679687 20.121094.246094.496094.496094.992187.660157 1.484375 3.546874 8.578125 5.113281 20.207031 1.152343 36.125-8.246093 32.992188-32.988281 32.992188-32.988281 32.992188-8.246094 41.234374 32.988281 65.976562 32.988281 65.976562l-74.636719 8.828125c-19.878906 2.308594-38.351562-5.527344-50.558593-19.21875 8 2.722656 16.742187 3.792969 25.816406 2.722656l74.636719-8.824219s-41.234375-24.746093-32.988282-65.980468c0 0 24.742188 0 32.988282-32.992188 3.960937-15.914062 2.394531-27.542968-1.152344-36.121094-.164062-.496093-.414062-.992187-.660156-1.484374-5.445313-12.371094-14.679688-17.816407-14.679688-20.125 0-.824219 0-1.566407-.167968-2.308594-4.863282-2.886719-8.082032-8.164063-8.082032-14.1875 0-1.566406.25-3.132813.660156-4.535156-1.648437-1.980469-3.464843-3.628907-5.195312-5.03125-6.019531-4.949219-11.957031-6.929688-11.957031-6.929688s4.039062 0 9.398437-1.648438c7.917969-2.390624 18.640625-8.328124 23.589844-23.089843 3.378906-10.230469 1.152344-17.652344-.824219-23.917969-2.886719-9.074219-5.445312-15.917969 9.070313-25.570312 24.742187-16.492188 32.992187 8.25 65.980468-8.246094 32-16 17.484376-55.175782 16.578126-57.648438 23.257812 17.484375 21.855468 47.257813 19.050781 66.144532zm0 0" fill="#f4cba6"/><path d="m238.054688 165.445312-36.902344-7.378906-5.132813 5.125-11.660156-11.664062 8.246094-8.246094c1.949219-1.949219 4.753906-2.769531 7.449219-2.253906l41.238281 8.246094zm0 0" fill="#fdb515"/><path d="m239.675781 190.347656h-16.496093c0-4.550781-3.695313-8.246094-8.246094-8.246094-4.550782 0-8.25 3.695313-8.25 8.246094h-16.492188c0-13.640625 11.097656-24.742187 24.742188-24.742187 13.644531 0 24.742187 11.101562 24.742187 24.742187zm0 0" fill="#efab7b"/><path d="m214.933594 215.089844c0 9.074218-7.425782 16.496094-16.496094 16.496094-3.050781 0-5.9375-.824219-8.414062-2.308594-4.863282-2.886719-8.082032-8.164063-8.082032-14.1875 0-1.566406.25-3.132813.660156-4.535156 1.980469-6.929688 8.332032-11.960938 15.835938-11.960938 9.070312 0 16.496094 7.425781 16.496094 16.496094zm0 0" fill="#f40e34"/><path d="m478.851562 338.800781c0 9.402344 0 18.804688-4.703124 28.289063-3.382813 7.011718-9.402344 14.105468-20.042969 21.199218-19.378907 12.945313-32.988281 0-49.480469 24.742188-1.816406 2.71875-3.21875 5.523438-4.042969 8.246094-7.667969 21.9375 8.578125 43.050781-20.703125 57.730468-39.75 19.878907-41.234375-8.246093-74.226562-8.246093-32.988282 0-32.988282 24.742187-74.226563 24.742187-41.234375 0-32.988281-16.496094-57.730469-16.496094-24.742187 0-41.238281 16.496094-57.730468-8.246093-16.496094-24.742188-8.25-49.484375-8.25-49.484375s115.464844 57.730468 222.683594 8.246094c5.609374-2.554688 10.71875-5.359376 15.421874-8.246094 42.96875-26.226563 50.0625-63.09375 50.804688-80.742188.246094-6.183594-.25-9.980468-.25-9.980468s24.746094 0 41.238281-8.246094c16.496094-8.246094 32.992188-24.742188 32.992188-24.742188s8.246093 24.742188 8.246093 41.234375zm0 0" fill="#f7c5b9"/></svg>