<svg height="512pt" viewBox="0 0 512 512" width="512pt" xmlns="http://www.w3.org/2000/svg"><path d="m149.882812 322.066406c-9.804687 0-17.753906-7.949218-17.753906-17.753906v-40.054688h33.03125l1.792969 35.175782c3.242187 11.339844-5.273437 22.632812-17.070313 22.632812zm0 0" fill="#49230d"/><path d="m362.117188 322.066406c9.804687 0 17.753906-7.949218 17.753906-17.753906v-40.054688h-33.03125l-1.792969 35.175782c-3.242187 11.339844 5.273437 22.632812 17.070313 22.632812zm0 0" fill="#49230d"/><path d="m363.355469 222.96875-8.753907 40.710938-12.800781 59.789062c-2.148437 9.910156-6.605469 19.160156-13.128906 27.003906l-14.453125 17.34375-10.15625 12.136719c-4.460938 5.453125-9.828125 9.992187-15.855469 13.625-9.910156 5.949219-21.058593 8.921875-32.207031 8.921875s-22.296875-2.972656-32.207031-8.921875c-6.027344-3.632813-11.398438-8.171875-15.855469-13.625l-10.15625-12.136719-14.453125-17.34375c-6.523437-7.84375-10.984375-17.09375-13.128906-27.003906l-12.800781-59.789062-8.753907-40.710938.992188-3.550781c4.871093-17.09375 13.707031-32.453125 25.433593-45.007813 11.726563-12.636718 26.425782-22.460937 43.105469-28.574218 12.222657-4.457032 25.023438-6.605469 37.824219-6.605469 12.796875 0 25.597656 2.148437 37.820312 6.605469 16.679688 6.113281 31.378907 15.9375 43.105469 28.574218 11.726563 12.554688 20.5625 27.914063 25.433594 45.007813zm0 0" fill="#56331d"/><path d="m206.453125 322.066406c0 9.121094-7.394531 16.515625-16.519531 16.515625-9.121094 0-16.515625-7.394531-16.515625-16.515625 0-9.125 7.394531-16.519531 16.515625-16.519531 9.125 0 16.519531 7.394531 16.519531 16.519531zm0 0" fill="#f40e34"/><path d="m338.582031 322.066406c0 9.121094-7.394531 16.515625-16.515625 16.515625-9.125 0-16.519531-7.394531-16.519531-16.515625 0-9.125 7.394531-16.519531 16.519531-16.519531 9.121094 0 16.515625 7.394531 16.515625 16.519531zm0 0" fill="#f40e34"/><path d="m256 115.613281-115.613281 24.773438-44.34375 51.695312-21.71875-43.4375 49.546875-74.320312 12.054687 3.796875zm0 0" fill="#817613"/><path d="m318.515625 97.195312-62.515625 18.417969-120.074219-37.492187 45.75-53.347656 27.75 14.699218.578125.332032 45.996094 24.277343 1.734375.992188h.082031zm0 0" fill="#6e6b23"/><path d="m383.585938 78.039062-65.070313 19.15625-60.699219-32.121093h-.082031l-1.734375-.992188 45.996094-24.277343.578125-.332032 27.75-14.699218zm0 0" fill="#605b18"/><path d="m313.804688 33.03125-11.230469 6.441406-.578125.332032-45.996094 24.277343-45.996094-24.277343-.578125-.332032-11.230469-6.441406 57.804688-33.03125zm0 0" fill="#c9bd0a"/><path d="m256 330.324219c-1.265625 0-2.53125-.292969-3.695312-.871094l-16.515626-8.257813 7.386719-14.777343 12.824219 6.414062 7.597656-3.796875-7.535156-60.269531 16.386719-2.046875 8.261719 66.066406c.433593 3.472656-1.371094 6.84375-4.5 8.410156l-16.519532 8.257813c-1.160156.578125-2.425781.871094-3.691406.871094zm0 0" fill="#30190c"/><path d="m272.515625 239.484375v-16.515625c9.902344 0 19.589844-1.863281 28.789063-5.546875l15.105468-6.042969c9.652344-3.855468 20.660156-1.605468 28.007813 5.75l-11.675781 11.679688c-2.679688-2.671875-6.664063-3.5-10.203126-2.089844l-15.105468 6.039062c-11.152344 4.460938-22.902344 6.726563-34.917969 6.726563zm0 0" fill="#caaa77"/><path d="m322.066406 264.257812c0 9.121094-7.394531 16.515626-16.519531 16.515626-9.121094 0-16.515625-7.394532-16.515625-16.515626 0-9.121093 7.394531-16.515624 16.515625-16.515624 9.125 0 16.519531 7.394531 16.519531 16.515624zm0 0"/><path d="m239.484375 239.484375c-12.015625 0-23.765625-2.265625-34.917969-6.726563l-15.105468-6.039062c-3.550782-1.417969-7.53125-.589844-10.203126 2.089844l-11.675781-11.679688c7.355469-7.355468 18.339844-9.605468 28.007813-5.75l15.105468 6.042969c9.199219 3.683594 18.886719 5.546875 28.789063 5.546875zm0 0" fill="#caaa77"/><path d="m222.96875 264.257812c0 9.121094-7.394531 16.515626-16.515625 16.515626-9.125 0-16.519531-7.394532-16.519531-16.515626 0-9.121093 7.394531-16.515624 16.519531-16.515624 9.121094 0 16.515625 7.394531 16.515625 16.515624zm0 0"/><path d="m272.515625 379.871094h-33.03125c-13.664063 0-24.777344-11.113282-24.777344-24.773438h16.519531c0 4.554688 3.699219 8.257813 8.257813 8.257813h33.03125c4.558594 0 8.257813-3.703125 8.257813-8.257813h16.515624c0 13.660156-11.113281 24.773438-24.773437 24.773438zm0 0" fill="#f19a67"/><path d="m247.742188 322.066406h16.515624v24.773438h-16.515624zm0 0" fill="#30190c"/><path d="m256 363.355469c-1.597656 0-3.195312-.460938-4.582031-1.386719l-20.789063-13.855469-12.226562 6.113281-7.386719-14.773437 16.515625-8.261719c2.664062-1.320312 5.808594-1.117187 8.277344.519532l20.191406 13.457031 20.195312-13.457031c2.457032-1.636719 5.621094-1.839844 8.273438-.519532l16.515625 8.261719-7.386719 14.773437-12.226562-6.113281-20.789063 13.855469c-1.390625.925781-2.984375 1.386719-4.582031 1.386719zm0 0" fill="#f19a67"/><path d="m256 115.613281v23.617188c-12.800781 0-25.601562 2.148437-37.820312 6.605469-16.683594 6.113281-31.382813 15.9375-43.109376 28.574218-11.726562 12.554688-20.5625 27.914063-25.433593 45.007813l-.992188 3.550781 8.753907 40.710938-.496094.578124h-24.773438l-41.289062-66.0625 5.203125-6.113281 44.34375-51.695312zm0 0" fill="#e1d307"/><path d="m437.675781 148.644531-27.085937 54.171875-38.976563-62.429687-115.613281-24.773438 62.515625-18.417969 65.070313-19.15625 12.800781-3.714843zm0 0" fill="#817613"/><path d="m412.902344 206.453125-33.03125 57.804687h-24.773438l-.496094-.578124 8.753907-40.710938-.992188-3.550781c-4.871093-17.097657-13.707031-32.457031-25.433593-45.007813-11.726563-12.636718-26.425782-22.464844-43.109376-28.574218-12.222656-4.460938-25.019531-6.605469-37.820312-6.605469v-23.617188l115.613281 24.773438 38.976563 62.429687zm0 0" fill="#c9bd0a"/><path d="m148.644531 305.546875-49.546875 90.839844 49.546875 16.515625zm0 0" fill="#d3c209"/><path d="m380.367188 459.726562-66.5625 52.273438h-115.609376l-66.5625-52.273438 17.34375-1.652343c23.78125-2.230469 42.527344-21.058594 44.675782-44.839844l4.128906-45.421875 10.15625 12.140625c4.460938 5.449219 9.828125 9.992187 15.855469 13.625 9.910156 5.945313 21.058593 8.921875 32.207031 8.921875s22.296875-2.972656 32.207031-8.921875c6.027344-3.632813 11.398438-8.175781 15.855469-13.625l10.15625-12.140625 4.128906 45.421875c2.148438 23.78125 20.894532 42.609375 44.675782 44.839844zm0 0" fill="#49230d"/><path d="m470.710938 429.417969-54.007813 33.777343-78.121094 48.804688h-24.777343l66.5625-52.273438 49.050781-38.566406 16.515625-24.773437zm0 0" fill="#00492c"/><path d="m512 454.191406v57.808594h-173.417969l78.121094-48.804688 54.007813-33.777343 24.773437-24.773438zm0 0" fill="#a2b427"/><path d="m198.195312 512h-24.777343l-78.121094-48.804688-54.007813-33.777343 24.773438-33.03125 16.519531 24.773437 49.050781 38.566406zm0 0" fill="#00492c"/><path d="m173.417969 512h-173.417969v-57.808594l16.515625-49.546875 24.773437 24.773438 54.007813 33.777343zm0 0" fill="#a2b427"/><path d="m363.355469 305.546875 49.546875 90.839844-49.546875 16.515625zm0 0" fill="#d3c209"/><g fill="#fff"><path d="m130.953125 202.441406-14.164063-8.496094 26.535157-44.226562 36.351562-9.082031 4 16.015625-29.707031 7.4375zm0 0"/><path d="m100.746094 135.433594 24.765625-33.035156 13.210937 9.902343-24.765625 33.035157zm0 0"/><path d="m162.742188 88.417969-11.675782-11.675781 28.980469-28.984376 38.355469 19.179688-7.386719 14.773438-27.710937-13.855469zm0 0"/><path d="m219.269531 33.90625 16.515625-8.257812 7.386719 14.773437-16.515625 8.257813zm0 0"/><path d="m406.03125 136.710938-13.015625-19.527344-18.789063 6.261718-5.226562-15.664062 30.757812-10.257812 20.015626 30.023437zm0 0"/><path d="m378.484375 235.804688-13.742187-9.160157 13.460937-20.191406-13.460937-20.195313 13.742187-9.160156 19.570313 29.355469zm0 0"/><path d="m339.441406 152.339844 14.773438-7.386719 8.257812 16.515625-14.773437 7.386719zm0 0"/><path d="m316.222656 55.390625 11.679688-11.679687 16.515625 16.515624-11.679688 11.679688zm0 0"/><path d="m95.742188 494.773438-51.6875-22.96875c-2.457032-1.113282-5.183594-.894532-7.457032.589843-2.269531 1.46875-3.566406 3.871094-3.566406 6.574219h-16.515625c0-8.285156 4.144531-15.914062 11.089844-20.429688 6.953125-4.515624 15.605469-5.183593 23.160156-1.828124l51.6875 22.964843zm0 0"/><path d="m111.902344 502.867188 7.390625-14.773438 16.515625 8.257812-7.390625 14.773438zm0 0"/></g><path d="m214.710938 264.257812c0 4.5625-3.699219 8.257813-8.257813 8.257813-4.5625 0-8.257813-3.695313-8.257813-8.257813s3.695313-8.257812 8.257813-8.257812c4.558594 0 8.257813 3.695312 8.257813 8.257812zm0 0" fill="#30190c"/><path d="m313.804688 264.257812c0 4.5625-3.695313 8.257813-8.257813 8.257813-4.558594 0-8.257813-3.695313-8.257813-8.257813s3.699219-8.257812 8.257813-8.257812c4.5625 0 8.257813 3.695312 8.257813 8.257812zm0 0" fill="#30190c"/><path d="m206.453125 260.128906c0 2.28125-1.851563 4.128906-4.128906 4.128906-2.28125 0-4.128907-1.847656-4.128907-4.128906s1.847657-4.128906 4.128907-4.128906c2.277343 0 4.128906 1.847656 4.128906 4.128906zm0 0" fill="#fff"/><path d="m305.546875 260.128906c0 2.28125-1.847656 4.128906-4.128906 4.128906-2.277344 0-4.128907-1.847656-4.128907-4.128906s1.851563-4.128906 4.128907-4.128906c2.28125 0 4.128906 1.847656 4.128906 4.128906zm0 0" fill="#fff"/></svg>