<svg height="512pt" viewBox="0 0 512 512" width="512pt" xmlns="http://www.w3.org/2000/svg"><path d="m110.328125 313.804688c5.863281 5.121093 13.460937 8.261718 21.800781 8.261718h-16.515625c-18.25 0-33.035156 14.78125-33.035156 33.03125-9.082031 0-17.339844 3.714844-23.371094 9.660156-5.945312 6.03125-9.660156 14.289063-9.660156 23.371094v-74.320312c0-26.097656 20.234375-47.484375 45.832031-49.382813 1.15625 1.238281 2.394532 2.476563 3.71875 3.632813v20.972656c0 9.910156 4.375 18.746094 11.230469 24.773438zm0 0" fill="#00bcda"/><path d="m462.449219 313.804688v74.324218c0-9.082031-3.714844-17.34375-9.660157-23.371094-6.027343-5.945312-14.285156-9.660156-23.371093-9.660156 0-18.25-14.78125-33.035156-33.03125-33.035156h-16.515625c18.25 0 33.03125-14.78125 33.03125-33.03125v-20.976562c.660156-.578126 1.320312-1.15625 1.980468-1.816407.578126-.578125 1.160157-1.15625 1.734376-1.816406 25.601562 1.902344 45.832031 23.289063 45.832031 49.382813zm0 0" fill="#00bcda"/><path d="m132.128906 280.773438c-12.71875 0-24.277344-4.789063-33.03125-12.714844v20.972656c0 9.910156 4.375 18.746094 11.230469 24.773438 5.863281 5.121093 13.460937 8.261718 21.800781 8.261718h8.257813v-41.292968zm0 0" fill="#ffd5b6"/><path d="m379.871094 280.773438c12.71875 0 24.277344-4.789063 33.03125-12.714844v20.972656c0 9.910156-4.375 18.746094-11.230469 24.773438-5.863281 5.121093-13.460937 8.261718-21.800781 8.261718h-8.257813v-41.292968zm0 0" fill="#ffd5b6"/><path d="m115.613281 57.804688s41.289063-57.804688 140.386719-57.804688 140.386719 57.804688 140.386719 57.804688l-24.773438 33.035156-99.097656-24.777344-8.257813-33.03125h-16.515624l-8.257813 33.03125-99.097656 24.777344zm0 0" fill="#ffef00"/><path d="m115.613281 57.804688v90.839843l24.773438-16.515625v-41.289062zm0 0" fill="#008599"/><path d="m140.386719 90.839844v24.773437l99.097656-16.515625v-33.035156zm0 0" fill="#00bcda"/><path d="m396.386719 57.804688v90.839843l-24.773438-16.515625v-41.289062zm0 0" fill="#008599"/><path d="m371.613281 90.839844v24.773437l-99.097656-16.515625v-33.035156zm0 0" fill="#00bcda"/><path d="m247.742188 33.03125-8.257813 33.03125v16.519531h33.03125v-16.519531l-8.257813-33.03125zm0 0" fill="#008599"/><path d="m462.449219 181.675781c0 27.335938-22.210938 49.550781-49.546875 49.550781h-33.03125v-33.035156h-12.386719c-15.9375 0-28.90625-12.964844-28.90625-28.902344 0-6.855468-5.53125-12.386718-12.386719-12.386718h-8.257812c-6.851563 0-12.386719 5.53125-12.386719 12.386718 0 6.855469-5.53125 12.386719-12.386719 12.386719h-8.257812c-6.855469 0-12.386719-5.53125-12.386719-12.386719 0-6.855468-5.535156-12.386718-12.386719-12.386718h-8.257812c-6.855469 0-12.390625 5.53125-12.390625 12.386718 0 6.855469-5.53125 12.386719-12.386719 12.386719h-8.257812c-6.851563 0-12.386719-5.53125-12.386719-12.386719 0-6.855468-5.53125-12.386718-12.386719-12.386718h-8.257812c-6.855469 0-12.386719 5.53125-12.386719 12.386718 0 7.925782-3.222657 15.195313-8.507813 20.398438-5.203125 5.285156-12.46875 8.503906-20.398437 8.503906h-12.386719v33.035156h-33.027344c-27.335937 0-49.546875-22.214843-49.546875-49.550781h33.03125c0-9.082031 3.714844-17.339843 9.660157-23.367187 6.03125-5.949219 14.289062-9.664063 23.371093-9.664063l24.773438-16.515625v-16.515625l99.097656-16.515625v-16.515625h33.035156v16.515625l99.09375 16.515625v16.515625l24.777344 16.515625c9.082031 0 17.339844 3.71875 23.367187 9.664063 5.949219 6.027344 9.664063 14.285156 9.664063 23.371094h33.027344zm0 0" fill="#f26722"/><path d="m379.871094 198.195312v113.546876c0 34.601562-32.539063 60.035156-66.066406 51.613281 0 9.082031-3.714844 17.339843-9.660157 23.367187-6.027343 5.945313-14.285156 9.664063-23.371093 9.664063h-49.546876c-18.25 0-33.03125-14.78125-33.03125-33.035157-4.378906 1.074219-8.753906 1.652344-13.050781 1.652344-25.019531 0-47.152343-18.003906-52.023437-42.941406-.664063-3.304688-.992188-6.769531-.992188-10.320312v-113.546876h12.386719c7.929687 0 15.195313-3.222656 20.398437-8.507812 5.285157-5.203125 8.503907-12.550781 8.503907-20.5625 0-6.773438 5.617187-12.222656 12.386719-12.222656h7.679687c6.855469 0 13.132813 5.285156 12.96875 12.054687-.167969 7.023438 5.449219 12.71875 12.386719 12.71875h7.679687c6.851563 0 13.128907-5.285156 12.964844-12.058593-.164063-7.015626 5.449219-12.714844 12.386719-12.714844h7.679687c6.855469 0 13.128907 5.285156 12.964844 12.054687-.164063 7.019531 5.453125 12.71875 12.386719 12.71875h7.679687c6.855469 0 13.132813-5.285156 12.96875-12.058593-.167969-7.019532 5.449219-12.714844 12.386719-12.714844h8.257812c6.6875 0 12.46875 5.285156 12.386719 11.972656-.25 16.101562 12.800781 29.316406 28.902344 29.316406h12.386719zm0 0" fill="#f5e0cd"/><path d="m206.453125 264.257812h-16.519531c0-4.558593-3.699219-8.257812-8.257813-8.257812-4.554687 0-8.257812 3.699219-8.257812 8.257812h-16.515625c0-13.660156 11.113281-24.773437 24.773437-24.773437 13.664063 0 24.777344 11.113281 24.777344 24.773437zm0 0" fill="#4a3222"/><path d="m231.226562 264.257812h16.515626v33.03125h-16.515626c-9.121093 0-16.515624-7.394531-16.515624-16.515624 0-9.121094 7.394531-16.515626 16.515624-16.515626zm0 0" fill="#f29a77"/><path d="m297.289062 280.773438c0 9.121093-7.394531 16.515624-16.515624 16.515624h-16.515626v-33.03125h16.515626c9.121093 0 16.515624 7.394532 16.515624 16.515626zm0 0" fill="#f29a77"/><path d="m256 363.355469c-18.21875 0-33.03125-14.816407-33.03125-33.035157 0-4.5625 3.691406-8.257812 8.257812-8.257812h49.546876c4.5625 0 8.257812 3.695312 8.257812 8.257812 0 18.21875-14.8125 33.035157-33.03125 33.035157zm-14.296875-24.773438c2.851563 4.933594 8.191406 8.257813 14.296875 8.257813s11.445312-3.324219 14.300781-8.257813zm0 0" fill="#f8a17a"/><path d="m156.902344 222.96875c7.9375-23.808594 41.613281-23.808594 49.546875 0zm0 0" fill="#f26722"/><path d="m355.097656 264.257812h-16.519531c0-4.558593-3.699219-8.257812-8.257813-8.257812-4.554687 0-8.257812 3.699219-8.257812 8.257812h-16.515625c0-13.660156 11.113281-24.773437 24.773437-24.773437 13.664063 0 24.777344 11.113281 24.777344 24.773437zm0 0" fill="#4a3222"/><path d="m355.097656 222.96875c-7.9375-23.808594-41.613281-23.808594-49.550781 0zm0 0" fill="#f26722"/><path d="m256 396.386719v57.804687l-206.453125-66.0625c0-9.082031 3.71875-17.34375 9.664063-23.371094 6.027343-5.945312 14.285156-9.660156 23.371093-9.660156 0-18.25 14.78125-33.035156 33.03125-33.035156h17.507813c4.871094 24.941406 27.003906 42.941406 52.023437 42.941406 4.296875 0 8.671875-.578125 13.050781-1.648437 0 1.648437.082032 3.21875.410157 4.789062.085937.824219.167969 1.648438.414062 2.394531.414063 1.980469.992188 3.796876 1.816407 5.617188.332031.824219.660156 1.648438 1.15625 2.476562.082031.246094.164062.410157.332031.660157.328125.660156.742187 1.320312 1.15625 1.898437.414062.660156.824219 1.320313 1.320312 1.898438.578125.828125 1.238281 1.652344 1.984375 2.398437.082032.164063.246094.246094.328125.410157.746094.828124 1.488281 1.570312 2.3125 2.230468.746094.660156 1.488281 1.238282 2.3125 1.816406.660157.496094 1.320313.992188 2.066407 1.488282 5.035156 3.136718 11.0625 4.953125 17.421874 4.953125zm0 0" fill="#ffef00"/><path d="m79.410156 362.710938 6.351563-15.242188 99.097656 41.285156-6.347656 15.246094zm0 0" fill="#00bcda"/><path d="m462.449219 388.128906-206.449219 66.0625v-57.804687h24.773438c6.359374 0 12.386718-1.816407 17.425781-4.953125.742187-.496094 1.402343-.992188 2.0625-1.488282.828125-.578124 1.570312-1.15625 2.3125-1.816406.828125-.742187 1.570312-1.402344 2.3125-2.230468.082031-.164063.25-.246094.332031-.410157.742188-.746093 1.402344-1.570312 1.980469-2.398437.496093-.578125.910156-1.238282 1.324219-1.898438.410156-.578125.824218-1.238281 1.15625-1.898437.164062-.25.246093-.414063.328124-.660157.496094-.828124.828126-1.652343 1.15625-2.476562.828126-1.820312 1.40625-3.636719 1.816407-5.617188.25-.746093.332031-1.570312.414062-2.394531.332031-1.570312.414063-3.140625.414063-4.789062 4.375 1.074219 8.753906 1.648437 13.046875 1.648437 1.570312 0 3.136719-.082031 4.625-.246094.992187-.082031 1.980469-.164062 2.972656-.332031.90625-.082031 1.734375-.246093 2.640625-.492187.167969 0 .332031 0 .578125-.085938 1.238281-.246094 2.480469-.578125 3.71875-.90625.742187-.25 1.570313-.496094 2.3125-.746094.90625-.328124 1.816406-.660156 2.722656-1.074218 1.324219-.492188 2.5625-1.070313 3.800781-1.730469.742188-.25 1.484376-.660156 2.226563-1.074219 5.453125-3.054687 10.324219-7.019531 14.371094-11.726562.90625-.992188 1.648437-1.984375 2.394531-2.972656.246094-.25.496094-.578126.742188-.910157.496093-.660156.992187-1.484375 1.488281-2.230469.578125-.824218 1.074219-1.648437 1.484375-2.558593.25-.246094.414062-.578125.578125-.90625.578125-1.074219 1.15625-2.230469 1.652343-3.46875.578126-1.238281 1.15625-2.476563 1.570313-3.800781.328125-.90625.660156-1.898438.90625-2.804688.167969-.414062.25-.828125.332031-1.15625.332032-1.238281.660156-2.480469.910156-3.71875h17.507813c18.25 0 33.03125 14.78125 33.03125 33.035156 9.082031 0 17.339844 3.714844 23.371094 9.660156 5.941406 6.027344 9.65625 14.289063 9.65625 23.371094zm0 0" fill="#f4dd06"/><path d="m327.144531 388.789062 99.089844-41.3125 6.351563 15.242188-99.085938 41.3125zm0 0" fill="#00bcda"/><path d="m95.378906 264.421875c-25.597656 1.902344-45.832031 23.289063-45.832031 49.382813v82.582031c0 13.707031-11.066406 24.773437-24.773437 24.773437-6.855469 0-13.046876-2.808594-17.507813-7.265625-4.457031-4.460937-7.265625-10.652343-7.265625-17.507812v-66.0625c0-49.136719 35.757812-89.929688 82.664062-97.695313.246094 12.222656 5.035157 23.371094 12.714844 31.792969zm0 0" fill="#008599"/><path d="m512 330.324219v66.0625c0 6.855469-2.808594 13.046875-7.265625 17.507812-4.460937 4.457031-10.65625 7.265625-17.507813 7.265625-13.710937 0-24.777343-11.066406-24.777343-24.773437v-82.582031c0-26.09375-20.230469-47.480469-45.832031-49.382813.164062-.164063.25-.328125.414062-.496094.742188-.824219 1.488281-1.648437 2.148438-2.558593.660156-.90625 1.402343-1.816407 1.980468-2.808594.578125-.824219 1.15625-1.648438 1.570313-2.558594 1.484375-2.394531 2.640625-4.953125 3.632812-7.597656.332031-.824219.578125-1.734375.824219-2.558594.910156-2.808594 1.488281-5.699219 1.816406-8.671875.167969-1.488281.332032-2.972656.332032-4.542969 46.90625 7.761719 82.664062 48.558594 82.664062 97.695313zm0 0" fill="#008599"/><path d="m512 396.386719v115.613281h-512v-115.613281c0 6.855469 2.808594 13.046875 7.265625 17.507812 4.460937 4.457031 10.652344 7.265625 17.507813 7.265625 13.710937 0 24.777343-11.066406 24.777343-24.773437v-8.257813l206.449219 66.0625 206.453125-66.0625v8.257813c0 13.707031 11.066406 24.773437 24.773437 24.773437 6.855469 0 13.046876-2.808594 17.507813-7.265625 4.457031-4.460937 7.265625-10.652343 7.265625-17.507812zm0 0" fill="#ee3124"/><path d="m198.195312 412.902344h16.515626v74.324218h-16.515626zm0 0" fill="#00bcda"/><path d="m297.289062 412.902344h16.515626v74.324218h-16.515626zm0 0" fill="#00bcda"/><path d="m198.195312 313.804688c0 13.683593-11.09375 24.777343-24.777343 24.777343-13.679688 0-24.773438-11.09375-24.773438-24.777343 0-13.679688 11.09375-24.773438 24.773438-24.773438 13.683593 0 24.777343 11.09375 24.777343 24.773438zm0 0" fill="#f40e34"/><path d="m363.355469 313.804688c0 13.683593-11.09375 24.777343-24.773438 24.777343-13.683593 0-24.777343-11.09375-24.777343-24.777343 0-13.679688 11.09375-24.773438 24.777343-24.773438 13.679688 0 24.773438 11.09375 24.773438 24.773438zm0 0" fill="#f40e34"/><path d="m182.832031 32.386719-6.40625-15.226563c6.421875-2.699218 13.035157-4.957031 19.65625-6.707031l4.222657 15.964844c-5.886719 1.558593-11.757813 3.566406-17.472657 5.96875zm0 0" fill="#fff"/><path d="m150.03125 78.902344-16.515625-24.773438c-2.183594-3.273437-1.75-7.636718 1.03125-10.417968.527344-.535157 13.1875-13.058594 35.316406-23.605469l7.113281 14.902343c-11.808593 5.628907-20.597656 11.917969-25.6875 16l12.484376 18.734376zm0 0" fill="#fff"/><path d="m346.839844 512 70.902344-12.511719c43.0625-7.601562 78.902343-37.382812 94.257812-78.328125v90.839844zm0 0" fill="#b21612"/><path d="m165.160156 512-70.902344-12.511719c-43.0625-7.601562-78.902343-37.382812-94.257812-78.328125v90.839844zm0 0" fill="#b21612"/><g fill="#fff"><path d="m107.355469 198.195312h-16.515625c0-22.769531 18.523437-41.292968 41.289062-41.292968h8.257813v16.515625h-8.257813c-13.660156 0-24.773437 11.113281-24.773437 24.777343zm0 0"/><path d="m173.417969 148.644531h-16.515625c0-13.566406 9.683594-25.167969 23.03125-27.597656l58.339844-10.601563c5.484374-1 9.46875-5.777343 9.46875-11.347656h16.515624c0 13.5625-9.683593 25.167969-23.03125 27.59375l-58.339843 10.605469c-5.484375 1-9.46875 5.777344-9.46875 11.347656zm0 0"/><path d="m355.097656 148.644531h-16.519531c0-5.574219-3.980469-10.347656-9.464844-11.339843l-58.339843-10.621094c-13.347657-2.417969-23.03125-14.023438-23.03125-27.585938h16.515624c0 5.570313 3.984376 10.347656 9.46875 11.335938l58.335938 10.621094c13.347656 2.421874 23.035156 14.027343 23.035156 27.589843zm0 0"/><path d="m16.515625 388.128906h16.515625v16.515625h-16.515625zm0 0"/><path d="m33.03125 371.613281h-16.515625v-57.121093c0-33.160157 23.742187-61.1875 56.453125-66.636719.441406-.074219.902344-.113281 1.355469-.113281h24.773437v16.515624h-24.066406c-24.378906 4.378907-42 25.402344-42 50.234376zm0 0"/><path d="m478.96875 388.128906h16.515625v16.515625h-16.515625zm0 0"/><path d="m495.484375 371.613281h-16.515625v-57.121093c0-24.832032-17.621094-45.855469-42-50.234376h-24.066406v-16.515624h24.773437c.453125 0 .914063.039062 1.355469.113281 32.710938 5.449219 56.453125 33.472656 56.453125 66.636719zm0 0"/></g><path d="m132.128906 222.96875v57.804688c-12.71875 0-24.277344-4.789063-33.03125-12.714844-1.320312-1.15625-2.558594-2.398438-3.71875-3.636719-7.679687-8.421875-12.46875-19.570313-12.714844-31.792969-.082031-.496094-.082031-9.164062-.082031-9.660156zm0 0" fill="#f26722"/><path d="m429.417969 222.96875c0 .496094 0 9.25-.082031 9.660156 0 1.570313-.164063 3.054688-.328126 4.542969-.332031 2.972656-.910156 5.863281-1.816406 8.671875-.25.824219-.496094 1.734375-.828125 2.558594-.988281 2.640625-2.144531 5.203125-3.632812 7.597656-.414063.910156-.992188 1.734375-1.570313 2.558594-.578125.992187-1.320312 1.902344-1.980468 2.808594-.660157.910156-1.40625 1.734374-2.148438 2.558593-.164062.167969-.246094.332031-.410156.496094-.578125.664063-1.160156 1.238281-1.734375 1.816406-.664063.664063-1.324219 1.238281-1.984375 1.820313-1.074219.988281-2.230469 1.898437-3.382813 2.804687-1.074219.828125-2.148437 1.570313-3.304687 2.230469-.25.246094-.496094.414062-.824219.578125-1.160156.660156-2.230469 1.320313-3.46875 1.898437-1.242187.664063-2.5625 1.238282-3.882813 1.734376-1.238281.496093-2.558593.992187-3.882812 1.324218-.742188.246094-1.484375.492188-2.226562.578125-.910157.328125-1.820313.492188-2.726563.660157-3.054687.578124-6.195313.90625-9.332031.90625v-57.804688zm0 0" fill="#f26722"/><path d="m379.871094 264.257812v-16.515624c9.105468 0 16.515625-7.414063 16.515625-16.515626v-8.257812c0-4.566406 3.695312-8.261719 8.257812-8.261719 13.664063 0 24.773438-11.109375 24.773438-24.773437h16.519531c0 19.945312-14.210938 36.621094-33.035156 40.460937v.832031c0 18.21875-14.8125 33.03125-33.03125 33.03125zm0 0" fill="#fff"/><path d="m132.128906 264.257812c-18.21875 0-33.03125-14.8125-33.03125-33.03125v-.832031c-18.824218-3.839843-33.035156-20.515625-33.035156-40.460937h16.519531c0 13.664062 11.109375 24.773437 24.773438 24.773437 4.5625 0 8.257812 3.695313 8.257812 8.261719v8.257812c0 9.101563 7.410157 16.515626 16.515625 16.515626zm0 0" fill="#fff"/><path d="m305.546875 355.097656c0 4.558594-3.695313 8.257813-8.257813 8.257813-4.558593 0-8.257812-3.699219-8.257812-8.257813 0-4.5625 3.699219-8.257812 8.257812-8.257812 4.5625 0 8.257813 3.695312 8.257813 8.257812zm0 0" fill="#4a3222"/><path d="m272.515625 231.226562v57.804688c0 9.121094-7.394531 16.515625-16.515625 16.515625s-16.515625-7.394531-16.515625-16.515625v-57.804688zm0 0" fill="#f8a17a"/><path d="m272.515625 289.03125c0 4.5625-3.695313 8.257812-8.257813 8.257812s-8.257812-3.695312-8.257812-8.257812c0-4.558594 3.695312-8.257812 8.257812-8.257812s8.257813 3.699218 8.257813 8.257812zm0 0" fill="#fff"/></svg>