<svg height="512pt" viewBox="0 0 512 512" width="512pt" xmlns="http://www.w3.org/2000/svg"><path d="m355.097656 206.453125c0-18.25-14.78125-33.035156-33.035156-33.035156v-57.804688h-49.546875c0 31.957031-25.847656 57.804688-57.804687 57.804688h-24.777344c-10.816406 0-20.3125 5.203125-26.425782 13.132812v.082031c-.246093 1.648438-.660156 3.300782-1.15625 4.871094-.246093.742188-.492187 1.570313-.660156 2.3125-.246094.828125-.578125 1.570313-.824218 2.230469-1.074219 2.972656-2.3125 5.449219-3.800782 7.183594 0 .082031-.082031.164062-.164062.25v44.261719c0 1.816406.082031 3.550781.25 5.285156.988281-5.285156 4.539062-9.742188 9.246094-11.972656 2.148437-.992188 4.542968-1.570313 7.019531-1.570313 8.835937 0 16.023437 6.9375 16.433593 15.691406h.082032v.824219c0 9.082031-7.429688 16.515625-16.515625 16.515625-5.285157 0-9.992188-2.476563-12.964844-6.359375 7.265625 18.25 25.1875 31.132812 45.996094 31.132812v33.035157h-33.03125c0 36.5 29.566406 66.0625 66.066406 66.0625h33.03125c18.25 0 34.765625-7.433594 46.738281-19.324219 11.894532-11.972656 19.324219-28.492188 19.324219-46.738281h-33.03125v-33.035157c20.8125 0 38.648437-12.882812 45.996094-31.050781-3.054688 3.800781-7.761719 6.277344-12.964844 6.277344-9.082031 0-16.515625-7.433594-16.515625-16.515625v-.824219h.082031c.414063-8.753906 7.597657-15.691406 16.433594-15.691406 2.476563 0 4.875.578125 7.019531 1.570313 4.707032 2.230468 8.257813 6.6875 9.25 11.972656.164063-1.734375.246094-3.46875.246094-5.285156v-24.773438h-.824219c.578125-2.644531.824219-5.449219.824219-8.257812v-8.257813zm0 0" fill="#f0beb4"/><path d="m388.128906 189.933594h24.773438c0 15.363281-10.488282 28.328125-24.773438 31.960937-2.640625.742188-5.367187 1.074219-8.257812 1.074219h-25.601563c.578125-2.644531.828125-5.449219.828125-8.257812v-8.257813c0-18.25-14.78125-33.035156-33.035156-33.035156v-57.804688h-49.546875c0 31.957031-25.847656 57.804688-57.804687 57.804688h-24.777344c-10.816406 0-20.3125 5.203125-26.425782 13.132812v.082031c-3.550781 4.707032-5.859374 10.402344-6.441406 16.597657 0 .082031-.082031.164062-.164062.25-6.027344 6.851562-14.863282 11.230469-24.773438 11.230469h-8.257812v16.515624c0 18.25-14.78125 33.03125-33.035156 33.03125v-49.546874h-33.03125c0 6.851562-2.804688 13.046874-7.265626 17.507812-4.460937 4.457031-10.652343 7.265625-17.507812 7.265625v-24.773437c0-18.25 14.78125-33.035157 33.03125-33.035157h8.261719v-24.773437c0-18.25 14.78125-33.03125 33.03125-33.03125h8.257812v-33.03125c0-27.335938 22.214844-49.550782 49.546875-49.550782h16.515625v-8.257812c0-18.25 14.785157-33.03125 33.035157-33.03125h107.355468c18.25 0 33.03125 14.78125 33.03125 33.03125h6.769532c31.710937 0 58.714843 24.859375 59.292968 56.570312.332032 18.746094-33.03125 100.332032-33.03125 100.332032zm0 0" fill="#736357"/><path d="m256 437.675781v74.324219h-148.644531v-57.808594h-107.355469l22.542969-58.632812c5.945312-15.359375 15.195312-29.066406 26.839843-40.214844.082032-.082031.082032-.082031.164063-.164062 11.644531-11.066407 25.683594-19.570313 41.292969-24.859376h82.578125c0 25.519532 0 53.515626 11.148437 74.324219 10.242188 19.324219 29.976563 32.453125 67.964844 31.957031zm0 0" fill="#4c8e1e"/><path d="m24.773438 454.191406-16.515626 57.808594h99.097657v-57.808594zm0 0" fill="#ebe5dd"/><path d="m512 454.191406h-107.355469v57.808594h-148.644531v-74.324219l3.46875-1.074219c37.984375.496094 57.722656-12.632812 67.960938-31.957031 11.148437-20.8125 11.148437-48.804687 11.148437-74.324219h82.582031c15.691406 5.289063 29.8125 13.875 41.453125 25.023438 6.195313 5.945312 11.726563 12.550781 16.351563 19.820312 4.210937 6.359376 7.679687 13.210938 10.488281 20.394532zm0 0" fill="#47821b"/><path d="m487.226562 454.191406 16.515626 57.808594h-99.097657v-57.808594zm0 0" fill="#d4c8b8"/><path d="m338.582031 330.324219c0 25.515625 0 53.511719-11.148437 74.320312-10.242188 19.324219-29.976563 32.453125-67.964844 31.960938l-3.46875 1.070312-3.464844-1.070312c-37.988281.492187-57.726562-12.636719-67.964844-31.960938-11.148437-20.808593-11.148437-48.804687-11.148437-74.320312 0 36.5 29.5625 66.0625 66.0625 66.0625h33.035156c18.25 0 34.765625-7.433594 46.738281-19.324219 11.890626-11.972656 19.324219-28.492188 19.324219-46.738281zm0 0" fill="#ebe5dd"/><path d="m206.453125 297.289062v33.035157h-115.613281c-15.609375 5.285156-29.648438 13.789062-41.292969 24.855469 0-15.9375 6.441406-30.472657 16.929687-40.960938 10.488282-10.484375 25.023438-16.925781 40.960938-16.925781 4.542969 0 8.671875-1.820313 11.640625-4.792969 2.976563-2.972656 4.792969-7.101562 4.792969-11.640625v-66.148437h8.257812c9.910156 0 18.746094-4.378907 24.773438-11.230469v44.261719c0 1.816406.082031 3.550781.25 5.285156.496094 4.625 1.648437 9 3.300781 13.128906 7.269531 18.25 25.1875 31.132812 46 31.132812zm0 0" fill="#534741"/><path d="m478.96875 322.066406v53.097656c-4.625-7.265624-10.160156-13.875-16.351562-19.820312-11.644532-11.148438-25.765626-19.734375-41.457032-25.019531h-115.613281v-33.035157c20.8125 0 38.648437-12.882812 46-31.050781v-.082031c1.648437-4.128906 2.804687-8.421875 3.300781-13.046875 0-.082031 0-.082031 0-.082031.164063-1.734375.25-3.46875.25-5.285156v-24.773438h24.773438c2.890625 0 5.617187-.332031 8.257812-1.074219 0 7.183594 2.890625 13.625 7.597656 18.25 4.625 4.707031 11.066407 7.597657 18.25 7.597657 6.523438 0 12.46875 2.640624 16.761719 6.9375 4.296875 4.292968 6.9375 10.238281 6.9375 16.761718v9.332032c11.398438 0 21.71875 4.625 29.234375 12.058593 7.433594 7.511719 12.058594 17.835938 12.058594 29.234375zm0 0" fill="#534741"/><path d="m272.515625 214.710938v33.03125c0 9.082031-7.433594 16.515624-16.515625 16.515624-4.542969 0-8.671875-1.816406-11.644531-4.871093-3.054688-2.972657-4.871094-7.101563-4.871094-11.644531v-33.03125s0-16.515626 16.515625-16.515626 16.515625 16.515626 16.515625 16.515626zm0 0" fill="#ed539d"/><path d="m189.933594 223.066406-16.515625-.097656c0-9.960938 6.597656-24.773438 24.777343-24.773438 18.175782 0 24.773438 14.8125 24.773438 24.773438h-16.515625c-.097656-3.714844-1.609375-8.257812-8.257813-8.257812-6.652343 0-8.164062 4.542968-8.261718 8.355468zm0 0" fill="#ed539d"/><path d="m305.546875 223.066406-16.515625-.097656c0-9.960938 6.597656-24.773438 24.773438-24.773438 18.179687 0 24.777343 14.8125 24.777343 24.773438h-16.515625c-.097656-3.714844-1.609375-8.257812-8.261718-8.257812-6.648438 0-8.160157 4.542968-8.257813 8.355468zm0 0" fill="#ed539d"/><path d="m256 299.273438c-11.085938 0-22.171875-4.222657-30.613281-12.660157l11.675781-11.675781c10.445312 10.433594 27.429688 10.433594 37.871094 0l11.679687 11.675781c-8.441406 8.4375-19.527343 12.660157-30.613281 12.660157zm0 0" fill="#ed539d"/><path d="m351.546875 266.15625c2.226563-2.808594 3.550781-6.359375 3.550781-10.15625 0-.992188-.085937-1.984375-.25-2.890625-.496094 4.625-1.648437 8.917969-3.300781 13.046875zm0 0" fill="#f00"/><path d="m363.164062 202.582031c-.683593-7.355469-3.285156-14.285156-7.546874-20.199219-.175782-.304687-.371094-.601562-.585938-.878906-8.011719-10.386718-20.027344-16.34375-32.964844-16.34375h-16.519531c-19.9375 0-36.617187 14.210938-40.453125 33.035156h-18.1875c-3.835938-18.824218-20.515625-33.035156-40.453125-33.035156h-16.519531c-12.9375 0-24.953125 5.957032-32.964844 16.34375-.214844.277344-.410156.570313-.585938.878906-4.261718 5.914063-6.863281 12.84375-7.546874 20.199219-.101563 1.292969-.191407 2.582031-.191407 3.871094v8.257813c0 11.5 4.046875 22.722656 11.390625 31.605468 2.394532 2.882813 6.421875 3.816406 9.824219 2.230469 5.382813-2.488281 11.484375 1.445313 11.746094 7.015625.183593 3.871094 3.070312 7.015625 6.765625 7.71875 3.035156.648438 6.339844.976562 9.824218.976562 27.320313 0 49.546876-22.226562 49.546876-49.546874h16.515624c0 27.320312 22.226563 49.546874 49.546876 49.546874 3.484374 0 6.789062-.328124 9.824218-.976562 3.695313-.703125 6.582032-3.847656 6.765625-7.71875.261719-5.570312 6.363281-9.503906 11.746094-7.015625 3.402344 1.585937 7.433594.652344 9.824219-2.230469 7.347656-8.882812 11.390625-20.105468 11.390625-31.605468v-8.257813c0-1.289063-.089844-2.578125-.191407-3.871094zm-131.9375 12.128907c0 18.210937-14.820312 33.03125-33.03125 33.03125-.496093 0-.984374-.007813-1.464843-.027344-3.78125-10.746094-14.992188-18.023438-26.988281-16.207032-3.007813-5.0625-4.582032-10.785156-4.582032-16.796874v-8.257813c0-.859375.074219-1.714844.128906-2.457031.421876-4.488282 2.082032-8.769532 4.8125-12.390625.144532-.1875.277344-.386719.40625-.59375 4.84375-5.941407 11.886719-9.332031 19.425782-9.332031h16.515625c13.664062 0 24.777343 11.113281 24.777343 24.773437zm115.613282 0c0 6.011718-1.574219 11.734374-4.582032 16.796874-11.996093-1.816406-23.207031 5.460938-26.988281 16.207032-.480469.019531-.96875.027344-1.464843.027344-18.210938 0-33.03125-14.820313-33.03125-33.035157v-8.257812c0-13.660157 11.113281-24.773438 24.773437-24.773438h16.515625c7.542969 0 14.582031 3.390625 19.429688 9.335938.128906.203125.261718.402343.40625.59375 2.730468 3.617187 4.390624 7.902343 4.808593 12.390625.058594.742187.128907 1.59375.128907 2.453125v8.261719zm0 0" fill="#f072ae"/><path d="m189.933594 255.175781v.824219c0 9.082031-7.429688 16.515625-16.515625 16.515625-5.285157 0-9.992188-2.476563-12.964844-6.359375-1.652344-4.128906-2.808594-8.503906-3.300781-13.128906.988281-5.285156 4.539062-9.746094 9.246094-11.976563 2.148437-.988281 4.542968-1.566406 7.019531-1.566406 8.835937 0 16.023437 6.9375 16.433593 15.6875h.082032zm0 0" fill="#f40e34"/><path d="m354.847656 253.027344v.082031c-.496094 4.625-1.648437 8.917969-3.300781 13.046875v.082031c-3.054687 3.800781-7.761719 6.277344-12.964844 6.277344-9.085937 0-16.515625-7.433594-16.515625-16.515625v-.824219h.082032c.410156-8.753906 7.597656-15.691406 16.433593-15.691406 2.476563 0 4.871094.578125 7.019531 1.570313 4.707032 2.226562 8.257813 6.6875 9.246094 11.972656zm0 0" fill="#f40e34"/><g fill="#fff"><path d="m156.902344 123.871094h-16.515625v-24.773438c0-18.214844 14.816406-33.035156 33.03125-33.035156v16.519531c-9.109375 0-16.515625 7.40625-16.515625 16.515625zm0 0"/><path d="m107.355469 173.417969h-16.515625c0-18.210938 14.816406-33.03125 33.03125-33.03125v16.515625c-9.109375 0-16.515625 7.40625-16.515625 16.515625zm0 0"/><path d="m189.933594 66.0625h16.519531v16.519531h-16.519531zm0 0"/><path d="m140.386719 140.386719h16.515625v16.515625h-16.515625zm0 0"/><path d="m396.066406 117.882812-15.878906-4.539062c3.226562-11.289062 1.019531-23.144531-6.050781-32.519531-7.074219-9.378907-17.867188-14.757813-29.613281-14.757813h-22.460938v-8.257812c0-9.109375-7.40625-16.519532-16.515625-16.519532v-16.515624c15.363281 0 28.3125 10.546874 31.988281 24.777343h6.988282c16.976562 0 32.578124 7.773438 42.796874 21.324219 10.222657 13.550781 13.414063 30.6875 8.746094 47.007812zm0 0"/><path d="m364.21875 144.960938 8.257812-16.515626 14.773438 7.386719-8.257812 16.515625zm0 0"/></g><path d="m404.644531 388.128906v123.871094h-123.871093c56.75-15.476562 102.011718-58.292969 120.613281-114.097656zm0 0" fill="#2f5e0b"/><path d="m107.355469 454.191406v-57.804687l-57.808594 57.804687zm0 0" fill="#2f5e0b"/><path d="m512 454.191406h-90.839844v-123.867187s41.292969 8.257812 66.066406 57.804687c16.515626 33.03125 24.773438 66.0625 24.773438 66.0625zm0 0" fill="#2f5e0b"/></svg>