<svg height="512pt" viewBox="0 0 512 512" width="512pt" xmlns="http://www.w3.org/2000/svg"><path d="m256 189.933594h-148.644531v-49.546875h98.929687c9.414063 21.882812 26.921875 39.804687 49.714844 49.546875zm0 0" fill="#ebe5dd"/><path d="m404.644531 140.386719v49.546875h-148.644531c22.792969-9.742188 40.300781-27.664063 49.714844-49.546875zm0 0" fill="#ebe5dd"/><path d="m400.597656 237.089844c-2.394531.90625-4.953125 1.898437-7.515625 2.804687-5.777343 2.148438-11.972656 4.296875-18.578125 6.359375-.910156.332032-1.898437.660156-2.890625.910156-2.640625.824219-5.449219 1.648438-8.257812 2.394532-25.929688 7.347656-57.394531 13.210937-93.152344 14.367187-4.625.25-9.414063.332031-14.203125.332031s-9.578125-.082031-14.203125-.332031c-39.640625-1.320312-73.992187-8.339843-101.410156-16.761719-.992188-.25-1.980469-.578124-2.890625-.910156-9.578125-2.972656-18.332032-6.109375-26.09375-9.164062-20.398438-8.09375-22.875-35.839844-4.046875-47.15625h297.289062c18.828125 11.316406 16.351563 39.0625-4.046875 47.15625zm0 0" fill="#1a1a1a"/><path d="m478.96875 113.21875c0 11.808594-5.863281 22.875-15.773438 29.398438l-58.550781 39.0625v-41.292969h-98.929687c5.285156-11.808594 8.089844-24.773438 8.089844-38.152344v-3.136719c-13.707032 0-24.773438-11.066406-24.773438-24.773437l-33.03125-16.515625-33.03125 16.515625c0 13.707031-11.066406 24.773437-24.777344 24.773437v3.136719c0 13.378906 2.808594 26.34375 8.09375 38.152344h-98.929687v41.292969l-58.550781-39.0625c-9.910157-6.523438-15.773438-17.589844-15.773438-29.398438 0-8.835938 3.222656-16.929688 8.671875-23.121094 5.367187-6.195312 12.964844-10.574218 21.636719-11.8125l19.570312-2.804687c42.859375-6.113281 82.996094-24.777344 115.367188-53.515625 8.007812-7.101563 17.09375-12.550782 26.835937-16.265625 9.746094-3.71875 20.234375-5.699219 30.886719-5.699219s21.140625 1.980469 30.882812 5.699219c9.746094 3.714843 18.832032 9.164062 26.839844 16.265625 16.1875 14.371094 34.269532 26.261718 53.761719 35.265625 19.402344 9 40.132813 15.191406 61.601563 18.25l19.574218 2.804687c17.339844 2.480469 30.308594 17.34375 30.308594 34.933594zm0 0" fill="#29485a"/><path d="m222.96875 74.324219c0 13.707031-11.066406 24.773437-24.773438 24.773437v3.136719c0 13.378906 2.804688 26.34375 8.089844 38.152344 9.414063 21.882812 26.921875 39.804687 49.714844 49.546875v-132.128906zm0 0" fill="#ffd422"/><path d="m289.03125 74.324219-33.03125-16.519531v132.128906c22.792969-9.742188 40.300781-27.664063 49.714844-49.546875 5.28125-11.808594 8.089844-24.773438 8.089844-38.152344v-3.136719c-13.707032 0-24.773438-11.066406-24.773438-24.773437zm0 0" fill="#e7b900"/><path d="m181.675781 330.324219c-13.707031 0-24.773437 11.0625-24.773437 24.773437 0 1.074219.082031 2.144532.25 3.21875-.25-.410156-.414063-.742187-.664063-1.074218-.578125-.90625-1.15625-1.816407-1.730469-2.722657-8.507812-13.792969-13.542968-29.5625-14.207031-46.164062 8.835938 13.214843 23.949219 21.96875 41.125 21.96875zm0 0" fill="#ffb398"/><path d="m371.445312 308.355469c-.742187 17.339843-6.191406 35.839843-15.273437 52.027343-1.238281 2.226563-2.5625 4.375-4.046875 6.523438 0 .082031-.082031.164062-.167969.246094-.660156 1.15625-1.484375 2.230468-2.226562 3.304687-.082031.164063-.167969.246094-.332031.410157-8.339844 11.5625-18.746094 21.140624-30.800782 27.253906-19.492187 9.742187-40.878906 31.296875-62.597656 31.296875s-43.105469-21.554688-62.59375-31.296875c-8.671875-4.378906-16.601562-12.386719-23.371094-21.140625 3.46875 1.816406 7.429688 2.890625 11.644532 2.890625 13.707031 0 24.773437-11.066406 24.773437-24.777344 0-13.707031-11.066406-24.773438-24.773437-24.773438h7.59375c24.199218 0 44.84375-17.507812 48.890624-41.371093l3.136719-19.242188c.332031-1.980469.496094-3.882812.496094-5.78125 4.625.25 9.414063.332031 14.203125.332031s9.578125-.082031 14.203125-.332031c0 1.898438.167969 3.800781.496094 5.78125l1.816406 11.066407v.082031l1.324219 8.09375c4.046875 23.863281 24.691406 41.371093 48.886718 41.371093h7.597657c17.175781.003907 32.289062-8.75 41.121093-21.964843zm0 0" fill="#ffb398"/><path d="m256 346.839844c-6.699219 0-12.9375-2.613282-17.5625-7.371094-4.59375-4.476562-7.210938-10.710938-7.210938-17.402344h16.515626c0 2.199219.839843 4.230469 2.378906 5.730469 1.640625 1.679687 3.671875 2.523437 5.878906 2.523437 4.550781 0 8.257812-3.699218 8.257812-8.257812v-57.804688h16.515626v57.804688c0 13.664062-11.113282 24.777344-24.773438 24.777344zm0 0" fill="#e58365"/><path d="m256 379.871094c-1.265625 0-2.53125-.289063-3.695312-.871094l-12.820313-6.414062-12.824219 6.414062-7.386718-14.773438 16.515624-8.261718c2.324219-1.160156 5.066407-1.160156 7.386719 0l12.824219 6.414062 12.824219-6.414062c2.320312-1.160156 5.0625-1.160156 7.386719 0l16.515624 8.261718-7.386718 14.773438-12.824219-6.414062-12.824219 6.414062c-1.160156.582031-2.425781.871094-3.691406.871094zm0 0" fill="#e58365"/><path d="m256 404.644531c-1.265625 0-2.53125-.289062-3.695312-.871093l-16.515626-8.257813 7.386719-14.773437 12.824219 6.410156 12.824219-6.410156 7.386719 14.773437-16.519532 8.257813c-1.160156.582031-2.425781.871093-3.691406.871093zm0 0" fill="#e58365"/><path d="m206.453125 355.097656c0 13.707032-11.066406 24.773438-24.777344 24.773438-4.210937 0-8.175781-1.074219-11.640625-2.890625-6.9375-3.714844-11.894531-10.570313-12.882812-18.664063-.167969-1.074218-.25-2.144531-.25-3.21875 0-13.710937 11.066406-24.777344 24.773437-24.777344 13.710938 0 24.777344 11.066407 24.777344 24.777344zm0 0" fill="#f40e34"/><path d="m355.097656 355.097656c0 13.679688-11.09375 24.773438-24.773437 24.773438-13.683594 0-24.777344-11.09375-24.777344-24.773438 0-13.683594 11.09375-24.777344 24.777344-24.777344 13.679687 0 24.773437 11.09375 24.773437 24.777344zm0 0" fill="#f40e34"/><path d="m407.121094 262.523438-7.183594 28.988281c-2.0625 8.257812-9.496094 14.035156-18.003906 14.035156-2.808594 0-5.449219-.578125-7.761719-1.734375 3.632813-6.851562 5.699219-14.699219 5.699219-23.039062v-16.515626c0-6.605468-1.984375-12.800781-5.367188-18.003906 6.605469-2.0625 12.800782-4.210937 18.578125-6.355468 9.992188 2.144531 16.683594 12.21875 14.039063 22.625zm0 0" fill="#fe946f"/><path d="m104.878906 262.523438 7.183594 28.988281c2.0625 8.257812 9.496094 14.035156 18 14.035156 2.808594 0 5.453125-.578125 7.765625-1.734375-3.632813-6.851562-5.699219-14.699219-5.699219-23.039062v-16.515626c0-6.605468 1.980469-12.800781 5.367188-18.003906-6.605469-2.0625-12.800782-4.210937-18.582032-6.355468-9.992187 2.144531-16.679687 12.21875-14.035156 22.625zm0 0" fill="#fe946f"/><path d="m256 429.417969v41.292969l-115.613281-33.035157 16.101562-80.433593c.25.332031.414063.660156.664063 1.074218.988281 8.09375 5.945312 14.949219 12.882812 18.664063 6.769532 8.753906 14.699219 16.765625 23.367188 21.140625 19.492187 9.746094 40.878906 31.296875 62.597656 31.296875zm0 0" fill="#ffd422"/><path d="m371.613281 437.675781-115.613281 33.035157v-41.292969c21.71875 0 43.105469-21.554688 62.59375-31.296875 15.527344-7.84375 28.410156-21.554688 37.578125-37.738282zm0 0" fill="#e7b900"/><path d="m140.386719 437.675781-140.386719 8.257813v33.035156l140.386719-16.519531zm0 0" fill="#ffd422"/><path d="m371.613281 437.675781 140.386719 8.257813v33.035156l-140.386719-16.519531zm0 0" fill="#e7b900"/><path d="m140.386719 437.675781v24.773438l-140.386719 16.519531v33.03125h256v-41.289062zm0 0" fill="#29485a"/><path d="m371.613281 437.675781v24.773438l140.386719 16.519531v33.03125h-256v-41.289062zm0 0" fill="#1d323d"/><path d="m241.796875 263.925781c0 1.902344-.164063 3.800781-.496094 5.78125l-3.136719 19.242188c-4.046874 23.867187-24.691406 41.371093-48.890624 41.371093h-7.59375c-15.609376 0-29.480469-7.183593-38.402344-18.414062-.992188-1.15625-1.898438-2.3125-2.722656-3.550781-5.371094-7.925781-8.425782-17.34375-8.425782-27.582031v-16.515626c0-6.605468 1.984375-12.800781 5.367188-18.003906.910156.332032 1.898437.660156 2.890625.910156 21.058593 6.441407 46.164062 12.136719 74.652343 14.945313 8.589844.910156 17.507813 1.488281 26.757813 1.816406zm0 0" fill="#322d2b"/><path d="m379.871094 264.257812v16.515626c0 8.339843-2.066406 16.1875-5.699219 23.039062-.824219 1.570312-1.734375 3.054688-2.726563 4.542969-8.835937 13.210937-23.945312 21.964843-41.125 21.964843h-7.59375c-15.445312 0-29.484374-7.101562-38.648437-18.496093-5.203125-6.441407-8.835937-14.203125-10.242187-22.875l-1.320313-8.09375v-.082031l-1.816406-11.066407c-.332031-1.980469-.496094-3.878906-.496094-5.78125 32.042969-1.070312 60.613281-5.859375 84.894531-12.21875 2.804688-.664062 5.53125-1.40625 8.257813-2.148437 2.808593-.742188 5.613281-1.570313 8.257812-2.394532.992188-.25 1.980469-.578124 2.890625-.910156 3.382813 5.203125 5.367188 11.398438 5.367188 18.003906zm0 0" fill="#322d2b"/><path d="m215.039062 262.109375-1.652343 10.324219c-4.046875 23.867187-24.691407 41.371094-48.886719 41.371094h-7.597656c-4.707032 0-9.332032-.660157-13.625-1.898438-.992188-1.15625-1.898438-2.3125-2.722656-3.550781-5.371094-7.925781-8.425782-17.34375-8.425782-27.582031v-16.515626c0-6.605468 1.984375-12.800781 5.367188-18.003906.910156.332032 1.898437.660156 2.890625.910156 21.058593 6.441407 46.164062 12.140626 74.652343 14.945313zm0 0" fill="#999"/><path d="m355.097656 251.707031v12.550781c0 8.339844-2.066406 16.1875-5.699218 23.039063-.828126 1.570313-1.734376 3.054687-2.726563 4.542969-8.835937 13.214844-23.945313 21.964844-41.125 21.964844h-7.597656c-4.789063 0-9.414063-.660157-13.871094-1.980469-5.203125-6.441407-8.839844-14.203125-10.242187-22.875l-1.320313-8.09375v-.082031l-1.816406-11.066407c-.332031-1.980469-.496094-3.878906-.496094-5.78125 32.042969-1.070312 60.613281-5.859375 84.894531-12.21875zm0 0" fill="#999"/><path d="m214.710938 297.289062c0 4.5625-3.699219 8.257813-8.257813 8.257813-4.5625 0-8.257813-3.695313-8.257813-8.257813 0-4.558593 3.695313-8.257812 8.257813-8.257812 4.558594 0 8.257813 3.699219 8.257813 8.257812zm0 0" fill="#fff"/><path d="m355.097656 297.289062c0 4.5625-3.699218 8.257813-8.257812 8.257813-4.5625 0-8.261719-3.695313-8.261719-8.257813 0-4.558593 3.699219-8.257812 8.261719-8.257812 4.558594 0 8.257812 3.699219 8.257812 8.257812zm0 0" fill="#fff"/><path d="m363.355469 189.933594c0 12.671875-8.125 23.921875-20.214844 28-17.984375 6.066406-47.695313 13.292968-87.140625 13.292968s-69.15625-7.226562-87.140625-13.292968c-12.089844-4.078125-20.214844-15.328125-20.214844-28h-16.515625c0 19.757812 12.640625 37.308594 31.453125 43.648437 19.148438 6.457031 50.730469 14.160157 92.417969 14.160157 41.683594 0 73.265625-7.703126 92.414062-14.160157 18.8125-6.339843 31.457032-23.890625 31.457032-43.648437zm0 0" fill="#ffd422"/><g fill="#fff"><path d="m227.546875 48.160156-9.160156-13.742187c6.199219-4.128907 12.042969-7.207031 17.371093-9.144531l5.644532 15.515624c-4.085938 1.492188-8.75 3.96875-13.855469 7.371094zm0 0"/><path d="m74.324219 115.613281h-16.519531c0-6.46875 2.554687-12.5 7.1875-16.976562 4.621093-4.460938 10.714843-6.910157 17.136718-6.589844 18.085938.582031 52.414063-.726563 78.78125-16.546875 21.832032-13.097656 29.378906-19.03125 35.238282-24l10.671874 12.613281c-6.375 5.394531-14.523437 11.8125-37.410156 25.546875-30.003906 18.007813-67.871094 19.636719-87.835937 18.886719-1.953125.015625-3.730469.640625-5.101563 1.960937-1.386718 1.339844-2.148437 3.152344-2.148437 5.105469zm0 0"/><path d="m442.257812 147.257812-9.160156-13.742187 17.585938-11.726563c2.199218-1.46875 3.507812-3.917968 3.507812-6.554687 0-4.347656-3.535156-7.878906-7.878906-7.878906v-16.515625c13.453125 0 24.394531 10.941406 24.394531 24.394531 0 8.175781-4.058593 15.765625-10.863281 20.296875zm0 0"/><path d="m409.195312 149.519531 16.515626-8.257812 7.386718 14.773437-16.515625 8.257813zm0 0"/><path d="m90.839844 454.191406h16.515625v16.519532h-16.515625zm0 0"/><path d="m41.289062 495.484375h-16.515624v-16.515625c0-13.664062 11.113281-24.777344 24.777343-24.777344h24.773438v16.519532h-24.777344c-4.550781 0-8.257813 3.699218-8.257813 8.257812zm0 0"/><path d="m421.160156 454.191406h16.515625v16.519532h-16.515625zm0 0"/><path d="m280.773438 429.417969h16.515624v16.519531h-16.515624zm0 0"/><path d="m214.710938 429.417969h16.515624v16.519531h-16.515624zm0 0"/><path d="m454.191406 454.191406h41.292969v16.519532h-41.292969zm0 0"/><path d="m206.453125 107.355469h16.515625v16.515625h-16.515625zm0 0"/><path d="m256 173.417969c-30.375 0-40.453125-29.175781-40.867188-30.417969l15.652344-5.265625c.269532.78125 6.851563 19.167969 25.214844 19.167969zm0 0"/></g></svg>