<svg height="512pt" viewBox="0 0 512 512" width="512pt" xmlns="http://www.w3.org/2000/svg"><path d="m429.417969 82.582031v66.0625c0 18.25-14.78125 33.03125-33.03125 33.03125h-16.515625c-18.25 0-33.03125-14.78125-33.03125-33.03125v-57.804687c0-13.710938-11.066406-24.777344-24.777344-24.777344h-41.289062c-6.855469 0-13.046876 2.808594-17.507813 7.269531-4.460937 4.457031-7.265625 10.652344-7.265625 17.507813 0-6.855469-2.808594-13.050782-7.269531-17.507813-4.457031-4.460937-10.652344-7.269531-17.507813-7.269531h-41.289062c-13.707032 0-24.773438 11.066406-24.773438 24.777344v57.804687c0 18.25-14.78125 33.03125-33.035156 33.03125h-16.515625c-18.25 0-33.03125-14.78125-33.03125-33.03125v-66.0625c0-27.335937 22.214844-49.550781 49.546875-49.550781 0-9.082031 3.714844-17.339844 9.664062-23.371094 6.03125-5.945312 14.289063-9.660156 23.371094-9.660156h66.066406c13.707032 0 24.773438 11.066406 24.773438 24.773438 0-6.851563 2.808594-13.046876 7.265625-17.507813 4.460937-4.457031 10.652344-7.265625 17.507813-7.265625h66.066406c18.25 0 33.03125 14.78125 33.03125 33.03125 13.707031 0 26.09375 5.535156 35.011718 14.535156 9.003907 8.917969 14.535157 21.304688 14.535157 35.015625zm0 0" fill="#4d4d4d"/><path d="m148.644531 247.742188c0 10.816406 6.855469 19.984374 16.515625 23.285156v1.488281c-18.25 0-33.03125-14.78125-33.03125-33.03125v-57.808594c18.25 0 33.03125-14.78125 33.03125-33.03125v75.808594c-9.660156 3.304687-16.515625 12.46875-16.515625 23.289063zm0 0" fill="#808080"/><path d="m379.871094 181.675781v57.808594c0 18.25-14.78125 33.03125-33.03125 33.03125v-1.488281c9.660156-3.300782 16.515625-12.46875 16.515625-23.285156 0-10.820313-6.855469-19.984376-16.515625-23.289063v-75.808594c0 18.25 14.78125 33.03125 33.03125 33.03125zm0 0" fill="#808080"/><path d="m132.128906 239.484375c-18.242187 0-33.03125-14.789063-33.03125-33.03125v-33.035156h33.03125zm0 0" fill="#fe946f"/><path d="m379.871094 239.484375c18.242187 0 33.03125-14.789063 33.03125-33.03125v-33.035156h-33.03125zm0 0" fill="#fe946f"/><path d="m322.066406 66.0625h-41.292968c-6.855469 0-13.046876 2.808594-17.507813 7.269531-4.457031 4.457031-7.265625 10.652344-7.265625 17.507813 0-6.855469-2.808594-13.050782-7.265625-17.507813-4.460937-4.460937-10.652344-7.269531-17.507813-7.269531h-41.292968c-13.707032 0-24.773438 11.066406-24.773438 24.777344v133.613281c2.558594-.992187 5.367188-1.484375 8.257813-1.484375 13.707031 0 24.773437 11.0625 24.773437 24.773438 0 13.707031-11.066406 24.773437-24.773437 24.773437-2.890625 0-5.699219-.496094-8.257813-1.488281v42.777344h181.679688v-42.777344c-2.5625.992187-5.371094 1.488281-8.261719 1.488281-13.707031 0-24.773437-11.066406-24.773437-24.773437 0-13.710938 11.066406-24.773438 24.773437-24.773438 2.890625 0 5.699219.492188 8.261719 1.484375v-133.613281c0-13.710938-11.066406-24.777344-24.773438-24.777344zm-49.550781 148.648438c0 2.972656-.824219 5.863281-2.230469 8.257812-2.886718 4.953125-8.175781 8.257812-14.285156 8.257812-6.113281 0-11.398438-3.304687-14.289062-8.257812-1.402344-2.394531-2.226563-5.285156-2.226563-8.257812v-57.808594h33.03125zm0 0" fill="#ffb398"/><path d="m165.160156 313.804688h-82.578125v198.195312h173.417969v-66.066406l-90.839844-90.835938zm0 0" fill="#534741"/><path d="m165.160156 313.804688h-33.03125l-16.515625 90.839843h66.0625l-24.773437 24.773438 99.097656 82.582031v-66.066406l-90.839844-90.835938zm0 0" fill="#3d3633"/><path d="m346.839844 313.804688v41.292968l-90.839844 90.835938-90.839844-90.835938v-41.292968zm0 0" fill="#ebe5dd"/><path d="m0 512h82.582031v-198.195312h-16.519531c-36.484375 0-66.0625 29.578124-66.0625 66.066406zm0 0" fill="#3d3633"/><path d="m346.839844 313.804688h82.578125v198.195312h-173.417969v-66.066406l90.839844-90.835938zm0 0" fill="#483f3a"/><path d="m346.839844 313.804688h33.03125l16.515625 90.839843h-66.0625l24.773437 24.773438-99.097656 82.582031v-66.066406l90.839844-90.835938zm0 0" fill="#322d2b"/><path d="m512 512h-82.582031v-198.195312h16.519531c36.484375 0 66.0625 29.582031 66.0625 66.066406zm0 0" fill="#322d2b"/><path d="m165.160156 355.097656v-41.292968h181.679688v41.292968l-57.808594-33.03125-24.773438 24.773438 24.773438 66.0625-33.03125 33.03125-33.03125-33.03125 24.773438-66.0625-24.773438-24.773438zm0 0" fill="#f40e34"/><path d="m239.484375 156.902344h-66.066406v-16.515625c0-9.121094 7.394531-16.515625 16.515625-16.515625h33.035156c9.121094 0 16.515625 7.394531 16.515625 16.515625zm0 0" fill="#999"/><path d="m222.96875 173.417969c0 9.121093-7.394531 16.515625-16.515625 16.515625-9.125 0-16.519531-7.394532-16.519531-16.515625 0-9.121094 7.394531-16.515625 16.519531-16.515625 9.121094 0 16.515625 7.394531 16.515625 16.515625zm0 0" fill="#1a1a1a"/><path d="m338.582031 156.902344h-66.066406v-16.515625c0-9.121094 7.394531-16.515625 16.515625-16.515625h33.035156c9.121094 0 16.515625 7.394531 16.515625 16.515625zm0 0" fill="#999"/><path d="m322.066406 173.417969c0 9.121093-7.394531 16.515625-16.519531 16.515625-9.121094 0-16.515625-7.394532-16.515625-16.515625 0-9.121094 7.394531-16.515625 16.515625-16.515625 9.125 0 16.519531 7.394531 16.519531 16.515625zm0 0" fill="#1a1a1a"/><path d="m272.515625 156.902344v57.804687c0 2.972657-.824219 5.863281-2.230469 8.261719-2.886718 4.953125-8.175781 8.257812-14.285156 8.257812-6.113281 0-11.398438-3.304687-14.289062-8.257812-1.402344-2.398438-2.226563-5.289062-2.226563-8.261719v-57.804687zm0 0" fill="#f26038"/><path d="m313.804688 256h-115.609376c0-9.085938 3.714844-17.34375 9.660157-23.371094 6.027343-5.945312 14.285156-9.660156 23.371093-9.660156h10.488282c2.886718 4.953125 8.175781 8.257812 14.285156 8.257812 6.113281 0 11.398438-3.304687 14.289062-8.257812h10.484376c12.96875 0 24.199218 7.511719 29.566406 18.414062 2.226562 4.460938 3.464844 9.414063 3.464844 14.617188zm0 0" fill="#999"/><path d="m231.226562 256c0 13.683594 11.089844 24.773438 24.773438 24.773438s24.773438-11.089844 24.773438-24.773438zm0 0" fill="#f40e34"/><path d="m256 49.546875v41.292969c0-6.855469-2.808594-13.050782-7.265625-17.507813-4.460937-4.460937-10.652344-7.269531-17.507813-7.269531h-41.292968c-13.625 0-24.773438 11.152344-24.773438 24.777344v57.804687c0 18.242188-14.789062 33.03125-33.03125 33.03125h-16.519531c-18.242187 0-33.03125-14.789062-33.03125-33.03125v-16.515625c13.707031 0 26.097656-5.535156 35.015625-14.535156 9-8.917969 14.53125-21.304688 14.53125-35.011719 0-13.710937 5.535156-26.097656 14.535156-35.015625 8.917969-9 21.304688-14.535156 35.015625-14.535156h57.804688c9.085937 0 16.519531 7.433594 16.519531 16.515625zm0 0" fill="#999"/><path d="m429.417969 132.128906v16.515625c0 18.246094-14.789063 33.035157-33.03125 33.035157h-16.515625c-18.242188 0-33.03125-14.789063-33.03125-33.035157v-57.804687c0-13.625-11.152344-24.777344-24.777344-24.777344h-41.289062c-6.855469 0-13.046876 2.808594-17.507813 7.269531-4.460937 4.457031-7.265625 10.652344-7.265625 17.507813v-41.292969c0-9.082031 7.429688-16.515625 16.515625-16.515625h57.804687c13.707032 0 26.097657 5.535156 35.015626 14.535156 9 8.917969 14.53125 21.304688 14.53125 35.011719 0 13.710937 5.535156 26.097656 14.535156 35.015625 8.921875 9 21.308594 14.535156 35.015625 14.535156zm0 0" fill="#999"/><path d="m198.195312 247.742188c0 13.707031-11.066406 24.773437-24.777343 24.773437-2.886719 0-5.699219-.496094-8.257813-1.488281-9.660156-3.300782-16.515625-12.46875-16.515625-23.285156 0-10.820313 6.855469-19.984376 16.515625-23.289063 2.558594-.992187 5.367188-1.484375 8.257813-1.484375 13.710937 0 24.777343 11.0625 24.777343 24.773438zm0 0" fill="#f40e34"/><path d="m363.355469 247.742188c0 10.816406-6.855469 19.984374-16.515625 23.285156-2.5625.992187-5.371094 1.488281-8.261719 1.488281-13.707031 0-24.773437-11.066406-24.773437-24.773437 0-13.710938 11.066406-24.773438 24.773437-24.773438 2.890625 0 5.699219.492188 8.261719 1.484375 9.660156 3.304687 16.515625 12.46875 16.515625 23.289063zm0 0" fill="#f40e34"/><path d="m140.386719 90.839844h-16.515625v-8.257813c0-31.875 25.929687-57.808593 57.804687-57.808593v16.515624c-22.765625 0-41.289062 18.527344-41.289062 41.292969zm0 0" fill="#fff"/><path d="m198.195312 24.773438h16.515626v16.515624h-16.515626zm0 0" fill="#fff"/><path d="m429.417969 396.386719v115.613281h-107.351563c51.363282-15.410156 91.152344-56.214844 105.265625-107.953125zm0 0" fill="#3d3633"/></svg>