<svg height="512pt" viewBox="0 0 512 512.00001" width="512pt" xmlns="http://www.w3.org/2000/svg"><path d="m371.613281 346.839844h-231.226562v-297.292969c0-27.363281 30.441406-49.546875 57.808593-49.546875h123.871094c27.363282 0 49.546875 22.183594 49.546875 49.546875zm0 0" fill="#eac3a7"/><path d="m140.386719 214.710938h-16.515625c-9.121094 0-16.515625-7.394532-16.515625-16.515626v-33.035156c0-9.121094 7.394531-16.515625 16.515625-16.515625h16.515625zm0 0" fill="#e0a57e"/><path d="m371.613281 214.710938h16.515625c9.121094 0 16.515625-7.394532 16.515625-16.515626v-33.035156c0-9.121094-7.394531-16.515625-16.515625-16.515625h-16.515625zm0 0" fill="#e0a57e"/><path d="m371.613281 49.546875v66.066406c-6.03125 0-11.644531-1.652343-16.515625-4.460937-9.910156-5.699219-16.519531-16.351563-16.519531-28.574219v-41.289063l-82.578125 16.519532-82.582031-16.519532v41.292969c0 18.25-14.78125 33.03125-33.03125 33.03125v-66.066406c0-9.082031 3.304687-17.507813 8.753906-24.773437 10.984375-14.78125 30.71875-24.773438 49.054687-24.773438h123.871094c27.332032 0 49.546875 22.214844 49.546875 49.546875zm0 0" fill="#806749"/><g fill="#693b00"><path d="m272.515625 231.226562h-33.03125c-4.5625 0-8.257813-3.699218-8.257813-8.257812v-16.515625h16.515626v8.257813h16.515624v-57.808594h16.515626v66.066406c0 4.558594-3.695313 8.257812-8.257813 8.257812zm0 0"/><path d="m214.710938 156.902344h-16.515626v-8.257813c0-4.5625 3.695313-8.257812 8.257813-8.257812 4.558594 0 8.257813 3.695312 8.257813 8.257812zm0 0"/><path d="m313.804688 156.902344h-16.515626v-8.257813c0-4.5625 3.699219-8.257812 8.257813-8.257812 4.5625 0 8.257813 3.695312 8.257813 8.257812zm0 0"/></g><path d="m189.933594 214.710938c0 13.679687-11.089844 24.773437-24.773438 24.773437s-24.773437-11.09375-24.773437-24.773437c0-13.683594 11.089843-24.777344 24.773437-24.777344s24.773438 11.09375 24.773438 24.777344zm0 0" fill="#ff0c38"/><path d="m371.613281 214.710938c0 13.679687-11.09375 24.773437-24.773437 24.773437-13.683594 0-24.777344-11.09375-24.777344-24.773437 0-13.683594 11.09375-24.777344 24.777344-24.777344 13.679687 0 24.773437 11.09375 24.773437 24.777344zm0 0" fill="#ff0c38"/><path d="m256 280.773438c-13.660156 0-24.773438-11.113282-24.773438-24.773438v-8.257812h16.515626v8.257812c0 4.550781 3.703124 8.257812 8.257812 8.257812 4.550781 0 8.257812-3.707031 8.257812-8.257812v-8.257812h16.515626v8.257812c0 13.660156-11.113282 24.773438-24.773438 24.773438zm0 0" fill="#e0a57e"/><path d="m82.582031 445.933594h-82.582031v-16.515625c0-45.609375 36.972656-82.578125 82.582031-82.578125zm0 0" fill="#ffd422"/><path d="m0 445.933594h82.582031v33.035156h-82.582031zm0 0" fill="#1e81ce"/><path d="m0 478.96875h82.582031v33.03125h-82.582031zm0 0" fill="#ffd422"/><path d="m429.417969 445.933594h82.582031v-16.515625c0-45.609375-36.972656-82.578125-82.582031-82.578125zm0 0" fill="#ffd422"/><path d="m429.417969 445.933594h82.582031v33.035156h-82.582031zm0 0" fill="#1e81ce"/><path d="m429.417969 478.96875h82.582031v33.03125h-82.582031zm0 0" fill="#ffd422"/><path d="m82.582031 346.839844h346.835938v165.160156h-346.835938zm0 0" fill="#5aaae7"/><path d="m239.484375 379.871094v-33.03125h-99.097656v33.03125l24.773437 24.773437 24.773438-24.773437zm0 0" fill="#ffd422"/><path d="m272.515625 379.871094v-33.03125h99.097656v33.03125l-24.773437 24.773437-24.773438-24.773437zm0 0" fill="#ffd422"/><path d="m239.484375 346.839844h33.03125v115.609375h-33.03125zm0 0" fill="#1e81ce"/><path d="m272.515625 363.355469c0 9.121093-7.394531 16.515625-16.515625 16.515625s-16.515625-7.394532-16.515625-16.515625c0-9.121094 7.394531-16.515625 16.515625-16.515625s16.515625 7.394531 16.515625 16.515625zm0 0" fill="#ebe5dd"/><path d="m346.839844 140.386719v-8.257813c0-13.660156-11.113282-24.773437-24.777344-24.773437h-33.03125c-13.660156 0-24.773438 11.113281-24.773438 24.773437v8.257813h-16.515624v-8.257813c0-13.660156-11.113282-24.773437-24.777344-24.773437h-33.03125c-13.660156 0-24.773438 11.113281-24.773438 24.773437v8.257813h-24.777344v16.515625h24.777344v-8.257813c0 22.765625 18.523438 41.292969 41.289063 41.292969h4.128906c19.078125 0 34.660156-14.503906 36.746094-33.035156h17.347656c2.085937 18.53125 17.667969 33.035156 36.746094 33.035156h4.128906c22.765625 0 41.289063-18.527344 41.289063-41.292969v8.257813h24.777343v-16.515625zm-115.613282 12.386719c0 11.382812-9.261718 20.644531-20.644531 20.644531h-4.128906c-13.664063 0-24.777344-11.113281-24.777344-24.773438v-16.515625c0-4.554687 3.707031-8.257812 8.257813-8.257812h33.035156c4.550781 0 8.257812 3.703125 8.257812 8.257812zm99.097657-4.128907c0 13.660157-11.113281 24.773438-24.777344 24.773438h-4.128906c-11.382813 0-20.644531-9.261719-20.644531-20.644531v-20.644532c0-4.554687 3.707031-8.257812 8.257812-8.257812h33.035156c4.550782 0 8.257813 3.703125 8.257813 8.257812zm0 0" fill="#fff"/><path d="m429.417969 346.839844-156.902344 165.160156h156.902344zm0 0" fill="#2b8dc9"/><path d="m371.613281 346.839844h-90.839843c18.242187 0 33.03125-14.792969 33.03125-33.035156 31.925781 0 57.808593-25.878907 57.808593-57.804688zm0 0" fill="#e0a57e"/><path d="m140.386719 346.839844h90.839843c-18.242187 0-33.03125-14.792969-33.03125-33.035156-31.925781 0-57.808593-25.878907-57.808593-57.804688zm0 0" fill="#e0a57e"/><path d="m338.582031 41.289062v-16.515624l-82.582031 16.515624-82.582031-16.515624v16.515624l82.582031 16.515626zm0 0" fill="#543f29"/><path d="m371.613281 49.546875v66.066406c-6.03125 0-11.644531-1.652343-16.515625-4.460937v-57.703125c0-22.636719-12.789062-43.328125-33.035156-53.449219 27.335938 0 49.550781 22.214844 49.550781 49.546875zm0 0" fill="#543f29"/><path d="m181.675781 82.582031h-16.515625v-16.519531c0-27.320312 22.226563-49.546875 49.546875-49.546875v16.515625c-18.210937 0-33.03125 14.820312-33.03125 33.035156zm0 0" fill="#fff"/><path d="m231.226562 16.515625h16.515626v16.515625h-16.515626zm0 0" fill="#fff"/></svg>