<svg height="512pt" viewBox="0 0 512 512" width="512pt" xmlns="http://www.w3.org/2000/svg"><path d="m256 330.324219h-41.292969l-31.710937 31.710937-9.742188-3.46875c-19.738281-7.019531-32.867187-25.683594-32.867187-46.578125v-6.441406c0 13.710937 11.066406 24.777344 24.773437 24.777344 13.707032 0 24.773438-11.066407 24.773438-24.777344 0-13.707031-11.066406-24.773437-24.773438-24.773437-13.707031 0-24.773437 11.066406-24.773437 24.773437v-33.03125l30.800781-30.804687 27.003906 39.0625 41.289063-23.617188v56.648438c0 4.542968 1.820312 8.671874 4.875 11.644531 2.972656 3.054687 7.101562 4.875 11.644531 4.875zm0 0" fill="#cf9e76"/><path d="m189.933594 305.546875c0 13.683594-11.089844 24.777344-24.773438 24.777344s-24.773437-11.09375-24.773437-24.777344c0-13.679687 11.089843-24.773437 24.773437-24.773437s24.773438 11.09375 24.773438 24.773437zm0 0" fill="#f40e34"/><path d="m371.613281 305.546875c0 13.683594-11.09375 24.777344-24.773437 24.777344-13.683594 0-24.777344-11.09375-24.777344-24.777344 0-13.679687 11.09375-24.773437 24.777344-24.773437 13.679687 0 24.773437 11.09375 24.773437 24.773437zm0 0" fill="#f40e34"/><path d="m272.515625 257.15625v56.648438c0 9.085937-7.433594 16.519531-16.515625 16.519531-4.542969 0-8.671875-1.816407-11.644531-4.875-3.054688-2.972657-4.871094-7.101563-4.871094-11.644531v-56.648438l15.769531-9.828125.746094.414063zm0 0" fill="#f26722"/><path d="m396.386719 379.871094-30.058594 22.957031c-65.074219 49.796875-155.582031 49.796875-220.65625 0l-30.058594-22.957031 24.773438-74.324219v6.441406c0 20.894531 13.128906 39.558594 32.867187 46.578125l9.746094 3.46875-1.320312 1.320313v33.03125c0 .742187.082031 1.488281.246093 2.230469.496094 4.046874 2.558594 7.679687 5.535157 10.15625.988281.828124 1.980468 1.652343 3.136718 2.230468.90625.496094 1.816406.910156 2.808594 1.15625.988281.332032 2.0625.578125 3.136719.660156h.164062c5.121094.496094 9.828125-1.402343 13.132813-4.789062 3.054687-2.972656 4.871094-7.101562 4.871094-11.644531 0 7.679687 1.984374 15.113281 5.699218 21.554687 3.632813 6.523438 9 11.976563 15.523438 15.9375 6.195312 3.71875 13.132812 5.617188 20.070312 5.617188s13.871094-1.898438 20.066406-5.617188c6.523438-3.960937 11.890626-9.414062 15.523438-15.9375 3.71875-6.441406 5.699219-13.875 5.699219-21.554687 0 4.542969 1.816406 8.671875 4.875 11.644531 2.96875 3.054688 7.101562 4.871094 11.640625 4.871094 4.542968 0 8.671875-1.816406 11.644531-4.871094 3.054687-2.972656 4.871094-7.101562 4.871094-11.644531v-33.03125l-1.320313-1.320313 9.746094-3.46875c19.734375-7.019531 32.867188-25.683594 32.867188-46.574218v-6.441407zm0 0" fill="#bf8d67"/><path d="m256 132.128906c8.257812-16.515625 16.515625-16.515625 16.515625-41.289062 0-24.777344-16.515625-24.777344-24.773437-41.292969-5.285157-10.652344-.332032-31.625 3.878906-45.171875l-40.75 40.75c-18.691406 18.695312-20.9375 44.050781-20.9375 70.488281l66.066406 49.546875s0 0-.085938-.082031c-.574218-1.320313-7.839843-17.09375.085938-32.949219zm0 0" fill="#f26722"/><path d="m292.929688 59.757812c-22.632813-11.320312-36.929688-34.453124-36.929688-59.757812l-4.378906 4.378906c-4.210938 13.542969-9.164063 34.515625-3.878906 45.171875 8.257812 16.515625 24.773437 16.515625 24.773437 41.289063 0 24.773437-8.257813 24.773437-16.515625 41.289062-7.929688 15.855469-.660156 31.628906-.082031 32.953125.082031.082031.082031.082031.082031.082031l66.0625-49.550781v-8.714843c.003906-19.964844-11.277344-38.214844-29.132812-47.140626zm0 0" fill="#d14000"/><path d="m256 222.96875v24.773438l-16.515625 9.414062-41.289063 23.617188-17.839843-25.847657-9.164063-13.214843-17.59375-25.351563-13.210937-19.074219-16.515625-23.867187zm0 0" fill="#4d4d4d"/><path d="m355.097656 140.386719-16.515625 33.03125v18.582031l-82.582031 30.96875-82.582031-30.96875v-18.582031l16.515625-16.515625 66.066406 33.03125zm0 0" fill="#cf9e76"/><path d="m371.613281 165.160156v14.453125l-33.035156 12.386719v-18.582031l16.519531-33.03125-99.097656 49.546875-66.066406-33.03125-16.515625 16.515625v18.582031l-33.03125-12.386719v-14.453125c0-27.332031 22.214843-49.546875 49.546875-49.546875l66.066406 49.546875 66.0625-49.546875c27.335938 0 49.550781 22.214844 49.550781 49.546875zm0 0" fill="#c6cdd1"/><path d="m388.128906 173.417969-16.515625 23.867187-30.804687 44.425782-27.003906 39.0625-41.289063-23.617188-16.515625-9.414062v-24.773438l28.902344-10.820312zm0 0" fill="#333"/><path d="m371.613281 197.285156v75.230469l-29.070312-29.066406-1.734375-1.738281zm0 0" fill="#c6cdd1"/><path d="m371.613281 272.515625v33.03125c0-13.707031-11.066406-24.773437-24.773437-24.773437-13.710938 0-24.777344 11.066406-24.777344 24.773437 0 13.710937 11.066406 24.777344 24.777344 24.777344 13.707031 0 24.773437-11.066407 24.773437-24.777344v6.441406c0 20.894531-13.128906 39.558594-32.867187 46.578125l-9.746094 3.46875-31.710938-31.710937h-41.289062c9.082031 0 16.515625-7.433594 16.515625-16.519531v-56.648438l41.289063 23.617188 27.003906-39.0625zm0 0" fill="#cf9e76"/><path d="m171.191406 241.710938-30.804687 30.804687v-75.230469zm0 0" fill="#c6cdd1"/><path d="m404.644531 222.96875c0 6.851562-2.808593 13.046875-7.265625 17.507812-4.460937 4.457032-10.652344 7.265626-17.507812 7.265626h-8.257813v-49.546876h8.257813c13.707031 0 24.773437 11.0625 24.773437 24.773438zm0 0" fill="#bf8d67"/><path d="m140.386719 198.195312v49.546876h-8.257813c-6.855468 0-13.046875-2.808594-17.507812-7.269532-4.457032-4.457031-7.265625-10.652344-7.265625-17.503906 0-13.710938 11.066406-24.777344 24.773437-24.777344h8.257813zm0 0" fill="#bf8d67"/><path d="m329 362.035156-31.710938-31.710937h-82.578124l-31.710938 31.710937-1.324219 1.320313v33.03125c0 .742187.085938 1.488281.25 2.230469.496094 4.046874 2.558594 7.679687 5.53125 10.15625.992188.828124 1.984375 1.652343 3.140625 2.230468.90625.496094 1.816406.910156 2.808594 1.15625.988281.332032 2.0625.578125 3.136719.660156h.164062c5.121094.496094 9.828125-1.402343 13.128907-4.789062 3.058593-2.972656 4.875-7.101562 4.875-11.644531 0 7.679687 1.980468 15.113281 5.699218 21.554687 3.632813 6.523438 9 11.976563 15.523438 15.9375 6.195312 3.71875 13.132812 5.617188 20.066406 5.617188 6.9375 0 13.875-1.898438 20.070312-5.617188 6.523438-3.960937 11.890626-9.414062 15.523438-15.9375 3.714844-6.441406 5.699219-13.875 5.699219-21.554687 0 4.542969 1.816406 8.671875 4.871093 11.644531 2.972657 3.054688 7.101563 4.871094 11.644532 4.871094 4.542968 0 8.671875-1.816406 11.644531-4.871094 3.054687-2.972656 4.871094-7.101562 4.871094-11.644531v-33.03125zm-73 26.09375-33.03125-8.257812 8.257812-24.773438h49.546876l8.257812 24.773438zm0 0" fill="#c6cdd1"/><path d="m289.03125 379.871094-33.03125 8.257812-33.03125-8.257812 8.257812-24.773438h49.546876zm0 0" fill="#666"/><path d="m421.160156 421.160156v90.839844h-330.320312v-90.839844l9.246094-3.796875 11.726562-11.726562v-11.644531l-14.121094-14.121094h17.921875l30.058594 22.957031c65.074219 49.796875 155.582031 49.796875 220.65625 0l30.058594-22.957031h17.921875l-14.121094 14.121094v11.644531l11.726562 11.726562zm0 0" fill="#1a1a1a"/><path d="m90.839844 512h-90.839844v-49.546875c0-36.089844 23.203125-66.808594 55.492188-78.039063l32.953124 32.949219 2.394532 3.800781zm0 0" fill="#cf9e76"/><path d="m512 462.449219v49.550781h-90.839844v-90.839844l2.394532-3.796875 32.953124-32.953125c32.289063 11.234375 55.492188 41.953125 55.492188 78.039063zm0 0" fill="#cf9e76"/><path d="m464.46875 364.757812 12.078125-12.082031-11.675781-11.675781-12.082032 12.078125-.023437-.023437c-1.546875-1.546876-3.644531-2.417969-5.839844-2.417969h-11.644531c-2.191406 0-4.289062.871093-5.839844 2.417969l-35.09375 35.097656c-1.550781 1.550781-2.421875 3.644531-2.421875 5.839844v11.644531c0 2.195312.871094 4.292969 2.421875 5.839843l.023438.023438-10.511719 10.507812c-.964844-.824218-2.054687-1.492187-3.3125-1.796874l-11.371094-2.789063c-2.128906-.511719-4.363281-.179687-6.234375.957031l-42.378906 25.667969c-1.871094 1.136719-3.21875 2.96875-3.734375 5.089844l-2.78125 11.339843c-.304687 1.238282-.234375 2.496094.035156 3.71875l-17.234375 4.308594c-.378906-1.347656-.96875-2.625-1.980468-3.632812l-8.257813-8.261719c-1.546875-1.546875-3.644531-2.417969-5.839844-2.417969h-49.546875c-2.191406 0-4.289062.871094-5.839844 2.417969l-8.257812 8.261719c-1.007812 1.007812-1.597656 2.285156-1.980469 3.632812l-17.230469-4.308594c.265626-1.222656.339844-2.480468.03125-3.71875l-2.78125-11.339843c-.515624-2.121094-1.863281-3.953125-3.734374-5.089844l-42.378907-25.667969c-1.867187-1.136718-4.113281-1.460937-6.230469-.957031l-11.371093 2.789063c-1.257813.304687-2.347657.972656-3.316407 1.796874l-10.507812-10.507812.023438-.023438c1.546874-1.546874 2.417968-3.644531 2.417968-5.839843v-11.644531c0-2.195313-.871094-4.289063-2.417968-5.839844l-35.097657-35.097656c-1.546875-1.546876-3.644531-2.417969-5.839843-2.417969h-11.636719c-2.195313 0-4.292969.871093-5.839844 2.417969l-.023437.023437-12.082032-12.078125-11.675781 11.675781 12.078125 12.082031-.023438.023438c-1.546874 1.546875-2.417968 3.644531-2.417968 5.839844v11.644531c0 2.195313.871094 4.289063 2.417968 5.839844l35.097657 35.097656c1.546875 1.546875 3.644531 2.417969 5.839843 2.417969h11.644532c2.195312 0 4.289062-.871094 5.839844-2.417969l.023437-.027344 13.003906 13.007813-1.148437 1.898437c-1.136719 1.867188-1.476563 4.121094-.953125 6.25l2.773437 11.320313c.527344 2.128906 1.871094 3.96875 3.75 5.105468l42.390625 25.667969c1.296875.792969 2.78125 1.195313 4.273438 1.195313.660156 0 1.320312-.082032 1.976562-.242188l11.335938-2.78125c2.121093-.519531 3.953125-1.863281 5.089843-3.742187l1.058594-1.746094 25.207032 6.300781v1.816406c0 2.191407.871093 4.289063 2.417968 5.839844l8.261719 8.257813c1.546875 1.546875 3.644531 2.417969 5.835937 2.417969h49.550782c2.191406 0 4.289062-.871094 5.835937-2.417969l8.261719-8.257813c1.546875-1.550781 2.417969-3.648437 2.417969-5.839844v-1.816406l25.207031-6.300781 1.058594 1.746094c1.136718 1.878906 2.96875 3.222656 5.089844 3.742187l11.335937 2.78125c.652344.160156 1.316406.242188 1.976563.242188 1.492187 0 2.976562-.402344 4.273437-1.195313l42.390625-25.667969c1.878906-1.136718 3.222656-2.976562 3.75-5.105468l2.773438-11.320313c.523437-2.128906.183593-4.382812-.953126-6.25l-1.148437-1.898437 13.003906-13.007813.023438.027344c1.550781 1.546875 3.644531 2.417969 5.839843 2.417969h11.644532c2.195312 0 4.292968-.871094 5.839844-2.417969l35.097656-35.097656c1.546875-1.550781 2.417968-3.644531 2.417968-5.839844v-11.644531c0-2.195313-.871093-4.292969-2.417968-5.839844zm-367.800781 44.347657h-4.804688l-30.257812-30.257813v-4.808594l6.886719-6.886718h4.808593l30.257813 30.257812v4.808594zm79.421875 60.273437-4.695313 1.144532-36.539062-22.121094-1.144531-4.691406 5.007812-8.285157 4.699219-1.152343 36.535156 22.128906 1.144531 4.695312zm104.683594 14.425782-3.417969 3.421874h-42.710938l-3.417969-3.421874v-9.675782l3.417969-3.417968h42.710938l3.417969 3.417968zm96.371093-35.402344-36.539062 22.121094-4.695313-1.144532-5.007812-8.28125 1.144531-4.695312 36.53125-22.128906 4.703125 1.15625 5.007812 8.28125zm73.25-69.554688-30.257812 30.257813h-4.804688l-6.886719-6.886719v-4.808594l30.257813-30.257812h4.804687l6.886719 6.886718zm0 0" fill="#999"/><g fill="#fff"><path d="m222.96875 256c0 4.558594-3.699219 8.257812-8.257812 8.257812-4.5625 0-8.257813-3.699218-8.257813-8.257812 0-4.5625 3.695313-8.257812 8.257813-8.257812 4.558593 0 8.257812 3.695312 8.257812 8.257812zm0 0"/><path d="m346.839844 222.96875c0 4.558594-3.699219 8.257812-8.257813 8.257812-4.5625 0-8.257812-3.699218-8.257812-8.257812 0-4.5625 3.695312-8.257812 8.257812-8.257812 4.558594 0 8.257813 3.695312 8.257813 8.257812zm0 0"/><path d="m289.03125 222.96875c0 9.082031-7.433594 16.515625-16.515625 16.515625s-16.515625-7.433594-16.515625-16.515625l28.902344-10.820312c2.644531 2.890624 4.128906 6.691406 4.128906 10.820312zm0 0"/><path d="m198.195312 231.226562c0 11.3125-7.515624 20.808594-17.839843 23.699219l-9.164063-13.210937-17.59375-25.351563c4.542969-6.03125 11.730469-9.910156 19.820313-9.910156 13.710937 0 24.777343 11.0625 24.777343 24.773437zm0 0"/></g><path d="m421.160156 512h-90.835937l7.84375-1.742188c40.742187-9.054687 72.871093-40.351562 82.992187-80.839843zm0 0" fill="#333"/><path d="m90.839844 429.417969s8.257812 33.035156 41.289062 49.550781 49.546875 16.515625 49.546875 16.515625-49.546875 0-66.0625-8.257813c-26.632812-13.316406-24.773437-16.515624-24.773437-16.515624zm0 0" fill="#727170"/><path d="m181.675781 173.417969h-16.515625c0-18.214844 14.816406-33.03125 33.035156-33.03125h8.257813v16.515625h-8.257813c-9.105468 0-16.519531 7.410156-16.519531 16.515625zm0 0" fill="#fff"/><path d="m230.015625 72.605469-14.097656-8.597657c2.664062-4.371093 5.847656-8.417968 9.46875-12.039062l11.675781 11.675781c-2.691406 2.695313-5.0625 5.710938-7.046875 8.960938zm0 0" fill="#fff"/><path d="m222.96875 107.355469h-16.515625v-9.675781c0-5.863282.789063-11.6875 2.355469-17.308594l15.917968 4.421875c-1.171874 4.183593-1.757812 8.523437-1.757812 12.886719zm0 0" fill="#fff"/></svg>