<svg height="512pt" viewBox="0 0 512 512.00071" width="512pt" xmlns="http://www.w3.org/2000/svg"><path d="m295.496094 66.390625.238281 32.324219c-12.734375-4.773438-26.691406-7.390625-41.289063-7.285156-14.597656.105468-28.511718 2.929687-41.175781 7.886718l-.234375-32.324218c-.167968-22.761719 18.171875-41.367188 40.929688-41.53125 11.382812-.085938 21.722656 4.457031 29.28125 11.824218 7.476562 7.453125 12.167968 17.726563 12.25 29.105469zm0 0" fill="#2d292c"/><path d="m328.71875 246.425781c.023438 2.882813-.121094 5.855469-.429688 8.824219l-4.488281 28.898438c-2.820312-2.207032-6.378906-3.5-10.253906-3.472657-9.070313.066407-16.4375 7.542969-16.371094 16.613281.066407 9.070313 7.542969 16.4375 16.613281 16.371094 1.980469-.011718 3.789063-.355468 5.515626-1.027344-.945313 6.109376-2.960938 12.0625-5.644532 17.523438-6.582031 13.488281-17.800781 24.457031-31.941406 30.578125-16.113281 7.046875-34.417969 7.179687-50.632812.371094-10.171876-4.214844-18.796876-10.917969-25.457032-19.199219-2.664062-3.359375-5-7.054688-6.921875-10.914062-2.761719-5.425782-4.867187-11.347657-5.898437-17.441407 1.734375.648438 3.550781.964844 5.53125.949219 9.070312-.066406 16.4375-7.542969 16.371094-16.613281-.066407-9.070313-7.539063-16.4375-16.613282-16.371094-3.875.027344-7.410156 1.371094-10.199218 3.617187l-4.910157-28.828124c-5.511719-43.503907 28.1875-82.09375 72.058594-82.414063 40.898437-.292969 73.382813 32.785156 73.671875 72.535156zm0 0" fill="#f7c6a4"/><path d="m295.542969 72.578125.191406 26.140625c-12.734375-4.773438-26.691406-7.394531-41.289063-7.289062-14.597656.105468-28.511718 2.929687-41.175781 7.886718l-.191406-26.140625c13.328125-4.21875 27.085937-6.382812 41.1875-6.484375 14.101563-.101562 27.96875 1.859375 41.277344 5.886719zm0 0" fill="#f388af"/><path d="m370.234375 205.382812c.050781 7.421876-.550781 15.015626-2.0625 22.695313l-6.996094 36.253906c-1.589843 8.257813-5.660156 15.546875-11.308593 21.113281 7.964843-15.976562 10.472656-34.21875 6.796874-51.839843-1.363281-6.421875-7.003906-10.917969-13.4375-10.871094-7.503906.054687-13.5625 6.199219-13.507812 13.703125l.082031 11.136719-5.835937 36.738281c-.085938-.082031-.085938-.082031-.167969-.082031v-.082031l4.492187-28.894532c.304688-2.972656.449219-5.941406.429688-8.828125-.289062-39.75-32.773438-72.828125-73.675781-72.53125-43.871094.316407-77.566407 38.910157-72.054688 82.414063l4.910157 28.828125c-.082032.082031-.082032.082031-.164063.164062l-6.371094-36.648437-.082031-11.136719c-.054688-7.503906-6.199219-13.558594-13.703125-13.503906-6.429687.046875-12.007813 4.621093-13.277344 11.0625-3.417969 17.675781-.648437 35.878906 7.546875 51.734375-5.730468-5.480469-9.90625-12.707032-11.613281-20.945313l-7.519531-36.148437c-11.710938-56.652344 20.308594-110.652344 70.550781-130.398438 12.664063-4.957031 26.582031-7.777344 41.175781-7.886718 14.597656-.105469 28.554688 2.515624 41.289063 7.289062 43.746093 16.503906 74.15625 58.753906 74.503906 106.664062zm0 0" fill="#2d292c"/><path d="m181.726562 298.128906c.007813 1.316406.183594 2.554688.523438 3.789063-1.480469.753906-3.042969 1.09375-4.609375 1.105469-3.714844.027343-7.355469-1.925782-9.441406-5.375l-3.589844-5.910157c-1-1.644531-1.917969-3.203125-2.757813-4.929687-8.195312-15.855469-10.96875-34.0625-7.550781-51.734375 1.273438-6.441407 6.847657-11.019531 13.28125-11.066407 7.503907-.054687 13.648438 6.003907 13.703125 13.507813l.082032 11.132813 6.367187 36.652343c-3.6875 3.078125-6.046875 7.714844-6.007813 12.828125zm0 0" fill="#ffb398"/><path d="m349.867188 285.441406c-.8125 1.738282-1.707032 3.3125-2.683594 4.96875l-3.503906 5.964844c-2.035157 3.476562-5.652344 5.484375-9.363282 5.507812-1.566406.011719-3.136718-.304687-4.625-1.035156.320313-1.242187.476563-2.480468.46875-3.796875-.039062-5.113281-2.464844-9.714843-6.195312-12.738281l5.835937-36.742188-.082031-11.132812c-.054688-7.503906 6.003906-13.648438 13.507812-13.703125 6.433594-.046875 12.074219 4.445313 13.4375 10.867187 3.675782 17.625 1.171876 35.867188-6.796874 51.839844zm0 0" fill="#ffb398"/><path d="m346.210938 417.5 37.910156 7.972656c-9.589844 19.367188-38.953125 52.894532-126.859375 53.535156-87.90625.636719-117.753907-32.460937-127.625-51.6875l37.792969-8.519531c13.914062-3.152343 24.300781-14.941406 25.601562-29.132812l5.429688-58.675781h.246093c1.925781 3.859374 4.261719 7.554687 6.921875 10.917968 6.660156 8.277344 15.285156 14.980469 25.457032 19.195313 16.214843 6.808593 34.523437 6.675781 50.632812-.367188 14.140625-6.125 25.359375-17.089843 31.941406-30.582031h.25l6.28125 58.585938c1.5 14.175781 12.058594 25.808593 26.019532 28.757812zm0 0" fill="#f7c6a4"/><g fill="#2d292c"><path d="m351.746094 370.246094c-12.503906-6.144532-22.277344-16.617188-27.527344-29.488282l-9.820312-24.039062c-1.601563-3.910156.019531-8.394531 3.742187-10.382812 3.746094-2 8.351563-.851563 10.722656 2.644531l2.796875 4.132812c7.140625 10.539063 19 16.773438 31.722656 16.683594l.121094 16.492187c-6.714844.046876-13.273437-1.136718-19.375-3.402343 3.828125 5.300781 8.917969 9.621093 14.882813 12.550781zm0 0"/><path d="m161.207031 371.628906-7.484375-14.699218c5.921875-3.015626 10.957032-7.417969 14.703125-12.769532-6.070312 2.355469-12.609375 3.636719-19.324219 3.683594l-.121093-16.492188c12.722656-.089843 24.492187-6.5 31.476562-17.140624l2.742188-4.175782c2.316406-3.527344 6.90625-4.746094 10.683593-2.796875 3.75 1.9375 5.433594 6.394531 3.890626 10.328125l-9.472657 24.179688c-5.058593 12.945312-14.679687 23.558594-27.09375 29.882812zm0 0"/><path d="m213.152344 83.484375c-1.253906.007813-2.511719-.265625-3.691406-.84375l-9.699219-4.761719c-13.117188-6.445312-27.96875-7.390625-41.785157-2.667968l-5.332031-15.601563c12.074219-4.128906 24.726563-4.921875 36.914063-2.484375-7.941406-7.070312-17.585938-12.175781-28.179688-14.75l3.878906-16.023438c23.347657 5.652344 42.988282 21.175782 53.878907 42.574219l1.308593 2.570313c1.609376 3.160156 1.019532 6.996094-1.476562 9.527344-1.578125 1.601562-3.679688 2.445312-5.816406 2.460937zm0 0"/></g><path d="m295.496094 66.390625 57.246094-66.390625c10.109374-.0742188 19.390624 5.570312 23.976562 14.578125l.882812 1.734375-81.984374 66.570312zm0 0" fill="#741545"/><path d="m395.21875 50.914062-.886719-1.734374-98.714843 33.703124.058593 8.25 107.144531-9.027343c-.078124-10.847657-2.683593-21.523438-7.601562-31.191407zm0 0" fill="#741545"/><path d="m237.472656 248.082031-36.953125-7.109375-5.09375 5.160156-11.746093-11.578124 8.1875-8.304688c1.933593-1.964844 4.714843-2.804688 7.433593-2.308594l41.292969 7.945313zm0 0" fill="#2d292c"/><path d="m239.269531 272.96875-16.492187.121094c-.03125-4.550782-3.753906-8.21875-8.304688-8.1875-4.550781.035156-8.21875 3.757812-8.1875 8.308594l-16.492187.117187c-.101563-13.640625 10.917969-24.820313 24.558593-24.917969 13.640626-.097656 24.820313 10.917969 24.917969 24.558594zm0 0" fill="#741545"/><path d="m273.695312 247.816406-3.355468-16.144531 41.171875-8.546875c2.703125-.527344 5.5.265625 7.464843 2.199219l8.304688 8.1875-11.574219 11.746093-5.167969-5.082031zm0 0" fill="#2d292c"/><path d="m321.734375 272.371094-16.492187.117187c-.035157-4.546875-3.757813-8.21875-8.308594-8.1875-4.546875.035157-8.21875 3.757813-8.183594 8.308594l-16.492188.117187c-.101562-13.640624 10.914063-24.816406 24.558594-24.917968 13.640625-.097656 24.820313 10.921875 24.917969 24.5625zm0 0" fill="#741545"/><path d="m264.191406 297.527344-16.492187.121094-.121094-16.492188 6.757813-.046875-4.070313-23.359375 16.25-2.824219 5.738281 32.945313c.421875 2.390625-.238281 4.835937-1.792968 6.699218-1.550782 1.863282-3.847657 2.941407-6.269532 2.957032zm0 0" fill="#f8a17a"/><path d="m256.152344 326.203125c-6.933594.050781-13.878906-1.488281-20.214844-4.597656l7.269531-14.808594c8.050781 3.953125 17.617188 3.882813 25.609375-.183594l7.484375 14.699219c-6.292969 3.203125-13.214843 4.839844-20.148437 4.890625zm0 0" fill="#ee3780"/><path d="m214.710938 297.886719c.066406 9.074219-7.300782 16.550781-16.371094 16.613281-1.980469.015625-3.796875-.300781-5.53125-.949219-5.210938-1.773437-9.28125-6.199219-10.558594-11.632812-.339844-1.234375-.515625-2.46875-.523438-3.789063-.039062-5.113281 2.320313-9.75 6.007813-12.828125.082031-.082031.082031-.082031.164063-.164062 2.789062-2.246094 6.324218-3.59375 10.199218-3.621094 9.074219-.066406 16.546875 7.300781 16.613282 16.371094zm0 0" fill="#f40e34"/><path d="m330.160156 297.050781c.007813 1.316407-.148437 2.554688-.46875 3.796875-1.195312 5.449219-5.203125 9.933594-10.386718 11.785156-1.726563.671876-3.539063 1.015626-5.515626 1.027344-9.070312.066406-16.546874-7.300781-16.613281-16.371094-.066406-9.070312 7.300781-16.546874 16.371094-16.613281 3.875-.027343 7.433594 1.265625 10.253906 3.472657v.082031c.082031 0 .082031 0 .164063.082031 3.734375 3.023438 6.160156 7.625 6.195312 12.738281zm0 0" fill="#f40e34"/><path d="m94.753906 433.660156c7.339844 25.808594 5.9375 53.355469-4.042968 78.339844h-90.710938c0-16.820312 5.855469-32.574219 15.832031-44.945312 10.0625-12.449219 24.082031-21.523438 40.574219-25.066407zm0 0" fill="#f7c6a4"/><path d="m511.289062 512h-90.714843c-9.976563-24.984375-11.378907-52.53125-4.039063-78.339844l38.347656 8.328125c32.902344 7.171875 56.40625 36.28125 56.40625 70.011719zm0 0" fill="#f7c6a4"/><path d="m255.644531 479.015625v32.984375h-164.933593c9.980468-24.984375 11.382812-52.53125 4.042968-78.339844-.496094-1.652344-.992187-3.382812-1.566406-5.03125l-2.476562-7.339844 32.988281-8.246093s.660156 5.523437 4.699219 13.359375c9.730468 19.296875 39.335937 52.613281 127.246093 52.613281zm0 0" fill="#6b1b68"/><path d="m420.574219 512h-164.929688v-32.984375c87.90625 0 117.511719-33.316406 127.242188-52.613281 4.042969-7.835938 4.703125-13.363282 4.703125-13.363282l32.984375 8.25-2.472657 7.339844c-.578124 1.648438-1.070312 3.378906-1.566406 5.027344-7.339844 25.8125-5.9375 53.355469 4.039063 78.34375zm0 0" fill="#562450"/><path d="m224.703125 134.476562-4.089844-15.976562c6.039063-1.546875 12.28125-2.335938 18.535157-2.335938h8.25v16.496094h-8.25c-4.878907 0-9.734376.609375-14.445313 1.816406zm0 0" fill="#fff"/><path d="m181.425781 190.382812h-16.496093c0-26.960937 14.667968-51.84375 38.261718-64.941406l8.003906 14.433594c-18.367187 10.179688-29.769531 29.539062-29.769531 50.507812zm0 0" fill="#fff"/></svg>