<svg height="512pt" viewBox="0 0 512 512" width="512pt" xmlns="http://www.w3.org/2000/svg"><path d="m371.613281 363.355469h-24.773437v-66.066407h33.03125v24.777344h33.03125c0 22.800782-18.484375 41.289063-41.289063 41.289063zm0 0" fill="#ff9811"/><path d="m512 123.871094v41.289062c0 36.503906-29.5625 66.066406-66.0625 66.066406 0 20.480469-8.34375 39.140626-21.800781 52.519532-13.378907 13.460937-32.042969 21.800781-52.523438 21.800781h-24.773437v-33.527344c17.175781-1.898437 32.699218-9.660156 44.261718-21.304687 13.460938-13.378906 21.800782-32.042969 21.800782-52.519532 36.5 0 66.0625-29.566406 66.0625-66.066406v-8.257812zm0 0" fill="#a55d07"/><path d="m379.871094 90.839844c0-18.828125-5.285156-36.585938-14.535156-51.613282-3.300782-2.066406-6.6875-3.882812-10.238282-5.535156l-8.257812-.660156h-33.035156v66.066406c0 13.542969-1.816407 26.671875-5.203126 39.140625-3.382812 12.386719-8.421874 24.28125-14.78125 35.179688 0 6.03125.992188 11.726562 2.890626 17.09375 3.21875 9.664062 9.25 18.167969 17.09375 24.28125 9 7.347656 20.480468 11.644531 33.035156 11.644531v45.582031c17.175781-1.898437 32.699218-9.660156 44.261718-21.304687 13.460938-13.378906 21.800782-32.042969 21.800782-52.519532 36.5 0 66.0625-29.566406 66.0625-66.066406v-41.289062zm0 0" fill="#ca7300"/><path d="m140.386719 363.355469h24.773437v-66.066407h-33.03125v24.777344h-33.03125c0 22.800782 18.484375 41.289063 41.289063 41.289063zm0 0" fill="#ff9811"/><path d="m346.839844 226.4375v169.949219h-181.679688v-148.644531c11.398438 0 22.460938-1.238282 33.035156-3.71875 40.875-9.246094 75.3125-35.34375 95.625-70.605469 0 14.699219 5.949219 27.914062 15.527344 37.492187s22.789063 15.527344 37.492188 15.527344zm0 0" fill="#f0beb4"/><path d="m289.03125 41.289062c0 22.792969-18.496094 41.292969-41.289062 41.292969v16.515625c0 13.542969-1.816407 26.671875-5.203126 39.144532-3.386718 12.386718-8.425781 24.277343-14.78125 35.179687-20.316406 35.257813-54.75 61.355469-95.628906 70.605469-.332031.082031-.578125.164062-.910156.246094h-.082031c-6.523438-1.402344-12.882813-3.222657-19.15625-5.285157-16.683594-5.617187-32.125-13.875-45.917969-24.277343-40.132812-30.144532-66.0625-78.121094-66.0625-132.128907h123.871094c0-22.546875 9.003906-42.945312 23.617187-57.808593l.578125-.578126c13.132813-13.128906 30.636719-21.882812 50.128906-23.78125 2.722657-.25 46.738282-.414062 49.546876-.414062 22.792968 0 41.289062 18.496094 41.289062 41.289062zm0 0" fill="#ff9811"/><path d="m355.097656 41.289062c0 22.792969-18.5 41.292969-41.292968 41.292969v16.515625c0 13.542969-1.816407 26.671875-5.203126 39.144532-3.382812 12.386718-8.421874 24.277343-14.78125 35.179687-20.3125 35.257813-54.75 61.355469-95.628906 70.605469-10.570312 2.476562-21.636718 3.714844-33.03125 3.714844-9.910156 0-19.570312-.828126-28.988281-2.558594-1.648437-.25-3.300781-.578125-4.953125-.910156.332031-.082032.578125-.164063.910156-.246094 40.875-9.25 75.3125-35.34375 95.628906-70.605469 6.355469-10.902344 11.394532-22.792969 14.78125-35.179687 3.382813-12.46875 5.203126-25.601563 5.203126-39.144532v-16.515625c22.789062 0 41.289062-18.5 41.289062-41.292969 0-22.792968-18.496094-41.289062-41.289062-41.289062h66.0625c22.792968 0 41.292968 18.496094 41.292968 41.289062zm0 0" fill="#ff9811"/><path d="m355.097656 41.289062c0 22.792969-18.5 41.292969-41.292968 41.292969v16.515625c0 13.542969-1.816407 26.671875-5.203126 39.144532-3.382812 12.386718-8.421874 24.277343-14.78125 35.179687-20.3125 35.257813-54.75 61.355469-95.628906 70.605469-10.570312 2.476562-21.636718 3.714844-33.03125 3.714844-9.910156 0-19.570312-.828126-28.988281-2.558594-1.648437-.25-3.300781-.578125-4.953125-.910156.332031-.082032.578125-.164063.910156-.246094 40.875-9.25 75.3125-35.34375 95.628906-70.605469 6.355469-10.902344 11.394532-22.792969 14.78125-35.179687 3.382813-12.46875 5.203126-25.601563 5.203126-39.144532v-16.515625c22.789062 0 41.289062-18.5 41.289062-41.292969 0-22.792968-18.496094-41.289062-41.289062-41.289062h66.0625c22.792968 0 41.292968 18.496094 41.292968 41.289062zm0 0" fill="#e8830a"/><path d="m165.160156 247.742188v57.804687h-8.257812c-50.207032 0-90.839844-40.628906-90.839844-90.839844 13.792969 10.40625 29.234375 18.664063 45.917969 24.28125 7.84375 2.640625 15.9375 4.789063 24.195312 6.191407 9.414063 1.734374 19.074219 2.5625 28.984375 2.5625zm0 0" fill="#ca7300"/><path d="m407.203125 90.839844h-27.332031c0-18.828125-5.285156-36.585938-14.535156-51.613282 19.324218 11.726563 34.273437 29.894532 41.867187 51.613282zm0 0" fill="#a55d07"/><path d="m256 512h-173.417969v-115.613281h57.804688v24.773437l107.355469 84.316406zm0 0" fill="#f072ae"/><path d="m429.417969 396.386719v115.613281h-173.417969l8.257812-6.523438 107.355469-84.316406v-24.773437zm0 0" fill="#f072ae"/><path d="m371.613281 396.386719v24.773437l-107.355469 84.316406-8.257812 6.523438-8.257812-6.523438-107.355469-84.316406v-24.773437zm0 0" fill="#f072ae"/><path d="m0 512h82.582031v-115.613281c-45.609375 0-82.582031 36.972656-82.582031 82.582031zm0 0" fill="#f0beb4"/><path d="m512 512h-82.582031v-115.613281c45.609375 0 82.582031 36.972656 82.582031 82.582031zm0 0" fill="#f0beb4"/><path d="m346.839844 305.546875v-66.0625h16.515625c9.121093 0 16.515625 7.394531 16.515625 16.515625v16.515625c0 18.242187-14.789063 33.03125-33.03125 33.03125zm0 0" fill="#e89182"/><path d="m165.160156 247.742188v57.804687c-18.25 0-33.03125-14.78125-33.03125-33.03125v-16.515625c0-4.128906 1.484375-7.929688 4.046875-10.820312 9.414063 1.734374 19.074219 2.5625 28.984375 2.5625zm0 0" fill="#e89182"/><path d="m147.488281 24.773438c-14.617187 14.863281-23.617187 35.261718-23.617187 57.808593h-66.066406c0-31.960937 25.847656-57.808593 57.808593-57.808593zm0 0" fill="#ca7300"/><path d="m371.613281 396.386719v24.773437l-107.355469 84.316406-8.257812 6.523438-8.257812-6.523438-107.355469-84.316406v-24.773437zm0 0" fill="#f0beb4"/><path d="m264.257812 470.710938v34.765624l-8.257812 6.523438-8.257812-6.523438v-34.765624zm0 0" fill="#e89182"/><path d="m214.710938 330.324219c0 13.679687-11.09375 24.773437-24.777344 24.773437-13.679688 0-24.773438-11.09375-24.773438-24.773437 0-13.683594 11.09375-24.777344 24.773438-24.777344 13.683594 0 24.777344 11.09375 24.777344 24.777344zm0 0" fill="#ff0c38"/><path d="m346.839844 330.324219c0 13.679687-11.09375 24.773437-24.773438 24.773437-13.683594 0-24.777344-11.09375-24.777344-24.773437 0-13.683594 11.09375-24.777344 24.777344-24.777344 13.679688 0 24.773438 11.09375 24.773438 24.777344zm0 0" fill="#ff0c38"/><path d="m256 365.335938c-11.089844 0-22.167969-4.21875-30.613281-12.660157l11.675781-11.675781c10.4375 10.4375 27.4375 10.4375 37.871094 0l11.679687 11.675781c-8.445312 8.441407-19.523437 12.660157-30.613281 12.660157zm0 0" fill="#ff0c38"/><path d="m206.453125 297.289062c-13.664063 0-24.777344-11.113281-24.777344-24.773437v-1.042969c-14.234375-3.679687-24.773437-16.625-24.773437-31.988281h16.515625c0 9.109375 7.414062 16.515625 16.515625 16.515625 4.566406 0 8.261718 3.699219 8.261718 8.257812v8.257813c0 4.554687 3.699219 8.257813 8.257813 8.257813 4.554687 0 8.257813-3.703126 8.257813-8.257813v-8.257813h16.515624v8.257813c0 13.660156-11.113281 24.773437-24.773437 24.773437zm0 0" fill="#f26038"/><path d="m305.546875 297.289062c-13.660156 0-24.773437-11.113281-24.773437-24.773437v-8.257813h16.515624v8.257813c0 4.554687 3.703126 8.257813 8.257813 8.257813 4.558594 0 8.257813-3.703126 8.257813-8.257813v-8.257813c0-4.5625 3.695312-8.257812 8.261718-8.257812 9.101563 0 16.515625-7.40625 16.515625-16.515625h16.515625c0 15.363281-10.539062 28.308594-24.773437 31.988281v1.042969c0 13.660156-11.113281 24.773437-24.777344 24.773437zm0 0" fill="#f26038"/><path d="m280.773438 231.226562h41.292968v16.515626h-41.292968zm0 0" fill="#ff9811"/><path d="m256 330.324219c-13.660156 0-24.773438-11.113281-24.773438-24.777344v-41.289063h16.515626v41.289063c0 4.554687 3.699218 8.257813 8.257812 8.257813 4.554688 0 8.257812-3.703126 8.257812-8.257813h16.515626c0 13.664063-11.113282 24.777344-24.773438 24.777344zm0 0" fill="#f26038"/><path d="m429.417969 396.386719s-3.898438 45.191406-41.289063 82.582031c-33.03125 33.03125-82.582031 33.03125-82.582031 33.03125h123.871094zm0 0" fill="#e84f9f"/><g fill="#fff"><path d="m192.695312 43.636719-5.519531-15.574219c6.179688-2.179688 12.664063-3.289062 19.277344-3.289062v16.515624c-4.734375 0-9.363281.792969-13.757813 2.347657zm0 0"/><path d="m165.160156 82.582031h-16.515625c0-19.410156 9.660157-37.417969 25.839844-48.171875l9.144531 13.757813c-11.566406 7.683593-18.46875 20.550781-18.46875 34.414062zm0 0"/><path d="m445.933594 189.933594v-16.515625c9.105468 0 16.515625-7.40625 16.515625-16.515625h16.519531c0 18.214844-14.816406 33.03125-33.035156 33.03125zm0 0"/><path d="m189.933594 222.96875h-16.515625v-16.515625h16.515625c36.429687 0 66.066406-29.640625 66.066406-66.066406h16.515625c0 45.535156-37.046875 82.582031-82.582031 82.582031zm0 0"/><path d="m140.386719 206.453125h16.515625v16.515625h-16.515625zm0 0"/></g></svg>